<svg width="30" height="30" viewBox="0 0 30 30" fill="none" xmlns="http://www.w3.org/2000/svg">
<g clip-path="url(#clip0_3344_392)">
<path d="M5.63679e-06 4.6875C5.63679e-06 3.94158 0.296322 3.22621 0.823768 2.69876C1.35121 2.17132 2.06658 1.875 2.81251 1.875H23.4375C24.1834 1.875 24.8988 2.17132 25.4262 2.69876C25.9537 3.22621 26.25 3.94158 26.25 4.6875V24.4275C26.25 24.99 26.1563 25.6537 25.8038 26.25H27.1875C27.4361 26.25 27.6746 26.1512 27.8504 25.9754C28.0262 25.7996 28.125 25.5611 28.125 25.3125V8.4375C28.125 8.18886 28.2238 7.9504 28.3996 7.77459C28.5754 7.59877 28.8139 7.5 29.0625 7.5C29.3111 7.5 29.5496 7.59877 29.7254 7.77459C29.9012 7.9504 30 8.18886 30 8.4375V25.3125C30 26.0584 29.7037 26.7738 29.1762 27.3012C28.6488 27.8287 27.9334 28.125 27.1875 28.125H2.80688C2.4378 28.125 2.07235 28.0522 1.73144 27.9108C1.39052 27.7694 1.08084 27.5621 0.820129 27.3009C0.559413 27.0397 0.352777 26.7296 0.21205 26.3884C0.0713222 26.0472 -0.000733998 25.6816 5.63679e-06 25.3125V4.6875ZM22.5 26.25C23.1938 26.25 23.7263 25.8544 24.0994 25.4231C24.2719 25.2244 24.375 24.9 24.375 24.4275V4.6875C24.375 4.43886 24.2762 4.2004 24.1004 4.02459C23.9246 3.84877 23.6861 3.75 23.4375 3.75H2.81251C2.56387 3.75 2.32541 3.84877 2.14959 4.02459C1.97378 4.2004 1.87501 4.43886 1.87501 4.6875V25.3125C1.87501 25.8337 2.29313 26.25 2.80688 26.25H22.5Z" fill="black"/>
<path d="M3.75 5.625H22.5V9.375H3.75V5.625ZM3.75 11.25H11.25V16.875H3.75V11.25ZM3.75 18.75H11.25V20.625H3.75V18.75ZM3.75 22.5H11.25V24.375H3.75V22.5ZM13.125 11.25H16.875V13.125H13.125V11.25ZM18.75 11.25H22.5V13.125H18.75V11.25ZM13.125 15H16.875V16.875H13.125V15ZM18.75 15H22.5V16.875H18.75V15ZM13.125 18.75H16.875V20.625H13.125V18.75ZM18.75 18.75H22.5V20.625H18.75V18.75ZM13.125 22.5H16.875V24.375H13.125V22.5ZM18.75 22.5H22.5V24.375H18.75V22.5Z" fill="black"/>
</g>
<defs>
<clipPath id="clip0_3344_392">
<rect width="30" height="30" fill="white"/>
</clipPath>
</defs>
</svg>
