<svg width="30" height="30" viewBox="0 0 30 30" fill="none" xmlns="http://www.w3.org/2000/svg">
<path d="M14 7.25025C14.4973 7.25025 14.9743 7.05269 15.3259 6.70104C15.6776 6.34938 15.8751 5.87244 15.8751 5.37513C15.8751 4.87781 15.6776 4.40087 15.3259 4.04921C14.9743 3.69756 14.4973 3.5 14 3.5C13.5027 3.5 13.0257 3.69756 12.6741 4.04921C12.3224 4.40087 12.1249 4.87781 12.1249 5.37513C12.1249 5.87244 12.3224 6.34938 12.6741 6.70104C13.0257 7.05269 13.5027 7.25025 14 7.25025ZM5.83101 9.82275L11.501 10.3757V14.7507L10.9358 22.7745C10.9262 22.9394 10.9779 23.1021 11.081 23.2312C11.184 23.3603 11.3311 23.4469 11.494 23.4742C11.6569 23.5015 11.8242 23.4677 11.9637 23.3793C12.1032 23.2909 12.2052 23.154 12.25 22.995L13.6955 15.9653C13.7743 15.6503 14.2223 15.6503 14.301 15.9653L15.75 22.9932C15.7932 23.1539 15.8947 23.2928 16.0346 23.3828C16.1746 23.4728 16.343 23.5076 16.5071 23.4803C16.6713 23.453 16.8194 23.3657 16.9227 23.2352C17.026 23.1047 17.0771 22.9405 17.066 22.7745L16.5025 14.7525V10.3775L22.1708 9.8245C22.336 9.80056 22.4862 9.71534 22.5915 9.58577C22.6968 9.45619 22.7495 9.29175 22.7391 9.12511C22.7288 8.95847 22.6561 8.80182 22.5356 8.68628C22.415 8.57075 22.2554 8.50479 22.0885 8.5015H5.91326C5.74632 8.50479 5.58674 8.57075 5.4662 8.68628C5.34566 8.80182 5.27299 8.95847 5.26263 9.12511C5.25227 9.29175 5.30498 9.45619 5.41028 9.58577C5.51558 9.71534 5.66577 9.79881 5.83101 9.82275Z" fill="black"/>
<path d="M14 0C10.287 0 6.72601 1.475 4.10051 4.10051C1.475 6.72601 0 10.287 0 14C0 17.713 1.475 21.274 4.10051 23.8995C6.72601 26.525 10.287 28 14 28C17.713 28 21.274 26.525 23.8995 23.8995C26.525 21.274 28 17.713 28 14C28 10.287 26.525 6.72601 23.8995 4.10051C21.274 1.475 17.713 0 14 0ZM1.75 14C1.75 10.7511 3.04062 7.63526 5.33794 5.33794C7.63526 3.04062 10.7511 1.75 14 1.75C17.2489 1.75 20.3647 3.04062 22.6621 5.33794C24.9594 7.63526 26.25 10.7511 26.25 14C26.25 17.2489 24.9594 20.3647 22.6621 22.6621C20.3647 24.9594 17.2489 26.25 14 26.25C10.7511 26.25 7.63526 24.9594 5.33794 22.6621C3.04062 20.3647 1.75 17.2489 1.75 14Z" fill="black"/>
</svg>
