<svg width="30" height="30" viewBox="0 0 30 30" fill="none" xmlns="http://www.w3.org/2000/svg">
<path d="M4.6875 6.5625C4.43886 6.5625 4.2004 6.46373 4.02459 6.28791C3.84877 6.1121 3.75 5.87364 3.75 5.625C3.75 5.37636 3.84877 5.1379 4.02459 4.96209C4.2004 4.78627 4.43886 4.6875 4.6875 4.6875H25.3125C25.5611 4.6875 25.7996 4.78627 25.9754 4.96209C26.1512 5.1379 26.25 5.37636 26.25 5.625C26.25 5.87364 26.1512 6.1121 25.9754 6.28791C25.7996 6.46373 25.5611 6.5625 25.3125 6.5625H4.6875ZM8.4375 2.8125C8.18886 2.8125 7.9504 2.71373 7.77459 2.53791C7.59877 2.3621 7.5 2.12364 7.5 1.875C7.5 1.62636 7.59877 1.3879 7.77459 1.21209C7.9504 1.03627 8.18886 0.9375 8.4375 0.9375H21.5625C21.8111 0.9375 22.0496 1.03627 22.2254 1.21209C22.4012 1.3879 22.5 1.62636 22.5 1.875C22.5 2.12364 22.4012 2.3621 22.2254 2.53791C22.0496 2.71373 21.8111 2.8125 21.5625 2.8125H8.4375ZM0 24.375C0 25.1209 0.296316 25.8363 0.823762 26.3637C1.35121 26.8912 2.06658 27.1875 2.8125 27.1875H27.1875C27.9334 27.1875 28.6488 26.8912 29.1762 26.3637C29.7037 25.8363 30 25.1209 30 24.375V11.25C30 10.5041 29.7037 9.78871 29.1762 9.26126C28.6488 8.73382 27.9334 8.4375 27.1875 8.4375H2.8125C2.06658 8.4375 1.35121 8.73382 0.823762 9.26126C0.296316 9.78871 0 10.5041 0 11.25L0 24.375ZM2.8125 25.3125C2.56386 25.3125 2.3254 25.2137 2.14959 25.0379C1.97377 24.8621 1.875 24.6236 1.875 24.375V11.25C1.875 11.0014 1.97377 10.7629 2.14959 10.5871C2.3254 10.4113 2.56386 10.3125 2.8125 10.3125H27.1875C27.4361 10.3125 27.6746 10.4113 27.8504 10.5871C28.0262 10.7629 28.125 11.0014 28.125 11.25V24.375C28.125 24.6236 28.0262 24.8621 27.8504 25.0379C27.6746 25.2137 27.4361 25.3125 27.1875 25.3125H2.8125Z" fill="black"/>
</svg>
