<svg width="30" height="30" viewBox="0 0 30 30" fill="none" xmlns="http://www.w3.org/2000/svg">
<path d="M15 9.375C15.3693 9.375 15.7351 9.30225 16.0763 9.16091C16.4175 9.01957 16.7276 8.8124 16.9887 8.55124C17.2499 8.29007 17.4571 7.98003 17.5984 7.6388C17.7398 7.29757 17.8125 6.93184 17.8125 6.5625C17.8125 6.19316 17.7398 5.82743 17.5984 5.4862C17.4571 5.14497 17.2499 4.83493 16.9887 4.57376C16.7276 4.3126 16.4175 4.10543 16.0763 3.96409C15.7351 3.82275 15.3693 3.75 15 3.75C14.2541 3.75 13.5387 4.04632 13.0113 4.57376C12.4838 5.10121 12.1875 5.81658 12.1875 6.5625C12.1875 7.30842 12.4838 8.02379 13.0113 8.55124C13.5387 9.07868 14.2541 9.375 15 9.375ZM15 16.875C15.7459 16.875 16.4613 16.5787 16.9887 16.0512C17.5162 15.5238 17.8125 14.8084 17.8125 14.0625C17.8125 13.3166 17.5162 12.6012 16.9887 12.0738C16.4613 11.5463 15.7459 11.25 15 11.25C14.2541 11.25 13.5387 11.5463 13.0113 12.0738C12.4838 12.6012 12.1875 13.3166 12.1875 14.0625C12.1875 14.8084 12.4838 15.5238 13.0113 16.0512C13.5387 16.5787 14.2541 16.875 15 16.875ZM17.8125 21.5625C17.8125 22.3084 17.5162 23.0238 16.9887 23.5512C16.4613 24.0787 15.7459 24.375 15 24.375C14.2541 24.375 13.5387 24.0787 13.0113 23.5512C12.4838 23.0238 12.1875 22.3084 12.1875 21.5625C12.1875 20.8166 12.4838 20.1012 13.0113 19.5738C13.5387 19.0463 14.2541 18.75 15 18.75C15.7459 18.75 16.4613 19.0463 16.9887 19.5738C17.5162 20.1012 17.8125 20.8166 17.8125 21.5625Z" fill="black"/>
<path d="M7.5 3.75C7.5 2.75544 7.89509 1.80161 8.59835 1.09835C9.30161 0.395088 10.2554 0 11.25 0L18.75 0C19.7446 0 20.6984 0.395088 21.4016 1.09835C22.1049 1.80161 22.5 2.75544 22.5 3.75H26.25C25.9369 4.6875 24.75 6.75 22.5 7.5V11.25H26.25C25.9369 12.1875 24.75 14.25 22.5 15V18.75H26.25C25.9369 19.6875 24.75 21.75 22.5 22.5V24.375C22.5 25.3696 22.1049 26.3234 21.4016 27.0266C20.6984 27.7299 19.7446 28.125 18.75 28.125H11.25C10.2554 28.125 9.30161 27.7299 8.59835 27.0266C7.89509 26.3234 7.5 25.3696 7.5 24.375V22.5C5.25 21.75 4.06312 19.6875 3.75 18.75H7.5V15C5.25 14.25 4.06312 12.1875 3.75 11.25H7.5V7.5C5.25 6.75 4.06312 4.6875 3.75 3.75H7.5ZM11.25 1.875C10.7527 1.875 10.2758 2.07254 9.92418 2.42417C9.57254 2.77581 9.375 3.25272 9.375 3.75V24.375C9.375 24.8723 9.57254 25.3492 9.92418 25.7008C10.2758 26.0525 10.7527 26.25 11.25 26.25H18.75C19.2473 26.25 19.7242 26.0525 20.0758 25.7008C20.4275 25.3492 20.625 24.8723 20.625 24.375V3.75C20.625 3.25272 20.4275 2.77581 20.0758 2.42417C19.7242 2.07254 19.2473 1.875 18.75 1.875H11.25Z" fill="black"/>
</svg>
