<svg width="30" height="30" viewBox="0 0 30 30" fill="none" xmlns="http://www.w3.org/2000/svg">
<g clip-path="url(#clip0_3344_394)">
<path d="M25.3128 1.8751C24.5668 1.8751 23.8515 2.17142 23.324 2.69886C22.7966 3.22631 22.5003 3.94168 22.5003 4.6876C22.5003 5.43352 22.7966 6.14889 23.324 6.67634C23.8515 7.20378 24.5668 7.5001 25.3128 7.5001C26.0587 7.5001 26.774 7.20378 27.3015 6.67634C27.8289 6.14889 28.1253 5.43352 28.1253 4.6876C28.1253 3.94168 27.8289 3.22631 27.3015 2.69886C26.774 2.17142 26.0587 1.8751 25.3128 1.8751ZM20.6253 4.6876C20.6251 3.58779 21.0117 2.52294 21.7174 1.67937C22.4231 0.8358 23.4029 0.26722 24.4854 0.0731076C25.568 -0.121004 26.6843 0.0717131 27.6391 0.617543C28.5939 1.16337 29.3264 2.02756 29.7084 3.0589C30.0904 4.09024 30.0976 5.22306 29.7287 6.25917C29.3599 7.29529 28.6384 8.1687 27.6906 8.72662C26.7428 9.28453 25.629 9.49142 24.5441 9.31107C23.4592 9.13073 22.4722 8.57464 21.7559 7.7401L9.15963 13.5901C9.44908 14.5078 9.44908 15.4924 9.15963 16.4101L21.7559 22.2601C22.5131 21.3795 23.5702 20.8113 24.7225 20.6657C25.8747 20.5201 27.04 20.8074 27.9925 21.472C28.9449 22.1366 29.6168 23.1311 29.8778 24.2628C30.1387 25.3945 29.9703 26.5828 29.4051 27.5974C28.8399 28.612 27.9182 29.3807 26.8185 29.7544C25.7189 30.1281 24.5197 30.0803 23.4533 29.6202C22.3869 29.1602 21.5292 28.3206 21.0466 27.2642C20.5639 26.2079 20.4906 25.0099 20.8409 23.9026L8.24463 18.0526C7.62107 18.7793 6.78991 19.2976 5.86296 19.5378C4.93602 19.7779 3.95775 19.7285 3.05976 19.396C2.16177 19.0635 1.38715 18.464 0.840079 17.6781C0.293014 16.8922 -0.000244141 15.9577 -0.000244141 15.0001C-0.000244141 14.0425 0.293014 13.108 0.840079 12.3221C1.38715 11.5362 2.16177 10.9367 3.05976 10.6042C3.95775 10.2717 4.93602 10.2223 5.86296 10.4624C6.78991 10.7026 7.62107 11.2209 8.24463 11.9476L20.8409 6.0976C20.6975 5.64135 20.6248 5.16585 20.6253 4.6876ZM4.68775 12.1876C3.94183 12.1876 3.22646 12.4839 2.69902 13.0114C2.17157 13.5388 1.87525 14.2542 1.87525 15.0001C1.87525 15.746 2.17157 16.4614 2.69902 16.9888C3.22646 17.5163 3.94183 17.8126 4.68775 17.8126C5.43367 17.8126 6.14904 17.5163 6.67649 16.9888C7.20394 16.4614 7.50025 15.746 7.50025 15.0001C7.50025 14.2542 7.20394 13.5388 6.67649 13.0114C6.14904 12.4839 5.43367 12.1876 4.68775 12.1876ZM25.3128 22.5001C24.5668 22.5001 23.8515 22.7964 23.324 23.3239C22.7966 23.8513 22.5003 24.5667 22.5003 25.3126C22.5003 26.0585 22.7966 26.7739 23.324 27.3013C23.8515 27.8288 24.5668 28.1251 25.3128 28.1251C26.0587 28.1251 26.774 27.8288 27.3015 27.3013C27.8289 26.7739 28.1253 26.0585 28.1253 25.3126C28.1253 24.5667 27.8289 23.8513 27.3015 23.3239C26.774 22.7964 26.0587 22.5001 25.3128 22.5001Z" fill="black"/>
</g>
<defs>
<clipPath id="clip0_3344_394">
<rect width="30" height="30" fill="white"/>
</clipPath>
</defs>
</svg>
