<svg width="30" height="30" viewBox="0 0 30 30" fill="none" xmlns="http://www.w3.org/2000/svg">
<g clip-path="url(#clip0_3420_309)">
<path d="M3.75 5.625C3.75 4.58945 4.58945 3.75 5.625 3.75C6.66055 3.75 7.5 4.58945 7.5 5.625C7.5 6.66055 6.66055 7.5 5.625 7.5C4.58945 7.5 3.75 6.66055 3.75 5.625Z" fill="black"/>
<path d="M10.3125 3.75C9.27695 3.75 8.4375 4.58945 8.4375 5.625C8.4375 6.66055 9.27695 7.5 10.3125 7.5C11.3481 7.5 12.1875 6.66055 12.1875 5.625C12.1875 4.58945 11.3481 3.75 10.3125 3.75Z" fill="black"/>
<path d="M13.125 5.625C13.125 4.58945 13.9645 3.75 15 3.75C16.0356 3.75 16.875 4.58945 16.875 5.625C16.875 6.66055 16.0356 7.5 15 7.5C13.9645 7.5 13.125 6.66055 13.125 5.625Z" fill="black"/>
<path fill-rule="evenodd" clip-rule="evenodd" d="M30 4.6875C30 2.09875 27.9013 0 25.3125 0H4.6875C2.09875 0 0 2.09862 0 4.6875V25.3125C0 27.9013 2.09862 30 4.6875 30H25.3125C27.9013 30 30 27.9013 30 25.3125V4.6875ZM1.875 25.3125V11.25H28.125V25.3125C28.125 26.8658 26.8658 28.125 25.3125 28.125H4.6875C3.13418 28.125 1.875 26.8658 1.875 25.3125ZM28.125 4.6875V9.375H1.875V4.6875C1.875 3.13418 3.13418 1.875 4.6875 1.875H25.3125C26.6716 1.875 27.8056 2.83905 28.0677 4.1207C28.1052 4.30381 28.1249 4.49335 28.1249 4.6875H28.125Z" fill="black"/>
</g>
<defs>
<clipPath id="clip0_3420_309">
<rect width="30" height="30" fill="white"/>
</clipPath>
</defs>
</svg>
