<svg width="30" height="30" viewBox="0 0 30 30" fill="none" xmlns="http://www.w3.org/2000/svg">
<g clip-path="url(#clip0_3414_8)">
<path d="M30 13.1252C30 13.6224 29.8025 14.0994 29.4508 14.451C29.0992 14.8026 28.6223 15.0002 28.125 15.0002V21.5627C28.125 23.0964 27.3881 24.4577 26.25 25.3127V29.0627C26.25 29.3113 26.1512 29.5498 25.9754 29.7256C25.7996 29.9014 25.5611 30.0002 25.3125 30.0002H21.5625C21.3139 30.0002 21.0754 29.9014 20.8996 29.7256C20.7238 29.5498 20.625 29.3113 20.625 29.0627V26.2502H9.375V29.0627C9.375 29.3113 9.27623 29.5498 9.10041 29.7256C8.9246 29.9014 8.68614 30.0002 8.4375 30.0002H4.6875C4.43886 30.0002 4.2004 29.9014 4.02459 29.7256C3.84877 29.5498 3.75 29.3113 3.75 29.0627V25.3127C3.16783 24.876 2.69531 24.3099 2.36987 23.659C2.04443 23.0081 1.875 22.2904 1.875 21.5627V15.0002C1.37772 15.0002 0.900806 14.8026 0.549175 14.451C0.197544 14.0994 0 13.6224 0 13.1252V9.37516C0 8.87788 0.197544 8.40096 0.549175 8.04933C0.900806 7.6977 1.37772 7.50016 1.875 7.50016V4.95016C1.875 2.72266 3.45937 0.765159 5.745 0.502659C8.81815 0.161859 11.908 -0.0059059 15 0.000158691C18.9375 0.000158691 22.11 0.255159 24.255 0.502659C26.5406 0.765159 28.125 2.72266 28.125 4.95016V7.50016C28.6223 7.50016 29.0992 7.6977 29.4508 8.04933C29.8025 8.40096 30 8.87788 30 9.37516V13.1252ZM6.66 6.03766C9.43101 5.75619 12.2147 5.61851 15 5.62516C18.4444 5.62516 21.2869 5.82578 23.34 6.03766C23.5825 6.05475 23.8222 5.97695 24.0085 5.82067C24.1948 5.66439 24.313 5.44185 24.3383 5.20003C24.3636 4.95821 24.294 4.71602 24.1441 4.52457C23.9942 4.33312 23.7758 4.20739 23.535 4.17391C20.6992 3.88531 17.8504 3.74387 15 3.75016C11.4825 3.75016 8.57625 3.95453 6.465 4.17391C6.33952 4.18275 6.21711 4.21676 6.10505 4.27389C5.99299 4.33103 5.89357 4.41014 5.81272 4.5065C5.73187 4.60287 5.67123 4.71451 5.63443 4.8348C5.59763 4.95508 5.58541 5.08154 5.5985 5.20665C5.61159 5.33175 5.64972 5.45294 5.71062 5.563C5.77153 5.67306 5.85396 5.76974 5.953 5.84728C6.05205 5.92482 6.16569 5.98164 6.28715 6.01434C6.40861 6.04705 6.53541 6.05498 6.66 6.03766ZM15 7.50016C11.4825 7.50016 8.57625 7.70453 6.465 7.92391C6.23459 7.948 6.02126 8.05655 5.86615 8.22863C5.71104 8.4007 5.62513 8.62412 5.625 8.85578V15.5195C5.62513 15.7512 5.71104 15.9746 5.86615 16.1467C6.02126 16.3188 6.23459 16.4273 6.465 16.4514C8.57625 16.6708 11.4825 16.8752 15 16.8752C18.5175 16.8752 21.4237 16.6708 23.535 16.4514C23.7654 16.4273 23.9787 16.3188 24.1339 16.1467C24.289 15.9746 24.3749 15.7512 24.375 15.5195V8.85578C24.3749 8.62412 24.289 8.4007 24.1339 8.22863C23.9787 8.05655 23.7654 7.948 23.535 7.92391C20.6992 7.63531 17.8504 7.49387 15 7.50016ZM9.375 20.6252C9.375 20.1279 9.17746 19.651 8.82582 19.2993C8.47419 18.9477 7.99728 18.7502 7.5 18.7502C7.00272 18.7502 6.52581 18.9477 6.17417 19.2993C5.82254 19.651 5.625 20.1279 5.625 20.6252C5.625 21.1224 5.82254 21.5994 6.17417 21.951C6.52581 22.3026 7.00272 22.5002 7.5 22.5002C7.99728 22.5002 8.47419 22.3026 8.82582 21.951C9.17746 21.5994 9.375 21.1224 9.375 20.6252ZM24.375 20.6252C24.375 20.1279 24.1775 19.651 23.8258 19.2993C23.4742 18.9477 22.9973 18.7502 22.5 18.7502C22.0027 18.7502 21.5258 18.9477 21.1742 19.2993C20.8225 19.651 20.625 20.1279 20.625 20.6252C20.625 21.1224 20.8225 21.5994 21.1742 21.951C21.5258 22.3026 22.0027 22.5002 22.5 22.5002C22.9973 22.5002 23.4742 22.3026 23.8258 21.951C24.1775 21.5994 24.375 21.1224 24.375 20.6252ZM11.25 20.6252C11.25 21.1224 11.4475 21.5994 11.7992 21.951C12.1508 22.3026 12.6277 22.5002 13.125 22.5002H16.875C17.3723 22.5002 17.8492 22.3026 18.2008 21.951C18.5525 21.5994 18.75 21.1224 18.75 20.6252C18.75 20.1279 18.5525 19.651 18.2008 19.2993C17.8492 18.9477 17.3723 18.7502 16.875 18.7502H13.125C12.6277 18.7502 12.1508 18.9477 11.7992 19.2993C11.4475 19.651 11.25 20.1279 11.25 20.6252Z" fill="black"/>
</g>
<defs>
<clipPath id="clip0_3414_8">
<rect width="30" height="30" fill="white"/>
</clipPath>
</defs>
</svg>
