<svg width="30" height="30" viewBox="0 0 30 30" fill="none" xmlns="http://www.w3.org/2000/svg">
<path d="M15.9375 18.75C15.42 18.75 15 17.91 15 16.875C15 15.84 15.42 15 15.9375 15C16.455 15 16.875 15.84 16.875 16.875C16.875 17.91 16.455 18.75 15.9375 18.75Z" fill="black"/>
<path d="M20.3025 0.228792C20.4039 0.316923 20.4852 0.425818 20.5408 0.5481C20.5965 0.670382 20.6252 0.803195 20.625 0.937541V1.87504H21.5625C22.3084 1.87504 23.0238 2.17136 23.5512 2.6988C24.0787 3.22625 24.375 3.94162 24.375 4.68754V28.125H27.1875C27.4361 28.125 27.6746 28.2238 27.8504 28.3996C28.0262 28.5754 28.125 28.8139 28.125 29.0625C28.125 29.3112 28.0262 29.5496 27.8504 29.7255C27.6746 29.9013 27.4361 30 27.1875 30H2.8125C2.56386 30 2.3254 29.9013 2.14959 29.7255C1.97377 29.5496 1.875 29.3112 1.875 29.0625C1.875 28.8139 1.97377 28.5754 2.14959 28.3996C2.3254 28.2238 2.56386 28.125 2.8125 28.125H5.625V2.81254C5.62503 2.58666 5.70662 2.36839 5.85475 2.19787C6.00288 2.02735 6.2076 1.91604 6.43125 1.88442L19.5563 0.00941652C19.6891 -0.00955483 19.8245 0.000212698 19.9532 0.0380589C20.0819 0.0759052 20.2011 0.140948 20.3025 0.228792ZM21.5625 3.75004H20.625V28.125H22.5V4.68754C22.5 4.4389 22.4012 4.20044 22.2254 4.02463C22.0496 3.84881 21.8111 3.75004 21.5625 3.75004ZM7.5 3.62629V28.125H18.75V2.01942L7.5 3.62629Z" fill="black"/>
</svg>
