<svg width="30" height="30" viewBox="0 0 30 30" fill="none" xmlns="http://www.w3.org/2000/svg">
<path d="M13.5881 20.8875L4.59558 10.6088C3.53433 9.39938 4.39683 7.5 6.00746 7.5H23.9925C24.3529 7.49969 24.7058 7.60329 25.0089 7.79839C25.312 7.99349 25.5524 8.27182 25.7014 8.60005C25.8504 8.92828 25.9016 9.2925 25.8489 9.64908C25.7962 10.0057 25.6419 10.3395 25.4043 10.6106L16.4118 20.8856C16.2358 21.087 16.0188 21.2484 15.7753 21.359C15.5318 21.4696 15.2674 21.5268 15 21.5268C14.7325 21.5268 14.4681 21.4696 14.2246 21.359C13.9811 21.2484 13.7641 21.087 13.5881 20.8856V20.8875Z" fill="black"/>
</svg>
