<svg width="30" height="30" viewBox="0 0 30 30" fill="none" xmlns="http://www.w3.org/2000/svg">
<g clip-path="url(#clip0_3396_349)">
<path d="M15 28.125C11.519 28.125 8.18064 26.7422 5.71922 24.2808C3.25781 21.8194 1.875 18.481 1.875 15C1.875 11.519 3.25781 8.18064 5.71922 5.71922C8.18064 3.25781 11.519 1.875 15 1.875C18.481 1.875 21.8194 3.25781 24.2808 5.71922C26.7422 8.18064 28.125 11.519 28.125 15C28.125 18.481 26.7422 21.8194 24.2808 24.2808C21.8194 26.7422 18.481 28.125 15 28.125ZM15 30C18.9782 30 22.7936 28.4196 25.6066 25.6066C28.4196 22.7936 30 18.9782 30 15C30 11.0218 28.4196 7.20644 25.6066 4.3934C22.7936 1.58035 18.9782 0 15 0C11.0218 0 7.20644 1.58035 4.3934 4.3934C1.58035 7.20644 0 11.0218 0 15C0 18.9782 1.58035 22.7936 4.3934 25.6066C7.20644 28.4196 11.0218 30 15 30Z" fill="black"/>
<path d="M8.71122 8.71146C8.7983 8.62415 8.90176 8.55489 9.01565 8.50762C9.12955 8.46036 9.25165 8.43604 9.37497 8.43604C9.49828 8.43604 9.62038 8.46036 9.73428 8.50762C9.84818 8.55489 9.95163 8.62415 10.0387 8.71146L15 13.6746L19.9612 8.71146C20.0484 8.6243 20.1519 8.55515 20.2657 8.50798C20.3796 8.46081 20.5017 8.43653 20.625 8.43653C20.7482 8.43653 20.8703 8.46081 20.9842 8.50798C21.0981 8.55515 21.2016 8.6243 21.2887 8.71146C21.3759 8.79863 21.445 8.9021 21.4922 9.01599C21.5394 9.12988 21.5637 9.25194 21.5637 9.37521C21.5637 9.49848 21.5394 9.62054 21.4922 9.73443C21.445 9.84832 21.3759 9.9518 21.2887 10.039L16.3256 15.0002L21.2887 19.9615C21.3759 20.0486 21.445 20.1521 21.4922 20.266C21.5394 20.3799 21.5637 20.5019 21.5637 20.6252C21.5637 20.7485 21.5394 20.8705 21.4922 20.9844C21.445 21.0983 21.3759 21.2018 21.2887 21.289C21.2016 21.3761 21.0981 21.4453 20.9842 21.4924C20.8703 21.5396 20.7482 21.5639 20.625 21.5639C20.5017 21.5639 20.3796 21.5396 20.2657 21.4924C20.1519 21.4453 20.0484 21.3761 19.9612 21.289L15 16.3258L10.0387 21.289C9.95155 21.3761 9.84807 21.4453 9.73419 21.4924C9.6203 21.5396 9.49824 21.5639 9.37497 21.5639C9.2517 21.5639 9.12963 21.5396 9.01575 21.4924C8.90186 21.4453 8.79838 21.3761 8.71122 21.289C8.62405 21.2018 8.55491 21.0983 8.50774 20.9844C8.46056 20.8705 8.43628 20.7485 8.43628 20.6252C8.43628 20.5019 8.46056 20.3799 8.50774 20.266C8.55491 20.1521 8.62405 20.0486 8.71122 19.9615L13.6743 15.0002L8.71122 10.039C8.62391 9.95188 8.55464 9.84842 8.50738 9.73452C8.46012 9.62063 8.43579 9.49852 8.43579 9.37521C8.43579 9.2519 8.46012 9.12979 8.50738 9.0159C8.55464 8.902 8.62391 8.79855 8.71122 8.71146Z" fill="black"/>
</g>
<defs>
<clipPath id="clip0_3396_349">
<rect width="30" height="30" fill="white"/>
</clipPath>
</defs>
</svg>
