<svg width="30" height="30" viewBox="0 0 30 30" fill="none" xmlns="http://www.w3.org/2000/svg">
<path d="M6.56249 21.5625C5.38813 21.5623 4.23536 21.2469 3.22442 20.6493C2.21348 20.0517 1.38142 19.1938 0.815033 18.1651C0.248648 17.1363 -0.0313065 15.9744 0.00437299 14.8006C0.0400525 13.6268 0.390059 12.4841 1.01788 11.4916C1.6457 10.4992 2.52833 9.69339 3.5737 9.1583C4.61907 8.62322 5.78887 8.37845 6.96107 8.44954C8.13328 8.52062 9.26493 8.90495 10.238 9.56243C11.211 10.2199 11.9898 11.1265 12.4931 12.1875H26.25L29.0625 15L26.25 17.8125L24.375 15.9375L22.5 17.8125L20.625 15.9375L18.75 17.8125L16.875 15.9375L15 17.8125H12.4931C11.9608 18.9347 11.1209 19.8829 10.0711 20.5467C9.02125 21.2105 7.80458 21.5628 6.56249 21.5625ZM4.68749 16.875C5.18477 16.875 5.66168 16.6775 6.01331 16.3258C6.36495 15.9742 6.56249 15.4973 6.56249 15C6.56249 14.5027 6.36495 14.0258 6.01331 13.6742C5.66168 13.3225 5.18477 13.125 4.68749 13.125C4.19021 13.125 3.71329 13.3225 3.36166 13.6742C3.01003 14.0258 2.81249 14.5027 2.81249 15C2.81249 15.4973 3.01003 15.9742 3.36166 16.3258C3.71329 16.6775 4.19021 16.875 4.68749 16.875Z" fill="black"/>
</svg>
