<svg width="30" height="30" viewBox="0 0 30 30" fill="none" xmlns="http://www.w3.org/2000/svg">
<g clip-path="url(#clip0_3415_31)">
<path d="M15.3488 2.08701C15.1249 1.9973 14.8751 1.9973 14.6512 2.08701L3.46125 6.56264L7.96875 8.36451L19.5075 3.75014L15.3488 2.08701ZM22.0312 4.76076L10.4925 9.37514L15 11.177L26.5387 6.56264L22.0312 4.76076ZM28.125 7.94826L15.9375 12.8233V27.677L28.125 22.802V7.94826ZM14.0625 27.6789V12.8214L1.875 7.94826V22.8039L14.0625 27.6789ZM13.9556 0.345138C14.6261 0.0770114 15.3739 0.0770114 16.0444 0.345138L29.4112 5.69264C29.585 5.76229 29.734 5.88237 29.8389 6.03743C29.9439 6.19249 30 6.37541 30 6.56264V22.8039C29.9998 23.1786 29.8873 23.5446 29.6771 23.8547C29.4669 24.1648 29.1686 24.4049 28.8206 24.5439L15.3488 29.9326C15.1249 30.0223 14.8751 30.0223 14.6512 29.9326L1.18125 24.5439C0.832971 24.4052 0.534267 24.1653 0.323704 23.8551C0.113141 23.5449 0.000386867 23.1788 0 22.8039L0 6.56264C4.35749e-05 6.37541 0.0561445 6.19249 0.161076 6.03743C0.266007 5.88237 0.414961 5.76229 0.58875 5.69264L13.9556 0.345138Z" fill="black"/>
</g>
<defs>
<clipPath id="clip0_3415_31">
<rect width="30" height="30" fill="white"/>
</clipPath>
</defs>
</svg>
