<svg width="30" height="30" viewBox="0 0 30 30" fill="none" xmlns="http://www.w3.org/2000/svg">
<path d="M12.1875 27.1877V20.6158C12.1875 20.1565 12.6563 19.6877 13.125 19.6877H16.875C17.3438 19.6877 17.8125 20.1565 17.8125 20.6252V27.1877C17.8125 27.4364 17.9113 27.6748 18.0871 27.8506C18.2629 28.0264 18.5014 28.1252 18.75 28.1252H26.25C26.4986 28.1252 26.7371 28.0264 26.9129 27.8506C27.0887 27.6748 27.1875 27.4364 27.1875 27.1877V14.0627C27.1877 13.9395 27.1637 13.8175 27.1167 13.7036C27.0697 13.5897 27.0008 13.4862 26.9138 13.399L24.375 10.8621V4.68771C24.375 4.43907 24.2762 4.20061 24.1004 4.0248C23.9246 3.84898 23.6861 3.75021 23.4375 3.75021H21.5625C21.3139 3.75021 21.0754 3.84898 20.8996 4.0248C20.7238 4.20061 20.625 4.43907 20.625 4.68771V7.11209L15.6638 2.14896C15.5767 2.06165 15.4732 1.99239 15.3593 1.94512C15.2454 1.89786 15.1233 1.87354 15 1.87354C14.8767 1.87354 14.7546 1.89786 14.6407 1.94512C14.5268 1.99239 14.4233 2.06165 14.3363 2.14896L3.08625 13.399C2.99925 13.4862 2.93029 13.5897 2.88332 13.7036C2.83635 13.8175 2.81228 13.9395 2.8125 14.0627V27.1877C2.8125 27.4364 2.91127 27.6748 3.08709 27.8506C3.2629 28.0264 3.50136 28.1252 3.75 28.1252H11.25C11.4986 28.1252 11.7371 28.0264 11.9129 27.8506C12.0887 27.6748 12.1875 27.4364 12.1875 27.1877Z" fill="black"/>
</svg>
