<svg width="30" height="30" viewBox="0 0 30 30" fill="none" xmlns="http://www.w3.org/2000/svg">
<path d="M4.02371 5.35146C3.93655 5.26429 3.86741 5.16081 3.82023 5.04693C3.77306 4.93304 3.74878 4.81098 3.74878 4.68771C3.74878 4.56444 3.77306 4.44238 3.82023 4.32849C3.86741 4.2146 3.93655 4.11112 4.02371 4.02396C4.11088 3.93679 4.21436 3.86765 4.32824 3.82048C4.44213 3.7733 4.56419 3.74902 4.68746 3.74902C4.81073 3.74902 4.9328 3.7733 5.04668 3.82048C5.16057 3.86765 5.26405 3.93679 5.35121 4.02396L15 13.6746L24.6487 4.02396C24.7359 3.93679 24.8394 3.86765 24.9532 3.82048C25.0671 3.7733 25.1892 3.74902 25.3125 3.74902C25.4357 3.74902 25.5578 3.7733 25.6717 3.82048C25.7856 3.86765 25.889 3.93679 25.9762 4.02396C26.0634 4.11112 26.1325 4.2146 26.1797 4.32849C26.2269 4.44238 26.2511 4.56444 26.2511 4.68771C26.2511 4.81098 26.2269 4.93304 26.1797 5.04693C26.1325 5.16081 26.0634 5.26429 25.9762 5.35146L16.3256 15.0002L25.9762 24.649C26.0634 24.7361 26.1325 24.8396 26.1797 24.9535C26.2269 25.0674 26.2511 25.1894 26.2511 25.3127C26.2511 25.436 26.2269 25.558 26.1797 25.6719C26.1325 25.7858 26.0634 25.8893 25.9762 25.9765C25.889 26.0636 25.7856 26.1328 25.6717 26.1799C25.5578 26.2271 25.4357 26.2514 25.3125 26.2514C25.1892 26.2514 25.0671 26.2271 24.9532 26.1799C24.8394 26.1328 24.7359 26.0636 24.6487 25.9765L15 16.3258L5.35121 25.9765C5.26405 26.0636 5.16057 26.1328 5.04668 26.1799C4.9328 26.2271 4.81073 26.2514 4.68746 26.2514C4.56419 26.2514 4.44213 26.2271 4.32824 26.1799C4.21436 26.1328 4.11088 26.0636 4.02371 25.9765C3.93655 25.8893 3.86741 25.7858 3.82023 25.6719C3.77306 25.558 3.74878 25.436 3.74878 25.3127C3.74878 25.1894 3.77306 25.0674 3.82023 24.9535C3.86741 24.8396 3.93655 24.7361 4.02371 24.649L13.6743 15.0002L4.02371 5.35146Z" fill="black"/>
</svg>
