<svg width="30" height="30" viewBox="0 0 30 30" fill="none" xmlns="http://www.w3.org/2000/svg">
<g clip-path="url(#clip0_3401_296)">
<path d="M4.72496 6.59063C5.08665 5.74688 5.68814 5.0279 6.45477 4.52292C7.22141 4.01794 8.11945 3.74919 9.03746 3.75H20.9662C22.8412 3.75 24.5362 4.8675 25.275 6.59063L26.76 10.0556C26.9006 10.3838 27.1537 10.6538 27.4725 10.8131C28.41 11.2819 29.0756 12.1538 29.2818 13.1794L29.91 16.3275C29.9725 16.63 30.0031 16.9363 30.0018 17.2463V18.0206C30.0018 19.5469 29.2706 20.9138 28.1268 21.765V25.3125C28.1268 25.5611 28.0281 25.7996 27.8522 25.9754C27.6764 26.1512 27.438 26.25 27.1893 26.25H23.4393C23.1907 26.25 22.9522 26.1512 22.7764 25.9754C22.6006 25.7996 22.5018 25.5611 22.5018 25.3125V22.8038C20.0793 22.8938 17.355 22.9688 15.0018 22.9688C12.6487 22.9688 9.92433 22.8938 7.50183 22.8038V25.3125C7.50183 25.5611 7.40306 25.7996 7.22724 25.9754C7.05143 26.1512 6.81297 26.25 6.56433 26.25H2.81433C2.56569 26.25 2.32723 26.1512 2.15142 25.9754C1.9756 25.7996 1.87683 25.5611 1.87683 25.3125V21.765C0.733081 20.9138 0.00183105 19.5469 0.00183105 18.0206V17.2463C0.00214574 16.9377 0.03292 16.63 0.0937061 16.3275L0.721831 13.1775C0.928081 12.1538 1.59371 11.28 2.52933 10.8131C2.85026 10.654 3.10367 10.3853 3.24371 10.0556L4.72871 6.59063H4.72496ZM5.62496 18.75C6.12224 18.75 6.59915 18.5525 6.95078 18.2008C7.30241 17.8492 7.49996 17.3723 7.49996 16.875C7.49996 16.3777 7.30241 15.9008 6.95078 15.5492C6.59915 15.1975 6.12224 15 5.62496 15C5.12768 15 4.65076 15.1975 4.29913 15.5492C3.9475 15.9008 3.74996 16.3777 3.74996 16.875C3.74996 17.3723 3.9475 17.8492 4.29913 18.2008C4.65076 18.5525 5.12768 18.75 5.62496 18.75ZM24.375 18.75C24.8722 18.75 25.3491 18.5525 25.7008 18.2008C26.0524 17.8492 26.25 17.3723 26.25 16.875C26.25 16.3777 26.0524 15.9008 25.7008 15.5492C25.3491 15.1975 24.8722 15 24.375 15C23.8777 15 23.4008 15.1975 23.0491 15.5492C22.6975 15.9008 22.5 16.3777 22.5 16.875C22.5 17.3723 22.6975 17.8492 23.0491 18.2008C23.4008 18.5525 23.8777 18.75 24.375 18.75ZM11.25 15C10.7527 15 10.2758 15.1975 9.92413 15.5492C9.5725 15.9008 9.37496 16.3777 9.37496 16.875C9.37496 17.3723 9.5725 17.8492 9.92413 18.2008C10.2758 18.5525 10.7527 18.75 11.25 18.75H18.75C19.2472 18.75 19.7241 18.5525 20.0758 18.2008C20.4274 17.8492 20.625 17.3723 20.625 16.875C20.625 16.3777 20.4274 15.9008 20.0758 15.5492C19.7241 15.1975 19.2472 15 18.75 15H11.25ZM5.44871 9.72938C5.37542 9.8806 5.34327 10.0485 5.35551 10.2161C5.36776 10.3837 5.42395 10.5451 5.51844 10.6841C5.61292 10.823 5.74236 10.9347 5.89372 11.0077C6.04507 11.0807 6.213 11.1125 6.38058 11.1C8.08683 10.9631 12.6618 10.7813 15 10.7813C17.3381 10.7813 21.915 10.9631 23.6193 11.1C23.7869 11.1125 23.9548 11.0807 24.1062 11.0077C24.2576 10.9347 24.387 10.823 24.4815 10.6841C24.576 10.5451 24.6322 10.3837 24.6444 10.2161C24.6566 10.0485 24.6245 9.8806 24.5512 9.72938L22.7587 6.1425C22.6808 5.98698 22.5611 5.8562 22.4131 5.76481C22.2651 5.67342 22.0945 5.62501 21.9206 5.625H8.07933C7.90537 5.62501 7.73484 5.67342 7.58683 5.76481C7.43881 5.8562 7.31914 5.98698 7.24121 6.1425L5.44871 9.72938Z" fill="black"/>
</g>
<defs>
<clipPath id="clip0_3401_296">
<rect width="30" height="30" fill="white"/>
</clipPath>
</defs>
</svg>
