<svg width="30" height="30" viewBox="0 0 30 30" fill="none" xmlns="http://www.w3.org/2000/svg">
<path d="M15 22.3238C13.2762 21.6111 10.7773 20.902 8.50225 21.0114C5.85275 21.1401 3.17875 21.5768 1.51275 21.9411C1.35989 21.9746 1.23026 22.0284 1.13934 22.0963C1.04842 22.1642 1.00005 22.2432 1 22.324V29.5794C1.00004 29.6498 1.03681 29.7191 1.10695 29.7808C1.17709 29.8426 1.27836 29.895 1.40147 29.9331C1.52458 29.9712 1.6656 29.9938 1.81162 29.9989C1.95764 30.004 2.10398 29.9914 2.23725 29.9623C3.78075 29.6257 6.2675 29.221 8.67725 29.104C11.143 28.9845 13.2098 29.1772 14.3175 29.8419C14.3995 29.8911 14.5034 29.9307 14.6215 29.958C14.7396 29.9852 14.869 29.9994 15 29.9994C15.131 29.9994 15.2604 29.9852 15.3785 29.958C15.4966 29.9307 15.6005 29.8911 15.6825 29.8419C16.7903 29.1772 18.857 28.9845 21.321 29.104C23.7325 29.221 26.221 29.6257 27.7628 29.9623C27.896 29.9914 28.0424 30.004 28.1884 29.9989C28.3344 29.9938 28.4754 29.9712 28.5985 29.9331C28.7216 29.895 28.8229 29.8426 28.893 29.7808C28.9632 29.7191 29 29.6498 29 29.5794V22.324C29 22.2432 28.9516 22.1642 28.8607 22.0963C28.7697 22.0284 28.6401 21.9746 28.4872 21.9411C26.8212 21.5768 24.1472 21.1401 21.4977 21.0114C19.2227 20.9011 16.7238 21.6111 15 22.3238Z" fill="black"/>
<path d="M25.0946 19.3259C23.6937 17.2519 20.7648 15.125 15 15.125C9.22012 15.125 6.29097 17.2631 4.89441 19.3423C6.02645 19.1933 7.24482 19.0728 8.46242 19.0137L8.46343 19.0136C10.5797 18.9119 12.772 19.4 14.5159 19.9873C14.7016 20.0498 14.8823 20.1135 15.0572 20.1777C15.2321 20.1135 15.4126 20.0498 15.5983 19.9873C17.3421 19.3999 19.5351 18.9111 21.652 19.0137C22.8248 19.0707 23.9983 19.1845 25.0946 19.3259Z" fill="black"/>
<path fill-rule="evenodd" clip-rule="evenodd" d="M18.9775 11.6025C17.9226 12.6574 16.4918 13.25 15 13.25C13.5082 13.25 12.0774 12.6574 11.0225 11.6025C9.96763 10.5476 9.375 9.11684 9.375 7.625C9.375 6.13316 9.96763 4.70242 11.0225 3.64752C12.0774 2.59263 13.5082 2 15 2C16.4918 2 17.9226 2.59263 18.9775 3.64752C20.0324 4.70242 20.625 6.13316 20.625 7.625C20.625 9.11684 20.0324 10.5476 18.9775 11.6025Z" fill="black"/>
</svg>
