<svg width="30" height="30" viewBox="0 0 30 30" fill="none" xmlns="http://www.w3.org/2000/svg">
<path d="M20.625 0H5.625C4.63044 0 3.67661 0.395088 2.97335 1.09835C2.27009 1.80161 1.875 2.75544 1.875 3.75V26.25C1.875 27.2446 2.27009 28.1984 2.97335 28.9016C3.67661 29.6049 4.63044 30 5.625 30H20.625C21.6196 30 22.5734 29.6049 23.2766 28.9016C23.9799 28.1984 24.375 27.2446 24.375 26.25C25.3696 26.25 26.3234 25.8549 27.0266 25.1516C27.7299 24.4484 28.125 23.4946 28.125 22.5V7.5C28.125 6.50544 27.7299 5.55161 27.0266 4.84835C26.3234 4.14509 25.3696 3.75 24.375 3.75C24.375 2.75544 23.9799 1.80161 23.2766 1.09835C22.5734 0.395088 21.6196 0 20.625 0ZM24.375 5.625C24.8723 5.625 25.3492 5.82254 25.7008 6.17417C26.0525 6.52581 26.25 7.00272 26.25 7.5V22.5C26.25 22.9973 26.0525 23.4742 25.7008 23.8258C25.3492 24.1775 24.8723 24.375 24.375 24.375V5.625ZM3.75 3.75C3.75 3.25272 3.94754 2.77581 4.29917 2.42417C4.65081 2.07254 5.12772 1.875 5.625 1.875H20.625C21.1223 1.875 21.5992 2.07254 21.9508 2.42417C22.3025 2.77581 22.5 3.25272 22.5 3.75V26.25C22.5 26.7473 22.3025 27.2242 21.9508 27.5758C21.5992 27.9275 21.1223 28.125 20.625 28.125H5.625C5.12772 28.125 4.65081 27.9275 4.29917 27.5758C3.94754 27.2242 3.75 26.7473 3.75 26.25V3.75Z" fill="black"/>
<path d="M7.36609 7.5C7.11745 7.5 6.87899 7.59877 6.70318 7.77459C6.52736 7.9504 6.42859 8.18886 6.42859 8.4375C6.42859 8.68614 6.52736 8.9246 6.70318 9.10041C6.87899 9.27623 7.11745 9.375 7.36609 9.375H18.6161C18.8647 9.375 19.1032 9.27623 19.279 9.10041C19.4548 8.9246 19.5536 8.68614 19.5536 8.4375C19.5536 8.18886 19.4548 7.9504 19.279 7.77459C19.1032 7.59877 18.8647 7.5 18.6161 7.5H7.36609ZM6.42859 12.1875C6.42859 11.9389 6.52736 11.7004 6.70318 11.5246C6.87899 11.3488 7.11745 11.25 7.36609 11.25H18.6161C18.8647 11.25 19.1032 11.3488 19.279 11.5246C19.4548 11.7004 19.5536 11.9389 19.5536 12.1875C19.5536 12.4361 19.4548 12.6746 19.279 12.8504C19.1032 13.0262 18.8647 13.125 18.6161 13.125H7.36609C7.11745 13.125 6.87899 13.0262 6.70318 12.8504C6.52736 12.6746 6.42859 12.4361 6.42859 12.1875ZM7.36609 15C7.11745 15 6.87899 15.0988 6.70318 15.2746C6.52736 15.4504 6.42859 15.6889 6.42859 15.9375C6.42859 16.1861 6.52736 16.4246 6.70318 16.6004C6.87899 16.7762 7.11745 16.875 7.36609 16.875H18.6161C18.8647 16.875 19.1032 16.7762 19.279 16.6004C19.4548 16.4246 19.5536 16.1861 19.5536 15.9375C19.5536 15.6889 19.4548 15.4504 19.279 15.2746C19.1032 15.0988 18.8647 15 18.6161 15H7.36609ZM7.36609 18.75C7.11745 18.75 6.87899 18.8488 6.70318 19.0246C6.52736 19.2004 6.42859 19.4389 6.42859 19.6875C6.42859 19.9361 6.52736 20.1746 6.70318 20.3504C6.87899 20.5262 7.11745 20.625 7.36609 20.625H12.9911C13.2397 20.625 13.4782 20.5262 13.654 20.3504C13.8298 20.1746 13.9286 19.9361 13.9286 19.6875C13.9286 19.4389 13.8298 19.2004 13.654 19.0246C13.4782 18.8488 13.2397 18.75 12.9911 18.75H7.36609Z" fill="black"/>
</svg>
