<svg width="28" height="28" viewBox="0 0 28 28" fill="none" xmlns="http://www.w3.org/2000/svg">
<g clip-path="url(#clip0_3400_26)">
<path d="M6.125 0C6.35706 0 6.57962 0.0921872 6.74372 0.256282C6.90781 0.420376 7 0.642936 7 0.875V1.75H21V0.875C21 0.642936 21.0922 0.420376 21.2563 0.256282C21.4204 0.0921872 21.6429 0 21.875 0C22.1071 0 22.3296 0.0921872 22.4937 0.256282C22.6578 0.420376 22.75 0.642936 22.75 0.875V1.75H24.5C25.4283 1.75 26.3185 2.11875 26.9749 2.77513C27.6313 3.4315 28 4.32174 28 5.25V24.5C28 25.4283 27.6313 26.3185 26.9749 26.9749C26.3185 27.6313 25.4283 28 24.5 28H3.5C2.57174 28 1.6815 27.6313 1.02513 26.9749C0.368749 26.3185 0 25.4283 0 24.5V5.25C0 4.32174 0.368749 3.4315 1.02513 2.77513C1.6815 2.11875 2.57174 1.75 3.5 1.75H5.25V0.875C5.25 0.642936 5.34219 0.420376 5.50628 0.256282C5.67038 0.0921872 5.89294 0 6.125 0ZM1.75 7V24.5C1.75 24.9641 1.93437 25.4092 2.26256 25.7374C2.59075 26.0656 3.03587 26.25 3.5 26.25H24.5C24.9641 26.25 25.4092 26.0656 25.7374 25.7374C26.0656 25.4092 26.25 24.9641 26.25 24.5V7H1.75Z" fill="black"/>
<path d="M24.2303 20.6421H22.7183V23.0001H19.5323V20.6421H13.7363V18.0141L18.3983 9.66211H21.9803L17.4083 17.8161H19.5863L20.2523 14.3421H22.7183V17.8161H24.2303V20.6421Z" fill="black"/>
<path d="M3.73275 23V20.3L7.35075 16.736C8.91675 15.188 9.24075 14.792 9.24075 14.054C9.24075 13.154 8.93475 12.758 7.67475 12.758C6.82874 12.758 5.74875 13.082 5.08275 13.406L3.58875 10.526C4.65075 9.986 6.03674 9.5 8.30475 9.5C11.4187 9.5 12.6787 10.832 12.6787 13.298C12.6787 15.494 11.9227 16.448 9.69075 18.626L8.26875 20.012H12.9307V23H3.73275Z" fill="black"/>
</g>
<defs>
<clipPath id="clip0_3400_26">
<rect width="28" height="28" fill="white"/>
</clipPath>
</defs>
</svg>
