<svg width="30" height="30" viewBox="0 0 30 30" fill="none" xmlns="http://www.w3.org/2000/svg">
<path fill-rule="evenodd" clip-rule="evenodd" d="M15 1.87489C13.0109 1.87489 11.1032 2.66506 9.6967 4.07159C8.29018 5.47811 7.5 7.38576 7.5 9.37489C7.5 11.364 8.29018 13.2717 9.6967 14.6782C11.1032 16.0847 13.0109 16.8749 15 16.8749C16.9891 16.8749 18.8968 16.0847 20.3033 14.6782C21.7098 13.2717 22.5 11.364 22.5 9.37489C22.5 7.38576 21.7098 5.47811 20.3033 4.07159C18.8968 2.66506 16.9891 1.87489 15 1.87489ZM5.625 9.37489C5.62502 7.56066 6.15145 5.78542 7.14043 4.26445C8.12941 2.74349 9.53845 1.54216 11.1967 0.806147C12.8549 0.0701375 14.6911 -0.168924 16.4825 0.117956C18.2739 0.404836 19.9435 1.20533 21.289 2.42236C22.6344 3.63939 23.5979 5.22066 24.0624 6.97439C24.527 8.72813 24.4727 10.579 23.9062 12.3025C23.3397 14.026 22.2853 15.5481 20.8708 16.6842C19.4563 17.8203 17.7426 18.5216 15.9375 18.703V22.4999H19.6875C19.9361 22.4999 20.1746 22.5987 20.3504 22.7745C20.5262 22.9503 20.625 23.1887 20.625 23.4374C20.625 23.686 20.5262 23.9245 20.3504 24.1003C20.1746 24.2761 19.9361 24.3749 19.6875 24.3749H15.9375V29.0624C15.9375 29.311 15.8387 29.5495 15.6629 29.7253C15.4871 29.9011 15.2486 29.9999 15 29.9999C14.7514 29.9999 14.5129 29.9011 14.3371 29.7253C14.1613 29.5495 14.0625 29.311 14.0625 29.0624V24.3749H10.3125C10.0639 24.3749 9.8254 24.2761 9.64959 24.1003C9.47377 23.9245 9.375 23.686 9.375 23.4374C9.375 23.1887 9.47377 22.9503 9.64959 22.7745C9.8254 22.5987 10.0639 22.4999 10.3125 22.4999H14.0625V18.703C11.75 18.4706 9.60633 17.3875 8.04727 15.6639C6.48822 13.9403 5.62497 11.699 5.625 9.37489Z" fill="black"/>
</svg>
