<svg width="30" height="30" viewBox="0 0 30 30" fill="none" xmlns="http://www.w3.org/2000/svg">
<path fill-rule="evenodd" clip-rule="evenodd" d="M2.05882 0C0.921767 0 0 0.854729 0 1.90909V28.0909C0 29.1453 0.921767 30 2.05882 30H27.9412C29.0782 30 30 29.1453 30 28.0909V1.90909C30 0.854729 29.0782 0 27.9412 0H2.05882ZM2.05882 14.0457V1.90909H13.9706V14.0457H2.05882ZM2.05882 15.9548V28.0909H13.9706V15.9548H2.05882ZM16.0294 28.0909H27.9412V15.9548H16.0294V28.0909ZM27.9412 14.0457V1.90909H16.0294V14.0457H27.9412ZM23 26C23 26.5523 22.5523 27 22 27C21.4477 27 21 26.5523 21 26C21 25.4477 21.4477 25 22 25C22.5523 25 23 25.4477 23 26ZM21 23V23.5C21 24.0523 21.4477 24.5 22 24.5C22.5523 24.5 23 24.0523 23 23.5V23H25.0968C25.5956 23 26 22.5876 26 22.0789V18.9211C26 18.4124 25.5956 18 25.0968 18H18.9032C18.4044 18 18 18.4124 18 18.9211V22.0789C18 22.5876 18.4044 23 18.9032 23H21ZM19 19V22H21H23H25V19H19ZM8 27C8.55229 27 9 26.5523 9 26C9 25.4477 8.55229 25 8 25C7.44772 25 7 25.4477 7 26C7 26.5523 7.44772 27 8 27ZM7 23.5V23H4.90323C4.40439 23 4 22.5876 4 22.0789V18.9211C4 18.4124 4.40439 18 4.90323 18H11.0968C11.5956 18 12 18.4124 12 18.9211V22.0789C12 22.5876 11.5956 23 11.0968 23H9V23.5C9 24.0523 8.55229 24.5 8 24.5C7.44772 24.5 7 24.0523 7 23.5ZM5 22V19H11V22H9H7H5ZM23 12C23 12.5523 22.5523 13 22 13C21.4477 13 21 12.5523 21 12C21 11.4477 21.4477 11 22 11C22.5523 11 23 11.4477 23 12ZM21 9V9.5C21 10.0523 21.4477 10.5 22 10.5C22.5523 10.5 23 10.0523 23 9.5V9H25.0968C25.5956 9 26 8.58763 26 8.07895V4.92105C26 4.41237 25.5956 4 25.0968 4H18.9032C18.4044 4 18 4.41237 18 4.92105V8.07895C18 8.58763 18.4044 9 18.9032 9H21ZM19 5V8H21H23H25V5H19ZM8 13C8.55229 13 9 12.5523 9 12C9 11.4477 8.55229 11 8 11C7.44772 11 7 11.4477 7 12C7 12.5523 7.44772 13 8 13ZM7 9.5V9H4.90323C4.40439 9 4 8.58763 4 8.07895V4.92105C4 4.41237 4.40439 4 4.90323 4H11.0968C11.5956 4 12 4.41237 12 4.92105V8.07895C12 8.58763 11.5956 9 11.0968 9H9V9.5C9 10.0523 8.55229 10.5 8 10.5C7.44772 10.5 7 10.0523 7 9.5ZM5 8V5H11V8H9H7H5Z" fill="black"/>
</svg>
