<svg width="30" height="30" viewBox="0 0 30 30" fill="none" xmlns="http://www.w3.org/2000/svg">
<path fill-rule="evenodd" clip-rule="evenodd" d="M17.8125 3.75C17.5638 3.75 17.3254 3.65123 17.1496 3.47541C16.9738 3.2996 16.875 3.06114 16.875 2.8125C16.875 2.56386 16.9738 2.3254 17.1496 2.14959C17.3254 1.97377 17.5638 1.875 17.8125 1.875H27.1875C27.4361 1.875 27.6746 1.97377 27.8504 2.14959C28.0262 2.3254 28.125 2.56386 28.125 2.8125V12.1875C28.125 12.4361 28.0262 12.6746 27.8504 12.8504C27.6746 13.0262 27.4361 13.125 27.1875 13.125C26.9388 13.125 26.7004 13.0262 26.5246 12.8504C26.3488 12.6746 26.25 12.4361 26.25 12.1875V5.07562L18.5081 12.8175C20.0303 14.6797 20.7785 17.0557 20.598 19.4541C20.4175 21.8525 19.3221 24.0898 17.5384 25.7032C15.7547 27.3167 13.4191 28.1829 11.0147 28.1227C8.61027 28.0624 6.32098 27.0804 4.62027 25.3797C2.91956 23.679 1.93755 21.3897 1.87733 18.9853C1.81712 16.5809 2.68331 14.2453 4.29675 12.4616C5.9102 10.6779 8.14748 9.58252 10.5459 9.40203C12.9442 9.22154 15.3203 9.96973 17.1825 11.4919L24.9244 3.75H17.8125ZM11.25 11.25C9.26086 11.25 7.35321 12.0402 5.94669 13.4467C4.54016 14.8532 3.74999 16.7609 3.74999 18.75C3.74999 20.7391 4.54016 22.6468 5.94669 24.0533C7.35321 25.4598 9.26086 26.25 11.25 26.25C13.2391 26.25 15.1468 25.4598 16.5533 24.0533C17.9598 22.6468 18.75 20.7391 18.75 18.75C18.75 16.7609 17.9598 14.8532 16.5533 13.4467C15.1468 12.0402 13.2391 11.25 11.25 11.25Z" fill="black"/>
</svg>
