<svg width="30" height="30" viewBox="0 0 30 30" fill="none" xmlns="http://www.w3.org/2000/svg">
<path d="M15 1C20.2531 1.00026 24.5124 5.25866 24.5127 10.5117L24.5 11.002C24.4935 11.1307 24.4813 11.2584 24.4697 11.3857C27.7338 12.8928 29.9998 16.1933 30 20.0244L29.9873 20.5146C29.7324 25.5405 25.5765 29.5371 20.4873 29.5371L19.998 29.5244C18.1409 29.4302 16.4254 28.8018 14.999 27.792C13.4482 28.8895 11.5561 29.5371 9.51172 29.5371L9.02246 29.5244C3.99678 29.2695 0.000255631 25.1134 0 20.0244C0.000187903 16.1939 2.26516 12.8931 5.52832 11.3857C5.5021 11.0979 5.48828 10.8064 5.48828 10.5117C5.48854 5.25866 9.74694 1.00026 15 1ZM5.86621 13.1709C3.41737 14.4764 1.75018 17.0556 1.75 20.0244C1.75026 24.311 5.22516 27.7869 9.51172 27.7871C11.022 27.7871 12.4306 27.3537 13.623 26.6074C11.9838 24.8984 10.9756 22.5794 10.9756 20.0244C10.9756 19.73 10.9904 19.4389 11.0166 19.1514C8.53938 18.0073 6.63888 15.8295 5.86621 13.1709ZM24.1328 13.1709C23.3601 15.8297 21.4599 18.0073 18.9824 19.1514C19.0086 19.4388 19.0244 19.7302 19.0244 20.0244L19.0117 20.5146C18.8919 22.8754 17.9107 25.0084 16.377 26.6074C17.5692 27.3536 18.9772 27.787 20.4873 27.7871C24.7742 27.7871 28.25 24.3114 28.25 20.0244C28.2498 17.0554 26.5822 14.4763 24.1328 13.1709ZM17.2676 19.751C16.5408 19.9288 15.7816 20.0244 15 20.0244L14.5107 20.0117C13.9008 19.9808 13.3058 19.8915 12.7314 19.751C12.7283 19.8417 12.7256 19.9329 12.7256 20.0244C12.7256 22.1679 13.5943 24.1089 14.999 25.5137C16.4044 24.1089 17.2743 22.1683 17.2744 20.0244C17.2744 19.933 17.2707 19.8416 17.2676 19.751ZM15 14.5342C14.0514 15.4823 13.348 16.6755 12.9902 18.0098C13.6312 18.1812 14.305 18.2744 15 18.2744C15.6949 18.2744 16.3679 18.1811 17.0088 18.0098C16.6511 16.6755 15.9486 15.4823 15 14.5342ZM9.51172 12.2627C8.81697 12.2627 8.1437 12.3541 7.50293 12.5254C8.06432 14.6209 9.47998 16.3659 11.3545 17.3652C11.7883 15.8731 12.5768 14.5329 13.624 13.4414C12.4314 12.6949 11.0223 12.2627 9.51172 12.2627ZM20.4873 12.2627C18.9766 12.2628 17.5675 12.6957 16.375 13.4424C17.4221 14.5339 18.2108 15.8732 18.6445 17.3652C20.519 16.3661 21.9344 14.6215 22.4961 12.5264C21.8553 12.3551 21.1821 12.2627 20.4873 12.2627ZM15 2.75C10.7134 2.75026 7.23854 6.22515 7.23828 10.5117C7.23828 10.6033 7.241 10.6944 7.24414 10.7852C7.97089 10.6074 8.73019 10.5127 9.51172 10.5127C11.5563 10.5127 13.4491 11.1591 15 12.2568C16.5506 11.1594 18.4431 10.5128 20.4873 10.5127C21.2689 10.5127 22.028 10.6093 22.7549 10.7871C22.7581 10.6957 22.7627 10.6039 22.7627 10.5117C22.7624 6.22516 19.2866 2.75026 15 2.75Z" fill="black"/>
</svg>
