<svg width="30" height="30" viewBox="0 0 30 30" fill="none" xmlns="http://www.w3.org/2000/svg">
<path d="M19.9144 0.965625C16.2131 0.0375 13.7869 0.0375 10.0875 0.965625C8.355 1.39688 6.37125 2.40188 4.875 3.25313C2.93625 4.35375 1.875 6.435 1.875 8.59125V25.3125C1.875 26.5557 2.36886 27.748 3.24794 28.6271C4.12701 29.5061 5.3193 30 6.5625 30H23.4375C24.6807 30 25.873 29.5061 26.7521 28.6271C27.6311 27.748 28.125 26.5557 28.125 25.3125V8.59313C28.125 6.43687 27.0656 4.35563 25.125 3.25125C23.6306 2.40188 21.6469 1.40062 19.9144 0.965625ZM12.1875 3.75H17.8125C18.0611 3.75 18.2996 3.84877 18.4754 4.02459C18.6512 4.2004 18.75 4.43886 18.75 4.6875C18.75 4.93614 18.6512 5.1746 18.4754 5.35041C18.2996 5.52623 18.0611 5.625 17.8125 5.625H12.1875C11.9389 5.625 11.7004 5.52623 11.5246 5.35041C11.3488 5.1746 11.25 4.93614 11.25 4.6875C11.25 4.43886 11.3488 4.2004 11.5246 4.02459C11.7004 3.84877 11.9389 3.75 12.1875 3.75ZM8.4375 7.5H21.5625C22.3084 7.5 23.0238 7.79632 23.5512 8.32376C24.0787 8.85121 24.375 9.56658 24.375 10.3125V14.0625C24.375 14.8084 24.0787 15.5238 23.5512 16.0512C23.0238 16.5787 22.3084 16.875 21.5625 16.875H8.4375C7.69158 16.875 6.97621 16.5787 6.44876 16.0512C5.92132 15.5238 5.625 14.8084 5.625 14.0625V10.3125C5.625 9.56658 5.92132 8.85121 6.44876 8.32376C6.97621 7.79632 7.69158 7.5 8.4375 7.5ZM9.375 24.375C9.375 24.8723 9.17746 25.3492 8.82582 25.7008C8.47419 26.0525 7.99728 26.25 7.5 26.25C7.00272 26.25 6.52581 26.0525 6.17417 25.7008C5.82254 25.3492 5.625 24.8723 5.625 24.375C5.625 23.8777 5.82254 23.4008 6.17417 23.0492C6.52581 22.6975 7.00272 22.5 7.5 22.5C7.99728 22.5 8.47419 22.6975 8.82582 23.0492C9.17746 23.4008 9.375 23.8777 9.375 24.375ZM9.375 24.375C9.375 23.8777 9.57254 23.4008 9.92418 23.0492C10.2758 22.6975 10.7527 22.5 11.25 22.5C11.7473 22.5 12.2242 22.6975 12.5758 23.0492C12.9275 23.4008 13.125 23.8777 13.125 24.375C13.125 24.8723 12.9275 25.3492 12.5758 25.7008C12.2242 26.0525 11.7473 26.25 11.25 26.25C10.7527 26.25 10.2758 26.0525 9.92418 25.7008C9.57254 25.3492 9.375 24.8723 9.375 24.375ZM24.375 24.375C24.375 24.8723 24.1775 25.3492 23.8258 25.7008C23.4742 26.0525 22.9973 26.25 22.5 26.25C22.0027 26.25 21.5258 26.0525 21.1742 25.7008C20.8225 25.3492 20.625 24.8723 20.625 24.375C20.625 23.8777 20.8225 23.4008 21.1742 23.0492C21.5258 22.6975 22.0027 22.5 22.5 22.5C22.9973 22.5 23.4742 22.6975 23.8258 23.0492C24.1775 23.4008 24.375 23.8777 24.375 24.375ZM18.75 22.5C19.2473 22.5 19.7242 22.6975 20.0758 23.0492C20.4275 23.4008 20.625 23.8777 20.625 24.375C20.625 24.8723 20.4275 25.3492 20.0758 25.7008C19.7242 26.0525 19.2473 26.25 18.75 26.25C18.2527 26.25 17.7758 26.0525 17.4242 25.7008C17.0725 25.3492 16.875 24.8723 16.875 24.375C16.875 23.8777 17.0725 23.4008 17.4242 23.0492C17.7758 22.6975 18.2527 22.5 18.75 22.5ZM7.5 10.3125C7.5 10.0639 7.59877 9.8254 7.77459 9.64959C7.9504 9.47377 8.18886 9.375 8.4375 9.375H14.0625V15H8.4375C8.18886 15 7.9504 14.9012 7.77459 14.7254C7.59877 14.5496 7.5 14.3111 7.5 14.0625V10.3125ZM15.9375 15V9.375H21.5625C21.8111 9.375 22.0496 9.47377 22.2254 9.64959C22.4012 9.8254 22.5 10.0639 22.5 10.3125V14.0625C22.5 14.3111 22.4012 14.5496 22.2254 14.7254C22.0496 14.9012 21.8111 15 21.5625 15H15.9375Z" fill="black"/>
</svg>
