<svg width="30" height="30" viewBox="0 0 30 30" fill="none" xmlns="http://www.w3.org/2000/svg">
<g clip-path="url(#clip0_3366_107)">
<path fill-rule="evenodd" clip-rule="evenodd" d="M3.5344 0.958034C3.86248 0.63045 4.25643 0.376331 4.69015 0.212515C5.12386 0.0486998 5.58744 -0.0210708 6.05016 0.00782712C6.51289 0.036725 6.96418 0.163632 7.37415 0.380137C7.78411 0.596642 8.14338 0.897802 8.42815 1.26366L11.7938 5.58741C12.4107 6.38053 12.6282 7.41366 12.3844 8.38866L11.3588 12.4949C11.3061 12.7076 11.3092 12.9303 11.3676 13.1415C11.4261 13.3526 11.538 13.5452 11.6925 13.7005L16.2994 18.3074C16.4549 18.4623 16.6478 18.5743 16.8593 18.6328C17.0709 18.6913 17.2939 18.6942 17.5069 18.6412L21.6113 17.6155C22.0925 17.4959 22.5945 17.4869 23.0797 17.5892C23.5649 17.6915 24.0206 17.9025 24.4125 18.2062L28.7363 21.5699C30.2907 22.7793 30.4332 25.0762 29.0419 26.4655L27.1032 28.4043C25.7157 29.7918 23.6419 30.4012 21.7088 29.7205C16.76 27.9816 12.2673 25.1488 8.56503 21.433C4.84948 17.7313 2.01669 13.2392 0.277528 8.29116C-0.401221 6.35991 0.208154 4.28428 1.59565 2.89678L3.5344 0.958034Z" fill="black"/>
</g>
<defs>
<clipPath id="clip0_3366_107">
<rect width="30" height="30" fill="white"/>
</clipPath>
</defs>
</svg>
