<svg width="30" height="30" viewBox="0 0 30 30" fill="none" xmlns="http://www.w3.org/2000/svg">
<path d="M7.77375 0.273751C7.86097 0.186748 7.96449 0.117789 8.07838 0.0708172C8.19227 0.0238453 8.3143 -0.000218531 8.4375 1.4953e-06H21.5625C21.8111 1.4953e-06 22.0496 0.0987736 22.2254 0.274589C22.4012 0.450404 22.5 0.688861 22.5 0.937501C22.5 2.2125 21.8587 3.13875 21.2887 3.71063C21.0525 3.945 20.82 4.13063 20.625 4.26938V12.5775L20.7712 12.6675C21.1519 12.9056 21.6638 13.2563 22.1794 13.7081C23.175 14.5781 24.375 15.9881 24.375 17.8125C24.375 18.0611 24.2762 18.2996 24.1004 18.4754C23.9246 18.6512 23.6861 18.75 23.4375 18.75H15.9375V27.1875C15.9375 27.705 15.5175 30 15 30C14.4825 30 14.0625 27.705 14.0625 27.1875V18.75H6.5625C6.31386 18.75 6.0754 18.6512 5.89959 18.4754C5.72377 18.2996 5.625 18.0611 5.625 17.8125C5.625 15.9881 6.825 14.5781 7.81875 13.7081C8.30427 13.2875 8.82492 12.9093 9.375 12.5775V4.26938C9.13969 4.10049 8.91778 3.91369 8.71125 3.71063C8.14125 3.13875 7.5 2.21063 7.5 0.937501C7.49978 0.814305 7.52384 0.692273 7.57082 0.578382C7.61779 0.464491 7.68675 0.360975 7.77375 0.273751ZM10.7325 2.91188L10.7362 2.91375C10.8908 2.99206 11.0206 3.11166 11.1113 3.25928C11.202 3.40689 11.25 3.57675 11.25 3.75V13.125C11.25 13.299 11.2016 13.4695 11.1102 13.6175C11.0188 13.7655 10.888 13.8852 10.7325 13.9631H10.7288L10.7063 13.9763L10.605 14.0325C10.0527 14.3417 9.53321 14.7061 9.05437 15.12C8.45813 15.6413 7.9575 16.2375 7.695 16.875H22.305C22.0425 16.2375 21.5419 15.6413 20.9456 15.12C20.4376 14.6807 19.8838 14.2972 19.2937 13.9763L19.2712 13.965H19.2675C19.1117 13.8869 18.9807 13.767 18.8893 13.6186C18.7979 13.4702 18.7497 13.2993 18.75 13.125V3.75C18.7493 3.56871 18.8012 3.3911 18.8993 3.23868C18.9975 3.08626 19.1378 2.96558 19.3031 2.89125C19.5426 2.74965 19.7637 2.57898 19.9613 2.38313C20.1112 2.23313 20.2519 2.06438 20.3625 1.875H9.6375C9.75125 2.0625 9.885 2.23188 10.0388 2.38313C10.2462 2.58864 10.4794 2.76638 10.7325 2.91188Z" fill="black"/>
</svg>
