<svg width="30" height="30" viewBox="0 0 30 30" fill="none" xmlns="http://www.w3.org/2000/svg">
<path d="M6.00747 9.375H23.9925L15 19.6519L6.00747 9.375ZM4.59559 10.6106L13.5881 20.8856C13.7641 21.087 13.9811 21.2484 14.2246 21.359C14.4682 21.4696 14.7325 21.5268 15 21.5268C15.2674 21.5268 15.5318 21.4696 15.7753 21.359C16.0188 21.2484 16.2359 21.087 16.4118 20.8856L25.4043 10.6106C26.4656 9.3975 25.6031 7.5 23.9925 7.5H6.00747C5.64701 7.49969 5.2941 7.60329 4.99101 7.79839C4.68791 7.99349 4.44748 8.27182 4.2985 8.60005C4.14952 8.92828 4.09831 9.2925 4.151 9.64908C4.20369 10.0057 4.35805 10.3395 4.59559 10.6106Z" fill="black"/>
</svg>
