<svg width="30" height="30" viewBox="0 0 30 30" fill="none" xmlns="http://www.w3.org/2000/svg">
<path d="M9.375 15C9.375 15.4973 9.17746 15.9742 8.82582 16.3258C8.47419 16.6775 7.99728 16.875 7.5 16.875C7.00272 16.875 6.52581 16.6775 6.17417 16.3258C5.82254 15.9742 5.625 15.4973 5.625 15C5.625 14.5027 5.82254 14.0258 6.17417 13.6742C6.52581 13.3225 7.00272 13.125 7.5 13.125C7.99728 13.125 8.47419 13.3225 8.82582 13.6742C9.17746 14.0258 9.375 14.5027 9.375 15ZM16.875 15C16.875 15.4973 16.6775 15.9742 16.3258 16.3258C15.9742 16.6775 15.4973 16.875 15 16.875C14.5027 16.875 14.0258 16.6775 13.6742 16.3258C13.3225 15.9742 13.125 15.4973 13.125 15C13.125 14.5027 13.3225 14.0258 13.6742 13.6742C14.0258 13.3225 14.5027 13.125 15 13.125C15.4973 13.125 15.9742 13.3225 16.3258 13.6742C16.6775 14.0258 16.875 14.5027 16.875 15ZM22.5 16.875C22.9973 16.875 23.4742 16.6775 23.8258 16.3258C24.1775 15.9742 24.375 15.4973 24.375 15C24.375 14.5027 24.1775 14.0258 23.8258 13.6742C23.4742 13.3225 22.9973 13.125 22.5 13.125C22.0027 13.125 21.5258 13.3225 21.1742 13.6742C20.8225 14.0258 20.625 14.5027 20.625 15C20.625 15.4973 20.8225 15.9742 21.1742 16.3258C21.5258 16.6775 22.0027 16.875 22.5 16.875Z" fill="black"/>
<path d="M4.05937 29.6306L4.09687 29.6231C7.52812 28.9425 9.62437 28.0444 10.5994 27.5513C12.0346 27.9354 13.5143 28.1283 15 28.125C23.2838 28.125 30 22.2488 30 15C30 7.75125 23.2838 1.875 15 1.875C6.71625 1.875 0 7.75125 0 15C0 18.3 1.39313 21.3188 3.69375 23.625C3.5334 25.1065 3.20374 26.5648 2.71125 27.9713L2.70562 27.9919C2.56551 28.3946 2.41294 28.793 2.24813 29.1863C2.1 29.535 2.38687 29.925 2.76 29.865C3.19435 29.7938 3.62753 29.7157 4.05937 29.6306ZM5.55937 23.8031C5.58564 23.5286 5.55103 23.2517 5.45802 22.9921C5.365 22.7325 5.21587 22.4966 5.02125 22.3013C3.03375 20.3063 1.875 17.7525 1.875 15C1.875 9.015 7.5075 3.75 15 3.75C22.4925 3.75 28.125 9.015 28.125 15C28.125 20.985 22.4925 26.25 15 26.25C13.6782 26.2532 12.3618 26.0818 11.085 25.74C10.6387 25.6204 10.164 25.6698 9.75187 25.8788C9.02625 26.2463 7.42688 26.9475 4.81312 27.5531C5.17745 26.3289 5.42728 25.0735 5.55937 23.8031Z" fill="black"/>
</svg>
