<svg width="30" height="30" viewBox="0 0 30 30" fill="none" xmlns="http://www.w3.org/2000/svg">
<path fill-rule="evenodd" clip-rule="evenodd" d="M11.25 15V1.875H13.125V13.3444L16.3931 11.3813C16.5387 11.294 16.7053 11.2479 16.875 11.2479C17.0447 11.2479 17.2113 11.294 17.3569 11.3813L20.625 13.3444V1.875H22.5V15C22.5 15.1659 22.4561 15.3288 22.3726 15.4721C22.2891 15.6154 22.169 15.734 22.0247 15.8158C21.8804 15.8976 21.717 15.9396 21.5511 15.9376C21.3853 15.9356 21.2229 15.8896 21.0806 15.8044L16.875 13.2806L12.6694 15.8063C12.527 15.8916 12.3644 15.9376 12.1984 15.9395C12.0324 15.9414 11.8688 15.8992 11.7245 15.8172C11.5801 15.7352 11.4601 15.6164 11.3767 15.4728C11.2934 15.3292 11.2496 15.166 11.25 15Z" fill="black"/>
<path d="M5.625 0H24.375C25.3696 0 26.3234 0.395088 27.0266 1.09835C27.7299 1.80161 28.125 2.75544 28.125 3.75V26.25C28.125 27.2446 27.7299 28.1984 27.0266 28.9016C26.3234 29.6049 25.3696 30 24.375 30H5.625C4.63044 30 3.67661 29.6049 2.97335 28.9016C2.27009 28.1984 1.875 27.2446 1.875 26.25V24.375H3.75V26.25C3.75 26.7473 3.94754 27.2242 4.29917 27.5758C4.65081 27.9275 5.12772 28.125 5.625 28.125H24.375C24.8723 28.125 25.3492 27.9275 25.7008 27.5758C26.0525 27.2242 26.25 26.7473 26.25 26.25V3.75C26.25 3.25272 26.0525 2.77581 25.7008 2.42417C25.3492 2.07254 24.8723 1.875 24.375 1.875H5.625C5.12772 1.875 4.65081 2.07254 4.29917 2.42417C3.94754 2.77581 3.75 3.25272 3.75 3.75V5.625H1.875V3.75C1.875 2.75544 2.27009 1.80161 2.97335 1.09835C3.67661 0.395088 4.63044 0 5.625 0Z" fill="black"/>
<path d="M1.875 9.375V8.4375C1.875 8.18886 1.97377 7.9504 2.14959 7.77459C2.3254 7.59877 2.56386 7.5 2.8125 7.5C3.06114 7.5 3.2996 7.59877 3.47541 7.77459C3.65123 7.9504 3.75 8.18886 3.75 8.4375V9.375H4.6875C4.93614 9.375 5.1746 9.47377 5.35041 9.64959C5.52623 9.8254 5.625 10.0639 5.625 10.3125C5.625 10.5611 5.52623 10.7996 5.35041 10.9754C5.1746 11.1512 4.93614 11.25 4.6875 11.25H0.9375C0.68886 11.25 0.450403 11.1512 0.274587 10.9754C0.0987721 10.7996 0 10.5611 0 10.3125C0 10.0639 0.0987721 9.8254 0.274587 9.64959C0.450403 9.47377 0.68886 9.375 0.9375 9.375H1.875ZM1.875 15V14.0625C1.875 13.8139 1.97377 13.5754 2.14959 13.3996C2.3254 13.2238 2.56386 13.125 2.8125 13.125C3.06114 13.125 3.2996 13.2238 3.47541 13.3996C3.65123 13.5754 3.75 13.8139 3.75 14.0625V15H4.6875C4.93614 15 5.1746 15.0988 5.35041 15.2746C5.52623 15.4504 5.625 15.6889 5.625 15.9375C5.625 16.1861 5.52623 16.4246 5.35041 16.6004C5.1746 16.7762 4.93614 16.875 4.6875 16.875H0.9375C0.68886 16.875 0.450403 16.7762 0.274587 16.6004C0.0987721 16.4246 0 16.1861 0 15.9375C0 15.6889 0.0987721 15.4504 0.274587 15.2746C0.450403 15.0988 0.68886 15 0.9375 15H1.875ZM1.875 20.625V19.6875C1.875 19.4389 1.97377 19.2004 2.14959 19.0246C2.3254 18.8488 2.56386 18.75 2.8125 18.75C3.06114 18.75 3.2996 18.8488 3.47541 19.0246C3.65123 19.2004 3.75 19.4389 3.75 19.6875V20.625H4.6875C4.93614 20.625 5.1746 20.7238 5.35041 20.8996C5.52623 21.0754 5.625 21.3139 5.625 21.5625C5.625 21.8111 5.52623 22.0496 5.35041 22.2254C5.1746 22.4012 4.93614 22.5 4.6875 22.5H0.9375C0.68886 22.5 0.450403 22.4012 0.274587 22.2254C0.0987721 22.0496 0 21.8111 0 21.5625C0 21.3139 0.0987721 21.0754 0.274587 20.8996C0.450403 20.7238 0.68886 20.625 0.9375 20.625H1.875Z" fill="black"/>
</svg>
