<svg width="30" height="30" viewBox="0 0 30 30" fill="none" xmlns="http://www.w3.org/2000/svg">
<path d="M28.125 21.9644C28.125 22.4616 27.9275 22.9385 27.5758 23.2902C27.2242 23.6418 26.7473 23.8394 26.25 23.8394H3.75C3.25272 23.8394 2.77581 23.6418 2.42417 23.2902C2.07254 22.9385 1.875 22.4616 1.875 21.9644V10.7144C1.875 10.2171 2.07254 9.74016 2.42417 9.38853C2.77581 9.0369 3.25272 8.83936 3.75 8.83936H5.9475C7.43857 8.83854 8.86831 8.24574 9.9225 7.19123L11.4788 5.63873C11.8294 5.28799 12.3047 5.09045 12.8006 5.08936H17.1956C17.6929 5.08946 18.1697 5.28708 18.5212 5.63873L20.0738 7.19123C20.5962 7.71382 21.2165 8.12835 21.8992 8.41114C22.5818 8.69394 23.3136 8.83944 24.0525 8.83936H26.25C26.7473 8.83936 27.2242 9.0369 27.5758 9.38853C27.9275 9.74016 28.125 10.2171 28.125 10.7144V21.9644ZM3.75 6.96436C2.75544 6.96436 1.80161 7.35944 1.09835 8.06271C0.395088 8.76597 0 9.71979 0 10.7144L0 21.9644C0 22.9589 0.395088 23.9127 1.09835 24.616C1.80161 25.3193 2.75544 25.7144 3.75 25.7144H26.25C27.2446 25.7144 28.1984 25.3193 28.9016 24.616C29.6049 23.9127 30 22.9589 30 21.9644V10.7144C30 9.71979 29.6049 8.76597 28.9016 8.06271C28.1984 7.35944 27.2446 6.96436 26.25 6.96436H24.0525C23.058 6.96414 22.1043 6.56892 21.4012 5.86561L19.8488 4.31311C19.1457 3.6098 18.192 3.21457 17.1975 3.21436H12.8025C11.808 3.21457 10.8543 3.6098 10.1512 4.31311L8.59875 5.86561C7.89565 6.56892 6.94198 6.96414 5.9475 6.96436H3.75Z" fill="black"/>
<path d="M15 20.0894C13.7568 20.0894 12.5645 19.5955 11.6854 18.7164C10.8064 17.8373 10.3125 16.6451 10.3125 15.4019C10.3125 14.1587 10.8064 12.9664 11.6854 12.0873C12.5645 11.2082 13.7568 10.7144 15 10.7144C16.2432 10.7144 17.4355 11.2082 18.3146 12.0873C19.1936 12.9664 19.6875 14.1587 19.6875 15.4019C19.6875 16.6451 19.1936 17.8373 18.3146 18.7164C17.4355 19.5955 16.2432 20.0894 15 20.0894ZM15 21.9644C16.7405 21.9644 18.4097 21.273 19.6404 20.0422C20.8711 18.8115 21.5625 17.1423 21.5625 15.4019C21.5625 13.6614 20.8711 11.9922 19.6404 10.7615C18.4097 9.53076 16.7405 8.83936 15 8.83936C13.2595 8.83936 11.5903 9.53076 10.3596 10.7615C9.1289 11.9922 8.4375 13.6614 8.4375 15.4019C8.4375 17.1423 9.1289 18.8115 10.3596 20.0422C11.5903 21.273 13.2595 21.9644 15 21.9644ZM5.625 11.6519C5.625 11.9005 5.52623 12.139 5.35041 12.3148C5.1746 12.4906 4.93614 12.5894 4.6875 12.5894C4.43886 12.5894 4.2004 12.4906 4.02459 12.3148C3.84877 12.139 3.75 11.9005 3.75 11.6519C3.75 11.4032 3.84877 11.1648 4.02459 10.9889C4.2004 10.8131 4.43886 10.7144 4.6875 10.7144C4.93614 10.7144 5.1746 10.8131 5.35041 10.9889C5.52623 11.1648 5.625 11.4032 5.625 11.6519Z" fill="black"/>
</svg>
