<svg width="30" height="30" viewBox="0 0 30 30" fill="none" xmlns="http://www.w3.org/2000/svg">
<path d="M20.625 16.875H9.375C8.87772 16.875 8.40081 17.0725 8.04918 17.4242C7.69754 17.7758 7.5 18.2527 7.5 18.75V24.375C7.5 24.8723 7.69754 25.3492 8.04918 25.7008C8.40081 26.0525 8.87772 26.25 9.375 26.25H20.625C21.1223 26.25 21.5992 26.0525 21.9508 25.7008C22.3025 25.3492 22.5 24.8723 22.5 24.375V18.75C22.5 18.2527 22.3025 17.7758 21.9508 17.4242C21.5992 17.0725 21.1223 16.875 20.625 16.875Z" fill="#0062FF"/>
<path d="M0 13.125C0 12.1304 0.395088 11.1766 1.09835 10.4733C1.80161 9.77009 2.75544 9.375 3.75 9.375H26.25C27.2446 9.375 28.1984 9.77009 28.9016 10.4733C29.6049 11.1766 30 12.1304 30 13.125V18.75C30 19.7446 29.6049 20.6984 28.9016 21.4016C28.1984 22.1049 27.2446 22.5 26.25 22.5H24.375V18.75C24.375 17.7554 23.9799 16.8016 23.2766 16.0984C22.5734 15.3951 21.6196 15 20.625 15H9.375C8.38044 15 7.42661 15.3951 6.72335 16.0984C6.02009 16.8016 5.625 17.7554 5.625 18.75V22.5H3.75C2.75544 22.5 1.80161 22.1049 1.09835 21.4016C0.395088 20.6984 0 19.7446 0 18.75V13.125ZM4.6875 15C4.93614 15 5.1746 14.9012 5.35041 14.7254C5.52623 14.5496 5.625 14.3111 5.625 14.0625C5.625 13.8139 5.52623 13.5754 5.35041 13.3996C5.1746 13.2238 4.93614 13.125 4.6875 13.125C4.43886 13.125 4.2004 13.2238 4.02459 13.3996C3.84877 13.5754 3.75 13.8139 3.75 14.0625C3.75 14.3111 3.84877 14.5496 4.02459 14.7254C4.2004 14.9012 4.43886 15 4.6875 15Z" fill="#00B900"/>
<path d="M6.72335 2.97335C7.42661 2.27009 8.38044 1.875 9.375 1.875H20.625C21.6196 1.875 22.5734 2.27009 23.2766 2.97335C23.9799 3.67661 24.375 4.63044 24.375 5.625V7.5H5.625V5.625C5.625 4.63044 6.02009 3.67661 6.72335 2.97335Z" fill="#DD0000"/>
</svg>
