<svg width="28" height="28" viewBox="0 0 28 28" fill="none" xmlns="http://www.w3.org/2000/svg">
<path d="M7 4.375C7 4.14294 7.09219 3.92038 7.25628 3.75628C7.42038 3.59219 7.64294 3.5 7.875 3.5H9.625C9.85706 3.5 10.0796 3.59219 10.2437 3.75628C10.4078 3.92038 10.5 4.14294 10.5 4.375V6.125C10.5 6.35706 10.4078 6.57962 10.2437 6.74372C10.0796 6.90781 9.85706 7 9.625 7H7.875C7.64294 7 7.42038 6.90781 7.25628 6.74372C7.09219 6.57962 7 6.35706 7 6.125V4.375ZM12.25 4.375C12.25 4.14294 12.3422 3.92038 12.5063 3.75628C12.6704 3.59219 12.8929 3.5 13.125 3.5H14.875C15.1071 3.5 15.3296 3.59219 15.4937 3.75628C15.6578 3.92038 15.75 4.14294 15.75 4.375V6.125C15.75 6.35706 15.6578 6.57962 15.4937 6.74372C15.3296 6.90781 15.1071 7 14.875 7H13.125C12.8929 7 12.6704 6.90781 12.5063 6.74372C12.3422 6.57962 12.25 6.35706 12.25 6.125V4.375ZM18.375 3.5C18.1429 3.5 17.9204 3.59219 17.7563 3.75628C17.5922 3.92038 17.5 4.14294 17.5 4.375V6.125C17.5 6.35706 17.5922 6.57962 17.7563 6.74372C17.9204 6.90781 18.1429 7 18.375 7H20.125C20.3571 7 20.5796 6.90781 20.7437 6.74372C20.9078 6.57962 21 6.35706 21 6.125V4.375C21 4.14294 20.9078 3.92038 20.7437 3.75628C20.5796 3.59219 20.3571 3.5 20.125 3.5H18.375ZM7 9.625C7 9.39294 7.09219 9.17038 7.25628 9.00628C7.42038 8.84219 7.64294 8.75 7.875 8.75H9.625C9.85706 8.75 10.0796 8.84219 10.2437 9.00628C10.4078 9.17038 10.5 9.39294 10.5 9.625V11.375C10.5 11.6071 10.4078 11.8296 10.2437 11.9937C10.0796 12.1578 9.85706 12.25 9.625 12.25H7.875C7.64294 12.25 7.42038 12.1578 7.25628 11.9937C7.09219 11.8296 7 11.6071 7 11.375V9.625ZM13.125 8.75C12.8929 8.75 12.6704 8.84219 12.5063 9.00628C12.3422 9.17038 12.25 9.39294 12.25 9.625V11.375C12.25 11.6071 12.3422 11.8296 12.5063 11.9937C12.6704 12.1578 12.8929 12.25 13.125 12.25H14.875C15.1071 12.25 15.3296 12.1578 15.4937 11.9937C15.6578 11.8296 15.75 11.6071 15.75 11.375V9.625C15.75 9.39294 15.6578 9.17038 15.4937 9.00628C15.3296 8.84219 15.1071 8.75 14.875 8.75H13.125ZM17.5 9.625C17.5 9.39294 17.5922 9.17038 17.7563 9.00628C17.9204 8.84219 18.1429 8.75 18.375 8.75H20.125C20.3571 8.75 20.5796 8.84219 20.7437 9.00628C20.9078 9.17038 21 9.39294 21 9.625V11.375C21 11.6071 20.9078 11.8296 20.7437 11.9937C20.5796 12.1578 20.3571 12.25 20.125 12.25H18.375C18.1429 12.25 17.9204 12.1578 17.7563 11.9937C17.5922 11.8296 17.5 11.6071 17.5 11.375V9.625ZM7.875 14C7.64294 14 7.42038 14.0922 7.25628 14.2563C7.09219 14.4204 7 14.6429 7 14.875V16.625C7 16.8571 7.09219 17.0796 7.25628 17.2437C7.42038 17.4078 7.64294 17.5 7.875 17.5H9.625C9.85706 17.5 10.0796 17.4078 10.2437 17.2437C10.4078 17.0796 10.5 16.8571 10.5 16.625V14.875C10.5 14.6429 10.4078 14.4204 10.2437 14.2563C10.0796 14.0922 9.85706 14 9.625 14H7.875ZM12.25 14.875C12.25 14.6429 12.3422 14.4204 12.5063 14.2563C12.6704 14.0922 12.8929 14 13.125 14H14.875C15.1071 14 15.3296 14.0922 15.4937 14.2563C15.6578 14.4204 15.75 14.6429 15.75 14.875V16.625C15.75 16.8571 15.6578 17.0796 15.4937 17.2437C15.3296 17.4078 15.1071 17.5 14.875 17.5H13.125C12.8929 17.5 12.6704 17.4078 12.5063 17.2437C12.3422 17.0796 12.25 16.8571 12.25 16.625V14.875ZM18.375 14C18.1429 14 17.9204 14.0922 17.7563 14.2563C17.5922 14.4204 17.5 14.6429 17.5 14.875V16.625C17.5 16.8571 17.5922 17.0796 17.7563 17.2437C17.9204 17.4078 18.1429 17.5 18.375 17.5H20.125C20.3571 17.5 20.5796 17.4078 20.7437 17.2437C20.9078 17.0796 21 16.8571 21 16.625V14.875C21 14.6429 20.9078 14.4204 20.7437 14.2563C20.5796 14.0922 20.3571 14 20.125 14H18.375Z" fill="black"/>
<path d="M3.5 1.75C3.5 1.28587 3.68437 0.840752 4.01256 0.512563C4.34075 0.184374 4.78587 0 5.25 0L22.75 0C23.2141 0 23.6592 0.184374 23.9874 0.512563C24.3156 0.840752 24.5 1.28587 24.5 1.75V26.25C24.5 26.7141 24.3156 27.1592 23.9874 27.4874C23.6592 27.8156 23.2141 28 22.75 28H5.25C4.78587 28 4.34075 27.8156 4.01256 27.4874C3.68437 27.1592 3.5 26.7141 3.5 26.25V1.75ZM22.75 1.75H5.25V26.25H10.5V21.875C10.5 21.6429 10.5922 21.4204 10.7563 21.2563C10.9204 21.0922 11.1429 21 11.375 21H16.625C16.8571 21 17.0796 21.0922 17.2437 21.2563C17.4078 21.4204 17.5 21.6429 17.5 21.875V26.25H22.75V1.75Z" fill="black"/>
</svg>
