<svg width="30" height="30" viewBox="0 0 30 30" fill="none" xmlns="http://www.w3.org/2000/svg">
<g clip-path="url(#clip0_3344_396)">
<path d="M16.875 13.125C16.875 12.6277 17.0725 12.1508 17.4242 11.7992C17.7758 11.4475 18.2527 11.25 18.75 11.25H28.125V15H18.75C18.2527 15 17.7758 14.8025 17.4242 14.4508C17.0725 14.0992 16.875 13.6223 16.875 13.125ZM1.875 16.875H9.375C9.87228 16.875 10.3492 17.0725 10.7008 17.4242C11.0525 17.7758 11.25 18.2527 11.25 18.75C11.25 19.2473 11.0525 19.7242 10.7008 20.0758C10.3492 20.4275 9.87228 20.625 9.375 20.625H1.875V16.875Z" fill="black"/>
<path d="M6.5625 0C6.81114 0 7.0496 0.0987721 7.22541 0.274587C7.40123 0.450403 7.5 0.68886 7.5 0.9375V1.875H22.5V0.9375C22.5 0.68886 22.5988 0.450403 22.7746 0.274587C22.9504 0.0987721 23.1889 0 23.4375 0C23.6861 0 23.9246 0.0987721 24.1004 0.274587C24.2762 0.450403 24.375 0.68886 24.375 0.9375V1.875H26.25C27.2446 1.875 28.1984 2.27009 28.9016 2.97335C29.6049 3.67661 30 4.63044 30 5.625V26.25C30 27.2446 29.6049 28.1984 28.9016 28.9016C28.1984 29.6049 27.2446 30 26.25 30H3.75C2.75544 30 1.80161 29.6049 1.09835 28.9016C0.395088 28.1984 0 27.2446 0 26.25V5.625C0 4.63044 0.395088 3.67661 1.09835 2.97335C1.80161 2.27009 2.75544 1.875 3.75 1.875H5.625V0.9375C5.625 0.68886 5.72377 0.450403 5.89959 0.274587C6.0754 0.0987721 6.31386 0 6.5625 0ZM1.875 7.5V26.25C1.875 26.7473 2.07254 27.2242 2.42417 27.5758C2.77581 27.9275 3.25272 28.125 3.75 28.125H26.25C26.7473 28.125 27.2242 27.9275 27.5758 27.5758C27.9275 27.2242 28.125 26.7473 28.125 26.25V7.5H1.875Z" fill="black"/>
</g>
<defs>
<clipPath id="clip0_3344_396">
<rect width="30" height="30" fill="white"/>
</clipPath>
</defs>
</svg>
