<svg width="30" height="30" viewBox="0 0 30 30" fill="none" xmlns="http://www.w3.org/2000/svg">
<path d="M9.375 0H24.375C25.3696 0 26.3234 0.395088 27.0266 1.09835C27.7299 1.80161 28.125 2.75544 28.125 3.75V22.5C28.125 23.4946 27.7299 24.4484 27.0266 25.1516C26.3234 25.8549 25.3696 26.25 24.375 26.25C24.375 27.2446 23.9799 28.1984 23.2766 28.9016C22.5734 29.6049 21.6196 30 20.625 30H5.625C4.63044 30 3.67661 29.6049 2.97335 28.9016C2.27009 28.1984 1.875 27.2446 1.875 26.25H3.75C3.75 26.7473 3.94754 27.2242 4.29917 27.5758C4.65081 27.9275 5.12772 28.125 5.625 28.125H20.625C21.1223 28.125 21.5992 27.9275 21.9508 27.5758C22.3025 27.2242 22.5 26.7473 22.5 26.25V7.5C22.5 7.00272 22.3025 6.52581 21.9508 6.17417C21.5992 5.82254 21.1223 5.625 20.625 5.625H5.625C5.12772 5.625 4.65081 5.82254 4.29917 6.17417C3.94754 6.52581 3.75 7.00272 3.75 7.5H1.875C1.875 6.50544 2.27009 5.55161 2.97335 4.84835C3.67661 4.14509 4.63044 3.75 5.625 3.75H20.625C21.6196 3.75 22.5734 4.14509 23.2766 4.84835C23.9799 5.55161 24.375 6.50544 24.375 7.5V24.375C24.8723 24.375 25.3492 24.1775 25.7008 23.8258C26.0525 23.4742 26.25 22.9973 26.25 22.5V3.75C26.25 3.25272 26.0525 2.77581 25.7008 2.42417C25.3492 2.07254 24.8723 1.875 24.375 1.875H9.375C8.87772 1.875 8.40081 2.07254 8.04918 2.42417C7.69754 2.77581 7.5 3.25272 7.5 3.75H5.625C5.625 2.75544 6.02009 1.80161 6.72335 1.09835C7.42661 0.395088 8.38044 0 9.375 0Z" fill="black"/>
<path fill-rule="evenodd" clip-rule="evenodd" d="M10.7142 15.3555V5.35693H12.1428V14.0942L14.6328 12.5987C14.7437 12.5323 14.8706 12.4972 14.9999 12.4972C15.1293 12.4972 15.2562 12.5323 15.3671 12.5987L17.8571 14.0942V5.35693H19.2857V15.3555C19.2857 15.4818 19.2522 15.6059 19.1886 15.7151C19.125 15.8243 19.0335 15.9146 18.9235 15.977C18.8136 16.0393 18.6891 16.0713 18.5627 16.0697C18.4363 16.0682 18.3126 16.0332 18.2042 15.9682L14.9999 14.0457L11.7957 15.9697C11.6872 16.0347 11.5633 16.0697 11.4368 16.0712C11.3103 16.0726 11.1857 16.0405 11.0757 15.978C10.9657 15.9156 10.8743 15.825 10.8108 15.7156C10.7473 15.6062 10.714 15.4819 10.7142 15.3555Z" fill="black"/>
<path d="M1.875 11.25V10.3125C1.875 10.0639 1.97377 9.8254 2.14959 9.64959C2.3254 9.47377 2.56386 9.375 2.8125 9.375C3.06114 9.375 3.2996 9.47377 3.47541 9.64959C3.65123 9.8254 3.75 10.0639 3.75 10.3125V11.25H4.6875C4.93614 11.25 5.1746 11.3488 5.35041 11.5246C5.52623 11.7004 5.625 11.9389 5.625 12.1875C5.625 12.4361 5.52623 12.6746 5.35041 12.8504C5.1746 13.0262 4.93614 13.125 4.6875 13.125H0.9375C0.68886 13.125 0.450403 13.0262 0.274587 12.8504C0.0987721 12.6746 0 12.4361 0 12.1875C0 11.9389 0.0987721 11.7004 0.274587 11.5246C0.450403 11.3488 0.68886 11.25 0.9375 11.25H1.875ZM1.875 16.875V15.9375C1.875 15.6889 1.97377 15.4504 2.14959 15.2746C2.3254 15.0988 2.56386 15 2.8125 15C3.06114 15 3.2996 15.0988 3.47541 15.2746C3.65123 15.4504 3.75 15.6889 3.75 15.9375V16.875H4.6875C4.93614 16.875 5.1746 16.9738 5.35041 17.1496C5.52623 17.3254 5.625 17.5639 5.625 17.8125C5.625 18.0611 5.52623 18.2996 5.35041 18.4754C5.1746 18.6512 4.93614 18.75 4.6875 18.75H0.9375C0.68886 18.75 0.450403 18.6512 0.274587 18.4754C0.0987721 18.2996 0 18.0611 0 17.8125C0 17.5639 0.0987721 17.3254 0.274587 17.1496C0.450403 16.9738 0.68886 16.875 0.9375 16.875H1.875ZM1.875 21.5625V22.5H0.9375C0.68886 22.5 0.450403 22.5988 0.274587 22.7746C0.0987721 22.9504 0 23.1889 0 23.4375C0 23.6861 0.0987721 23.9246 0.274587 24.1004C0.450403 24.2762 0.68886 24.375 0.9375 24.375H4.6875C4.93614 24.375 5.1746 24.2762 5.35041 24.1004C5.52623 23.9246 5.625 23.6861 5.625 23.4375C5.625 23.1889 5.52623 22.9504 5.35041 22.7746C5.1746 22.5988 4.93614 22.5 4.6875 22.5H3.75V21.5625C3.75 21.3139 3.65123 21.0754 3.47541 20.8996C3.2996 20.7238 3.06114 20.625 2.8125 20.625C2.56386 20.625 2.3254 20.7238 2.14959 20.8996C1.97377 21.0754 1.875 21.3139 1.875 21.5625Z" fill="black"/>
</svg>
