<svg width="30" height="30" viewBox="0 0 30 30" fill="none" xmlns="http://www.w3.org/2000/svg">
<path d="M11.25 23.9923V6.00734L21.5269 14.9998L11.25 23.9923ZM12.4856 25.4042L22.7606 16.4117C22.962 16.2357 23.1234 16.0187 23.234 15.7752C23.3446 15.5317 23.4018 15.2673 23.4018 14.9998C23.4018 14.7324 23.3446 14.468 23.234 14.2245C23.1234 13.981 22.962 13.764 22.7606 13.588L12.4875 4.59546C11.2706 3.53421 9.375 4.39671 9.375 6.00734V23.9923C9.37469 24.3528 9.47829 24.7057 9.67339 25.0088C9.86849 25.3119 10.1468 25.5523 10.475 25.7013C10.8033 25.8503 11.1675 25.9015 11.5241 25.8488C11.8807 25.7961 12.2145 25.6418 12.4856 25.4042Z" fill="black"/>
</svg>
