<svg width="30" height="30" viewBox="0 0 30 30" fill="none" xmlns="http://www.w3.org/2000/svg">
<path d="M25.3125 6.16064C25.5611 6.16064 25.7996 6.25942 25.9754 6.43523C26.1512 6.61105 26.25 6.8495 26.25 7.09814V21.1606H3.75V7.09814C3.75 6.8495 3.84877 6.61105 4.02459 6.43523C4.2004 6.25942 4.43886 6.16064 4.6875 6.16064H25.3125ZM4.6875 4.28564C3.94158 4.28564 3.22621 4.58196 2.69876 5.10941C2.17132 5.63685 1.875 6.35222 1.875 7.09814V23.0356H28.125V7.09814C28.125 6.35222 27.8287 5.63685 27.3012 5.10941C26.7738 4.58196 26.0584 4.28564 25.3125 4.28564H4.6875ZM0 23.9731H30C30 24.7191 29.7037 25.4344 29.1762 25.9619C28.6488 26.4893 27.9334 26.7856 27.1875 26.7856H2.8125C2.06658 26.7856 1.35121 26.4893 0.823762 25.9619C0.296316 25.4344 0 24.7191 0 23.9731Z" fill="black"/>
</svg>
