<svg width="30" height="30" viewBox="0 0 30 30" fill="none" xmlns="http://www.w3.org/2000/svg">
<path fill-rule="evenodd" clip-rule="evenodd" d="M25.6066 25.6066C28.4196 22.7935 30 18.9782 30 15C30 11.0217 28.4196 7.20644 25.6066 4.39339C22.7936 1.58035 18.9782 0 15 0C11.0218 0 7.20644 1.58035 4.3934 4.39339C1.58035 7.20644 0 11.0217 0 15C0 18.9782 1.58035 22.7935 4.3934 25.6066C7.20644 28.4196 11.0218 30 15 30C18.9782 30 22.7936 28.4196 25.6066 25.6066ZM14.1843 23.2629C11.1843 23.0443 9.21367 21.3543 9 18.9729H11.1092C11.385 20.2843 12.5269 21.1843 14.1858 21.4271V15.6686L13.3051 15.4371C10.858 14.8171 9.46343 13.3471 9.46343 11.27C9.46343 8.86428 11.385 7.09 14.1843 6.76143V5H15.6901V6.72571C18.5775 6.90714 20.5611 8.54714 20.8008 10.8329H18.6785C18.4028 9.54429 17.3099 8.68143 15.6901 8.52429V13.9557L16.7324 14.2229C19.6328 14.9629 21 16.2771 21 18.5486C21 21.2086 18.9673 23.0071 15.6901 23.2629V25H14.1843V23.2629ZM11.5857 11.1843C11.5857 12.3143 12.3898 13.1171 13.8956 13.4929L14.1843 13.5657V8.57286C12.602 8.84 11.5857 9.83571 11.5857 11.1843ZM18.8662 18.6943C18.8662 17.3943 18.0505 16.6286 16.1925 16.1671L15.6901 16.0429V21.4643C17.6737 21.3057 18.8662 20.2614 18.8662 18.6943Z" fill="black"/>
</svg>
