<svg width="30" height="30" viewBox="0 0 30 30" fill="none" xmlns="http://www.w3.org/2000/svg">
<path d="M13.5881 9.11248L4.59558 19.3894C3.53433 20.6025 4.39683 22.5 6.00746 22.5H23.9925C24.3529 22.5003 24.7058 22.3967 25.0089 22.2016C25.312 22.0065 25.5524 21.7282 25.7014 21.3999C25.8504 21.0717 25.9016 20.7075 25.8489 20.3509C25.7962 19.9943 25.6419 19.6605 25.4043 19.3894L16.4118 9.11436C16.2358 8.91296 16.0188 8.75155 15.7753 8.64096C15.5318 8.53036 15.2674 8.47314 15 8.47314C14.7325 8.47314 14.4681 8.53036 14.2246 8.64096C13.9811 8.75155 13.7641 8.91109 13.5881 9.11248Z" fill="black"/>
</svg>
