<svg width="30" height="30" viewBox="0 0 30 30" fill="none" xmlns="http://www.w3.org/2000/svg">
<path d="M7.23748 16.4118L17.5162 25.4043C18.7275 26.4656 20.625 25.6031 20.625 23.9925V6.00747C20.6253 5.64701 20.5217 5.2941 20.3266 4.99101C20.1315 4.68791 19.8532 4.44748 19.5249 4.2985C19.1967 4.14952 18.8325 4.09831 18.4759 4.151C18.1193 4.20369 17.7855 4.35805 17.5144 4.59559L7.23936 13.5881C7.03796 13.7641 6.87655 13.9811 6.76596 14.2246C6.65536 14.4682 6.59814 14.7325 6.59814 15C6.59814 15.2674 6.65536 15.5318 6.76596 15.7753C6.87655 16.0188 7.03796 16.2359 7.23936 16.4118H7.23748Z" fill="black"/>
</svg>
