<svg width="30" height="30" viewBox="0 0 30 30" fill="none" xmlns="http://www.w3.org/2000/svg">
<g clip-path="url(#clip0_3400_27)">
<path d="M0 3.75C0 2.75544 0.395088 1.80161 1.09835 1.09835C1.80161 0.395088 2.75544 0 3.75 0L26.25 0C27.2446 0 28.1984 0.395088 28.9016 1.09835C29.6049 1.80161 30 2.75544 30 3.75V26.25C30 27.2446 29.6049 28.1984 28.9016 28.9016C28.1984 29.6049 27.2446 30 26.25 30H3.75C2.75544 30 1.80161 29.6049 1.09835 28.9016C0.395088 28.1984 0 27.2446 0 26.25V3.75ZM28.125 7.5H20.625V13.125H28.125V7.5ZM28.125 15H20.625V20.625H28.125V15ZM28.125 22.5H20.625V28.125H26.25C26.7473 28.125 27.2242 27.9275 27.5758 27.5758C27.9275 27.2242 28.125 26.7473 28.125 26.25V22.5ZM18.75 28.125V22.5H11.25V28.125H18.75ZM9.375 28.125V22.5H1.875V26.25C1.875 26.7473 2.07254 27.2242 2.42417 27.5758C2.77581 27.9275 3.25272 28.125 3.75 28.125H9.375ZM1.875 20.625H9.375V15H1.875V20.625ZM1.875 13.125H9.375V7.5H1.875V13.125ZM11.25 7.5V13.125H18.75V7.5H11.25ZM18.75 15H11.25V20.625H18.75V15Z" fill="black"/>
</g>
<defs>
<clipPath id="clip0_3400_27">
<rect width="30" height="30" fill="white"/>
</clipPath>
</defs>
</svg>
