<svg width="30" height="30" viewBox="0 0 30 30" fill="none" xmlns="http://www.w3.org/2000/svg">
<path fill-rule="evenodd" clip-rule="evenodd" d="M15.9375 3.75C16.1861 3.75 16.4246 3.84877 16.6004 4.02459C16.7762 4.2004 16.875 4.43886 16.875 4.6875V25.3125C16.875 25.5611 16.7762 25.7996 16.6004 25.9754C16.4246 26.1512 16.1861 26.25 15.9375 26.25C15.6889 26.25 15.4504 26.1512 15.2746 25.9754C15.0988 25.7996 15 25.5611 15 25.3125V4.6875C15 4.43886 15.0988 4.2004 15.2746 4.02459C15.4504 3.84877 15.6889 3.75 15.9375 3.75ZM12.1875 7.5C12.4361 7.5 12.6746 7.59877 12.8504 7.77459C13.0262 7.9504 13.125 8.18886 13.125 8.4375V21.5625C13.125 21.8111 13.0262 22.0496 12.8504 22.2254C12.6746 22.4012 12.4361 22.5 12.1875 22.5C11.9389 22.5 11.7004 22.4012 11.5246 22.2254C11.3488 22.0496 11.25 21.8111 11.25 21.5625V8.4375C11.25 8.18886 11.3488 7.9504 11.5246 7.77459C11.7004 7.59877 11.9389 7.5 12.1875 7.5ZM19.6875 7.5C19.9361 7.5 20.1746 7.59877 20.3504 7.77459C20.5262 7.9504 20.625 8.18886 20.625 8.4375V21.5625C20.625 21.8111 20.5262 22.0496 20.3504 22.2254C20.1746 22.4012 19.9361 22.5 19.6875 22.5C19.4389 22.5 19.2004 22.4012 19.0246 22.2254C18.8488 22.0496 18.75 21.8111 18.75 21.5625V8.4375C18.75 8.18886 18.8488 7.9504 19.0246 7.77459C19.2004 7.59877 19.4389 7.5 19.6875 7.5ZM8.4375 10.3125C8.68614 10.3125 8.9246 10.4113 9.10041 10.5871C9.27623 10.7629 9.375 11.0014 9.375 11.25V18.75C9.375 18.9986 9.27623 19.2371 9.10041 19.4129C8.9246 19.5887 8.68614 19.6875 8.4375 19.6875C8.18886 19.6875 7.9504 19.5887 7.77459 19.4129C7.59877 19.2371 7.5 18.9986 7.5 18.75V11.25C7.5 11.0014 7.59877 10.7629 7.77459 10.5871C7.9504 10.4113 8.18886 10.3125 8.4375 10.3125ZM23.4375 10.3125C23.6861 10.3125 23.9246 10.4113 24.1004 10.5871C24.2762 10.7629 24.375 11.0014 24.375 11.25V18.75C24.375 18.9986 24.2762 19.2371 24.1004 19.4129C23.9246 19.5887 23.6861 19.6875 23.4375 19.6875C23.1889 19.6875 22.9504 19.5887 22.7746 19.4129C22.5988 19.2371 22.5 18.9986 22.5 18.75V11.25C22.5 11.0014 22.5988 10.7629 22.7746 10.5871C22.9504 10.4113 23.1889 10.3125 23.4375 10.3125ZM4.6875 12.1875C4.93614 12.1875 5.1746 12.2863 5.35041 12.4621C5.52623 12.6379 5.625 12.8764 5.625 13.125V16.875C5.625 17.1236 5.52623 17.3621 5.35041 17.5379C5.1746 17.7137 4.93614 17.8125 4.6875 17.8125C4.43886 17.8125 4.2004 17.7137 4.02459 17.5379C3.84877 17.3621 3.75 17.1236 3.75 16.875V13.125C3.75 12.8764 3.84877 12.6379 4.02459 12.4621C4.2004 12.2863 4.43886 12.1875 4.6875 12.1875ZM27.1875 12.1875C27.4361 12.1875 27.6746 12.2863 27.8504 12.4621C28.0262 12.6379 28.125 12.8764 28.125 13.125V16.875C28.125 17.1236 28.0262 17.3621 27.8504 17.5379C27.6746 17.7137 27.4361 17.8125 27.1875 17.8125C26.9389 17.8125 26.7004 17.7137 26.5246 17.5379C26.3488 17.3621 26.25 17.1236 26.25 16.875V13.125C26.25 12.8764 26.3488 12.6379 26.5246 12.4621C26.7004 12.2863 26.9389 12.1875 27.1875 12.1875Z" fill="black"/>
</svg>
