<svg width="30" height="30" viewBox="0 0 30 30" fill="none" xmlns="http://www.w3.org/2000/svg">
<path fill-rule="evenodd" clip-rule="evenodd" d="M21.5625 1.875C21.3138 1.875 21.0754 1.77623 20.8996 1.60041C20.7238 1.4246 20.625 1.18614 20.625 0.9375C20.625 0.68886 20.7238 0.450403 20.8996 0.274587C21.0754 0.0987721 21.3138 0 21.5625 0L29.0625 0C29.3111 0 29.5496 0.0987721 29.7254 0.274587C29.9012 0.450403 30 0.68886 30 0.9375V8.4375C30 8.68614 29.9012 8.9246 29.7254 9.10041C29.5496 9.27623 29.3111 9.375 29.0625 9.375C28.8138 9.375 28.5754 9.27623 28.3996 9.10041C28.2238 8.9246 28.125 8.68614 28.125 8.4375V3.20062L21.6562 9.66938C22.2136 10.7421 22.5034 11.9336 22.501 13.1424C22.4986 14.3513 22.204 15.5416 21.6424 16.6121C21.0807 17.6825 20.2686 18.6013 19.2753 19.2903C18.282 19.9792 17.1369 20.4178 15.9375 20.5688V24.375H18.75C18.9986 24.375 19.2371 24.4738 19.4129 24.6496C19.5887 24.8254 19.6875 25.0639 19.6875 25.3125C19.6875 25.5611 19.5887 25.7996 19.4129 25.9754C19.2371 26.1512 18.9986 26.25 18.75 26.25H15.9375V29.0625C15.9375 29.3111 15.8387 29.5496 15.6629 29.7254C15.4871 29.9012 15.2486 30 15 30C14.7513 30 14.5129 29.9012 14.3371 29.7254C14.1613 29.5496 14.0625 29.3111 14.0625 29.0625V26.25H11.25C11.0013 26.25 10.7629 26.1512 10.5871 25.9754C10.4113 25.7996 10.3125 25.5611 10.3125 25.3125C10.3125 25.0639 10.4113 24.8254 10.5871 24.6496C10.7629 24.4738 11.0013 24.375 11.25 24.375H14.0625V20.5688C12.8622 20.4172 11.7164 19.9775 10.7228 19.2872C9.72922 18.5969 8.91739 17.6765 8.35656 16.6045C7.79574 15.5325 7.50257 14.3408 7.50208 13.1309C7.50158 11.9211 7.79376 10.7291 8.35371 9.65665C8.91365 8.58419 9.72472 7.66311 10.7177 6.972C11.7107 6.28089 12.8562 5.84026 14.0564 5.6877C15.2565 5.53515 16.4758 5.6752 17.6101 6.09591C18.7445 6.51661 19.7602 7.20549 20.5706 8.10375L26.7994 1.875H21.5625ZM19.6931 10.0238C18.8704 8.77906 17.5868 7.91218 16.1249 7.61382C14.663 7.31546 13.1425 7.61006 11.8978 8.43281C10.6531 9.25556 9.78622 10.5391 9.48786 12.001C9.1895 13.4629 9.48411 14.9834 10.3069 16.2281C11.1299 17.4728 12.4136 18.3396 13.8757 18.6378C15.3378 18.936 16.8584 18.6411 18.1031 17.8181C19.3478 16.9951 20.2146 15.7114 20.5128 14.2493C20.8109 12.7872 20.5161 11.2666 19.6931 10.0219V10.0238Z" fill="black"/>
</svg>
