<svg width="30" height="30" viewBox="0 0 30 30" fill="none" xmlns="http://www.w3.org/2000/svg">
<g clip-path="url(#clip0_3344_409)">
<path d="M11.2538 10.3125C11.2538 11.0584 10.9575 11.7738 10.43 12.3012C9.90258 12.8287 9.18721 13.125 8.44128 13.125C7.69536 13.125 6.97999 12.8287 6.45255 12.3012C5.9251 11.7738 5.62878 11.0584 5.62878 10.3125C5.62878 9.56658 5.9251 8.85121 6.45255 8.32376C6.97999 7.79632 7.69536 7.5 8.44128 7.5C9.18721 7.5 9.90258 7.79632 10.43 8.32376C10.9575 8.85121 11.2538 9.56658 11.2538 10.3125Z" fill="black"/>
<path d="M3.75378 1.875C2.75922 1.875 1.8054 2.27009 1.10213 2.97335C0.398872 3.67661 0.00378418 4.63044 0.00378418 5.625V24.375C0.00378418 25.3696 0.398872 26.3234 1.10213 27.0266C1.8054 27.7299 2.75922 28.125 3.75378 28.125H26.2538C27.2483 28.125 28.2022 27.7299 28.9054 27.0266C29.6087 26.3234 30.0038 25.3696 30.0038 24.375V5.625C30.0038 4.63044 29.6087 3.67661 28.9054 2.97335C28.2022 2.27009 27.2483 1.875 26.2538 1.875H3.75378ZM26.2538 3.75C26.7511 3.75 27.228 3.94754 27.5796 4.29917C27.9312 4.65081 28.1288 5.12772 28.1288 5.625V17.8125L21.0469 14.1619C20.8711 14.0738 20.672 14.0432 20.4778 14.0745C20.2837 14.1058 20.1043 14.1974 19.965 14.3363L13.0088 21.2925L8.02128 17.97C7.84121 17.8501 7.62521 17.7962 7.40992 17.8174C7.19462 17.8386 6.99328 17.9336 6.84003 18.0863L1.87878 22.5V5.625C1.87878 5.12772 2.07633 4.65081 2.42796 4.29917C2.77959 3.94754 3.2565 3.75 3.75378 3.75H26.2538Z" fill="black"/>
</g>
<defs>
<clipPath id="clip0_3344_409">
<rect width="30" height="30" fill="white"/>
</clipPath>
</defs>
</svg>
