<svg width="30" height="30" viewBox="0 0 30 30" fill="none" xmlns="http://www.w3.org/2000/svg">
<path d="M24.5737 13.5414C24.5737 7.97832 20.3569 4.10645 14.295 4.10645C8.01374 4.10645 3.70874 8.4527 3.70874 14.7977C3.70874 21.3471 7.89936 25.5002 14.5125 25.5002C16.1287 25.5002 17.6794 25.2696 18.8325 24.8721V23.2558C18.0262 23.6289 16.2937 23.8708 14.5387 23.8708C9.05249 23.8708 5.51437 20.3458 5.51437 14.8746C5.51437 9.54207 9.11624 5.7227 14.1281 5.7227C19.2562 5.7227 22.7681 8.8877 22.7681 13.5152C22.7681 16.6689 21.7294 18.7071 20.1131 18.7071C19.1906 18.7071 18.6656 18.1821 18.6656 17.2821V9.76145H16.7306V11.3252H16.5244C16.0256 10.2096 14.8725 9.5177 13.5244 9.5177C10.8994 9.5177 9.06562 11.6964 9.06562 14.8108C9.06562 18.0677 10.86 20.2596 13.5262 20.2596C15.0262 20.2596 16.1794 19.5283 16.7306 18.2214H16.9369C17.0887 19.4777 18.255 20.3739 19.755 20.3739C22.7025 20.3739 24.5737 17.7189 24.5737 13.5414ZM11.1169 14.8614C11.1169 12.6171 12.1294 11.2858 13.8469 11.2858C15.5906 11.2858 16.7044 12.6696 16.7044 14.8614C16.7044 17.0533 15.5775 18.4502 13.8206 18.4502C12.1425 18.4502 11.1169 17.0908 11.1169 14.8614Z" fill="black"/>
</svg>
