<svg width="30" height="30" viewBox="0 0 30 30" fill="none" xmlns="http://www.w3.org/2000/svg">
<path fill-rule="evenodd" clip-rule="evenodd" d="M11.0194 5.37552C12.417 5.24903 13.5026 4.07062 13.5026 2.69276C13.5026 1.2096 12.2667 0 10.7519 0C9.2365 0 8 1.2096 8 2.69276C8 3.14518 8.12924 3.6082 8.34384 3.99767L9.32426 17.4991L19.4224 17.5027L23.5635 27L29 24.9126L28.1584 22.9506L25.1156 24.0248L21.1085 14.9711L11.7191 15.0323L11.5917 13.3226L18.3879 13.325V10.7952L11.332 10.7922L11.0194 5.37552Z" fill="black"/>
<path fill-rule="evenodd" clip-rule="evenodd" d="M21 24.5079C19.3162 27.8184 15.7894 30 12.0297 30C6.50596 30 2 25.5204 2 20.0283C2 16.1725 4.35101 12.5891 7.85822 11L8.08577 13.9454C6.01044 15.2451 4.73186 17.5903 4.73186 20.049C4.73186 24.0323 8.00081 27.282 12.0077 27.282C15.6735 27.282 18.7987 24.4848 19.2259 20.8961L21 24.5079Z" fill="black"/>
</svg>
