<svg width="30" height="30" viewBox="0 0 30 30" fill="none" xmlns="http://www.w3.org/2000/svg">
<path d="M5.02125 22.3013C5.21587 22.4966 5.365 22.7325 5.45802 22.9921C5.55103 23.2517 5.58564 23.5286 5.55937 23.8031C5.42728 25.0735 5.17745 26.3289 4.81312 27.5531C7.42875 26.9475 9.02625 26.2463 9.75187 25.8788C10.1634 25.6703 10.6374 25.6209 11.0831 25.74C12.3606 26.0819 13.6776 26.2534 15 26.25C22.4925 26.25 28.125 20.9869 28.125 15C28.125 9.01313 22.4925 3.75 15 3.75C7.5075 3.75 1.875 9.015 1.875 15C1.875 17.7525 3.03187 20.3063 5.02125 22.3013ZM4.09687 29.6231C3.65261 29.7111 3.20692 29.7917 2.76 29.865C2.385 29.925 2.1 29.535 2.24813 29.1863C2.41416 28.7934 2.56675 28.3951 2.70562 27.9919L2.71125 27.9731C3.17625 26.6231 3.555 25.0706 3.69375 23.625C1.39313 21.3188 0 18.3 0 15C0 7.75125 6.71625 1.875 15 1.875C23.2838 1.875 30 7.75125 30 15C30 22.2488 23.2838 28.125 15 28.125C13.5143 28.1283 12.0346 27.9354 10.5994 27.5513C9.62437 28.0444 7.52625 28.9425 4.09687 29.6231Z" fill="black"/>
</svg>
