<svg width="30" height="30" viewBox="0 0 30 30" fill="none" xmlns="http://www.w3.org/2000/svg">
<path fill-rule="evenodd" clip-rule="evenodd" d="M11.25 6.5625C11.25 5.81658 11.5463 5.10121 12.0738 4.57376C12.6012 4.04632 13.3166 3.75 14.0625 3.75H15.9375C16.6834 3.75 17.3988 4.04632 17.9262 4.57376C18.4537 5.10121 18.75 5.81658 18.75 6.5625V8.4375C18.75 9.18342 18.4537 9.89879 17.9262 10.4262C17.3988 10.9537 16.6834 11.25 15.9375 11.25V13.125H26.25C26.4986 13.125 26.7371 13.2238 26.9129 13.3996C27.0887 13.5754 27.1875 13.8139 27.1875 14.0625V15.9375C27.1875 16.1861 27.0887 16.4246 26.9129 16.6004C26.7371 16.7762 26.4986 16.875 26.25 16.875C26.0014 16.875 25.7629 16.7762 25.5871 16.6004C25.4113 16.4246 25.3125 16.1861 25.3125 15.9375V15H15.9375V15.9375C15.9375 16.1861 15.8387 16.4246 15.6629 16.6004C15.4871 16.7762 15.2486 16.875 15 16.875C14.7514 16.875 14.5129 16.7762 14.3371 16.6004C14.1613 16.4246 14.0625 16.1861 14.0625 15.9375V15H4.6875V15.9375C4.6875 16.1861 4.58873 16.4246 4.41291 16.6004C4.2371 16.7762 3.99864 16.875 3.75 16.875C3.50136 16.875 3.2629 16.7762 3.08709 16.6004C2.91127 16.4246 2.8125 16.1861 2.8125 15.9375V14.0625C2.8125 13.8139 2.91127 13.5754 3.08709 13.3996C3.2629 13.2238 3.50136 13.125 3.75 13.125H14.0625V11.25C13.3166 11.25 12.6012 10.9537 12.0738 10.4262C11.5463 9.89879 11.25 9.18342 11.25 8.4375V6.5625ZM0 21.5625C0 20.8166 0.296316 20.1012 0.823762 19.5738C1.35121 19.0463 2.06658 18.75 2.8125 18.75H4.6875C5.43342 18.75 6.14879 19.0463 6.67624 19.5738C7.20368 20.1012 7.5 20.8166 7.5 21.5625V23.4375C7.5 24.1834 7.20368 24.8988 6.67624 25.4262C6.14879 25.9537 5.43342 26.25 4.6875 26.25H2.8125C2.06658 26.25 1.35121 25.9537 0.823762 25.4262C0.296316 24.8988 0 24.1834 0 23.4375L0 21.5625ZM11.25 21.5625C11.25 20.8166 11.5463 20.1012 12.0738 19.5738C12.6012 19.0463 13.3166 18.75 14.0625 18.75H15.9375C16.6834 18.75 17.3988 19.0463 17.9262 19.5738C18.4537 20.1012 18.75 20.8166 18.75 21.5625V23.4375C18.75 24.1834 18.4537 24.8988 17.9262 25.4262C17.3988 25.9537 16.6834 26.25 15.9375 26.25H14.0625C13.3166 26.25 12.6012 25.9537 12.0738 25.4262C11.5463 24.8988 11.25 24.1834 11.25 23.4375V21.5625ZM22.5 21.5625C22.5 20.8166 22.7963 20.1012 23.3238 19.5738C23.8512 19.0463 24.5666 18.75 25.3125 18.75H27.1875C27.9334 18.75 28.6488 19.0463 29.1762 19.5738C29.7037 20.1012 30 20.8166 30 21.5625V23.4375C30 24.1834 29.7037 24.8988 29.1762 25.4262C28.6488 25.9537 27.9334 26.25 27.1875 26.25H25.3125C24.5666 26.25 23.8512 25.9537 23.3238 25.4262C22.7963 24.8988 22.5 24.1834 22.5 23.4375V21.5625Z" fill="black"/>
</svg>
