<svg width="30" height="30" viewBox="0 0 30 30" fill="none" xmlns="http://www.w3.org/2000/svg">
<g clip-path="url(#clip0_3344_403)">
<path fill-rule="evenodd" clip-rule="evenodd" d="M29.6569 0.211543C29.7642 0.299548 29.8507 0.410291 29.91 0.535777C29.9694 0.661263 30.0001 0.79836 30 0.937168V27.1872C29.9999 27.4038 29.9247 27.6137 29.7873 27.7812C29.6499 27.9487 29.4587 28.0635 29.2463 28.1059L19.8713 29.9809C19.7499 30.0052 19.6251 30.0052 19.5037 29.9809L10.3125 28.1434L1.12125 29.9809C0.985291 30.0081 0.844997 30.0048 0.710476 29.9712C0.575955 29.9376 0.450555 29.8746 0.343311 29.7868C0.236068 29.6989 0.14965 29.5883 0.0902846 29.463C0.0309191 29.3377 8.37239e-05 29.2008 0 29.0622L0 2.81217C0.000130841 2.59552 0.0752927 2.3856 0.212706 2.21811C0.35012 2.05061 0.541303 1.93588 0.75375 1.89342L10.1287 0.0184183C10.2501 -0.00582681 10.3749 -0.00582681 10.4963 0.0184183L19.6875 1.85592L28.8787 0.0184183C29.0147 -0.00892702 29.1549 -0.00578918 29.2895 0.0276058C29.4241 0.0610008 29.5495 0.123822 29.6569 0.211543ZM18.75 3.58092L11.25 2.08092V26.4184L18.75 27.9184V3.58092ZM20.625 27.9184L28.125 26.4184V2.08092L20.625 3.58092V27.9184ZM9.375 26.4184V2.08092L1.875 3.58092V27.9184L9.375 26.4184Z" fill="black"/>
</g>
<defs>
<clipPath id="clip0_3344_403">
<rect width="30" height="30" fill="white"/>
</clipPath>
</defs>
</svg>
