<svg width="30" height="30" viewBox="0 0 30 30" fill="none" xmlns="http://www.w3.org/2000/svg">
<path d="M15.9375 12.1875C15.9375 11.9389 15.8387 11.7004 15.6629 11.5246C15.4871 11.3488 15.2486 11.25 15 11.25C14.7513 11.25 14.5129 11.3488 14.3371 11.5246C14.1612 11.7004 14.0625 11.9389 14.0625 12.1875V19.2994L11.9137 17.1487C11.8265 17.0616 11.7231 16.9924 11.6092 16.9453C11.4953 16.8981 11.3732 16.8738 11.25 16.8738C11.1267 16.8738 11.0046 16.8981 10.8907 16.9453C10.7769 16.9924 10.6734 17.0616 10.5862 17.1487C10.499 17.2359 10.4299 17.3394 10.3827 17.4533C10.3356 17.5672 10.3113 17.6892 10.3113 17.8125C10.3113 17.9358 10.3356 18.0578 10.3827 18.1717C10.4299 18.2856 10.499 18.3891 10.5862 18.4763L14.3362 22.2262C14.4233 22.3136 14.5268 22.3828 14.6407 22.4301C14.7545 22.4773 14.8767 22.5017 15 22.5017C15.1233 22.5017 15.2454 22.4773 15.3593 22.4301C15.4732 22.3828 15.5766 22.3136 15.6637 22.2262L19.4137 18.4763C19.5009 18.3891 19.57 18.2856 19.6172 18.1717C19.6644 18.0578 19.6886 17.9358 19.6886 17.8125C19.6886 17.6892 19.6644 17.5672 19.6172 17.4533C19.57 17.3394 19.5009 17.2359 19.4137 17.1487C19.3265 17.0616 19.2231 16.9924 19.1092 16.9453C18.9953 16.8981 18.8732 16.8738 18.75 16.8738C18.6267 16.8738 18.5046 16.8981 18.3907 16.9453C18.2769 16.9924 18.1734 17.0616 18.0862 17.1487L15.9375 19.2994V12.1875Z" fill="black"/>
<path d="M26.25 26.25V8.4375L17.8125 0H7.5C6.50544 0 5.55161 0.395088 4.84835 1.09835C4.14509 1.80161 3.75 2.75544 3.75 3.75V26.25C3.75 27.2446 4.14509 28.1984 4.84835 28.9016C5.55161 29.6049 6.50544 30 7.5 30H22.5C23.4946 30 24.4484 29.6049 25.1516 28.9016C25.8549 28.1984 26.25 27.2446 26.25 26.25ZM17.8125 5.625C17.8125 6.37092 18.1088 7.08629 18.6363 7.61374C19.1637 8.14118 19.8791 8.4375 20.625 8.4375H24.375V26.25C24.375 26.7473 24.1775 27.2242 23.8258 27.5758C23.4742 27.9275 22.9973 28.125 22.5 28.125H7.5C7.00272 28.125 6.52581 27.9275 6.17417 27.5758C5.82254 27.2242 5.625 26.7473 5.625 26.25V3.75C5.625 3.25272 5.82254 2.77581 6.17417 2.42417C6.52581 2.07254 7.00272 1.875 7.5 1.875H17.8125V5.625Z" fill="black"/>
</svg>
