<svg width="30" height="30" viewBox="0 0 30 30" fill="none" xmlns="http://www.w3.org/2000/svg">
<path d="M6.00747 20.625H23.9925L15 10.3481L6.00747 20.625ZM4.59559 19.3894L13.5881 9.11436C13.7641 8.91296 13.9811 8.75155 14.2246 8.64096C14.4682 8.53036 14.7325 8.47314 15 8.47314C15.2674 8.47314 15.5318 8.53036 15.7753 8.64096C16.0188 8.75155 16.2359 8.91296 16.4118 9.11436L25.4043 19.3894C26.4656 20.6025 25.6031 22.5 23.9925 22.5H6.00747C5.64701 22.5003 5.2941 22.3967 4.99101 22.2016C4.68791 22.0065 4.44748 21.7282 4.2985 21.3999C4.14952 21.0717 4.09831 20.7075 4.151 20.3509C4.20369 19.9943 4.35805 19.6605 4.59559 19.3894Z" fill="black"/>
</svg>
