<svg width="30" height="30" viewBox="0 0 30 30" fill="none" xmlns="http://www.w3.org/2000/svg">
<path d="M18.75 23.9925V6.00747L8.47311 15L18.75 23.9925ZM17.5144 25.4043L7.23936 16.4118C7.03796 16.2359 6.87655 16.0188 6.76596 15.7753C6.65536 15.5318 6.59814 15.2674 6.59814 15C6.59814 14.7325 6.65536 14.4682 6.76596 14.2246C6.87655 13.9811 7.03796 13.7641 7.23936 13.5881L17.5144 4.59559C17.7855 4.35805 18.1193 4.20369 18.4759 4.151C18.8325 4.09831 19.1967 4.14952 19.5249 4.2985C19.8532 4.44748 20.1315 4.68791 20.3266 4.99101C20.5217 5.2941 20.6253 5.64701 20.625 6.00747V23.9925C20.6253 24.3529 20.5217 24.7058 20.3266 25.0089C20.1315 25.312 19.8532 25.5525 19.5249 25.7014C19.1967 25.8504 18.8325 25.9016 18.4759 25.8489C18.1193 25.7962 17.7855 25.6419 17.5144 25.4043Z" fill="black"/>
</svg>
