<svg width="30" height="30" viewBox="0 0 30 30" fill="none" xmlns="http://www.w3.org/2000/svg">
<g clip-path="url(#clip0_3388_2)">
<path fill-rule="evenodd" clip-rule="evenodd" d="M0.646764 0.646764C1.06088 0.232648 1.62254 0 2.20819 0H12.3349C12.9206 0.000125066 13.4821 0.232855 13.8961 0.647L29.3535 16.1043C29.7674 16.5184 30 17.08 30 17.6655C30 18.2511 29.7674 18.8126 29.3535 19.2267L19.2267 29.3535C18.8126 29.7674 18.2511 30 17.6655 30C17.08 30 16.5184 29.7674 16.1043 29.3535L0.647 13.8961C0.232855 13.4821 0.000125066 12.9206 0 12.3349V2.20819C0 1.62254 0.232648 1.06088 0.646764 0.646764ZM10.0708 10.0708C10.692 9.44963 11.0409 8.60714 11.0409 7.72867C11.0409 6.85019 10.692 6.0077 10.0708 5.38653C9.44963 4.76535 8.60714 4.41638 7.72867 4.41638C6.85019 4.41638 6.0077 4.76535 5.38653 5.38653C4.76535 6.0077 4.41638 6.85019 4.41638 7.72867C4.41638 8.60714 4.76535 9.44963 5.38653 10.0708C6.0077 10.692 6.85019 11.0409 7.72867 11.0409C8.60714 11.0409 9.44963 10.692 10.0708 10.0708ZM14.1149 11.317C13.3793 11.6536 12.5981 12.2354 11.7711 13.0624L9.11568 15.7178L18.2289 24.8311L20.1613 22.8987L16.6644 19.4018L17.6929 18.3733L23.3653 19.6947L25.5096 17.5505L18.8585 16.2601C19.0206 15.8238 19.1224 15.3688 19.164 14.895C19.2055 14.4213 19.1494 13.9496 18.9957 13.48C18.8419 13.0104 18.5572 12.5679 18.1417 12.1523C17.5266 11.5373 16.8867 11.1591 16.2218 11.0178C15.5569 10.8765 14.8546 10.9763 14.1149 11.317ZM12.6313 15.3688L13.2173 14.7828C13.8406 14.1595 14.3912 13.7917 14.8691 13.6795C15.3512 13.5631 15.8083 13.7211 16.2405 14.1532C16.656 14.5688 16.8327 15.0238 16.7703 15.5184C16.708 16.0046 16.3568 16.5677 15.7169 17.2076L15.0935 17.831L12.6313 15.3688Z" fill="black"/>
</g>
<defs>
<clipPath id="clip0_3388_2">
<rect width="30" height="30" fill="white"/>
</clipPath>
</defs>
</svg>
