<svg width="30" height="30" viewBox="0 0 30 30" fill="none" xmlns="http://www.w3.org/2000/svg">
<g clip-path="url(#clip0_3414_22)">
<path d="M30 15C30 18.9782 28.4196 22.7936 25.6066 25.6066C22.7936 28.4196 18.9782 30 15 30C11.0218 30 7.20644 28.4196 4.3934 25.6066C1.58035 22.7936 0 18.9782 0 15C0 11.0218 1.58035 7.20644 4.3934 4.3934C7.20644 1.58035 11.0218 0 15 0C18.9782 0 22.7936 1.58035 25.6066 4.3934C28.4196 7.20644 30 11.0218 30 15ZM10.3125 7.50375V22.5H12.7181V17.1825H15.8456C18.8119 17.1825 20.625 15.15 20.625 12.3488C20.625 9.57 18.8344 7.50375 15.8663 7.50375H10.3125ZM15.5063 15.1388C17.1806 15.1388 18.1669 14.1169 18.1669 12.3488C18.1669 10.5806 17.1806 9.57 15.5044 9.57H12.7087V15.1388H15.5063Z" fill="black"/>
</g>
<defs>
<clipPath id="clip0_3414_22">
<rect width="30" height="30" fill="white"/>
</clipPath>
</defs>
</svg>
