<svg width="30" height="30" viewBox="0 0 30 30" fill="none" xmlns="http://www.w3.org/2000/svg">
<path d="M7.5 4.6875C7.5 4.43886 7.59877 4.2004 7.77459 4.02459C7.9504 3.84877 8.18886 3.75 8.4375 3.75H10.3125C10.5611 3.75 10.7996 3.84877 10.9754 4.02459C11.1512 4.2004 11.25 4.43886 11.25 4.6875V6.5625C11.25 6.81114 11.1512 7.0496 10.9754 7.22541C10.7996 7.40123 10.5611 7.5 10.3125 7.5H8.4375C8.18886 7.5 7.9504 7.40123 7.77459 7.22541C7.59877 7.0496 7.5 6.81114 7.5 6.5625V4.6875ZM13.125 4.6875C13.125 4.43886 13.2238 4.2004 13.3996 4.02459C13.5754 3.84877 13.8139 3.75 14.0625 3.75H15.9375C16.1861 3.75 16.4246 3.84877 16.6004 4.02459C16.7762 4.2004 16.875 4.43886 16.875 4.6875V6.5625C16.875 6.81114 16.7762 7.0496 16.6004 7.22541C16.4246 7.40123 16.1861 7.5 15.9375 7.5H14.0625C13.8139 7.5 13.5754 7.40123 13.3996 7.22541C13.2238 7.0496 13.125 6.81114 13.125 6.5625V4.6875ZM19.6875 3.75C19.4389 3.75 19.2004 3.84877 19.0246 4.02459C18.8488 4.2004 18.75 4.43886 18.75 4.6875V6.5625C18.75 6.81114 18.8488 7.0496 19.0246 7.22541C19.2004 7.40123 19.4389 7.5 19.6875 7.5H21.5625C21.8111 7.5 22.0496 7.40123 22.2254 7.22541C22.4012 7.0496 22.5 6.81114 22.5 6.5625V4.6875C22.5 4.43886 22.4012 4.2004 22.2254 4.02459C22.0496 3.84877 21.8111 3.75 21.5625 3.75H19.6875ZM7.5 10.3125C7.5 10.0639 7.59877 9.8254 7.77459 9.64959C7.9504 9.47377 8.18886 9.375 8.4375 9.375H10.3125C10.5611 9.375 10.7996 9.47377 10.9754 9.64959C11.1512 9.8254 11.25 10.0639 11.25 10.3125V12.1875C11.25 12.4361 11.1512 12.6746 10.9754 12.8504C10.7996 13.0262 10.5611 13.125 10.3125 13.125H8.4375C8.18886 13.125 7.9504 13.0262 7.77459 12.8504C7.59877 12.6746 7.5 12.4361 7.5 12.1875V10.3125ZM14.0625 9.375C13.8139 9.375 13.5754 9.47377 13.3996 9.64959C13.2238 9.8254 13.125 10.0639 13.125 10.3125V12.1875C13.125 12.4361 13.2238 12.6746 13.3996 12.8504C13.5754 13.0262 13.8139 13.125 14.0625 13.125H15.9375C16.1861 13.125 16.4246 13.0262 16.6004 12.8504C16.7762 12.6746 16.875 12.4361 16.875 12.1875V10.3125C16.875 10.0639 16.7762 9.8254 16.6004 9.64959C16.4246 9.47377 16.1861 9.375 15.9375 9.375H14.0625ZM18.75 10.3125C18.75 10.0639 18.8488 9.8254 19.0246 9.64959C19.2004 9.47377 19.4389 9.375 19.6875 9.375H21.5625C21.8111 9.375 22.0496 9.47377 22.2254 9.64959C22.4012 9.8254 22.5 10.0639 22.5 10.3125V12.1875C22.5 12.4361 22.4012 12.6746 22.2254 12.8504C22.0496 13.0262 21.8111 13.125 21.5625 13.125H19.6875C19.4389 13.125 19.2004 13.0262 19.0246 12.8504C18.8488 12.6746 18.75 12.4361 18.75 12.1875V10.3125ZM8.4375 15C8.18886 15 7.9504 15.0988 7.77459 15.2746C7.59877 15.4504 7.5 15.6889 7.5 15.9375V17.8125C7.5 18.0611 7.59877 18.2996 7.77459 18.4754C7.9504 18.6512 8.18886 18.75 8.4375 18.75H10.3125C10.5611 18.75 10.7996 18.6512 10.9754 18.4754C11.1512 18.2996 11.25 18.0611 11.25 17.8125V15.9375C11.25 15.6889 11.1512 15.4504 10.9754 15.2746C10.7996 15.0988 10.5611 15 10.3125 15H8.4375ZM13.125 15.9375C13.125 15.6889 13.2238 15.4504 13.3996 15.2746C13.5754 15.0988 13.8139 15 14.0625 15H15.9375C16.1861 15 16.4246 15.0988 16.6004 15.2746C16.7762 15.4504 16.875 15.6889 16.875 15.9375V17.8125C16.875 18.0611 16.7762 18.2996 16.6004 18.4754C16.4246 18.6512 16.1861 18.75 15.9375 18.75H14.0625C13.8139 18.75 13.5754 18.6512 13.3996 18.4754C13.2238 18.2996 13.125 18.0611 13.125 17.8125V15.9375ZM19.6875 15C19.4389 15 19.2004 15.0988 19.0246 15.2746C18.8488 15.4504 18.75 15.6889 18.75 15.9375V17.8125C18.75 18.0611 18.8488 18.2996 19.0246 18.4754C19.2004 18.6512 19.4389 18.75 19.6875 18.75H21.5625C21.8111 18.75 22.0496 18.6512 22.2254 18.4754C22.4012 18.2996 22.5 18.0611 22.5 17.8125V15.9375C22.5 15.6889 22.4012 15.4504 22.2254 15.2746C22.0496 15.0988 21.8111 15 21.5625 15H19.6875Z" fill="black"/>
<path d="M3.75 1.875C3.75 1.37772 3.94754 0.900806 4.29917 0.549175C4.65081 0.197544 5.12772 0 5.625 0L24.375 0C24.8723 0 25.3492 0.197544 25.7008 0.549175C26.0525 0.900806 26.25 1.37772 26.25 1.875V28.125C26.25 28.6223 26.0525 29.0992 25.7008 29.4508C25.3492 29.8025 24.8723 30 24.375 30H5.625C5.12772 30 4.65081 29.8025 4.29917 29.4508C3.94754 29.0992 3.75 28.6223 3.75 28.125V1.875ZM24.375 1.875H5.625V28.125H11.25V23.4375C11.25 23.1889 11.3488 22.9504 11.5246 22.7746C11.7004 22.5988 11.9389 22.5 12.1875 22.5H17.8125C18.0611 22.5 18.2996 22.5988 18.4754 22.7746C18.6512 22.9504 18.75 23.1889 18.75 23.4375V28.125H24.375V1.875Z" fill="black"/>
</svg>
