<svg width="30" height="30" viewBox="0 0 30 30" fill="none" xmlns="http://www.w3.org/2000/svg">
<path d="M22.7625 16.4118L12.4838 25.4043C11.2725 26.4656 9.375 25.6031 9.375 23.9925V6.00747C9.37469 5.64701 9.47829 5.2941 9.67339 4.99101C9.86849 4.68791 10.1468 4.44748 10.475 4.2985C10.8033 4.14952 11.1675 4.09831 11.5241 4.151C11.8807 4.20369 12.2145 4.35805 12.4856 4.59559L22.7606 13.5881C22.962 13.7641 23.1234 13.9811 23.234 14.2246C23.3446 14.4682 23.4018 14.7325 23.4018 15C23.4018 15.2674 23.3446 15.5318 23.234 15.7753C23.1234 16.0188 22.962 16.2359 22.7606 16.4118H22.7625Z" fill="black"/>
</svg>
