<svg width="30" height="30" viewBox="0 0 30 30" fill="none" xmlns="http://www.w3.org/2000/svg">
<g clip-path="url(#clip0_3390_25)">
<path d="M15 30C18.9782 30 22.7936 28.4196 25.6066 25.6066C28.4196 22.7936 30 18.9782 30 15C30 11.0218 28.4196 7.20644 25.6066 4.3934C22.7936 1.58035 18.9782 0 15 0C11.0218 0 7.20644 1.58035 4.3934 4.3934C1.58035 7.20644 0 11.0218 0 15C0 18.9782 1.58035 22.7936 4.3934 25.6066C7.20644 28.4196 11.0218 30 15 30ZM27.0563 20.1975C25.7249 23.2724 23.2724 25.7249 20.1975 27.0563L18.1069 21.8288C19.7564 21.0785 21.0785 19.7564 21.8288 18.1069L27.0563 20.1975ZM9.8025 27.0563C6.72758 25.7249 4.27512 23.2724 2.94375 20.1975L8.17125 18.1069C8.9215 19.7564 10.2436 21.0785 11.8931 21.8288L9.8025 27.0563ZM27.0563 9.8025L21.8288 11.8931C21.0785 10.2436 19.7564 8.9215 18.1069 8.17125L20.1975 2.94375C23.2724 4.27512 25.7249 6.72758 27.0563 9.8025ZM11.8931 8.17125C10.2436 8.9215 8.9215 10.2436 8.17125 11.8931L2.94375 9.8025C4.27512 6.72758 6.72758 4.27512 9.8025 2.94375L11.8931 8.17125ZM15 20.625C13.5082 20.625 12.0774 20.0324 11.0225 18.9775C9.96763 17.9226 9.375 16.4918 9.375 15C9.375 13.5082 9.96763 12.0774 11.0225 11.0225C12.0774 9.96763 13.5082 9.375 15 9.375C16.4918 9.375 17.9226 9.96763 18.9775 11.0225C20.0324 12.0774 20.625 13.5082 20.625 15C20.625 16.4918 20.0324 17.9226 18.9775 18.9775C17.9226 20.0324 16.4918 20.625 15 20.625Z" fill="black"/>
</g>
<defs>
<clipPath id="clip0_3390_25">
<rect width="30" height="30" fill="white"/>
</clipPath>
</defs>
</svg>
