<svg width="30" height="30" viewBox="0 0 30 30" fill="none" xmlns="http://www.w3.org/2000/svg">
<path d="M0 8.21288C0.62926 1.81531 8.26228 -1.32915 13.1593 2.9951C13.416 3.22172 14.8968 4.83205 15.0253 4.8093C16.534 3.24893 17.9082 1.81091 20.1027 1.26741C25.9524 -0.18129 31.0788 4.85932 29.8034 10.7336C29.3113 13.0005 27.8134 14.5009 26.1994 16.0372C28.2268 17.5447 27.5202 20.7629 24.912 20.9344C24.8068 22.3127 23.7738 23.3399 22.3947 23.457C22.3589 24.7663 21.2444 25.8871 19.9278 25.9136C19.6991 28.5661 16.5345 29.2636 14.9747 27.2034C13.4248 29.2682 10.2155 28.5694 10.0223 25.9128C8.71742 25.9078 7.61839 24.7863 7.53497 23.5063C6.19664 23.2872 5.09457 22.3473 5.04008 20.9315C3.04525 20.8961 1.9008 18.604 2.94088 16.9268C3.16322 16.5682 3.51904 16.3362 3.74677 15.9866C2.81546 15.0071 1.75455 14.1015 1.06639 12.9195C0.53861 12.0129 0.08496 10.6673 0 9.61951V8.21288ZM13.1333 22.8019C14.0619 22.8667 15.0073 23.4749 15.3849 24.3305C15.5172 24.6301 15.5439 25.1811 15.6452 25.3596C15.6871 25.4335 16.7777 26.5051 16.858 26.5498C17.6242 26.9764 18.4828 26.1166 18.0634 25.3444L14.9201 22.1579C14.4 21.0561 15.4033 20.2951 16.3827 21.1056C17.3416 21.8991 18.2938 23.273 19.2535 23.9785C20.1037 24.6035 21.1 23.563 20.4267 22.688C19.6257 21.6472 18.2326 20.6837 17.3804 19.6389C16.8741 18.8631 17.7265 17.927 18.542 18.3601L21.7729 21.5177C22.5956 22.0932 23.5943 21.0927 22.8882 20.1679C22.1102 19.1487 20.73 18.2021 19.9019 17.1761C19.3513 16.3513 20.2525 15.3979 21.0966 15.9228C22.1207 16.8056 23.0323 18.0271 24.0577 18.8812C25.0838 19.7357 26.1526 18.5713 25.3205 17.6184L17.4949 9.7964C16.5159 10.6534 15.6383 11.8121 14.653 12.6386C11.9453 14.9101 8.6124 11.3625 10.9885 8.79824L13.7721 6.07364C12.3353 4.57215 11.0358 3.16831 8.86309 2.83703C3.22008 1.97659 -0.4778 8.59708 3.2251 12.9293C3.52586 13.2812 5.31723 15.1482 5.59379 15.308C5.75707 15.4024 6.19801 15.4227 6.44624 15.5105C7.40957 15.8513 8.09082 16.797 8.15635 17.8146C9.47307 17.951 10.5621 18.9377 10.6334 20.2906C11.9769 20.4537 13.0321 21.4248 13.1333 22.8019ZM20.6894 10.4403L24.9383 14.7761C26.4461 13.3198 27.8624 12.0808 28.1832 9.87532C29.0338 4.02769 22.2742 0.52493 17.845 4.46033C15.8798 6.20644 14.1131 8.36487 12.1601 10.1456C11.538 10.9247 12.3829 11.9517 13.2663 11.4863C14.4986 10.4805 15.5977 8.91269 16.8203 7.94856C17.6802 7.27049 17.9356 7.92508 18.5603 8.31967C19.474 8.89685 20.6141 8.89358 21.5276 8.31875C21.7088 8.20475 21.8824 8.00229 22.0539 7.90729C22.7526 7.52015 23.5036 8.03625 23.3811 8.82464C23.2671 9.55946 21.4195 10.4906 20.6894 10.4403ZM5.31753 17.1354C4.6417 17.2601 3.96221 18.3281 4.53943 18.9412C5.38811 19.8425 7.08328 18.1782 6.09713 17.3249C5.86396 17.1231 5.62019 17.0795 5.31753 17.1354ZM7.89797 19.5957C7.20447 19.6974 6.42395 20.7446 7.0072 21.3966C7.8858 22.3788 9.60535 20.6004 8.55844 19.7868C8.35724 19.6304 8.15516 19.558 7.89797 19.5957ZM10.2406 22.1169C10.0355 22.1594 9.61891 22.5458 9.49506 22.719C8.98846 23.4276 9.4484 24.2765 10.3394 24.149C10.6619 24.1029 11.32 23.4472 11.3668 23.1248C11.4665 22.4384 10.8969 21.9807 10.2406 22.1169ZM12.8206 24.5786C12.4802 24.6325 11.8357 25.259 11.7844 25.5943C11.6607 26.4015 12.4825 26.9724 13.1582 26.4994C13.2547 26.432 13.5831 26.0991 13.6557 26.0005C14.1384 25.3441 13.6448 24.448 12.8206 24.5786Z" fill="black"/>
</svg>
