<svg width="96" height="96" viewBox="0 0 96 96" fill="none" xmlns="http://www.w3.org/2000/svg">
<path d="M86.1875 1V62.0635C86.1875 73.6938 76.4263 81.7727 67.1201 86.8584C62.4206 89.4266 57.7295 91.2917 54.2188 92.5146C52.4617 93.1267 50.9962 93.5799 49.9678 93.8799C49.4536 94.0299 49.0485 94.142 48.7705 94.2168C48.6316 94.2542 48.5243 94.2818 48.4512 94.3008C48.4147 94.3102 48.3865 94.3174 48.3672 94.3223C48.3576 94.3247 48.3499 94.3268 48.3447 94.3281C48.3424 94.3287 48.3403 94.3287 48.3389 94.3291L48.3369 94.3301L48.0938 93.3604L48.3359 94.3301L48.0938 94.3906L47.8516 94.3301L47.8496 94.3291C47.8481 94.3287 47.8454 94.3288 47.8428 94.3281C47.8376 94.3268 47.8305 94.3246 47.8213 94.3223C47.8021 94.3174 47.7737 94.3102 47.7373 94.3008C47.6642 94.2819 47.5567 94.2541 47.418 94.2168C47.14 94.142 46.734 94.0299 46.2197 93.8799C45.1914 93.5799 43.7258 93.1267 41.9688 92.5146C38.4579 91.2916 33.7668 89.4266 29.0674 86.8584C19.7612 81.7727 10 73.6938 10 62.0635V1H86.1875Z" fill="#5A0722" stroke="white" stroke-width="2"/>
<path d="M19.0867 49.4974C19.0867 49.4974 20.2084 50.314 18.1998 55.1876C17.7824 56.1623 16.0086 59.587 18.1737 62.0633C19.7128 63.802 22.1388 63.1698 22.1388 63.1698C22.2953 64.1181 22.3735 64.566 22.3735 64.566H20.5997C18.9824 64.645 18.9041 66.4364 18.9041 66.4364V74.0234L20.1302 75.2615H24.1995C24.2778 73.3911 21.904 72.6008 21.904 72.6008V69.3079H25.6864C27.695 69.1498 28.7645 65.2509 28.7645 65.2509L30.2253 65.409C30.3036 65.6461 28.1385 69.624 28.1385 69.624L32.5209 73.839V75.1035H37.2946C37.5294 73.918 35.2077 72.9169 35.2077 72.9169L32.2079 69.624C31.8166 69.2025 32.1035 68.781 32.6252 68.5966C33.1991 68.4122 33.6426 68.2805 34.2947 68.017C34.9469 67.7536 37.6859 66.0149 36.5381 62.6429C35.4164 59.3236 31.6079 60.6935 31.6079 60.2983C31.6079 59.9032 33.6165 55.214 33.6165 55.214L31.9992 52.7904L33.9295 54.0549L39.0162 53.1065C39.564 57.4795 41.5466 56.3994 41.5466 56.3994V53.1065C41.5466 53.1065 41.4683 50.9463 39.538 50.2877C37.2424 49.4974 35.6251 49.9716 34.9208 49.8135C34.2425 49.6555 34.4251 49.0232 34.4251 49.0232L37.4511 49.1022L40.1379 46.8367L41.5987 46.6786C44.2856 46.2044 43.2943 44.0969 43.2943 44.0969H39.4336C37.9728 44.0969 34.1904 46.9157 34.1904 46.9157C34.1904 46.9157 33.6426 43.7808 36.4859 42.7007C39.3293 41.5943 38.7293 40.7513 38.7293 40.7513L36.0425 41.6997C36.0425 41.6997 35.7294 41.3835 36.199 40.6723C36.4338 40.3034 38.5989 39.4868 38.5989 39.4868C40.2944 38.8545 39.7466 37.4583 39.7466 37.4583L36.7468 37.7744C36.0425 37.1422 36.1207 37.0632 35.1295 36.9051C34.1382 36.747 32.5991 38.1696 32.7557 37.6954C32.9122 37.2212 33.0687 35.825 33.2252 34.4025C33.3556 33.138 29.3123 39.0126 29.3123 39.0126C24.0691 49.1022 25.5299 55.9253 25.5299 55.9253C22.0605 57.5586 22.0605 61.3784 22.0605 60.3773C22.0605 54.7134 23.9126 55.1086 23.8343 51.5259C23.7561 47.9431 19.9997 48.2592 19.9997 48.2592C18.5128 48.2592 18.0694 49.2076 18.0694 49.2076C18.0694 49.2076 18.8259 49.0495 19.1128 49.4447L19.0867 49.4974Z" fill="white"/>
<path d="M33.9816 38.7767H36.0945L35.6511 38.0127L33.9816 38.7767Z" fill="#5A0722"/>
<path d="M48.12 75.4983C48.12 75.4983 45.1201 75.8145 42.4594 73.1011C39.903 70.5194 40.0073 67.4372 40.0073 67.4372V61.5625C40.0073 61.5625 39.2769 61.3781 39.2508 60.6405C39.1986 59.7185 40.1377 59.8765 40.1377 59.8765H42.0159C41.9116 61.8786 43.1376 61.6415 43.1376 61.6415C44.4419 61.6942 44.181 59.8765 44.181 59.8765H48.0939H52.0067C52.0067 59.8765 51.7198 61.6942 53.0502 61.6415C53.0502 61.6415 54.2762 61.8786 54.1719 59.8765H56.05C56.05 59.8765 56.9891 59.7448 56.9369 60.6405C56.9109 61.3518 56.1805 61.5625 56.1805 61.5625V67.4372C56.1805 67.4372 56.2848 70.493 53.7284 73.1011C51.0677 75.8145 48.0678 75.4983 48.0678 75.4983H48.12Z" fill="white"/>
<path d="M77.1274 49.4974C77.1274 49.4974 76.0057 50.314 78.0143 55.1876C78.4316 56.1623 80.2055 59.587 78.0404 62.0633C76.5013 63.802 74.0753 63.1698 74.0753 63.1698C73.9188 64.1181 73.8406 64.566 73.8406 64.566H75.6144C77.2317 64.645 77.31 66.4364 77.31 66.4364V74.0234L76.0839 75.2615H72.0145C71.9363 73.3911 74.3362 72.6008 74.3362 72.6008V69.3079H70.5537C68.5451 69.1498 67.4756 65.2509 67.4756 65.2509L66.0148 65.409C65.9366 65.6461 68.1017 69.624 68.1017 69.624L63.7193 73.839V75.1035H58.9456C58.7108 73.918 61.0325 72.9169 61.0325 72.9169L64.0323 69.624C64.4236 69.2025 64.1367 68.781 63.6149 68.5966C63.0411 68.4122 62.5976 68.2805 61.9455 68.017C61.2933 67.7536 58.5543 66.0149 59.7021 62.6429C60.8238 59.3236 64.6323 60.6935 64.6323 60.2983C64.6323 59.9032 62.6237 55.214 62.6237 55.214L64.241 52.7904L62.3107 54.0549L57.2239 53.1065C56.6761 57.4795 54.6936 56.3994 54.6936 56.3994V53.1065C54.6936 53.1065 54.7719 50.9463 56.7022 50.2877C58.9978 49.4974 60.6151 49.9716 61.3194 49.8135C62.0237 49.6555 61.815 49.0232 61.815 49.0232L58.7891 49.1022L56.1023 46.8367L54.6414 46.6786C51.9546 46.2044 52.9459 44.0969 52.9459 44.0969H56.8066C58.2674 44.0969 62.0498 46.9157 62.0498 46.9157C62.0498 46.9157 62.5976 43.7808 59.7543 42.7007C56.9109 41.5943 57.5109 40.7513 57.5109 40.7513L60.1977 41.6997C60.1977 41.6997 60.5107 41.3835 60.0412 40.6723C59.7803 40.3034 57.6413 39.4868 57.6413 39.4868C55.9457 38.8545 56.4935 37.4583 56.4935 37.4583L59.4934 37.7744C60.1716 37.1422 60.0934 37.0632 61.1107 36.9051C62.102 36.747 63.641 38.1696 63.4845 37.6954C63.328 37.2212 63.1715 35.825 63.015 34.4025C62.8845 33.138 66.9278 39.0126 66.9278 39.0126C72.1711 49.1022 70.7103 55.9253 70.7103 55.9253C74.1797 57.5586 74.1797 61.3784 74.1797 60.3773C74.1797 54.7134 72.3537 55.1086 72.4058 51.5259C72.4841 47.9431 76.2404 48.2592 76.2404 48.2592C77.7273 48.2592 78.1708 49.2076 78.1708 49.2076C78.1708 49.2076 77.4143 49.0495 77.1274 49.4447V49.4974Z" fill="white"/>
<path d="M62.2324 38.7767H60.1195L60.5629 38.0127L62.2324 38.7767Z" fill="#5A0722"/>
<path d="M48.5373 53.0809V37.8806C48.746 37.7488 48.9025 37.5118 48.9025 37.222C48.9025 36.8005 48.5634 36.458 48.146 36.458C48.146 36.458 48.1199 36.458 48.0938 36.458C48.0938 36.458 48.0678 36.458 48.0417 36.458C47.6243 36.458 47.2852 36.8005 47.2852 37.222C47.2852 37.5118 47.4417 37.7488 47.6504 37.8806V53.1072L42.7202 58.2179V59.8512H43.4506V58.5604L48.0678 53.7658L52.6849 58.5604V59.8512H53.4414V58.2179L48.5112 53.1072L48.5373 53.0809Z" fill="white"/>
<path d="M48.1721 2V6.89993L53.4936 2H48.1721Z" fill="#EAAA00"/>
<path d="M80.1011 31.5044H85.1879V26.5781L80.1011 31.5044Z" fill="#EAAA00"/>
<path d="M58.8151 2L48.1721 11.8262V16.7525L64.1366 2H58.8151Z" fill="#EAAA00"/>
<path d="M69.4581 2L48.1721 21.6524V26.5787L74.7796 2H69.4581Z" fill="#EAAA00"/>
<path d="M80.1011 2L48.1721 31.5049H53.4936L85.1878 2H80.1011Z" fill="#EAAA00"/>
<path d="M58.8153 31.5054H64.1368L85.188 11.8267V6.92676L58.8153 31.5054Z" fill="#EAAA00"/>
<path d="M69.4583 31.5059H74.7797L85.188 21.6533V16.7534L69.4583 31.5059Z" fill="#EAAA00"/>
<path d="M13.0347 22.8118L13.4782 20.3618H16.9215V31.5052H14.1825V22.8381H13.0347V22.8118Z" fill="white"/>
<path d="M26.6514 23.0485C26.6514 24.2076 25.921 25.2086 24.9297 25.5511C26.234 26.0253 27.0949 27.0263 27.0949 28.4753C27.0949 30.7672 24.8254 31.8209 22.9472 31.8209C21.0691 31.8209 18.7996 30.7672 18.7996 28.4753C18.7996 27.0263 19.6604 26.0253 20.9647 25.5774C19.9735 25.2086 19.243 24.2076 19.243 23.0485C19.243 20.941 21.0951 19.8872 22.9472 19.8872C24.7993 19.8872 26.6514 20.941 26.6514 23.0485ZM21.7473 23.1275C21.7473 23.8124 22.2951 24.3656 22.9472 24.3656C23.5994 24.3656 24.1472 23.8124 24.1472 23.1275C24.1472 22.4425 23.6255 21.8893 22.9472 21.8893C22.269 21.8893 21.7473 22.4425 21.7473 23.1275ZM21.6429 28.1064C21.6429 28.8441 22.2168 29.45 22.9472 29.45C23.6776 29.45 24.2515 28.8441 24.2515 28.1064C24.2515 27.3688 23.6776 26.7366 22.9472 26.7366C22.2168 26.7366 21.6429 27.3425 21.6429 28.1064Z" fill="white"/>
<path d="M28.5296 23.1275V20.4668H37.5814L31.5295 31.5048H28.1383L32.9381 23.1275H28.5296Z" fill="white"/>
<path d="M46.4244 25.8147C46.4244 28.6071 45.0941 31.6103 41.9377 31.6103C38.7813 31.6103 37.4509 28.6071 37.4509 25.8147C37.4509 23.0222 38.7813 20.019 41.9377 20.019C45.0941 20.019 46.4244 23.0222 46.4244 25.8147ZM40.1899 25.7883C40.1899 26.8157 40.529 29.134 41.9377 29.134C43.3463 29.134 43.6854 26.8421 43.6854 25.7883C43.6854 24.7346 43.3463 22.469 41.9377 22.469C40.529 22.469 40.1899 24.7346 40.1899 25.7883Z" fill="white"/>
</svg>
