<svg width="128" height="128" viewBox="0 0 128 128" fill="none" xmlns="http://www.w3.org/2000/svg">
<path d="M127 1V74.4473C127 92.7027 111.494 105.837 95.5234 114.493C87.5863 118.795 79.6407 121.932 73.6738 123.993C70.692 125.023 68.2077 125.784 66.4717 126.286C65.604 126.537 64.9233 126.723 64.4609 126.847C64.2689 126.898 64.1145 126.938 64 126.968C63.8855 126.938 63.7311 126.898 63.5391 126.847C63.0767 126.723 62.396 126.537 61.5283 126.286C59.7923 125.784 57.308 125.023 54.3262 123.993C48.3593 121.932 40.4137 118.795 32.4766 114.493C16.5061 105.837 1 92.7027 1 74.4473V1H127Z" fill="white" stroke="#EAAA00" stroke-width="2"/>
<path d="M102.577 6.9292V68.9084C102.577 91.6613 64.3004 101.203 64.3004 101.203C64.3004 101.203 26.0234 91.6613 26.0234 68.9084V6.9292H102.577Z" fill="#5A0722"/>
<path d="M34.368 55.941C34.368 55.941 35.5255 56.7837 33.4528 61.8127C33.0221 62.8185 31.1917 66.3524 33.4259 68.9077C35.014 70.7019 37.5174 70.0495 37.5174 70.0495C37.6789 71.0281 37.7596 71.4902 37.7596 71.4902H35.9292C34.2603 71.5717 34.1796 73.4203 34.1796 73.4203V81.2492L35.4447 82.5268H39.6439C39.7246 80.5968 37.2751 79.7813 37.2751 79.7813V76.3833H41.1782C43.2508 76.2202 44.3545 72.197 44.3545 72.197L45.8618 72.3601C45.9426 72.6047 43.7084 76.7095 43.7084 76.7095L48.2306 81.0589V82.3637H53.1565C53.3988 81.1405 51.0031 80.1075 51.0031 80.1075L47.9076 76.7095C47.5038 76.2746 47.7999 75.8396 48.3383 75.6493C48.9305 75.459 49.3881 75.3231 50.061 75.0513C50.7339 74.7794 53.5603 72.9853 52.3759 69.5058C51.2185 66.0806 47.2885 67.4942 47.2885 67.0864C47.2885 66.6787 49.3611 61.8399 49.3611 61.8399L47.6923 59.339L49.6842 60.6438L54.9331 59.6652C55.4984 64.1777 57.5441 63.0632 57.5441 63.0632V59.6652C57.5441 59.6652 57.4634 57.4361 55.4715 56.7565C53.1027 55.941 51.4338 56.4303 50.707 56.2672C50.0072 56.1041 50.1956 55.4517 50.1956 55.4517L53.318 55.5333L56.0906 53.1955L57.598 53.0324C60.3705 52.5431 59.3476 50.3683 59.3476 50.3683H55.3638C53.8564 50.3683 49.9533 53.277 49.9533 53.277C49.9533 53.277 49.3881 50.0421 52.3221 48.9276C55.2561 47.7859 54.637 46.916 54.637 46.916L51.8645 47.8946C51.8645 47.8946 51.5415 47.5684 52.026 46.8344C52.2683 46.4539 54.5024 45.6112 54.5024 45.6112C56.2521 44.9588 55.6868 43.518 55.6868 43.518L52.5913 43.8442C51.8645 43.1918 51.9452 43.1103 50.9224 42.9471C49.8995 42.784 48.3114 44.252 48.4729 43.7627C48.6344 43.2734 48.7959 41.8326 48.9574 40.3647C49.092 39.0599 44.9197 45.1219 44.9197 45.1219C39.5093 55.5333 41.0167 62.5739 41.0167 62.5739C37.4366 64.2593 37.4366 68.2009 37.4366 67.168C37.4366 61.3234 39.3478 61.7312 39.267 58.0342C39.1863 54.3372 35.3101 54.6634 35.3101 54.6634C33.7758 54.6634 33.3182 55.642 33.3182 55.642C33.3182 55.642 34.0988 55.4789 34.3949 55.8867L34.368 55.941Z" fill="white"/>
<path d="M49.738 44.8777H51.9183L51.4607 44.0894L49.738 44.8777Z" fill="#5A0722"/>
<path d="M64.3273 82.7718C64.3273 82.7718 61.2318 83.098 58.4862 80.298C55.8483 77.634 55.9559 74.4535 55.9559 74.4535V68.3915C55.9559 68.3915 55.2022 68.2012 55.1753 67.4401C55.1215 66.4886 56.0905 66.6517 56.0905 66.6517H58.0286C57.9209 68.7177 59.1861 68.4731 59.1861 68.4731C60.5319 68.5274 60.2628 66.6517 60.2628 66.6517H64.3004H68.3381C68.3381 66.6517 68.042 68.5274 69.4148 68.4731C69.4148 68.4731 70.6799 68.7177 70.5722 66.6517H72.5103C72.5103 66.6517 73.4793 66.5158 73.4255 67.4401C73.3986 68.174 72.6449 68.3915 72.6449 68.3915V74.4535C72.6449 74.4535 72.7526 77.6068 70.1146 80.298C67.369 83.098 64.2735 82.7718 64.2735 82.7718H64.3273Z" fill="white"/>
<path d="M94.2598 55.941C94.2598 55.941 93.1023 56.7837 95.175 61.8127C95.6056 62.8185 97.436 66.3524 95.2019 68.9077C93.6137 70.7019 91.1104 70.0495 91.1104 70.0495C90.9489 71.0281 90.8681 71.4902 90.8681 71.4902H92.6985C94.3674 71.5717 94.4482 73.4203 94.4482 73.4203V81.2492L93.183 82.5268H88.9839C88.9031 80.5968 91.3796 79.7813 91.3796 79.7813V76.3833H87.4765C85.4038 76.2202 84.3002 72.197 84.3002 72.197L82.7928 72.3601C82.7121 72.6047 84.9462 76.7095 84.9462 76.7095L80.4241 81.0589V82.3637H75.4981C75.2559 81.1405 77.6516 80.1075 77.6516 80.1075L80.7471 76.7095C81.1509 76.2746 80.8548 75.8396 80.3164 75.6493C79.7242 75.459 79.2666 75.3231 78.5937 75.0513C77.9207 74.7794 75.0944 72.9853 76.2788 69.5058C77.4362 66.0806 81.3662 67.4942 81.3662 67.0864C81.3662 66.6787 79.2935 61.8399 79.2935 61.8399L80.9624 59.339L78.9705 60.6438L73.7216 59.6652C73.1563 64.1777 71.1106 63.0632 71.1106 63.0632V59.6652C71.1106 59.6652 71.1913 57.4361 73.1832 56.7565C75.552 55.941 77.2209 56.4303 77.9476 56.2672C78.6744 56.1041 78.4591 55.4517 78.4591 55.4517L75.3366 55.5333L72.5641 53.1955L71.0567 53.0324C68.2842 52.5431 69.3071 50.3683 69.3071 50.3683H73.2909C74.7983 50.3683 78.7013 53.277 78.7013 53.277C78.7013 53.277 79.2666 50.0421 76.3326 48.9276C73.3986 47.7859 74.0177 46.916 74.0177 46.916L76.7902 47.8946C76.7902 47.8946 77.1132 47.5684 76.6287 46.8344C76.3595 46.4539 74.1523 45.6112 74.1523 45.6112C72.4026 44.9588 72.9679 43.518 72.9679 43.518L76.0634 43.8442C76.7633 43.1918 76.6825 43.1103 77.7323 42.9471C78.7552 42.784 80.3433 44.252 80.1818 43.7627C80.0203 43.2734 79.8588 41.8326 79.6973 40.3647C79.5627 39.0599 83.7349 45.1219 83.7349 45.1219C89.1454 55.5333 87.638 62.5739 87.638 62.5739C91.2181 64.2593 91.2181 68.2009 91.2181 67.168C91.2181 61.3234 89.3338 61.7312 89.3877 58.0342C89.4684 54.3372 93.3446 54.6634 93.3446 54.6634C94.8789 54.6634 95.3365 55.642 95.3365 55.642C95.3365 55.642 94.5559 55.4789 94.2598 55.8867V55.941Z" fill="white"/>
<path d="M78.8898 44.8777H76.7095L77.1671 44.0894L78.8898 44.8777Z" fill="#5A0722"/>
<path d="M64.7579 59.6389V43.9538C64.9732 43.8178 65.1347 43.5732 65.1347 43.2742C65.1347 42.8392 64.7848 42.4858 64.3541 42.4858C64.3541 42.4858 64.3272 42.4858 64.3003 42.4858C64.3003 42.4858 64.2734 42.4858 64.2465 42.4858C63.8158 42.4858 63.4658 42.8392 63.4658 43.2742C63.4658 43.5732 63.6274 43.8178 63.8427 43.9538V59.666L58.7552 64.9397V66.6251H59.5089V65.2931L64.2734 60.3456L69.0378 65.2931V66.6251H69.8184V64.9397L64.731 59.666L64.7579 59.6389Z" fill="white"/>
<path d="M64.3811 6.9292V11.9854L69.8723 6.9292H64.3811Z" fill="#EAAA00"/>
<path d="M97.3284 37.3749H102.577V32.2915L97.3284 37.3749Z" fill="#EAAA00"/>
<path d="M75.3635 6.9292L64.3811 17.0688V22.1522L80.8547 6.9292H75.3635Z" fill="#EAAA00"/>
<path d="M86.3459 6.9292L64.3811 27.2084V32.2917L91.8371 6.9292H86.3459Z" fill="#EAAA00"/>
<path d="M97.3283 6.9292L64.3811 37.3751H69.8723L102.577 6.9292H97.3283Z" fill="#EAAA00"/>
<path d="M75.3636 37.3752H80.8548L102.577 17.0689V12.0127L75.3636 37.3752Z" fill="#EAAA00"/>
<path d="M86.3461 37.3748H91.8373L102.577 27.2081V22.1519L86.3461 37.3748Z" fill="#EAAA00"/>
<path d="M28.1231 28.4041L28.5807 25.876H32.1338V37.3747H29.3075V28.4313H28.1231V28.4041Z" fill="white"/>
<path d="M42.174 28.6488C42.174 29.8449 41.4203 30.8779 40.3974 31.2312C41.7433 31.7206 42.6316 32.7535 42.6316 34.2487C42.6316 36.6137 40.2898 37.701 38.3517 37.701C36.4136 37.701 34.0718 36.6137 34.0718 34.2487C34.0718 32.7535 34.9601 31.7206 36.3059 31.2584C35.2831 30.8779 34.5294 29.8449 34.5294 28.6488C34.5294 26.4741 36.4405 25.3867 38.3517 25.3867C40.2628 25.3867 42.174 26.4741 42.174 28.6488ZM37.1135 28.7303C37.1135 29.4371 37.6787 30.008 38.3517 30.008C39.0246 30.008 39.5899 29.4371 39.5899 28.7303C39.5899 28.0236 39.0515 27.4527 38.3517 27.4527C37.6518 27.4527 37.1135 28.0236 37.1135 28.7303ZM37.0058 33.8681C37.0058 34.6292 37.598 35.2545 38.3517 35.2545C39.1054 35.2545 39.6976 34.6292 39.6976 33.8681C39.6976 33.1069 39.1054 32.4545 38.3517 32.4545C37.598 32.4545 37.0058 33.0798 37.0058 33.8681Z" fill="white"/>
<path d="M44.1121 28.7304V25.9849H53.4526L47.2077 37.3749H43.7084L48.6612 28.7304H44.1121Z" fill="white"/>
<path d="M62.5777 31.5034C62.5777 34.3849 61.2049 37.4838 57.9478 37.4838C54.6908 37.4838 53.318 34.3849 53.318 31.5034C53.318 28.6219 54.6908 25.5229 57.9478 25.5229C61.2049 25.5229 62.5777 28.6219 62.5777 31.5034ZM56.1444 31.4762C56.1444 32.5364 56.4943 34.9286 57.9478 34.9286C59.4014 34.9286 59.7513 32.5636 59.7513 31.4762C59.7513 30.3889 59.4014 28.051 57.9478 28.051C56.4943 28.051 56.1444 30.3889 56.1444 31.4762Z" fill="white"/>
<path d="M19.5902 12.8554L16.0909 14.1602C13.8029 15.0301 11.4611 15.8456 9.57683 16.5795C7.90793 17.232 7.77334 17.5038 7.66567 18.5912H7.12732V13.5893H7.66567L7.74643 14.133C7.8541 14.867 8.04252 14.8941 8.7693 14.6767C9.33457 14.4864 10.492 14.0243 11.488 13.6165V10.0826C10.9227 9.83795 9.87292 9.48456 9.06539 9.2399C8.06944 8.88651 7.82718 9.04962 7.71951 9.89232L7.66567 10.436H7.12732V6.19531H7.66567C7.80026 7.36422 7.88101 7.58169 9.57683 8.26129L19.3749 12.0942L19.6171 12.8554H19.5902ZM12.3224 10.3001V13.3175L16.4678 11.8224V11.768L12.3224 10.2729V10.3001Z" fill="#5A0722"/>
<path d="M19.3749 25.1147C19.3749 27.235 18.9173 29.1923 17.7329 30.4427C16.8715 31.3126 15.4718 32.0466 13.8029 32.0466C9.17306 32.0466 7.12732 28.4311 7.12732 23.973V19.2974H7.66567C7.77334 20.8468 7.93485 21.0099 9.95367 21.0099H16.5485C18.5942 21.0099 18.7288 20.8468 18.8634 19.4605H19.4018V25.1147H19.3749ZM9.98059 23.1575C8.25786 23.1575 7.88101 23.3478 7.88101 24.8157C7.88101 27.969 10.0883 29.6 13.2107 29.6C17.2484 29.6 18.6212 27.5341 18.6212 24.4895C18.6212 23.8643 18.5404 23.3749 18.4597 23.2662C18.352 23.1575 18.029 23.1575 17.5445 23.1575H9.98059Z" fill="#5A0722"/>
<path d="M19.3747 50.1515L10.3842 54.365L19.3747 58.3338V61.9221H18.8364C18.6749 60.3726 18.621 60.3182 16.5215 60.3454L9.92664 60.5357C7.82706 60.5901 7.77322 60.6444 7.63863 62.1939H7.10028V56.8931H7.63863C7.77322 58.3882 7.82706 58.4425 9.92664 58.4153L17.1675 58.3338V58.2522L7.34254 53.93V53.3591L16.7906 49.2V49.1185L11.9185 48.9825C10.2227 48.9554 9.17294 48.9825 8.60767 49.0369C7.88089 49.1185 7.74631 49.499 7.63863 50.7767H7.10028V46.2642H7.63863C7.71939 47.2156 7.90781 47.5962 8.60767 47.7321C9.17294 47.8408 10.2766 47.9767 12.107 48.0855L15.9831 48.3029C18.4865 48.4389 18.6749 48.303 18.8364 46.6719H19.3747V50.1786V50.1515Z" fill="#5A0722"/>
<path d="M19.617 69.7513L16.1177 71.1105C13.8297 72.0076 11.5148 72.8775 9.63054 73.6114C7.96165 74.291 7.82706 74.5357 7.74631 75.6502H7.20795L7.15412 70.6484H7.69247L7.77322 71.1649C7.90781 71.8989 8.09624 71.926 8.7961 71.6814C9.36137 71.4911 10.5188 71.0018 11.4879 70.594L11.434 67.0601C10.8688 66.8155 9.79205 66.4893 9.01144 66.2446C8.01548 65.9184 7.77322 66.0815 7.69247 66.9242L7.63864 67.4679H7.10028L7.04645 63.2544H7.5848C7.74631 64.4233 7.82706 64.6408 9.52287 65.266L19.3747 68.963L19.617 69.7242V69.7513ZM12.3223 67.3048V70.3222L16.4946 68.7727V68.7184L12.3223 67.2776V67.3048Z" fill="#5A0722"/>
<path d="M17.329 75.5405C19.267 74.9152 19.3747 74.725 19.0248 73.2027L19.5362 73.0396L21.1243 78.1773L20.6129 78.3404C20.1015 77.0899 19.9131 76.9812 17.975 77.6064L12.1608 79.4278C10.1958 80.053 8.58071 80.3792 6.91182 79.1559C6.29271 78.721 5.70052 78.0958 5.216 77.3074L5.64669 76.9268C6.5888 77.9598 7.53092 78.1773 8.5538 78.0957C9.469 78.0142 10.5188 77.7152 11.757 77.3346L17.329 75.5677V75.5405Z" fill="#5A0722"/>
<path d="M21.959 91.7425C18.4866 93.7813 14.8258 92.694 12.9954 89.5678C11.1111 86.3329 12.2686 82.799 15.2295 81.0321C17.8944 79.4554 22.0397 79.537 24.2739 83.3971C25.9159 86.2242 25.1083 89.8668 21.959 91.7425ZM16.9792 82.8534C14.0452 84.5932 12.5109 87.2572 13.8837 89.595C14.8796 91.3076 17.0599 91.7697 20.1016 89.9756C23.4933 87.964 24.5969 85.4902 23.3318 83.2883C22.3089 81.5486 19.8863 81.168 17.0061 82.8806L16.9792 82.8534Z" fill="#5A0722"/>
<path d="M42.228 99.7075C42.0934 99.9794 41.4205 101.23 40.9091 102.29L40.4245 102.018C40.7475 101.148 40.8283 100.577 40.7475 100.17C40.6399 99.7347 40.1823 99.2998 39.2132 98.6745L38.4057 98.158C37.8135 97.7775 37.7597 97.7503 37.4098 98.3211L35.2833 101.746L36.6561 102.616C38.0289 103.486 38.1096 103.405 39.0517 102.263L39.5632 102.589L37.4367 106.014L36.9252 105.688C37.5713 104.302 37.5713 104.22 36.1985 103.35L34.8257 102.48L33.1837 105.117C32.6184 106.041 32.3762 106.531 32.5377 106.938C32.6992 107.319 33.2644 107.7 33.9374 108.107C34.7449 108.624 35.5255 109.004 36.0908 108.814C36.5484 108.678 37.1675 108.298 37.9212 107.7L38.3519 108.107C37.9481 108.624 36.5753 110.037 36.1715 110.418L28.3923 105.47L28.6615 105.008C30.0881 105.77 30.3035 105.742 31.3802 104.003L34.8795 98.3483C35.9562 96.6086 35.9024 96.3911 34.7718 95.5212L35.041 95.0591L42.2549 99.626L42.228 99.7075Z" fill="#5A0722"/>
<path d="M46.5618 101.447L46.8309 111.451L53.991 104.682L57.275 106.096L57.0597 106.585C55.6061 106.123 55.4984 106.15 54.7178 108.08L52.2952 114.278C51.5146 116.263 51.5415 116.317 52.8874 117.051L52.6721 117.54L47.8538 115.447L48.0692 114.958C49.4689 115.393 49.5496 115.393 50.3572 113.435L53.1566 106.694H53.0758L45.2697 114.088L44.7583 113.87L44.7044 103.459H44.6237L42.5779 107.89C41.8781 109.439 41.4743 110.418 41.3397 110.962C41.1244 111.669 41.4205 111.968 42.5241 112.566L42.3088 113.055L38.2173 111.261L38.4326 110.771C39.3209 111.07 39.7516 111.043 40.1554 110.445C40.4784 109.956 41.0436 108.977 41.8512 107.346L43.5739 103.84C44.6775 101.556 44.6506 101.339 43.1971 100.55L43.4124 100.061L46.5887 101.447H46.5618Z" fill="#5A0722"/>
<path d="M75.7674 103.975C77.7324 103.187 79.6974 102.915 81.2856 103.595C82.4161 104.084 83.5736 105.144 84.1927 106.694C85.8885 111.043 83.2775 114.278 79.186 115.909L74.8792 117.594L74.6907 117.105C76.0904 116.426 76.1712 116.235 75.4444 114.305L73.0488 108.107C72.322 106.204 72.1066 106.096 70.7877 106.503L70.5992 106.014L75.8213 103.948L75.7674 103.975ZM77.4363 113.49C78.1093 115.094 78.4323 115.365 79.7513 114.795C82.6314 113.571 83.2505 110.88 82.0393 107.971C80.4511 104.22 78.0554 103.731 75.256 104.927C74.6907 105.171 74.26 105.443 74.2062 105.579C74.1524 105.715 74.26 106.014 74.4754 106.476L77.4363 113.517V113.49Z" fill="#5A0722"/>
<path d="M89.7106 97.9678C89.8721 98.2124 90.572 99.4357 91.218 100.442L90.7335 100.741C90.1413 100.007 89.7106 99.6532 89.3337 99.5173C88.9031 99.3813 88.3109 99.5444 87.288 100.088L86.4536 100.523C85.8075 100.849 85.7806 100.876 86.1036 101.474L87.934 105.063L89.3876 104.329C90.8411 103.595 90.8142 103.459 90.3297 102.073L90.8681 101.801L92.6984 105.389L92.1601 105.661C91.2987 104.41 91.2449 104.356 89.7913 105.117L88.3378 105.851L89.7375 108.624C90.2489 109.602 90.545 110.037 90.9488 110.119C91.3526 110.173 91.9717 109.874 92.6715 109.494C93.506 109.059 94.2597 108.597 94.3943 107.999C94.5289 107.536 94.5019 106.803 94.3943 105.851L94.9595 105.688C95.1749 106.313 95.6863 108.216 95.794 108.76L87.611 113L87.3688 112.538C88.7685 111.696 88.8223 111.478 87.9071 109.657L84.8923 103.731C83.9502 101.909 83.7618 101.828 82.4428 102.399L82.2006 101.937L89.7644 98.0221L89.7106 97.9678Z" fill="#5A0722"/>
<path d="M95.5517 94.3252L95.8209 94.7873C94.6634 95.6572 94.6096 95.8475 95.6863 97.6144L99.1587 103.269C100.235 105.008 100.451 105.063 101.716 104.41L101.985 104.873L97.4629 107.7L97.1937 107.238C98.3781 106.368 98.4319 106.15 97.3552 104.41L93.8828 98.7562C92.8061 97.0164 92.6177 96.962 91.2987 97.6416L91.0295 97.1795L95.5517 94.3524V94.3252Z" fill="#5A0722"/>
<path d="M117.221 82.3374C117.867 82.5548 118.432 82.7451 118.863 82.7451C118.836 83.9684 118.782 85.5451 118.351 86.9314C117.059 90.9547 113.802 92.8847 110.222 91.7158C106.131 90.3838 105.054 86.3878 106.211 82.8267C106.723 81.2772 107.45 80.1083 107.799 79.5103C108.419 79.6734 109.388 79.8636 110.787 80.1627L110.68 80.7607C108.257 80.4889 107.315 81.8481 106.83 83.3432C106.023 85.8441 107.369 88.1547 110.626 89.2149C113.371 90.112 116.628 89.8673 117.678 86.5781C117.867 86.0072 117.894 85.6266 117.867 85.3004C117.84 84.9198 117.571 84.6752 116.844 84.4305L115.336 83.9412C114.125 83.5335 113.991 83.5878 113.237 85.4635L112.698 85.2732L114.314 80.2442L114.852 80.4073C114.69 81.3859 114.744 81.4947 115.982 81.9024L117.221 82.3102V82.3374Z" fill="#5A0722"/>
<path d="M108.607 72.2786L109.118 72.3601C109.011 73.8824 109.118 74.0455 111.164 74.3446L117.651 75.2688C118.728 75.4319 119.266 75.3775 119.536 75.1057C119.805 74.8067 119.912 74.2086 120.02 73.5834C120.155 72.7135 120.397 70.4301 119.993 69.968C119.67 69.5874 119.078 69.2068 118.243 68.7719L118.432 68.1738C119.024 68.3641 120.855 69.0709 121.393 69.2884L119.966 79.5095L119.428 79.4279C119.536 77.8241 119.428 77.661 117.409 77.362L110.868 76.4377C108.849 76.1387 108.688 76.2746 108.365 77.7697L107.853 77.6882L108.607 72.2514V72.2786Z" fill="#5A0722"/>
<path d="M115.552 55.1528C119.562 55.4247 121.985 58.4421 121.743 62.0575C121.5 65.8089 118.566 68.0652 115.148 67.8477C112.052 67.6302 108.688 65.2109 109.011 60.7527C109.226 57.4635 111.918 54.9354 115.578 55.18L115.552 55.1528ZM114.69 65.3196C118.082 65.5643 120.827 64.2322 121.016 61.5139C121.15 59.5294 119.616 57.8984 116.09 57.6537C112.187 57.3819 109.872 58.7955 109.71 61.3508C109.576 63.3624 111.379 65.0749 114.717 65.2924L114.69 65.3196Z" fill="#5A0722"/>
<path d="M109.253 36.3691H109.791C109.899 37.8099 110.06 37.973 112.079 37.973H118.674C120.72 37.973 120.854 37.8099 120.962 36.3691H121.5V41.7244H120.962C120.854 40.2292 120.693 40.0933 118.674 40.0933H112.079C110.034 40.0933 109.899 40.2564 109.791 41.7244H109.253V36.3691Z" fill="#5A0722"/>
<path d="M109.011 28.7578L112.51 27.4529C114.798 26.5831 117.14 25.7675 119.024 25.0336C120.693 24.3812 120.827 24.1093 120.935 23.022H121.473V28.0238H120.935L120.854 27.4801C120.747 26.7462 120.558 26.719 119.831 26.9364C119.266 27.1267 118.109 27.5889 117.113 27.9694V31.5033C117.678 31.748 118.728 32.1014 119.535 32.3732C120.531 32.7266 120.774 32.5635 120.881 31.7208L120.935 31.1771H121.473V35.3906H120.935C120.774 34.2217 120.72 34.0043 119.024 33.3247L109.226 29.4917L109.011 28.7306V28.7578ZM116.305 31.2859V28.2685L112.16 29.7636V29.8179L116.305 31.313V31.2859Z" fill="#5A0722"/>
<path d="M109.253 17.9658L118.243 13.7523L109.253 9.78345V6.19518H109.791C109.953 7.74466 110.007 7.82621 112.079 7.77184L118.674 7.58156C120.774 7.52719 120.828 7.47282 120.962 5.92334H121.5V11.2242H120.962C120.801 9.72908 120.774 9.67471 118.674 9.7019L111.433 9.78345V9.865L121.258 14.1872V14.7581L111.81 18.9172V18.9988L116.682 19.1347C118.378 19.1619 119.401 19.1347 119.966 19.0803C120.693 18.9988 120.828 18.6182 120.935 17.3406H121.474V21.8531H120.935C120.854 20.9016 120.666 20.5211 119.966 20.3852C119.401 20.3036 118.297 20.1405 116.467 20.0318L112.591 19.8143C110.087 19.6784 109.899 19.8143 109.737 21.4453H109.199V17.9386L109.253 17.9658Z" fill="#5A0722"/>
<path d="M64.3005 115.529C65.4452 115.529 66.3732 114.591 66.3732 113.435C66.3732 112.279 65.4452 111.342 64.3005 111.342C63.1558 111.342 62.2278 112.279 62.2278 113.435C62.2278 114.591 63.1558 115.529 64.3005 115.529Z" fill="#5A0722"/>
<path d="M103.573 97.9134C104.718 97.9134 105.646 96.9762 105.646 95.8202C105.646 94.6642 104.718 93.7271 103.573 93.7271C102.429 93.7271 101.501 94.6642 101.501 95.8202C101.501 96.9762 102.429 97.9134 103.573 97.9134Z" fill="#5A0722"/>
<path d="M13.3721 41.9143C14.5168 41.9143 15.4448 40.9772 15.4448 39.8212C15.4448 38.6652 14.5168 37.728 13.3721 37.728C12.2274 37.728 11.2994 38.6652 11.2994 39.8212C11.2994 40.9772 12.2274 41.9143 13.3721 41.9143Z" fill="#5A0722"/>
<path d="M30.8418 91.0362C31.8646 91.9604 32.4837 92.7488 32.6991 93.6186C32.9144 94.4885 32.7529 95.4128 32.0261 96.2555C30.9764 97.4516 29.4959 97.6147 27.9885 96.9894C27.8539 97.5875 27.504 99.0826 27.3963 100.116C27.2348 101.366 27.1271 102.209 27.154 102.725C27.181 103.378 27.2079 103.785 27.5309 104.248L27.154 104.574L26.5888 104.003C25.1621 102.508 25.0545 101.665 25.216 100.387C25.3506 99.3273 25.7005 97.9952 25.9428 96.9079C26.0773 96.3098 26.0235 96.0108 25.6197 95.6303L25.1621 95.2225L23.4663 97.0982C22.0935 98.6205 22.1204 98.8379 23.0895 99.8981L22.7396 100.279L18.8096 96.6904L19.1595 96.2827C20.3439 97.2341 20.5592 97.2069 21.932 95.6846L26.3465 90.7643C27.7193 89.242 27.6924 89.0246 26.7234 87.9644L27.0733 87.5566L30.8418 90.9818V91.0362ZM25.5928 94.7604L26.1312 95.2497C26.6964 95.7662 27.1541 96.038 27.7732 96.0924C28.7422 96.1467 29.5228 95.6574 30.1419 94.9778C31.4609 93.5099 30.8956 92.0963 30.0073 91.2808C29.3344 90.6556 29.2536 90.71 28.8499 91.1449L25.5928 94.7875V94.7604Z" fill="#5A0722"/>
<path d="M109.253 49.4717C109.253 48.0853 109.414 47.1067 109.899 46.3456C110.383 45.6116 111.191 45.0951 112.295 45.0951C113.883 45.0951 114.986 46.0737 115.552 47.6232C116.09 47.3242 117.409 46.563 118.243 45.965C119.266 45.231 119.966 44.7417 120.343 44.3883C120.801 43.9262 121.07 43.6272 121.204 43.0835L121.689 43.165V43.9534C121.5 46.0194 120.962 46.6718 119.912 47.4057C119.051 48.0038 117.84 48.6562 116.871 49.1999C116.332 49.4989 116.144 49.7435 116.144 50.3144V50.9124H118.674C120.72 50.9124 120.854 50.7493 120.962 49.3086H121.5V54.6638H120.962C120.854 53.1415 120.693 52.9784 118.674 52.9784H112.079C110.034 52.9784 109.899 53.1415 109.791 54.5823H109.253V49.4717ZM115.498 50.8853V50.1513C115.498 49.3902 115.39 48.8465 115.013 48.3572C114.421 47.596 113.506 47.3242 112.591 47.3242C110.626 47.3242 109.953 48.6834 109.953 49.9066C109.953 50.8309 110.034 50.8581 110.626 50.8581H115.498V50.8853Z" fill="#5A0722"/>
</svg>
