<svg width="16" height="16" viewBox="0 0 16 16" fill="none" xmlns="http://www.w3.org/2000/svg">
<g clip-path="url(#clip0_3626_565)">
<path d="M14.5 0.5V10.2041C14.5 11.2095 14.0507 12.0476 13.4297 12.7188C12.8128 13.3855 12.0066 13.9111 11.2295 14.3135C10.4488 14.7176 9.67213 15.0093 9.09375 15.2002C8.8038 15.2959 8.56139 15.3669 8.39062 15.4141C8.30529 15.4376 8.23736 15.4558 8.19043 15.4678C8.16739 15.4736 8.1494 15.4783 8.13672 15.4814L8.11719 15.4863H8.11523L8 15.5137L7.88477 15.4863H7.88281L7.86328 15.4814C7.8506 15.4783 7.83261 15.4736 7.80957 15.4678C7.76265 15.4558 7.6947 15.4376 7.60938 15.4141C7.43861 15.3669 7.19619 15.2959 6.90625 15.2002C6.32787 15.0093 5.55117 14.7176 4.77051 14.3135C3.99341 13.9111 3.18719 13.3855 2.57031 12.7188C1.94934 12.0476 1.5 11.2095 1.5 10.2041V0.5H14.5Z" fill="#5A0722" stroke="white"/>
<path d="M3.308 8.27895C3.308 8.27895 3.48944 8.4041 3.16455 9.15093C3.09703 9.30029 2.81012 9.82509 3.16033 10.2046C3.40927 10.471 3.80168 10.3741 3.80168 10.3741C3.82699 10.5194 3.83965 10.5881 3.83965 10.5881H3.55273C3.29113 10.6002 3.27847 10.8747 3.27847 10.8747V12.0373L3.47678 12.227H4.13501C4.14767 11.9404 3.7637 11.8193 3.7637 11.8193V11.3147H4.37551C4.70041 11.2905 4.8734 10.693 4.8734 10.693L5.10969 10.7172C5.12235 10.7536 4.77214 11.3632 4.77214 11.3632L5.481 12.0091V12.2028H6.25315C6.29112 12.0212 5.9156 11.8678 5.9156 11.8678L5.43036 11.3632C5.36707 11.2986 5.41349 11.234 5.49788 11.2057C5.5907 11.1775 5.66243 11.1573 5.76792 11.1169C5.8734 11.0765 6.31644 10.8101 6.13079 10.2934C5.94935 9.78472 5.33332 9.99464 5.33332 9.93409C5.33332 9.87353 5.65821 9.15496 5.65821 9.15496L5.39661 8.78357L5.70885 8.97734L6.53163 8.83201C6.62024 9.50214 6.94091 9.33662 6.94091 9.33662V8.83201C6.94091 8.83201 6.92825 8.50098 6.61602 8.40006C6.24471 8.27895 5.98311 8.35162 5.86918 8.3274C5.75948 8.30317 5.78901 8.20629 5.78901 8.20629L6.27846 8.2184L6.71306 7.87122L6.94935 7.847C7.38395 7.77434 7.22361 7.45139 7.22361 7.45139H6.59914C6.36285 7.45139 5.75104 7.88334 5.75104 7.88334C5.75104 7.88334 5.66243 7.40294 6.12235 7.23743C6.58226 7.06788 6.48522 6.9387 6.48522 6.9387L6.05062 7.08403C6.05062 7.08403 5.99998 7.03558 6.07593 6.92659C6.11391 6.87007 6.46412 6.74493 6.46412 6.74493C6.73838 6.64804 6.64977 6.43409 6.64977 6.43409L6.16454 6.48253C6.05062 6.38564 6.06328 6.37353 5.90294 6.34931C5.7426 6.32509 5.49366 6.54308 5.51897 6.47042C5.54429 6.39775 5.56961 6.1838 5.59492 5.9658C5.61602 5.77203 4.96201 6.67226 4.96201 6.67226C4.11391 8.2184 4.3502 9.26396 4.3502 9.26396C3.78902 9.51425 3.78902 10.0996 3.78902 9.9462C3.78902 9.07826 4.08859 9.13881 4.07594 8.58979C4.06328 8.04078 3.45568 8.08922 3.45568 8.08922C3.21518 8.08922 3.14345 8.23455 3.14345 8.23455C3.14345 8.23455 3.26581 8.21033 3.31222 8.27088L3.308 8.27895Z" fill="white"/>
<path d="M5.71729 6.63495H6.05906L5.98733 6.51855L5.71729 6.63495Z" fill="#5A0722"/>
<path d="M8.00421 12.2631C8.00421 12.2631 7.51898 12.3116 7.0886 11.8958C6.6751 11.5002 6.69198 11.0278 6.69198 11.0278V10.1276C6.69198 10.1276 6.57383 10.0994 6.56961 9.98632C6.56118 9.84503 6.71307 9.86925 6.71307 9.86925H7.01687C6.99999 10.1761 7.1983 10.1397 7.1983 10.1397C7.40928 10.1478 7.36708 9.86925 7.36708 9.86925H7.99999H8.6329C8.6329 9.86925 8.58649 10.1478 8.80168 10.1397C8.80168 10.1397 8.99999 10.1761 8.98311 9.86925H9.28691C9.28691 9.86925 9.43881 9.84907 9.43037 9.98632C9.42615 10.0953 9.30801 10.1276 9.30801 10.1276V11.0278C9.30801 11.0278 9.32488 11.4961 8.91138 11.8958C8.481 12.3116 7.99577 12.2631 7.99577 12.2631H8.00421Z" fill="white"/>
<path d="M12.6962 8.27895C12.6962 8.27895 12.5147 8.4041 12.8396 9.15093C12.9072 9.30029 13.1941 9.82509 12.8439 10.2046C12.5949 10.471 12.2025 10.3741 12.2025 10.3741C12.1772 10.5194 12.1645 10.5881 12.1645 10.5881H12.4515C12.7131 10.6002 12.7257 10.8747 12.7257 10.8747V12.0373L12.5274 12.227H11.8692C11.8565 11.9404 12.2447 11.8193 12.2447 11.8193V11.3147H11.6329C11.308 11.2905 11.135 10.693 11.135 10.693L10.8987 10.7172C10.8861 10.7536 11.2363 11.3632 11.2363 11.3632L10.5274 12.0091V12.2028H9.75526C9.71728 12.0212 10.0928 11.8678 10.0928 11.8678L10.578 11.3632C10.6413 11.2986 10.5949 11.234 10.5105 11.2057C10.4177 11.1775 10.346 11.1573 10.2405 11.1169C10.135 11.0765 9.69197 10.8101 9.87762 10.2934C10.0591 9.78472 10.6751 9.99464 10.6751 9.93409C10.6751 9.87353 10.3502 9.15496 10.3502 9.15496L10.6118 8.78357L10.2996 8.97734L9.47678 8.83201C9.38817 9.50214 9.06749 9.33662 9.06749 9.33662V8.83201C9.06749 8.83201 9.08015 8.50098 9.39239 8.40006C9.7637 8.27895 10.0253 8.35162 10.1392 8.3274C10.2531 8.30317 10.2194 8.20629 10.2194 8.20629L9.72994 8.2184L9.29534 7.87122L9.05905 7.847C8.62446 7.77434 8.78479 7.45139 8.78479 7.45139H9.40927C9.64555 7.45139 10.2574 7.88334 10.2574 7.88334C10.2574 7.88334 10.346 7.40294 9.88606 7.23743C9.42614 7.06788 9.52319 6.9387 9.52319 6.9387L9.95779 7.08403C9.95779 7.08403 10.0084 7.03558 9.93247 6.92659C9.89028 6.87007 9.54429 6.74493 9.54429 6.74493C9.27003 6.64804 9.35863 6.43409 9.35863 6.43409L9.84386 6.48253C9.95357 6.38564 9.94091 6.37353 10.1055 6.34931C10.2658 6.32509 10.5147 6.54308 10.4894 6.47042C10.4641 6.39775 10.4388 6.1838 10.4135 5.9658C10.3924 5.77203 11.0464 6.67226 11.0464 6.67226C11.8945 8.2184 11.6582 9.26396 11.6582 9.26396C12.2194 9.51425 12.2194 10.0996 12.2194 9.9462C12.2194 9.07826 11.924 9.13881 11.9325 8.58979C11.9451 8.04078 12.5527 8.08922 12.5527 8.08922C12.7932 8.08922 12.865 8.23455 12.865 8.23455C12.865 8.23455 12.7426 8.21033 12.6962 8.27088V8.27895Z" fill="white"/>
<path d="M10.2869 6.63495H9.94516L10.0169 6.51855L10.2869 6.63495Z" fill="#5A0722"/>
<path d="M8.07169 8.82756V6.49827C8.10545 6.47808 8.13077 6.44175 8.13077 6.39734C8.13077 6.33275 8.07591 6.28027 8.0084 6.28027C8.0084 6.28027 8.00418 6.28027 7.99996 6.28027C7.99996 6.28027 7.99575 6.28027 7.99153 6.28027C7.92402 6.28027 7.86916 6.33275 7.86916 6.39734C7.86916 6.44175 7.89448 6.47808 7.92824 6.49827V8.8316L7.13077 9.61476V9.86505H7.24891V9.66724L7.99575 8.93252L8.74258 9.66724V9.86505H8.86494V9.61476L8.06748 8.8316L8.07169 8.82756Z" fill="white"/>
<path d="M8.01266 1V1.75024L8.87342 1H8.01266Z" fill="#EAAA00"/>
<path d="M13.1772 5.52088H14V4.7666L13.1772 5.52088Z" fill="#EAAA00"/>
<path d="M9.73418 1L8.01266 2.50577V3.26067L10.5949 1H9.73418Z" fill="#EAAA00"/>
<path d="M11.4557 1L8.01266 4.01153V4.76644L12.3165 1H11.4557Z" fill="#EAAA00"/>
<path d="M13.1772 1L8.01266 5.52134H8.87342L14 1H13.1772Z" fill="#EAAA00"/>
<path d="M9.73422 5.52132H10.595L14 2.50575V1.75488L9.73422 5.52132Z" fill="#EAAA00"/>
<path d="M11.4557 5.52141H12.3165L14 4.01161V3.26074L11.4557 5.52141Z" fill="#EAAA00"/>
<path d="M2.3291 4.1894L2.40083 3.81396H2.95779V5.52158H2.51476V4.19343H2.3291V4.1894Z" fill="white"/>
<path d="M4.53161 4.22564C4.53161 4.40326 4.41346 4.55667 4.25313 4.60915C4.4641 4.68181 4.60334 4.83521 4.60334 5.05724C4.60334 5.40845 4.23625 5.56993 3.93245 5.56993C3.62865 5.56993 3.26157 5.40845 3.26157 5.05724C3.26157 4.83521 3.40081 4.68181 3.61178 4.61318C3.45144 4.55667 3.3333 4.40326 3.3333 4.22564C3.3333 3.90269 3.63287 3.74121 3.93245 3.74121C4.23203 3.74121 4.53161 3.90269 4.53161 4.22564ZM3.73836 4.23775C3.73836 4.34271 3.82697 4.42749 3.93245 4.42749C4.03794 4.42749 4.12654 4.34271 4.12654 4.23775C4.12654 4.13279 4.04216 4.04802 3.93245 4.04802C3.82275 4.04802 3.73836 4.13279 3.73836 4.23775ZM3.72148 5.00073C3.72148 5.11376 3.81431 5.20661 3.93245 5.20661C4.05059 5.20661 4.14342 5.11376 4.14342 5.00073C4.14342 4.88769 4.05059 4.79081 3.93245 4.79081C3.81431 4.79081 3.72148 4.88366 3.72148 5.00073Z" fill="white"/>
<path d="M4.83545 4.23781V3.83008H6.29958L5.32068 5.52154H4.77216L5.54853 4.23781H4.83545Z" fill="white"/>
<path d="M7.72998 4.64935C7.72998 5.07726 7.51479 5.53747 7.00424 5.53747C6.49369 5.53747 6.2785 5.07726 6.2785 4.64935C6.2785 4.22144 6.49369 3.76123 7.00424 3.76123C7.51479 3.76123 7.72998 4.22144 7.72998 4.64935ZM6.72154 4.64531C6.72154 4.80275 6.77639 5.158 7.00424 5.158C7.23209 5.158 7.28694 4.80679 7.28694 4.64531C7.28694 4.48384 7.23209 4.13666 7.00424 4.13666C6.77639 4.13666 6.72154 4.48384 6.72154 4.64531Z" fill="white"/>
</g>
<defs>
<clipPath id="clip0_3626_565">
<rect width="16" height="16" fill="white"/>
</clipPath>
</defs>
</svg>
