<svg width="90" height="91" viewBox="0 0 90 91" fill="none" xmlns="http://www.w3.org/2000/svg">
<path d="M80.8633 1V58.3096C80.8633 69.2509 71.6816 76.8404 62.9551 81.6094C58.5453 84.0192 54.1441 85.7697 50.8506 86.917C49.2022 87.4912 47.8273 87.9158 46.8623 88.1973C46.3798 88.338 45.9993 88.4434 45.7383 88.5137C45.6079 88.5488 45.5072 88.575 45.4385 88.5928C45.4041 88.6017 45.3775 88.6087 45.3594 88.6133C45.3506 88.6155 45.3437 88.6169 45.3389 88.6182C45.3367 88.6187 45.3344 88.6188 45.333 88.6191L45.3311 88.6201L45.0879 87.6504L45.3301 88.6201L45.0879 88.6807L44.8457 88.6201L44.8438 88.6191C44.8424 88.6188 44.8403 88.6188 44.8379 88.6182C44.833 88.6169 44.8255 88.6156 44.8164 88.6133C44.7982 88.6087 44.7716 88.6017 44.7373 88.5928C44.6685 88.575 44.5678 88.5487 44.4375 88.5137C44.1765 88.4434 43.796 88.338 43.3135 88.1973C42.3485 87.9157 40.9735 87.4912 39.3252 86.917C36.0317 85.7697 31.6305 84.0193 27.2207 81.6094C18.4942 76.8404 9.3125 69.2509 9.3125 58.3096V1H80.8633Z" fill="#5A0722" stroke="white" stroke-width="2"/>
<path d="M17.8938 46.5287C17.8938 46.5287 18.9454 47.2943 17.0623 51.8633C16.6711 52.7771 15.0081 55.9877 17.0379 58.3092C18.4807 59.9392 20.7551 59.3465 20.7551 59.3465C20.9018 60.2356 20.9752 60.6555 20.9752 60.6555H19.3122C17.796 60.7296 17.7226 62.409 17.7226 62.409V69.5218L18.872 70.6825H22.6871C22.7604 68.929 20.535 68.1881 20.535 68.1881V65.101H24.081C25.9641 64.9528 26.9668 61.2976 26.9668 61.2976L28.3363 61.4458C28.4096 61.668 26.3798 65.3973 26.3798 65.3973L30.4883 69.3489V70.5344H34.9637C35.1838 69.423 33.0072 68.4845 33.0072 68.4845L30.1949 65.3973C29.828 65.0022 30.0971 64.607 30.5862 64.4341C31.1242 64.2613 31.5399 64.1378 32.1513 63.8908C32.7627 63.6438 35.3305 62.0138 34.2545 58.8526C33.2029 55.7407 29.6324 57.025 29.6324 56.6545C29.6324 56.2841 31.5155 51.888 31.5155 51.888L29.9992 49.6158L31.8089 50.8013L36.5777 49.9122C37.0913 54.0119 38.9499 52.9993 38.9499 52.9993V49.9122C38.9499 49.9122 38.8765 47.887 37.0668 47.2696C34.9148 46.5287 33.3985 46.9732 32.7382 46.825C32.1024 46.6768 32.2736 46.0841 32.2736 46.0841L35.1104 46.1582L37.6293 44.0342L38.9988 43.8861C41.5177 43.4415 40.5884 41.4657 40.5884 41.4657H36.969C35.5995 41.4657 32.0535 44.1083 32.0535 44.1083C32.0535 44.1083 31.5399 41.1694 34.2056 40.1568C36.8712 39.1195 36.3087 38.3292 36.3087 38.3292L33.7898 39.2183C33.7898 39.2183 33.4964 38.9219 33.9365 38.2551C34.1566 37.9093 36.1864 37.1437 36.1864 37.1437C37.776 36.551 37.2625 35.242 37.2625 35.242L34.4501 35.5384C33.7898 34.9457 33.8632 34.8716 32.9339 34.7234C32.0046 34.5752 30.5617 35.9088 30.7084 35.4643C30.8552 35.0197 31.0019 33.7108 31.1486 32.3771C31.2709 31.1917 27.4803 36.6992 27.4803 36.6992C22.5648 46.1582 23.9343 52.5548 23.9343 52.5548C20.6817 54.086 20.6817 57.6671 20.6817 56.7286C20.6817 51.4187 22.4181 51.7892 22.3447 48.4303C22.2713 45.0715 18.7498 45.3679 18.7498 45.3679C17.3558 45.3679 16.9401 46.257 16.9401 46.257C16.9401 46.257 17.6493 46.1088 17.9183 46.4793L17.8938 46.5287Z" fill="white"/>
<path d="M31.8577 36.4779H33.8386L33.4229 35.7617L31.8577 36.4779Z" fill="#5A0722"/>
<path d="M45.1124 70.9046C45.1124 70.9046 42.3001 71.201 39.8056 68.6572C37.409 66.2368 37.5068 63.3473 37.5068 63.3473V57.8398C37.5068 57.8398 36.8221 57.6669 36.7976 56.9754C36.7487 56.111 37.6291 56.2592 37.6291 56.2592H39.3899C39.2921 58.1362 40.4415 57.9139 40.4415 57.9139C41.6642 57.9633 41.4197 56.2592 41.4197 56.2592H45.088H48.7563C48.7563 56.2592 48.4873 57.9633 49.7345 57.9139C49.7345 57.9139 50.8839 58.1362 50.7861 56.2592H52.5469C52.5469 56.2592 53.4273 56.1357 53.3784 56.9754C53.3539 57.6422 52.6692 57.8398 52.6692 57.8398V63.3473C52.6692 63.3473 52.767 66.2121 50.3704 68.6572C47.8759 71.201 45.0635 70.9046 45.0635 70.9046H45.1124Z" fill="white"/>
<path d="M72.3069 46.5287C72.3069 46.5287 71.2553 47.2943 73.1384 51.8633C73.5297 52.7771 75.1926 55.9877 73.1628 58.3092C71.72 59.9392 69.4456 59.3465 69.4456 59.3465C69.2989 60.2356 69.2255 60.6555 69.2255 60.6555H70.8885C72.4047 60.7296 72.4781 62.409 72.4781 62.409V69.5218L71.3287 70.6825H67.5136C67.4403 68.929 69.6902 68.1881 69.6902 68.1881V65.101H66.1441C64.2611 64.9528 63.2584 61.2976 63.2584 61.2976L61.8889 61.4458C61.8155 61.668 63.8453 65.3973 63.8453 65.3973L59.7368 69.3489V70.5344H55.2615C55.0414 69.423 57.2179 68.4845 57.2179 68.4845L60.0303 65.3973C60.3971 65.0022 60.1281 64.607 59.639 64.4341C59.101 64.2613 58.6853 64.1378 58.0739 63.8908C57.4625 63.6438 54.8947 62.0138 55.9707 58.8526C57.0223 55.7407 60.5928 57.025 60.5928 56.6545C60.5928 56.2841 58.7097 51.888 58.7097 51.888L60.2259 49.6158L58.4162 50.8013L53.6474 49.9122C53.1339 54.0119 51.2753 52.9993 51.2753 52.9993V49.9122C51.2753 49.9122 51.3486 47.887 53.1583 47.2696C55.3104 46.5287 56.8266 46.9732 57.4869 46.825C58.1472 46.6768 57.9516 46.0841 57.9516 46.0841L55.1148 46.1582L52.5959 44.0342L51.2264 43.8861C48.7075 43.4415 49.6368 41.4657 49.6368 41.4657H53.2562C54.6257 41.4657 58.1717 44.1083 58.1717 44.1083C58.1717 44.1083 58.6853 41.1694 56.0196 40.1568C53.354 39.1195 53.9165 38.3292 53.9165 38.3292L56.4354 39.2183C56.4354 39.2183 56.7288 38.9219 56.2886 38.2551C56.0441 37.9093 54.0387 37.1437 54.0387 37.1437C52.4491 36.551 52.9627 35.242 52.9627 35.242L55.7751 35.5384C56.4109 34.9457 56.3375 34.8716 57.2913 34.7234C58.2206 34.5752 59.6635 35.9088 59.5167 35.4643C59.37 35.0197 59.2233 33.7108 59.0765 32.3771C58.9543 31.1917 62.7448 36.6992 62.7448 36.6992C67.6604 46.1582 66.2909 52.5548 66.2909 52.5548C69.5434 54.086 69.5434 57.6671 69.5434 56.7286C69.5434 51.4187 67.8316 51.7892 67.8805 48.4303C67.9538 45.0715 71.4754 45.3679 71.4754 45.3679C72.8694 45.3679 73.2851 46.257 73.2851 46.257C73.2851 46.257 72.5759 46.1088 72.3069 46.4793V46.5287Z" fill="white"/>
<path d="M58.3429 36.4779H56.362L56.7777 35.7617L58.3429 36.4779Z" fill="#5A0722"/>
<path d="M45.5037 49.8881V35.6378C45.6994 35.5144 45.8461 35.2921 45.8461 35.0204C45.8461 34.6253 45.5282 34.3042 45.1369 34.3042C45.1369 34.3042 45.1124 34.3042 45.088 34.3042C45.088 34.3042 45.0635 34.3042 45.0391 34.3042C44.6478 34.3042 44.3299 34.6253 44.3299 35.0204C44.3299 35.2921 44.4766 35.5144 44.6722 35.6378V49.9128L40.0502 54.7041V56.2353H40.7349V55.0252L45.0635 50.5303L49.3921 55.0252V56.2353H50.1013V54.7041L45.4793 49.9128L45.5037 49.8881Z" fill="white"/>
<path d="M45.1614 2V6.59368L50.1503 2H45.1614Z" fill="#EAAA00"/>
<path d="M75.0948 29.6604H79.8636V25.042L75.0948 29.6604Z" fill="#EAAA00"/>
<path d="M55.1392 2L45.1614 11.2121V15.8304L60.1281 2H55.1392Z" fill="#EAAA00"/>
<path d="M65.117 2L45.1614 20.4241V25.0425L70.1059 2H65.117Z" fill="#EAAA00"/>
<path d="M75.0948 2L45.1614 29.6609H50.1503L79.8636 2H75.0948Z" fill="#EAAA00"/>
<path d="M55.1393 29.6616H60.1282L79.8637 11.2128V6.61914L55.1393 29.6616Z" fill="#EAAA00"/>
<path d="M65.1171 29.6615H70.106L79.8637 20.4247V15.8311L65.1171 29.6615Z" fill="#EAAA00"/>
<path d="M12.2201 21.5117L12.6358 19.2148H15.8639V29.6618H13.2961V21.5364H12.2201V21.5117Z" fill="white"/>
<path d="M24.9857 21.7332C24.9857 22.8199 24.301 23.7584 23.3716 24.0794C24.5944 24.524 25.4014 25.4625 25.4014 26.8208C25.4014 28.9695 23.2738 29.9574 21.513 29.9574C19.7523 29.9574 17.6246 28.9695 17.6246 26.8208C17.6246 25.4625 18.4317 24.524 19.6544 24.1041C18.7251 23.7584 18.0404 22.8199 18.0404 21.7332C18.0404 19.7574 19.7767 18.7695 21.513 18.7695C23.2494 18.7695 24.9857 19.7574 24.9857 21.7332ZM20.3881 21.8073C20.3881 22.4494 20.9017 22.9681 21.513 22.9681C22.1244 22.9681 22.638 22.4494 22.638 21.8073C22.638 21.1652 22.1489 20.6465 21.513 20.6465C20.8772 20.6465 20.3881 21.1652 20.3881 21.8073ZM20.2903 26.4751C20.2903 27.1666 20.8283 27.7346 21.513 27.7346C22.1978 27.7346 22.7358 27.1666 22.7358 26.4751C22.7358 25.7835 22.1978 25.1908 21.513 25.1908C20.8283 25.1908 20.2903 25.7588 20.2903 26.4751Z" fill="white"/>
<path d="M26.7465 21.8074V19.313H35.2325L29.5589 29.6611H26.3797L30.8795 21.8074H26.7465Z" fill="white"/>
<path d="M43.5229 24.3265C43.5229 26.9444 42.2757 29.7598 39.3166 29.7598C36.3575 29.7598 35.1103 26.9444 35.1103 24.3265C35.1103 21.7086 36.3575 18.8931 39.3166 18.8931C42.2757 18.8931 43.5229 21.7086 43.5229 24.3265ZM37.6781 24.3018C37.6781 25.2649 37.996 27.4383 39.3166 27.4383C40.6372 27.4383 40.9551 25.2896 40.9551 24.3018C40.9551 23.3139 40.6372 21.1899 39.3166 21.1899C37.996 21.1899 37.6781 23.3139 37.6781 24.3018Z" fill="white"/>
</svg>
