<svg width="192" height="192" viewBox="0 0 192 192" fill="none" xmlns="http://www.w3.org/2000/svg">
<path d="M95.9996 170L95.7584 170.971L95.9996 171.03L96.2418 170.971L95.9996 170ZM95.9996 170C96.2252 170.905 96.2412 170.966 96.2428 170.97H96.2447C96.2466 170.969 96.2501 170.969 96.2535 170.968C96.2604 170.966 96.2701 170.963 96.2828 170.96C96.3088 170.953 96.3472 170.944 96.3971 170.931C96.4969 170.905 96.644 170.867 96.8346 170.815C97.2156 170.713 97.7717 170.559 98.4781 170.353C99.891 169.94 101.906 169.318 104.322 168.477C109.151 166.794 115.601 164.229 122.058 160.7C134.88 153.693 148.158 142.647 148.158 126.837V43H43.8414V126.837C43.8414 142.647 57.1187 153.693 69.941 160.7C76.3987 164.229 82.8479 166.794 87.6773 168.477C90.0934 169.318 92.1082 169.94 93.5211 170.353C94.2277 170.559 94.7846 170.713 95.1656 170.815C95.3558 170.867 95.5024 170.905 95.6021 170.931C95.652 170.944 95.6904 170.953 95.7164 170.96C95.7294 170.963 95.7398 170.966 95.7467 170.968C95.75 170.969 95.7526 170.969 95.7545 170.97H95.7564C95.7571 170.97 95.7577 170.97 95.9996 170Z" fill="#5A0722" stroke="white" stroke-width="2"/>
<path d="M55.9943 109.507C55.9943 109.507 57.5413 110.633 54.7711 117.355C54.1955 118.699 51.7491 123.422 54.7351 126.838C56.8578 129.236 60.2036 128.364 60.2036 128.364C60.4194 129.672 60.5273 130.289 60.5273 130.289H58.081C55.8504 130.398 55.7425 132.869 55.7425 132.869V143.332L57.4334 145.04H63.0457C63.1536 142.46 59.8798 141.37 59.8798 141.37V136.829H65.0963C67.8665 136.611 69.3416 131.234 69.3416 131.234L71.3562 131.452C71.4642 131.779 68.4781 137.265 68.4781 137.265L74.5222 143.078V144.822H81.1058C81.4296 143.187 78.2277 141.806 78.2277 141.806L74.0904 137.265C73.5508 136.684 73.9465 136.102 74.6661 135.848C75.4575 135.594 76.0691 135.412 76.9686 135.049C77.868 134.685 81.6455 132.287 80.0625 127.637C78.5155 123.059 73.263 124.948 73.263 124.403C73.263 123.858 76.0332 117.391 76.0332 117.391L73.8026 114.049L76.4649 115.793L83.4803 114.485C84.2358 120.516 86.97 119.026 86.97 119.026V114.485C86.97 114.485 86.8621 111.505 84.1998 110.597C81.0339 109.507 78.8033 110.161 77.832 109.943C76.8966 109.725 77.1484 108.853 77.1484 108.853L81.3217 108.962L85.0273 105.838L87.0419 105.62C90.7475 104.966 89.3804 102.059 89.3804 102.059H84.0559C82.0412 102.059 76.8246 105.947 76.8246 105.947C76.8246 105.947 76.0691 101.623 79.9906 100.133C83.912 98.6075 83.0845 97.4449 83.0845 97.4449L79.379 98.7528C79.379 98.7528 78.9473 98.3168 79.5948 97.3359C79.9186 96.8272 82.9047 95.7009 82.9047 95.7009C85.2431 94.829 84.4876 92.9034 84.4876 92.9034L80.3503 93.3393C79.379 92.4674 79.4869 92.3584 78.1198 92.1404C76.7527 91.9224 74.6301 93.8843 74.8459 93.2303C75.0618 92.5764 75.2777 90.6508 75.4935 88.6888C75.6734 86.9449 70.0971 95.0469 70.0971 95.0469C62.8658 108.962 64.8805 118.372 64.8805 118.372C60.0956 120.625 60.0956 125.893 60.0956 124.512C60.0956 116.701 62.65 117.246 62.542 112.305C62.4341 107.364 57.2535 107.8 57.2535 107.8C55.2028 107.8 54.5912 109.108 54.5912 109.108C54.5912 109.108 55.6346 108.89 56.0303 109.434L55.9943 109.507Z" fill="white"/>
<path d="M76.5366 94.7211H79.4507L78.8391 93.6675L76.5366 94.7211Z" fill="#5A0722"/>
<path d="M96.0358 145.367C96.0358 145.367 91.8985 145.803 88.2289 142.061C84.7033 138.5 84.8472 134.249 84.8472 134.249V126.147C84.8472 126.147 83.8398 125.893 83.8039 124.875C83.7319 123.604 85.0271 123.822 85.0271 123.822H87.6173C87.4734 126.583 89.1643 126.256 89.1643 126.256C90.9632 126.329 90.6034 123.822 90.6034 123.822H95.9998H101.396C101.396 123.822 101.001 126.329 102.835 126.256C102.835 126.256 104.526 126.583 104.382 123.822H106.973C106.973 123.822 108.268 123.64 108.196 124.875C108.16 125.856 107.153 126.147 107.153 126.147V134.249C107.153 134.249 107.296 138.464 103.771 142.061C100.101 145.803 95.9639 145.367 95.9639 145.367H96.0358Z" fill="white"/>
<path d="M136.042 109.508C136.042 109.508 134.495 110.634 137.265 117.355C137.84 118.7 140.287 123.423 137.301 126.838C135.178 129.236 131.832 128.364 131.832 128.364C131.617 129.672 131.509 130.29 131.509 130.29H133.955C136.186 130.399 136.293 132.869 136.293 132.869V143.333L134.603 145.041H128.99C128.882 142.461 132.192 141.371 132.192 141.371V136.829H126.976C124.205 136.611 122.73 131.234 122.73 131.234L120.716 131.452C120.608 131.779 123.594 137.265 123.594 137.265L117.55 143.079V144.823H110.966C110.642 143.188 113.844 141.807 113.844 141.807L117.981 137.265C118.521 136.684 118.125 136.103 117.406 135.848C116.614 135.594 116.003 135.413 115.103 135.049C114.204 134.686 110.426 132.288 112.009 127.637C113.556 123.06 118.809 124.949 118.809 124.404C118.809 123.859 116.039 117.392 116.039 117.392L118.269 114.049L115.607 115.793L108.592 114.485C107.836 120.516 105.102 119.027 105.102 119.027V114.485C105.102 114.485 105.21 111.506 107.872 110.598C111.038 109.508 113.269 110.162 114.24 109.944C115.211 109.726 114.923 108.854 114.923 108.854L110.75 108.963L107.045 105.838L105.03 105.62C101.324 104.966 102.692 102.06 102.692 102.06H108.016C110.031 102.06 115.247 105.947 115.247 105.947C115.247 105.947 116.003 101.624 112.081 100.134C108.16 98.608 108.987 97.4454 108.987 97.4454L112.693 98.7533C112.693 98.7533 113.125 98.3173 112.477 97.3364C112.117 96.8277 109.167 95.7014 109.167 95.7014C106.829 94.8294 107.584 92.9038 107.584 92.9038L111.722 93.3398C112.657 92.4679 112.549 92.3589 113.952 92.1409C115.319 91.9229 117.442 93.8848 117.226 93.2308C117.01 92.5768 116.794 90.6512 116.578 88.6893C116.399 86.9454 121.975 95.0474 121.975 95.0474C129.206 108.963 127.191 118.373 127.191 118.373C131.976 120.625 131.976 125.893 131.976 124.513C131.976 116.701 129.458 117.246 129.53 112.305C129.638 107.364 134.818 107.8 134.818 107.8C136.869 107.8 137.481 109.108 137.481 109.108C137.481 109.108 136.437 108.89 136.042 109.435V109.508Z" fill="white"/>
<path d="M115.499 94.7211H112.585L113.197 93.6675L115.499 94.7211Z" fill="#5A0722"/>
<path d="M96.6115 114.45V93.4859C96.8993 93.3042 97.1152 92.9772 97.1152 92.5776C97.1152 91.9962 96.6475 91.5239 96.0718 91.5239C96.0718 91.5239 96.0359 91.5239 95.9999 91.5239C95.9999 91.5239 95.9639 91.5239 95.9279 91.5239C95.3523 91.5239 94.8846 91.9962 94.8846 92.5776C94.8846 92.9772 95.1005 93.3042 95.3883 93.4859V114.486L88.5887 121.534V123.787H89.5961V122.007L95.9639 115.394L102.332 122.007V123.787H103.375V121.534L96.5755 114.486L96.6115 114.45Z" fill="white"/>
<path d="M96.1077 44V50.7578L103.447 44H96.1077Z" fill="#EAAA00"/>
<path d="M140.143 84.6916H147.158V77.8975L140.143 84.6916Z" fill="#EAAA00"/>
<path d="M110.786 44L96.1077 57.5519V64.346L118.125 44H110.786Z" fill="#EAAA00"/>
<path d="M125.464 44L96.1077 71.1038V77.8979L132.804 44H125.464Z" fill="#EAAA00"/>
<path d="M140.143 44L96.1077 84.6921H103.447L147.158 44H140.143Z" fill="#EAAA00"/>
<path d="M110.786 84.6933H118.126L147.159 57.5532V50.7954L110.786 84.6933Z" fill="#EAAA00"/>
<path d="M125.465 84.6932H132.804L147.158 71.105V64.3472L125.465 84.6932Z" fill="#EAAA00"/>
<path d="M47.6476 72.7036L48.2592 69.3247H53.0081V84.6932H49.2306V72.7399H47.6476V72.7036Z" fill="white"/>
<path d="M66.4271 73.0293C66.4271 74.6279 65.4198 76.0085 64.0527 76.4809C65.8515 77.1348 67.0387 78.5155 67.0387 80.5137C67.0387 83.6746 63.9088 85.1279 61.3185 85.1279C58.7282 85.1279 55.5982 83.6746 55.5982 80.5137C55.5982 78.5155 56.7854 77.1348 58.5842 76.5172C57.2171 76.0085 56.2098 74.6279 56.2098 73.0293C56.2098 70.1227 58.7641 68.6694 61.3185 68.6694C63.8728 68.6694 66.4271 70.1227 66.4271 73.0293ZM59.6635 73.1383C59.6635 74.0829 60.419 74.8459 61.3185 74.8459C62.2179 74.8459 62.9734 74.0829 62.9734 73.1383C62.9734 72.1937 62.2538 71.4307 61.3185 71.4307C60.3831 71.4307 59.6635 72.1937 59.6635 73.1383ZM59.5196 80.0051C59.5196 81.0224 60.3111 81.858 61.3185 81.858C62.3258 81.858 63.1173 81.0224 63.1173 80.0051C63.1173 78.9878 62.3258 78.1158 61.3185 78.1158C60.3111 78.1158 59.5196 78.9514 59.5196 80.0051Z" fill="white"/>
<path d="M69.0175 73.1383V69.4688H81.5014L73.1548 84.6919H68.4779L75.0976 73.1383H69.0175Z" fill="white"/>
<path d="M93.6973 76.8446C93.6973 80.6959 91.8625 84.8377 87.5094 84.8377C83.1562 84.8377 81.3214 80.6959 81.3214 76.8446C81.3214 72.9934 83.1562 68.8516 87.5094 68.8516C91.8625 68.8516 93.6973 72.9934 93.6973 76.8446ZM85.0989 76.8083C85.0989 78.2253 85.5666 81.4225 87.5094 81.4225C89.4521 81.4225 89.9198 78.2616 89.9198 76.8083C89.9198 75.355 89.4521 72.2305 87.5094 72.2305C85.5666 72.2305 85.0989 75.355 85.0989 76.8083Z" fill="white"/>
</svg>
