<svg width="32" height="32" viewBox="0 0 32 32" fill="none" xmlns="http://www.w3.org/2000/svg">
<g clip-path="url(#clip0_3620_170)">
<path d="M16 30L15.7705 30.9736L16 31.0273L16.2295 30.9736L16 30ZM16 30L16.2305 30.9727H16.2344C16.2364 30.9722 16.2389 30.9705 16.2422 30.9697C16.2493 30.968 16.2597 30.966 16.2725 30.9629C16.298 30.9566 16.3349 30.9475 16.3818 30.9355C16.4758 30.9116 16.6114 30.8763 16.7822 30.8291C17.1239 30.7347 17.6084 30.5928 18.1885 30.4014C19.3454 30.0195 20.8984 29.4345 22.46 28.626C24.0141 27.8213 25.6257 26.7709 26.8594 25.4375C28.1013 24.0951 29 22.4191 29 20.4082V1H3V20.4082C3 22.4191 3.89868 24.0951 5.14062 25.4375C6.3743 26.7709 7.98594 27.8213 9.54004 28.626C11.1016 29.4345 12.6546 30.0195 13.8115 30.4014C14.3916 30.5928 14.8761 30.7347 15.2178 30.8291C15.3887 30.8763 15.5242 30.9116 15.6182 30.9355C15.6651 30.9475 15.702 30.9566 15.7275 30.9629C15.7402 30.966 15.7507 30.968 15.7578 30.9697C15.7611 30.9705 15.7636 30.9722 15.7656 30.9727C15.7667 30.9729 15.7688 30.9725 15.7695 30.9727L16 30Z" fill="#5A0722" stroke="white" stroke-width="2"/>
<path d="M6.61601 16.5574C6.61601 16.5574 6.97888 16.8077 6.32909 18.3014C6.19407 18.6001 5.62023 19.6497 6.32065 20.4086C6.81854 20.9415 7.60335 20.7477 7.60335 20.7477C7.65398 21.0384 7.6793 21.1756 7.6793 21.1756H7.10546C6.58225 21.1999 6.55694 21.7489 6.55694 21.7489V24.0741L6.95356 24.4536H8.27002C8.29533 23.8804 7.5274 23.6382 7.5274 23.6382V22.6289H8.75103C9.40082 22.5805 9.74681 21.3856 9.74681 21.3856L10.2194 21.434C10.2447 21.5067 9.54428 22.7258 9.54428 22.7258L10.962 24.0176V24.4052H12.5063C12.5822 24.0418 11.8312 23.735 11.8312 23.735L10.8607 22.7258C10.7341 22.5966 10.827 22.4675 10.9958 22.4109C11.1814 22.3544 11.3249 22.314 11.5358 22.2333C11.7468 22.1526 12.6329 21.6197 12.2616 20.5863C11.8987 19.569 10.6666 19.9888 10.6666 19.8677C10.6666 19.7466 11.3164 18.3094 11.3164 18.3094L10.7932 17.5666L11.4177 17.9542L13.0633 17.6635C13.2405 19.0038 13.8818 18.6728 13.8818 18.6728V17.6635C13.8818 17.6635 13.8565 17.0015 13.232 16.7996C12.4894 16.5574 11.9662 16.7027 11.7384 16.6543C11.519 16.6059 11.578 16.4121 11.578 16.4121L12.5569 16.4363L13.4261 15.742L13.8987 15.6935C14.7679 15.5482 14.4472 14.9023 14.4472 14.9023H13.1983C12.7257 14.9023 11.5021 15.7662 11.5021 15.7662C11.5021 15.7662 11.3249 14.8054 12.2447 14.4744C13.1645 14.1353 12.9704 13.8769 12.9704 13.8769L12.1012 14.1676C12.1012 14.1676 12 14.0707 12.1519 13.8527C12.2278 13.7397 12.9282 13.4894 12.9282 13.4894C13.4768 13.2956 13.2995 12.8677 13.2995 12.8677L12.3291 12.9646C12.1012 12.7708 12.1266 12.7466 11.8059 12.6981C11.4852 12.6497 10.9873 13.0857 11.0379 12.9403C11.0886 12.795 11.1392 12.3671 11.1898 11.9311C11.232 11.5436 9.92402 13.344 9.92402 13.344C8.22782 16.4363 8.7004 18.5274 8.7004 18.5274C7.57803 19.028 7.57803 20.1987 7.57803 19.8919C7.57803 18.156 8.17719 18.2771 8.15187 17.1791C8.12656 16.0811 6.91137 16.1779 6.91137 16.1779C6.43036 16.1779 6.2869 16.4686 6.2869 16.4686C6.2869 16.4686 6.53162 16.4202 6.62445 16.5413L6.61601 16.5574Z" fill="white"/>
<path d="M11.4346 13.2699H12.1181L11.9747 13.0371L11.4346 13.2699Z" fill="#5A0722"/>
<path d="M16.0084 24.5258C16.0084 24.5258 15.038 24.6227 14.1772 23.7911C13.3502 22.9998 13.384 22.0552 13.384 22.0552V20.2547C13.384 20.2547 13.1477 20.1982 13.1392 19.9722C13.1224 19.6896 13.4261 19.738 13.4261 19.738H14.0337C14 20.3516 14.3966 20.279 14.3966 20.279C14.8186 20.2951 14.7342 19.738 14.7342 19.738H16H17.2658C17.2658 19.738 17.173 20.2951 17.6034 20.279C17.6034 20.279 18 20.3516 17.9662 19.738H18.5738C18.5738 19.738 18.8776 19.6977 18.8607 19.9722C18.8523 20.1902 18.616 20.2547 18.616 20.2547V22.0552C18.616 22.0552 18.6498 22.9918 17.8228 23.7911C16.962 24.6227 15.9915 24.5258 15.9915 24.5258H16.0084Z" fill="white"/>
<path d="M25.3924 16.5574C25.3924 16.5574 25.0295 16.8077 25.6793 18.3014C25.8143 18.6001 26.3881 19.6497 25.6877 20.4086C25.1898 20.9415 24.405 20.7477 24.405 20.7477C24.3544 21.0384 24.3291 21.1756 24.3291 21.1756H24.9029C25.4261 21.1999 25.4514 21.7489 25.4514 21.7489V24.0741L25.0548 24.4536H23.7384C23.713 23.8804 24.4894 23.6382 24.4894 23.6382V22.6289H23.2658C22.616 22.5805 22.27 21.3856 22.27 21.3856L21.7974 21.434C21.7721 21.5067 22.4725 22.7258 22.4725 22.7258L21.0548 24.0176V24.4052H19.5105C19.4346 24.0418 20.1856 23.735 20.1856 23.735L21.1561 22.7258C21.2827 22.5966 21.1898 22.4675 21.0211 22.4109C20.8354 22.3544 20.6919 22.314 20.481 22.2333C20.27 22.1526 19.3839 21.6197 19.7552 20.5863C20.1181 19.569 21.3502 19.9888 21.3502 19.8677C21.3502 19.7466 20.7004 18.3094 20.7004 18.3094L21.2236 17.5666L20.5991 17.9542L18.9536 17.6635C18.7763 19.0038 18.135 18.6728 18.135 18.6728V17.6635C18.135 17.6635 18.1603 17.0015 18.7848 16.7996C19.5274 16.5574 20.0506 16.7027 20.2784 16.6543C20.5063 16.6059 20.4388 16.4121 20.4388 16.4121L19.4599 16.4363L18.5907 15.742L18.1181 15.6935C17.2489 15.5482 17.5696 14.9023 17.5696 14.9023H18.8185C19.2911 14.9023 20.5147 15.7662 20.5147 15.7662C20.5147 15.7662 20.6919 14.8054 19.7721 14.4744C18.8523 14.1353 19.0464 13.8769 19.0464 13.8769L19.9156 14.1676C19.9156 14.1676 20.0168 14.0707 19.8649 13.8527C19.7806 13.7397 19.0886 13.4894 19.0886 13.4894C18.5401 13.2956 18.7173 12.8677 18.7173 12.8677L19.6877 12.9646C19.9071 12.7708 19.8818 12.7466 20.2109 12.6981C20.5316 12.6497 21.0295 13.0857 20.9789 12.9403C20.9282 12.795 20.8776 12.3671 20.827 11.9311C20.7848 11.5436 22.0928 13.344 22.0928 13.344C23.789 16.4363 23.3164 18.5274 23.3164 18.5274C24.4388 19.028 24.4388 20.1987 24.4388 19.8919C24.4388 18.156 23.8481 18.2771 23.8649 17.1791C23.8903 16.0811 25.1054 16.1779 25.1054 16.1779C25.5865 16.1779 25.7299 16.4686 25.7299 16.4686C25.7299 16.4686 25.4852 16.4202 25.3924 16.5413V16.5574Z" fill="white"/>
<path d="M20.5739 13.2699H19.8903L20.0338 13.0371L20.5739 13.2699Z" fill="#5A0722"/>
<path d="M16.1434 17.6546V12.996C16.2109 12.9557 16.2615 12.883 16.2615 12.7942C16.2615 12.665 16.1518 12.5601 16.0168 12.5601C16.0168 12.5601 16.0084 12.5601 15.9999 12.5601C15.9999 12.5601 15.9915 12.5601 15.9831 12.5601C15.848 12.5601 15.7383 12.665 15.7383 12.7942C15.7383 12.883 15.789 12.9557 15.8565 12.996V17.6627L14.2615 19.229V19.7296H14.4978V19.334L15.9915 17.8646L17.4852 19.334V19.7296H17.7299V19.229L16.135 17.6627L16.1434 17.6546Z" fill="white"/>
<path d="M16.0253 2V3.50048L17.7468 2H16.0253Z" fill="#EAAA00"/>
<path d="M26.3545 11.0418H28V9.5332L26.3545 11.0418Z" fill="#EAAA00"/>
<path d="M19.4683 2L16.0253 5.01153V6.52134L21.1898 2H19.4683Z" fill="#EAAA00"/>
<path d="M22.9114 2L16.0253 8.02307V9.53287L24.6329 2H22.9114Z" fill="#EAAA00"/>
<path d="M26.3544 2L16.0253 11.0427H17.7468L28 2H26.3544Z" fill="#EAAA00"/>
<path d="M19.4684 11.0426H21.1899L28 5.0115V3.50977L19.4684 11.0426Z" fill="#EAAA00"/>
<path d="M22.9114 11.0433H24.6329L28 8.0237V6.52197L22.9114 11.0433Z" fill="#EAAA00"/>
<path d="M4.6582 8.37879L4.80166 7.62793H5.91559V11.0432H5.02951V8.38687H4.6582V8.37879Z" fill="white"/>
<path d="M9.06324 8.45128C9.06324 8.80653 8.82696 9.11333 8.50628 9.21829C8.92822 9.36362 9.2067 9.67043 9.2067 10.1145C9.2067 10.8169 8.47253 11.1399 7.86493 11.1399C7.25734 11.1399 6.52316 10.8169 6.52316 10.1145C6.52316 9.67043 6.80164 9.36362 7.22358 9.22637C6.90291 9.11333 6.66662 8.80653 6.66662 8.45128C6.66662 7.80537 7.26578 7.48242 7.86493 7.48242C8.46409 7.48242 9.06324 7.80537 9.06324 8.45128ZM7.47675 8.4755C7.47675 8.68542 7.65396 8.85497 7.86493 8.85497C8.0759 8.85497 8.25312 8.68542 8.25312 8.4755C8.25312 8.26558 8.08434 8.09603 7.86493 8.09603C7.64552 8.09603 7.47675 8.26558 7.47675 8.4755ZM7.44299 10.0015C7.44299 10.2275 7.62865 10.4132 7.86493 10.4132C8.10122 10.4132 8.28687 10.2275 8.28687 10.0015C8.28687 9.77539 8.10122 9.58161 7.86493 9.58161C7.62865 9.58161 7.44299 9.76731 7.44299 10.0015Z" fill="white"/>
<path d="M9.67089 8.47512V7.65967H12.5992L10.6414 11.0426H9.54431L11.0971 8.47512H9.67089Z" fill="white"/>
<path d="M15.46 9.29919C15.46 10.155 15.0296 11.0754 14.0085 11.0754C12.9874 11.0754 12.557 10.155 12.557 9.29919C12.557 8.44336 12.9874 7.52295 14.0085 7.52295C15.0296 7.52295 15.46 8.44336 15.46 9.29919ZM13.4431 9.29112C13.4431 9.60599 13.5528 10.3165 14.0085 10.3165C14.4642 10.3165 14.5739 9.61407 14.5739 9.29112C14.5739 8.96816 14.4642 8.27381 14.0085 8.27381C13.5528 8.27381 13.4431 8.96816 13.4431 9.29112Z" fill="white"/>
</g>
<defs>
<clipPath id="clip0_3620_170">
<rect width="32" height="32" fill="white"/>
</clipPath>
</defs>
</svg>
