<?xml version="1.0" encoding="UTF-8"?>
<svg id="brand_logo" xmlns="http://www.w3.org/2000/svg" version="1.1" viewBox="0 0 194 42">
  <!-- Generator: Adobe Illustrator 29.1.0, SVG Export Plug-In . SVG Version: 2.1.0 Build 142)  -->
  <defs>
    <style>
      .st0 {
        fill: #eaaa00;
      }

      .st1 {
        fill: #fff;
      }

      .st2 {
        fill: #5a0722;
      }
    </style>
  </defs>
  <path d="M53.4,24.9v-1.2c3.6-.2,3.9-.5,3.9-4.5V6.6c0-4-.3-4.2-3.6-4.4V1h11.6v1.2c-3.6.2-3.9.4-3.9,4.4v12.6c0,2.1.3,3.2,1,3.5.7.4,1.8.4,3.7.4s3.7-.4,4.5-1.3c.6-.6,1.2-1.9,1.8-3.6l1.3.2c-.3,1.2-1,5.4-1.3,6.4h-19,0Z"/>
  <path d="M74.1,13.4c0-9,6.9-13.1,12.4-13.1s12.3,5.4,12.3,12.3-6.2,12.9-12.3,12.9-12.4-6.3-12.4-12.1h0ZM86.9,23.9c4,0,7.2-2.7,7.2-10.2s-2.9-11.8-8.1-11.8-7.2,3.7-7.2,10.2,3,11.7,8.2,11.7Z"/>
  <path d="M103.9,24.9v-1.2c3.8-.3,4-.5,4-4.5v-3.3c0-1,0-1.3-.8-2.5-1.1-2-2.6-4.4-4.9-8.5-1.3-2.4-1.7-2.4-4.1-2.7V1h10.4v1.2l-1.6.2c-1.2.2-1.2.5-.7,1.5.3.5,3.6,6.4,4.8,8.5,1.6-2.8,3.2-6.4,4.1-8.2.7-1.5.6-1.7-.8-1.9l-1.5-.2V1h9.2v1.2c-2.8.3-3,.6-4.4,2.7-1.4,2.1-3,4.7-4.7,7.8-.8,1.4-.8,1.8-.8,2.6v3.9c0,3.9.3,4.2,4.2,4.4v1.2h-12.2,0Z"/>
  <path d="M120.6,13.4c0-9,6.9-13.1,12.4-13.1s12.3,5.4,12.3,12.3-6.2,12.9-12.3,12.9-12.4-6.3-12.4-12.1h0ZM133.4,23.9c4,0,7.2-2.7,7.2-10.2s-2.9-11.8-8.1-11.8-7.2,3.7-7.2,10.2,3,11.7,8.2,11.7h0Z"/>
  <path d="M147.1,24.9v-1.2c3.6-.2,3.9-.5,3.9-4.5V6.6c0-4-.3-4.2-3.6-4.4V1h11.6v1.2c-3.6.2-3.9.4-3.9,4.4v12.6c0,2.1.3,3.2,1,3.5.7.4,1.8.4,3.8.4s3.7-.4,4.5-1.3c.6-.6,1.2-1.9,1.8-3.6l1.4.2c-.3,1.2-1,5.4-1.4,6.4h-19Z"/>
  <path d="M182.7,23.6h1c1.5-.3,1.9-.7.9-3.2l-1.8-4.3h-7.2c-.4.9-1.2,3.4-1.8,5-.6,1.8-.2,2.4,1.4,2.5h1.2v1.3h-9.1v-1.2c2.3-.3,3.2-.5,4.7-4.2l7.7-18.8,1.3-.3,7.8,19.8c1.2,3.2,2.2,3.4,4.5,3.5v1.2h-10.5v-1.2h0ZM176.1,14.2h6l-3-8.1h-.1l-2.9,8.1h0Z"/>
  <path d="M53.4,30.4h1.7v4.9c0,.5,0,1,.2,1.2.2.5.6.7,1.3.7s1.1-.2,1.3-.7c.1-.2.2-.7.2-1.2v-4.9h1.7v4.9c0,.8-.1,1.5-.4,2-.5.9-1.4,1.3-2.8,1.3s-2.3-.4-2.8-1.3c-.3-.5-.4-1.1-.4-2v-4.9Z"/>
  <path d="M62.8,30.4h1.7l3.2,5.6v-5.5h1.6v8h-1.7l-3.2-5.6v5.6h-1.5v-8Z"/>
  <path d="M73.8,38.4h-1.7v-8h1.7v8Z"/>
  <path d="M81.4,30.4h1.7l-2.7,8h-1.6l-2.7-8h1.8l1.7,6s1.7-6,1.7-6Z"/>
  <path d="M91,31.9h-4.2v1.7h3.9v1.4h-3.9v2h4.4v1.4h-6v-8h5.8v1.4h0Z"/>
  <path d="M98.8,30.6c.3.1.5.3.7.6.2.2.3.4.4.7,0,.2.2.5.2.8s0,.8-.3,1.1c-.2.4-.5.6-.9.8.4.2.6.4.8.6s.2.7.2,1.2v.5c0,.4,0,.6,0,.7,0,.2.2.3.3.5v.2h-1.8c0-.2,0-.3-.1-.4,0-.2,0-.5,0-.7v-.7c0-.5,0-.8-.3-1-.2-.2-.5-.2-.9-.2h-1.6v3.1h-1.6v-8h3.8c.5,0,1,0,1.3.2h0ZM95.4,31.8v2.1h1.8c.3,0,.6,0,.8-.1.3-.2.5-.5.5-.9s-.2-.8-.5-1c-.2,0-.4-.1-.8-.1h-1.8Z"/>
  <path d="M103.8,36c0,.4.2.6.3.8.3.3.8.5,1.4.5s.7,0,1-.1c.5-.2.7-.5.7-.9s-.1-.5-.3-.6c-.2-.1-.6-.3-1.1-.4l-.9-.2c-.8-.2-1.4-.4-1.7-.6-.5-.4-.8-.9-.8-1.7s.3-1.3.8-1.8c.5-.5,1.3-.7,2.3-.7s1.6.2,2.2.7.9,1.1.9,1.9h-1.6c0-.5-.2-.8-.6-1-.3-.1-.6-.2-1-.2s-.8,0-1.1.3-.4.4-.4.7.1.5.4.6c.2,0,.5.2,1.1.3l1.4.3c.6.1,1.1.3,1.4.6.5.4.7.9.7,1.6s-.3,1.3-.8,1.8-1.4.7-2.4.7-1.9-.2-2.5-.7c-.6-.5-.9-1.1-.9-2h1.6,0Z"/>
  <path d="M112.9,38.4h-1.7v-8h1.7v8Z"/>
  <path d="M121.9,30.4v1.4h-2.4v6.6h-1.7v-6.5h-2.4v-1.4s6.4,0,6.4,0Z"/>
  <path d="M128.2,30.4h1.9l-2.7,5v3h-1.7v-3l-2.8-5h2l1.7,3.5,1.6-3.5Z"/>
  <path d="M137.1,31.3c.6-.7,1.4-1,2.4-1s2.3.4,2.9,1.3c.3.5.5,1,.5,1.5h-1.7c-.1-.4-.2-.7-.4-.9-.3-.3-.7-.5-1.3-.5s-1.1.2-1.4.7c-.3.5-.5,1.2-.5,2.1s.2,1.6.5,2c.4.5.8.7,1.4.7s1-.2,1.3-.6c.2-.2.3-.5.4-.9h1.6c-.1.9-.5,1.6-1.1,2.1s-1.3.8-2.2.8-2-.4-2.7-1.1c-.6-.7-1-1.8-1-3s.4-2.5,1.1-3.2h0Z"/>
  <path d="M145.3,38.4v-8h1.6v3h3.1v-3h1.6v8h-1.6v-3.5h-3.1v3.5h-1.6Z"/>
  <path d="M156.5,38.4h-1.6v-8h1.6v8Z"/>
  <path d="M160.1,31.3c.6-.7,1.4-1,2.4-1s2.3.4,2.9,1.3c.3.5.5,1,.5,1.5h-1.7c-.1-.4-.2-.7-.4-.9-.3-.3-.7-.5-1.3-.5s-1.1.2-1.4.7c-.3.5-.5,1.2-.5,2.1s.2,1.6.5,2c.4.5.8.7,1.4.7s1-.2,1.3-.6c.2-.2.3-.5.4-.9h1.6c-.1.9-.5,1.6-1.1,2.1s-1.3.8-2.2.8-2-.4-2.7-1.1c-.6-.7-1-1.8-1-3s.4-2.5,1.1-3.2h0Z"/>
  <path d="M170,30.4h1.9l2.8,8h-1.8l-.5-1.6h-2.9l-.5,1.6h-1.7s2.8-8,2.8-8ZM169.9,35.4h2l-1-3.1-1,3.1h0Z"/>
  <path d="M181.7,32.9c-.1-.5-.4-.9-.9-1.1-.3-.1-.6-.2-.9-.2-.6,0-1.2.2-1.6.7-.4.5-.6,1.2-.6,2.2s.2,1.7.7,2.1c.4.4.9.6,1.5.6s1-.2,1.4-.5c.4-.3.6-.7.7-1.3h-1.8v-1.3h3.3v4.3h-1.1l-.2-1c-.3.4-.6.6-.9.8-.4.3-1,.4-1.6.4-1.1,0-1.9-.4-2.6-1.1-.7-.7-1.1-1.7-1.1-3s.4-2.3,1.1-3.1c.7-.8,1.6-1.2,2.8-1.2s1.8.3,2.4.8c.6.5,1,1.1,1.1,1.9h-1.7Z"/>
  <path d="M192.2,37.7c-.6.6-1.5.9-2.6.9s-2-.3-2.6-.9c-.8-.8-1.2-1.8-1.2-3.3s.4-2.5,1.2-3.3c.6-.6,1.5-.9,2.6-.9s2,.3,2.6.9c.8.7,1.2,1.8,1.2,3.3s-.4,2.5-1.2,3.3ZM191.1,36.5c.4-.5.6-1.2.6-2.1s-.2-1.6-.6-2.1c-.4-.5-.9-.7-1.6-.7s-1.2.2-1.6.7c-.4.5-.6,1.2-.6,2.1s.2,1.6.6,2.1c.4.5.9.7,1.6.7s1.2-.2,1.6-.7Z"/>
  <path class="st2" d="M36.8,1v22.8c0,8.4-14.2,11.9-14.2,11.9,0,0-14.2-3.5-14.2-11.9V1h28.4Z"/>
  <path class="st1" d="M9.1,8.9l.2-.9h1.3v4.2h-1.1v-3.3h-.4Z"/>
  <path class="st1" d="M14.4,8.9c0,.4-.3.8-.7.9h0c.5.2.8.6.8,1.1,0,.9-.9,1.3-1.6,1.3s-1.6-.4-1.6-1.3.3-.9.8-1.1h0c-.4-.1-.7-.5-.7-1,0-.8.7-1.2,1.4-1.2s1.4.4,1.4,1.2ZM12.5,9c0,.3.2.5.5.5s.5-.2.5-.5-.2-.5-.5-.5-.5.2-.5.5ZM12.4,10.9c0,.3.2.5.5.5s.5-.2.5-.5-.2-.5-.5-.5-.5.2-.5.5Z"/>
  <path class="st1" d="M15.1,9v-1h3.5l-2.3,4.2h-1.3l1.8-3.2s-1.7,0-1.7,0Z"/>
  <path class="st1" d="M21.9,10c0,1.1-.5,2.2-1.7,2.2s-1.7-1.1-1.7-2.2.5-2.2,1.7-2.2,1.7,1.1,1.7,2.2ZM19.5,10c0,.4.1,1.3.7,1.3s.7-.9.7-1.3-.1-1.3-.7-1.3-.7.9-.7,1.3Z"/>
  <path class="st1" d="M11.5,19s.4.3-.3,2.2c-.2.4-.8,1.7,0,2.6.6.7,1.5.4,1.5.4,0,.4,0,.5,0,.5h-.7c-.6,0-.6.7-.6.7v2.9l.5.5h1.6c0-.7-.9-1-.9-1v-1.2h1.4c.8,0,1.2-1.5,1.2-1.5h.6c0,.1-.8,1.7-.8,1.7l1.7,1.6v.5h1.8c0-.5-.8-.8-.8-.8l-1.1-1.2c-.1-.2,0-.3.2-.4.2,0,.4-.1.6-.2.2-.1,1.3-.8.9-2-.4-1.3-1.9-.7-1.9-.9s.8-1.9.8-1.9l-.6-.9.7.5,2-.4c.2,1.7,1,1.2,1,1.2v-1.2s0-.8-.8-1.1c-.9-.3-1.5-.1-1.8-.2-.3,0-.2-.3-.2-.3h1.2s1-.8,1-.8h.6c1-.2.6-1,.6-1h-1.5c-.6,0-2,1.1-2,1.1,0,0-.2-1.2.9-1.6,1.1-.4.9-.7.9-.7l-1,.4s-.1-.1,0-.4c0-.1.9-.4.9-.4.6-.2.4-.8.4-.8h-1.1c-.3-.1-.2-.2-.6-.2-.4,0-1,.5-.9.3,0-.2.1-.7.2-1.2,0-.5-1.5,1.8-1.5,1.8-2,3.8-1.4,6.4-1.4,6.4-1.3.6-1.3,2.1-1.3,1.7,0-2.1.7-2,.7-3.4s-1.5-1.2-1.5-1.2c-.6,0-.7.4-.7.4,0,0,.3,0,.4,0h0Z"/>
  <polygon class="st2" points="17.2 14.9 18 14.9 17.8 14.6 17.2 14.9"/>
  <path class="st1" d="M22.6,28.9s-1.1.1-2.2-.9c-1-1-.9-2.1-.9-2.1v-2.2s-.3,0-.3-.4c0-.4.3-.3.3-.3h.7c0,.8.4.7.4.7.5,0,.4-.7.4-.7h3s-.1.7.4.7c0,0,.5,0,.4-.7h.7s.4,0,.3.3c0,.3-.3.4-.3.4v2.2s0,1.2-.9,2.1c-1,1-2.2.9-2.2.9h0Z"/>
  <path class="st1" d="M33.7,19s-.4.3.3,2.2c.2.4.8,1.7,0,2.6-.6.7-1.5.4-1.5.4,0,.4,0,.5,0,.5h.7c.6,0,.7.7.7.7v2.9l-.5.5h-1.6c0-.7.9-1,.9-1v-1.2h-1.5c-.8,0-1.2-1.5-1.2-1.5h-.6c0,.1.8,1.7.8,1.7l-1.7,1.6v.5h-1.8c0-.5.8-.8.8-.8l1.1-1.2c.1-.2,0-.3-.2-.4-.2,0-.4-.1-.6-.2-.2-.1-1.3-.8-.9-2,.4-1.3,1.9-.7,1.9-.9s-.8-1.9-.8-1.9l.6-.9-.7.5-2-.4c-.2,1.7-1,1.2-1,1.2v-1.2s0-.8.8-1.1c.9-.3,1.5-.1,1.8-.2s.2-.3.2-.3h-1.2s-1-.8-1-.8h-.6c-1-.2-.6-1-.6-1h1.5c.6,0,2,1.1,2,1.1,0,0,.2-1.2-.9-1.6-1.1-.4-.9-.7-.9-.7l1,.4s.1-.1,0-.4c-.1-.1-.9-.4-.9-.4-.6-.2-.4-.8-.4-.8h1.1c.3-.1.2-.2.6-.2.4,0,1,.5.9.3,0-.2-.1-.7-.2-1.2,0-.5,1.5,1.8,1.5,1.8,2,3.8,1.5,6.4,1.5,6.4,1.3.6,1.3,2.1,1.3,1.7,0-2.1-.7-2-.7-3.4,0-1.4,1.5-1.2,1.5-1.2.6,0,.7.4.7.4,0,0-.3,0-.4,0h0Z"/>
  <polygon class="st2" points="28 14.9 27.2 14.9 27.4 14.6 28 14.9"/>
  <path class="st1" d="M22.7,20.4v-5.8h0c0,0,.1-.1.1-.2,0-.2-.1-.3-.3-.3h0c-.2,0-.3.1-.3.3s0,.2.1.2h0v5.8l-1.9,1.9v.6h.3v-.5l1.8-1.8,1.8,1.8v.5h.3v-.6l-1.9-1.9h0Z"/>
  <polygon class="st0" points="22.6 1 22.6 2.8 24.6 1 22.6 1"/>
  <polygon class="st0" points="34.8 12.2 36.8 12.2 36.8 10.3 34.8 12.2"/>
  <polygon class="st0" points="26.7 1 22.6 4.7 22.6 6.6 28.7 1 26.7 1"/>
  <polygon class="st0" points="30.8 1 22.6 8.4 22.6 10.3 32.8 1 30.8 1"/>
  <polygon class="st0" points="34.8 1 22.6 12.2 24.6 12.2 36.8 1 34.8 1"/>
  <polygon class="st0" points="26.7 12.2 28.7 12.2 36.8 4.7 36.8 2.8 26.7 12.2"/>
  <polygon class="st0" points="30.8 12.2 32.8 12.2 36.8 8.4 36.8 6.6 30.8 12.2"/>
  <path class="st2" d="M6,3.1l-1.3.5c-.8.3-1.7.6-2.4.9-.6.2-.7.3-.7.7h-.2v-1.8h.2v.2c0,.3.1.3.4.2.2,0,.6-.2,1-.4v-1.3c-.2,0-.6-.2-.9-.3-.4-.1-.5,0-.5.2v.2h-.2V.7h.2c0,.4,0,.5.7.8l3.6,1.4v.3c0,0,0,0,0,0ZM3.3,2.2v1.1l1.5-.5h0s-1.5-.6-1.5-.6h0Z"/>
  <path class="st2" d="M5.9,7.6c0,.8-.2,1.5-.6,2-.3.3-.8.6-1.5.6-1.7,0-2.5-1.3-2.5-3v-1.7h.2c0,.6,0,.6.8.6h2.5c.8,0,.8,0,.9-.6h.2v2.1h0ZM2.4,6.9c-.6,0-.8,0-.8.6,0,1.2.8,1.8,2,1.8s2-.8,2-1.9,0-.4,0-.4c0,0-.2,0-.3,0,0,0-2.8,0-2.8,0Z"/>
  <path class="st2" d="M5.9,16.9l-3.3,1.5,3.3,1.5v1.3h-.2c0-.6,0-.6-.9-.6h-2.5c-.8,0-.8.1-.9.7h-.2v-2h.2c0,.5,0,.6.9.6h2.7c0,0-3.7-1.7-3.7-1.7v-.2l3.5-1.5h0s-1.8,0-1.8,0c-.6,0-1,0-1.2,0-.3,0-.3.2-.4.6h-.2v-1.7h.2c0,.4.1.5.4.5.2,0,.6,0,1.3.1h1.4c.9.1,1,0,1.1-.5h.2v1.3h0Z"/>
  <path class="st2" d="M6,24.1l-1.3.5c-.8.3-1.7.6-2.4.9-.6.2-.7.3-.7.8h-.2v-1.8s.2,0,.2,0v.2c0,.3.1.3.4.2.2,0,.6-.2,1-.4v-1.3c-.2,0-.6-.2-.9-.3-.4-.1-.5,0-.5.2v.2h-.2v-1.5s.2,0,.2,0c0,.4,0,.5.7.7l3.7,1.4v.3c0,0,0,0,0,0ZM3.3,23.2v1.1l1.5-.6h0s-1.5-.6-1.5-.6h0Z"/>
  <path class="st2" d="M5.1,26.2c.7-.2.8-.3.6-.9h.2c0,0,.6,1.8.6,1.8h-.2c-.2-.4-.3-.4-1-.2l-2.2.7c-.7.2-1.3.4-2-.1-.2-.2-.4-.4-.6-.7h.2c.3.2.7.3,1.1.3.3,0,.7-.1,1.2-.3l2.1-.6h0Z"/>
  <path class="st2" d="M6.8,32.2c-1.3.8-2.7.3-3.3-.8-.7-1.2-.3-2.5.8-3.1,1-.6,2.5-.5,3.4.9.6,1,.3,2.4-.9,3.1ZM5,28.9c-1.1.6-1.7,1.6-1.2,2.5.4.6,1.2.8,2.3.1,1.3-.7,1.7-1.6,1.2-2.5-.4-.6-1.3-.8-2.3-.1h0Z"/>
  <path class="st2" d="M14.4,35.1c0,0-.3.6-.5,1h-.2c.1-.4.1-.6.1-.8,0-.2-.2-.3-.6-.5l-.3-.2c-.2-.1-.2-.2-.4,0l-.8,1.3.5.3c.5.3.5.3.9-.1h.2c0,.1-.8,1.4-.8,1.4h-.2c.2-.6.2-.7-.3-1l-.5-.3-.6,1c-.2.3-.3.5-.2.7,0,.1.3.3.5.4.3.2.6.3.8.3.2,0,.4-.2.7-.4l.2.2c-.1.2-.7.7-.8.8l-2.9-1.8v-.2c.6.3.7.3,1.1-.4l1.3-2.1c.4-.6.4-.7,0-1v-.2c.1,0,2.8,1.7,2.8,1.7h0Z"/>
  <path class="st2" d="M16,35.7v3.7c.1,0,2.8-2.5,2.8-2.5l1.2.5v.2c-.6-.2-.7-.2-1,.5l-.9,2.3c-.3.7-.3.8.2,1v.2c0,0-1.9-.8-1.9-.8v-.2c.6.2.6.2.9-.6l1-2.5h0l-2.9,2.7h-.2c0,0,0-3.9,0-3.9h0l-.8,1.6c-.3.6-.4.9-.5,1.1,0,.3,0,.4.4.6v.2c0,0-1.6-.7-1.6-.7v-.2c.4.1.6,0,.7-.1.1-.2.3-.5.6-1.1l.6-1.3c.4-.8.4-.9-.1-1.2v-.2c0,0,1.3.5,1.3.5h0Z"/>
  <path class="st2" d="M26.8,36.7c.7-.3,1.5-.4,2-.1.4.2.9.6,1.1,1.1.6,1.6-.3,2.8-1.9,3.4l-1.6.6v-.2c.5-.2.5-.3.2-1l-.9-2.3c-.3-.7-.4-.7-.8-.6v-.2c0,0,1.9-.8,1.9-.8h0ZM27.5,40.2c.2.6.4.7.9.5,1.1-.5,1.3-1.4.9-2.5-.6-1.4-1.5-1.6-2.5-1.1-.2,0-.4.2-.4.2,0,0,0,.2.1.3l1.1,2.6h0Z"/>
  <path class="st2" d="M32,34.5c0,0,.3.5.6.9h-.2c-.2-.2-.4-.3-.5-.3-.2,0-.4,0-.8.2l-.3.2c-.2.1-.2.1-.1.3l.7,1.3.5-.3c.5-.3.5-.3.4-.8h.2c0,0,.7,1.2.7,1.2h-.2c-.3-.4-.3-.4-.9-.1l-.5.3.5,1c.2.4.3.5.5.5.1,0,.4,0,.6-.2.3-.2.6-.3.6-.5,0-.2,0-.4,0-.8h.2c0,.2.3.9.3,1.1l-3,1.6v-.2c.4-.3.5-.4.1-1.1l-1.1-2.2c-.4-.7-.4-.7-.9-.5v-.2c0,0,2.7-1.4,2.7-1.4h0Z"/>
  <path class="st2" d="M34.2,33.1v.2c-.3.3-.4.4,0,1l1.3,2.1c.4.6.5.7,1,.4v.2c0,0-1.6,1-1.6,1v-.2c.3-.3.4-.4,0-1l-1.3-2.1c-.4-.6-.5-.7-1-.4v-.2c-.1,0,1.6-1,1.6-1h0Z"/>
  <path class="st2" d="M42.2,28.7c.2,0,.5.1.6.1,0,.5,0,1-.2,1.5-.5,1.5-1.7,2.2-3,1.8-1.5-.5-1.9-2-1.5-3.3.2-.6.5-1,.6-1.2.2,0,.6.1,1.1.2v.2c-.9-.1-1.3.4-1.5,1-.3.9.2,1.8,1.4,2.2,1,.3,2.2.2,2.6-1,0-.2,0-.4,0-.5,0-.1-.1-.2-.4-.3l-.6-.2c-.5-.1-.5-.1-.8.6h-.2c0,0,.6-1.9.6-1.9h.2c0,.4,0,.5.4.6h.5c0,.1,0,.2,0,.2Z"/>
  <path class="st2" d="M39,25h.2c0,.6,0,.7.8.8l2.4.3c.4,0,.6,0,.7,0,0-.1.1-.3.2-.6,0-.3.1-1.2,0-1.3-.1-.1-.3-.3-.7-.4v-.2c.3,0,1,.3,1.2.4l-.5,3.8h-.2c0-.6,0-.7-.8-.8l-2.4-.3c-.8-.1-.8,0-.9.5h-.2s.3-2,.3-2h0Z"/>
  <path class="st2" d="M41.6,18.7c1.5.1,2.4,1.2,2.3,2.5,0,1.4-1.2,2.2-2.5,2.1-1.2,0-2.4-1-2.3-2.6,0-1.2,1.1-2.1,2.4-2h0ZM41.3,22.4c1.3,0,2.3-.4,2.3-1.4,0-.7-.5-1.3-1.8-1.4-1.5-.1-2.3.4-2.4,1.4,0,.7.6,1.4,1.9,1.5h0Z"/>
  <path class="st2" d="M39.3,16.6c0-.5,0-.9.2-1.1.2-.3.5-.5.9-.5.6,0,1,.4,1.2.9.2-.1.7-.4,1-.6.4-.3.6-.4.8-.6.2-.2.3-.3.3-.5h.2v.3c0,.8-.3,1-.7,1.3-.3.2-.8.5-1.1.7-.2.1-.3.2-.3.4v.2h.9c.8,0,.8,0,.8-.6h.2v2h-.2c0-.6,0-.6-.8-.6h-2.5c-.8,0-.8,0-.8.6h-.2s0-1.9,0-1.9ZM41.6,17.1v-.3c0-.3,0-.5-.2-.7-.2-.3-.6-.4-.9-.4-.7,0-1,.5-1,.9s0,.4.2.4h1.8Z"/>
  <path class="st2" d="M39.3,11.8h.2c0,.5,0,.6.8.6h2.5c.8,0,.8,0,.8-.6h.2v2h-.2c0-.6,0-.6-.8-.6h-2.5c-.8,0-.8,0-.8.6h-.2v-2Z"/>
  <path class="st2" d="M39.2,9l1.3-.5c.8-.3,1.7-.6,2.4-.9.6-.2.7-.3.7-.7h.2v1.8h-.2v-.2c0-.3-.1-.3-.4-.2-.2,0-.6.2-1,.4v1.3c.2,0,.6.2.9.3.4.1.5,0,.5-.2v-.2h.2v1.6h-.2c0-.4,0-.5-.7-.8l-3.6-1.4v-.3c0,0,0,0,0,0ZM41.9,9.9v-1.1l-1.5.6h0s1.5.6,1.5.6h0Z"/>
  <path class="st2" d="M39.3,5l3.3-1.5-3.3-1.5V.7h.2c0,.6,0,.6.8.6h2.5c.8,0,.8-.1.8-.7h.2v2h-.2c0-.5,0-.6-.8-.6h-2.7c0,0,3.7,1.6,3.7,1.6v.2l-3.5,1.5h0s1.8,0,1.8,0c.6,0,1,0,1.2,0,.3,0,.3-.2.4-.6h.2v1.7h-.2c0-.3,0-.5-.4-.5-.2,0-.6,0-1.3-.1h-1.4c-.9-.1-1,0-1.1.5h-.2v-1.3h0Z"/>
  <circle class="st2" cx="22.6" cy="40.1" r=".8"/>
  <circle class="st2" cx="37.2" cy="33.7" r=".8"/>
  <circle class="st2" cx="3.7" cy="13.1" r=".8"/>
  <path class="st2" d="M10.1,31.9c.4.3.6.6.7.9s0,.7-.2,1c-.4.4-.9.5-1.5.3,0,.2-.2.8-.2,1.2,0,.5-.1.8,0,1,0,.2,0,.4.1.6h-.1c0,.1-.2,0-.2,0-.5-.5-.6-.9-.5-1.3,0-.4.2-.9.3-1.3,0-.2,0-.3-.1-.5l-.2-.2-.6.7c-.5.6-.5.6-.1,1h-.1c0,.1-1.5-1.2-1.5-1.2v-.2c.6.3.7.3,1.2-.2l1.6-1.8c.5-.6.5-.6.1-1h.1c0-.1,1.4,1.1,1.4,1.1h0ZM8.2,33.3l.2.2c.2.2.4.3.6.3.4,0,.6-.2.9-.4.5-.5.3-1.1,0-1.4-.2-.2-.3-.2-.4,0l-1.2,1.3h0Z"/>
</svg>