<svg width="30" height="30" viewBox="0 0 30 30" fill="none" xmlns="http://www.w3.org/2000/svg">
<g clip-path="url(#clip0_3479_720)">
<path d="M15.0391 0.0742188C23.2605 0.0743007 29.9256 6.73952 29.9258 14.9609C29.9258 23.1825 23.2606 29.8476 15.0391 29.8477C6.81744 29.8477 0.152344 23.1826 0.152344 14.9609C0.152526 6.73947 6.81755 0.0742188 15.0391 0.0742188ZM14.9883 4.26855C12.075 4.27452 11.7105 4.28612 10.5674 4.33984C9.4241 4.39358 8.64446 4.57613 7.96387 4.8418C7.25957 5.1164 6.66232 5.48613 6.06543 6.08301C5.4714 6.68002 5.10465 7.28087 4.83301 7.98535C4.5704 8.66883 4.39156 9.44777 4.34082 10.5908C4.29007 11.7341 4.27723 12.1013 4.2832 15.0117C4.28917 17.9251 4.30174 18.2894 4.35547 19.4355C4.4092 20.5758 4.59072 21.3555 4.85938 22.0391C5.13399 22.7434 5.50461 23.3406 6.10156 23.9375C6.69848 24.5314 7.29857 24.8983 8.00293 25.1699C8.68651 25.4326 9.46615 25.6143 10.6064 25.6621C11.7494 25.7128 12.1172 25.7257 15.0273 25.7197C17.9404 25.7138 18.305 25.7012 19.4512 25.6475C20.5911 25.5937 21.3703 25.4092 22.0537 25.1436C22.7582 24.8689 23.3552 24.4983 23.9521 23.9014C24.5462 23.3044 24.9139 22.7045 25.1855 22C25.4482 21.3164 25.63 20.5368 25.6777 19.3965C25.7285 18.2505 25.7403 17.8858 25.7344 14.9727C25.7284 12.0595 25.7168 11.695 25.6631 10.5518C25.6093 9.40869 25.4268 8.62973 25.1582 7.94922C24.8836 7.24474 24.513 6.6478 23.916 6.05078C23.319 5.45683 22.7191 5.089 22.0146 4.81738C21.3312 4.55479 20.5521 4.37295 19.4121 4.3252C18.2688 4.27445 17.9016 4.26259 14.9883 4.26855ZM14.9912 6.19727C17.8566 6.1913 18.194 6.20322 19.3252 6.25098C20.37 6.29575 20.9403 6.46897 21.3164 6.61523C21.8178 6.80926 22.1766 7.03895 22.5527 7.41504C22.9286 7.79101 23.1615 8.14617 23.3584 8.64746C23.5047 9.02358 23.6807 9.5939 23.7314 10.6387C23.7852 11.77 23.7968 12.1103 23.8027 14.9727C23.8087 17.8383 23.7968 18.1763 23.749 19.3076C23.7042 20.3522 23.531 20.9227 23.3848 21.3018C23.1908 21.803 22.958 22.1611 22.585 22.5371C22.2089 22.9131 21.8538 23.1458 21.3525 23.3428C20.9764 23.489 20.406 23.6651 19.3613 23.7158C18.23 23.7695 17.8896 23.7821 15.0273 23.7881C12.1647 23.7941 11.8237 23.7821 10.6924 23.7344C9.64773 23.6896 9.07727 23.5164 8.70117 23.3701C8.19992 23.1761 7.84179 22.9433 7.46582 22.5703C7.0897 22.1942 6.85717 21.8384 6.66016 21.3369C6.51389 20.9578 6.33389 20.3904 6.28613 19.3457C6.23242 18.2147 6.22081 17.877 6.21484 15.0117C6.20887 12.1493 6.2208 11.8088 6.26855 10.6777C6.31333 9.63307 6.48954 9.06264 6.63281 8.68652C6.82684 8.18503 7.05948 7.82631 7.43262 7.4502C7.80871 7.07411 8.16455 6.84154 8.66602 6.64453C9.04512 6.4953 9.61271 6.31929 10.6572 6.26855C11.7882 6.21484 12.1289 6.20324 14.9912 6.19727ZM14.9971 9.48047C11.9553 9.48644 9.49598 11.9582 9.50195 15C9.50801 18.0446 11.976 20.5038 15.0176 20.498C18.0594 20.4921 20.5226 18.0233 20.5166 14.9785C20.5104 11.9369 18.0387 9.4745 14.9971 9.48047ZM15 11.415C16.973 11.4121 18.5788 13.0085 18.582 14.9814C18.585 16.9576 16.9878 18.5615 15.0117 18.5645C13.0388 18.5673 11.4328 16.97 11.4297 14.9941C11.4297 13.024 13.0269 11.421 15 11.415ZM20.7197 7.96973C20.0093 7.96973 19.4326 8.54932 19.4355 9.25977C19.4357 9.96713 20.0152 10.543 20.7256 10.543C21.4359 10.5429 22.0116 9.96415 22.0088 9.25391C22.0088 8.54355 21.43 7.96689 20.7197 7.96973Z" fill="black"/>
</g>
<defs>
<clipPath id="clip0_3479_720">
<rect width="30" height="30" fill="white"/>
</clipPath>
</defs>
</svg>
