<svg width="30" height="30" viewBox="0 0 30 30" fill="none" xmlns="http://www.w3.org/2000/svg">
<g clip-path="url(#clip0_3479_686)">
<path d="M30 15C30 6.715 23.285 0 15 0C6.715 0 0 6.715 0 15C0 22.4875 5.485 28.6925 12.655 29.8175V19.335H8.8475V15H12.655V11.695C12.655 7.935 14.895 5.86 18.32 5.86C19.96 5.86 21.6775 6.1525 21.6775 6.1525V9.845H19.785C17.9225 9.845 17.34 11 17.34 12.1875V15H21.5L20.835 19.335H17.345V29.8175C24.515 28.6925 30 22.4875 30 15Z" fill="black"/>
</g>
<defs>
<clipPath id="clip0_3479_686">
<rect width="30" height="30" fill="white"/>
</clipPath>
</defs>
</svg>
