<svg width="30" height="30" viewBox="0 0 30 30" fill="none" xmlns="http://www.w3.org/2000/svg">
<g clip-path="url(#clip0_3479_687)">
<path d="M15 0C23.2843 0 30 6.71573 30 15C30 23.2843 23.2843 30 15 30C6.71573 30 0 23.2843 0 15C0 6.71573 6.71573 0 15 0ZM6.35742 24H10.0742V12H6.35742V24ZM19.6328 11.6338C17.1047 11.6338 16.0301 13.588 16.0146 13.6162V12H12.4502V24H16.0146V17.7012C16.0146 16.0133 16.7912 15.0088 18.2783 15.0088C19.6453 15.0088 20.3018 15.9741 20.3018 17.7012V24H24V16.4023C24 13.1879 22.1779 11.6339 19.6328 11.6338ZM8.19824 6C6.98434 6 6.00026 6.99125 6 8.21387C6 9.43671 6.98418 10.4287 8.19824 10.4287C9.41212 10.4285 10.3955 9.43658 10.3955 8.21387C10.3953 6.99138 9.41197 6.00021 8.19824 6Z" fill="black"/>
</g>
<defs>
<clipPath id="clip0_3479_687">
<rect width="30" height="30" fill="white"/>
</clipPath>
</defs>
</svg>
