<svg width="30" height="30" viewBox="0 0 30 30" fill="none" xmlns="http://www.w3.org/2000/svg">
<g clip-path="url(#clip0_3479_702)">
<path d="M15 0C23.2843 0 30 6.71573 30 15C30 23.2843 23.2843 30 15 30C6.71573 30 0 23.2843 0 15C0 6.71573 6.71573 0 15 0ZM12.8633 16.0859L5.25 24.7402H6.9707L13.627 17.1729L18.9434 24.7402H24.75L16.8555 13.5029L24.1143 5.25H22.3945L16.0908 12.416L11.0566 5.25H5.25L12.8633 16.0859ZM15.1855 13.4453L15.957 14.5244L22.3955 23.5312H19.7529L14.499 16.1816L13.7275 15.1025L7.58984 6.5166H10.2324L15.1855 13.4453Z" fill="black"/>
</g>
<defs>
<clipPath id="clip0_3479_702">
<rect width="30" height="30" fill="white"/>
</clipPath>
</defs>
</svg>
