<svg width="30" height="30" viewBox="0 0 30 30" fill="none" xmlns="http://www.w3.org/2000/svg">
<g clip-path="url(#clip0_3479_704)">
<path d="M15 0C23.2843 0 30 6.71573 30 15C30 23.2843 23.2843 30 15 30C6.71573 30 0 23.2843 0 15C0 6.71573 6.71573 0 15 0ZM25.7139 8.66602C25.7139 5.31305 22.8408 6.36686 21.0635 7.72852C18.6053 9.61741 15.9607 13.4393 14.9932 15.4893C14.0257 13.4393 11.381 9.61745 8.92285 7.72852C7.1455 6.36676 4.2718 5.31287 4.28613 8.66602C4.28627 9.33366 4.65872 14.2797 4.88086 15.0859C5.6477 17.8827 8.43535 18.5931 10.915 18.1611C6.57218 18.9152 5.47551 21.4117 7.85449 23.9082C12.3767 28.6524 14.3554 22.722 14.8643 21.1992C14.9573 20.9215 15 20.7898 15 20.8994C15 20.7898 15.0427 20.9214 15.1357 21.1992C15.6446 22.7147 17.6233 28.6524 22.1455 23.9082C24.5244 21.4118 23.4206 18.9152 19.085 18.1611C21.5646 18.5931 24.3523 17.8827 25.1191 15.0859C25.3413 14.2869 25.7137 9.33365 25.7139 8.66602Z" fill="black"/>
</g>
<defs>
<clipPath id="clip0_3479_704">
<rect width="30" height="30" fill="white"/>
</clipPath>
</defs>
</svg>
