<svg width="30" height="30" viewBox="0 0 30 30" fill="none" xmlns="http://www.w3.org/2000/svg">
<g clip-path="url(#clip0_3479_695)">
<path d="M15 0C23.2843 0 30 6.71573 30 15C30 23.2843 23.2843 30 15 30C6.71573 30 0 23.2843 0 15C0 6.71573 6.71573 0 15 0ZM16.5068 17.792C16.5068 17.9771 16.5068 18.16 16.499 18.3408C16.499 18.3632 16.4964 18.3841 16.4951 18.4082C16.4951 18.4182 16.4953 18.4291 16.4932 18.4395V18.4473C16.4555 18.942 16.2969 19.4198 16.0312 19.8389C15.7656 20.2579 15.4011 20.6054 14.9697 20.8506C14.5201 21.1064 14.0114 21.2408 13.4941 21.2402C11.8324 21.2402 10.4855 19.8853 10.4854 18.2119C10.4854 16.5384 11.8323 15.1836 13.4941 15.1836C13.8086 15.1833 14.121 15.2327 14.4199 15.3301L14.4238 11.6982C13.516 11.581 12.5934 11.6531 11.7148 11.9102C10.8364 12.1672 10.0208 12.6035 9.31934 13.1914C8.70457 13.7256 8.18764 14.3634 7.79199 15.0752C7.64136 15.3349 7.07274 16.3777 7.00391 18.0703C6.96064 19.0312 7.25011 20.027 7.3877 20.4385V20.4473C7.47434 20.6898 7.80931 21.5162 8.35547 22.2129C8.79608 22.772 9.31664 23.2635 9.90039 23.6709V23.6621L9.90918 23.6709C11.6359 24.8442 13.5508 24.7676 13.5508 24.7676C13.8827 24.7542 14.9927 24.7672 16.2529 24.1699C17.6512 23.5075 18.4473 22.5205 18.4473 22.5205C18.9558 21.9309 19.3597 21.2587 19.6426 20.5332C19.9653 19.6849 20.0732 18.6676 20.0732 18.2607V10.9434C20.1165 10.9693 20.6934 11.3506 20.6934 11.3506C20.7086 11.3603 21.5352 11.8862 22.8184 12.2295C23.7477 12.4761 25 12.5283 25 12.5283V8.9873C24.5613 9.03489 23.6707 8.89603 22.7588 8.44141C22.6187 8.369 22.4818 8.29014 22.3496 8.2041C21.9651 7.94994 21.6128 7.64986 21.2998 7.31152C20.5167 6.41553 20.2239 5.50654 20.1162 4.87012H20.1201C20.0308 4.34578 20.0672 4.00503 20.0732 4H16.5068V17.792Z" fill="black"/>
</g>
<defs>
<clipPath id="clip0_3479_695">
<rect width="30" height="30" fill="white"/>
</clipPath>
</defs>
</svg>
