<svg width="30" height="30" viewBox="0 0 30 30" fill="none" xmlns="http://www.w3.org/2000/svg">
<g clip-path="url(#clip0_3479_701)">
<path d="M15 0C23.2843 0 30 6.71573 30 15C30 23.2843 23.2843 30 15 30C6.71573 30 0 23.2843 0 15C0 6.71573 6.71573 0 15 0ZM19.3828 6.68262C16.903 6.68262 14.8626 8.72236 14.8623 11.2021C14.8623 11.5471 14.902 11.8906 14.9795 12.2256C11.3497 12.0405 7.96526 10.3247 5.67285 7.50488C4.48035 9.55738 5.09781 12.2152 7.07031 13.5352C6.35281 13.5127 5.64703 13.3197 5.01953 12.9697V13.0273C5.01953 15.1698 6.54508 17.0301 8.64258 17.4551C7.97758 17.6376 7.28004 17.6622 6.60254 17.5322C7.19252 19.3672 8.89484 20.6323 10.8223 20.6699C9.22238 21.9273 7.24773 22.6098 5.21289 22.6074C4.85299 22.6074 4.4951 22.5854 4.1377 22.543C6.20251 23.8678 8.60733 24.5698 11.0596 24.5674L11.4492 24.5625C19.5108 24.3526 23.912 17.592 23.9121 11.7178C23.9121 11.5228 23.9129 11.3277 23.9004 11.1328C24.7853 10.4928 25.5474 9.70236 26.1523 8.79492C25.3274 9.15989 24.455 9.39987 23.5576 9.50488C24.4999 8.93993 25.2045 8.05259 25.542 7.00781C24.6546 7.53268 23.6846 7.9055 22.6748 8.10547C21.8199 7.19806 20.6277 6.68272 19.3828 6.68262Z" fill="black"/>
</g>
<defs>
<clipPath id="clip0_3479_701">
<rect width="30" height="30" fill="white"/>
</clipPath>
</defs>
</svg>
