<svg width="30" height="30" viewBox="0 0 30 30" fill="none" xmlns="http://www.w3.org/2000/svg">
<path d="M15 0C23.2843 0 30 6.71573 30 15C30 23.2843 23.2843 30 15 30C6.71573 30 0 23.2843 0 15C0 6.71573 6.71573 0 15 0ZM15.1592 4.28613C11.8814 4.30788 9.36129 5.36221 7.66797 7.41992C6.16116 9.25103 5.38357 11.7985 5.35742 14.9922V15.0078C5.38359 18.2015 6.16116 20.749 7.66797 22.5801C9.36129 24.6377 11.8814 25.6922 15.1592 25.7139H15.1729C18.0868 25.6945 20.1409 24.9656 21.833 23.3496C24.0468 21.2354 23.9805 18.5851 23.251 16.958C22.7275 15.7913 21.729 14.8437 20.3643 14.2178C20.2677 14.1735 20.1696 14.1306 20.0703 14.0898C19.8973 11.0424 18.1553 9.29733 15.2305 9.2793C15.2172 9.27922 15.2037 9.2793 15.1904 9.2793C13.4409 9.2793 11.9855 9.99305 11.0898 11.292L12.6982 12.3477C13.3673 11.3773 14.4181 11.1699 15.1914 11.1699C15.2002 11.1699 15.2091 11.1698 15.2178 11.1699C16.1809 11.1758 16.9075 11.4439 17.3779 11.9658C17.7202 12.3459 17.9491 12.8714 18.0625 13.5342C17.2086 13.3955 16.285 13.3521 15.2979 13.4062C12.5169 13.5595 10.7295 15.1102 10.8496 17.2646C10.9105 18.3575 11.48 19.2979 12.4531 19.9121C13.2758 20.4311 14.3354 20.6854 15.4365 20.6279C16.891 20.5517 18.0321 20.0207 18.8281 19.0508C19.4326 18.3142 19.8155 17.3599 19.9844 16.1572C20.6773 16.5571 21.191 17.0834 21.4746 17.7158C21.9569 18.7912 21.9848 20.5585 20.4766 21.999C19.1551 23.2608 17.5665 23.8064 15.166 23.8232C12.503 23.8044 10.4892 22.9878 9.17969 21.3965C7.95356 19.9064 7.31955 17.7546 7.2959 15C7.31954 12.2453 7.95348 10.0926 9.17969 8.60254C10.4892 7.01149 12.5032 6.19567 15.166 6.17676C17.8482 6.19583 19.8973 7.01554 21.2568 8.61426C21.9234 9.39829 22.4265 10.3846 22.7578 11.5342L24.6426 11.0537C24.241 9.63865 23.6089 8.4195 22.749 7.4082C21.0061 5.35835 18.4573 4.30798 15.1729 4.28613H15.1592ZM16.083 15.2754C16.8109 15.2754 17.4922 15.3433 18.1113 15.4727C17.8803 18.229 16.5263 18.6766 15.333 18.7393C14.1142 18.8049 12.8477 18.2822 12.7852 17.1621C12.7389 16.3316 13.4032 15.4044 15.4072 15.2939C15.6366 15.2813 15.8619 15.2754 16.083 15.2754Z" fill="black"/>
</svg>
