<svg width="30" height="30" viewBox="0 0 30 30" fill="none" xmlns="http://www.w3.org/2000/svg">
<g clip-path="url(#clip0_3407_47)">
<path d="M3.75 5.625C3.75 4.58945 4.58945 3.75 5.625 3.75C6.66055 3.75 7.5 4.58945 7.5 5.625C7.5 6.66055 6.66055 7.5 5.625 7.5C4.58945 7.5 3.75 6.66055 3.75 5.625Z" fill="black"/>
<path d="M10.3125 3.75C9.27695 3.75 8.4375 4.58945 8.4375 5.625C8.4375 6.66055 9.27695 7.5 10.3125 7.5C11.3481 7.5 12.1875 6.66055 12.1875 5.625C12.1875 4.58945 11.3481 3.75 10.3125 3.75Z" fill="black"/>
<path d="M13.125 5.625C13.125 4.58945 13.9645 3.75 15 3.75C16.0356 3.75 16.875 4.58945 16.875 5.625C16.875 6.66055 16.0356 7.5 15 7.5C13.9645 7.5 13.125 6.66055 13.125 5.625Z" fill="black"/>
<path fill-rule="evenodd" clip-rule="evenodd" d="M30 4.6875C30 2.09875 27.9013 0 25.3125 0H4.6875C2.09875 0 0 2.09862 0 4.6875V25.3125C0 27.9013 2.09862 30 4.6875 30H25.3125C27.9013 30 30 27.9013 30 25.3125V4.6875ZM1.875 25.3125V11.25H28.125V25.3125C28.125 26.8658 26.8658 28.125 25.3125 28.125H4.6875C3.13418 28.125 1.875 26.8658 1.875 25.3125ZM28.125 4.6875V9.375H1.875V4.6875C1.875 3.13418 3.13418 1.875 4.6875 1.875H25.3125C26.6716 1.875 27.8056 2.83905 28.0677 4.1207C28.1052 4.30381 28.1249 4.49335 28.1249 4.6875H28.125Z" fill="black"/>
<path fill-rule="evenodd" clip-rule="evenodd" d="M29 17.3759C28.7897 17.13 28.5692 16.8916 28.3388 16.6612C25.9946 14.317 22.8152 13 19.5 13C16.1848 13 13.0054 14.317 10.6612 16.6612C8.31696 19.0054 7 22.1848 7 25.5C7 26.6712 7.16436 27.8254 7.4803 28.9318C7.64602 28.9763 7.82024 29 8 29H9.13431C8.84274 28.1371 8.65645 27.2261 8.59063 26.2812H12.4812C12.5105 27.1926 12.5979 28.1006 12.7428 29H14.3277C14.1708 28.1019 14.0769 27.1934 14.0469 26.2812H18.7188V29H20.2812V26.2812H24.9547C24.9207 27.2275 24.8241 28.1385 24.6742 29H26.2572C26.4021 28.1006 26.4895 27.1926 26.5187 26.2812H29V24.7188H26.5187C26.4719 23.3484 26.3031 22.0344 26.0312 20.8125H29V17.3759ZM15.7703 17.5812C16.6328 15.9641 17.6719 15.0016 18.7188 14.6828V19.25H15.0391C15.2419 18.6767 15.4863 18.119 15.7703 17.5812ZM14.3906 16.8453C13.986 17.6153 13.6513 18.4201 13.3906 19.25H10.5234C11.7222 17.531 13.3877 16.1907 15.3234 15.3875C14.9745 15.848 14.6626 16.3355 14.3906 16.8453ZM12.9688 20.8125C12.6969 22.0344 12.5281 23.3484 12.4812 24.7188H8.59063C8.68686 23.3643 9.03445 22.0397 9.61563 20.8125H12.9688ZM14.0453 24.7188C14.0892 23.4022 14.2661 22.0934 14.5734 20.8125H18.7188V24.7188H14.0453ZM20.2812 24.7188V20.8125H24.4266C24.7334 22.0935 24.9098 23.4022 24.9531 24.7188H20.2812ZM25.6094 19.25C25.3312 18.3766 24.9953 17.5703 24.6094 16.8453C24.3297 16.3219 24.0172 15.8312 23.6766 15.3875C25.6136 16.1885 27.2797 17.5292 28.4766 19.25H25.6094ZM23.2297 17.5812C23.5137 18.119 23.7581 18.6767 23.9609 19.25H20.2812V14.6828C21.3281 15.0031 22.3672 15.9641 23.2297 17.5812Z" fill="black"/>
</g>
<defs>
<clipPath id="clip0_3407_47">
<rect width="30" height="30" fill="white"/>
</clipPath>
</defs>
</svg>
