<svg width="30" height="30" viewBox="0 0 30 30" fill="none" xmlns="http://www.w3.org/2000/svg">
<path d="M12.1912 13.125C12.5606 13.125 12.9263 13.0523 13.2675 12.9109C13.6087 12.7696 13.9188 12.5624 14.18 12.3012C14.4411 12.0401 14.6483 11.73 14.7896 11.3888C14.931 11.0476 15.0037 10.6818 15.0037 10.3125C15.0037 9.94316 14.931 9.57743 14.7896 9.2362C14.6483 8.89497 14.4411 8.58493 14.18 8.32376C13.9188 8.0626 13.6087 7.85543 13.2675 7.71409C12.9263 7.57275 12.5606 7.5 12.1912 7.5C11.4453 7.5 10.7299 7.79632 10.2025 8.32376C9.67504 8.85121 9.37872 9.56658 9.37872 10.3125C9.37872 11.0584 9.67504 11.7738 10.2025 12.3012C10.7299 12.8287 11.4453 13.125 12.1912 13.125Z" fill="black"/>
<path d="M26.25 26.25C26.25 27.2446 25.8549 28.1984 25.1516 28.9016C24.4484 29.6049 23.4946 30 22.5 30H7.5C6.50544 30 5.55161 29.6049 4.84835 28.9016C4.14509 28.1984 3.75 27.2446 3.75 26.25V3.75C3.75 2.75544 4.14509 1.80161 4.84835 1.09835C5.55161 0.395088 6.50544 0 7.5 0L17.8125 0L26.25 8.4375V26.25ZM7.5 1.875C7.00272 1.875 6.52581 2.07254 6.17417 2.42417C5.82254 2.77581 5.625 3.25272 5.625 3.75V22.5L9.795 18.33C9.94278 18.1826 10.1355 18.0887 10.3427 18.0632C10.5499 18.0377 10.7597 18.0821 10.9388 18.1894L15 20.625L19.0444 14.9625C19.1235 14.8518 19.2258 14.7597 19.3441 14.6925C19.4624 14.6254 19.5939 14.5847 19.7295 14.5735C19.8651 14.5623 20.0015 14.5807 20.1293 14.6274C20.257 14.6742 20.3731 14.7482 20.4694 14.8444L24.375 18.75V8.4375H20.625C19.8791 8.4375 19.1637 8.14118 18.6363 7.61374C18.1088 7.08629 17.8125 6.37092 17.8125 5.625V1.875H7.5Z" fill="black"/>
</svg>
