<svg width="30" height="30" viewBox="0 0 30 30" fill="none" xmlns="http://www.w3.org/2000/svg">
<path fill-rule="evenodd" clip-rule="evenodd" d="M26.25 8.4375V26.25C26.25 27.2446 25.8549 28.1984 25.1516 28.9016C24.4484 29.6049 23.4946 30 22.5 30V28.125C22.9973 28.125 23.4742 27.9275 23.8258 27.5758C24.1775 27.2242 24.375 26.7473 24.375 26.25V8.4375H20.625C19.8791 8.4375 19.1637 8.14118 18.6363 7.61374C18.1088 7.08629 17.8125 6.37092 17.8125 5.625V1.875H7.5C7.00272 1.875 6.52581 2.07254 6.17417 2.42417C5.82254 2.77581 5.625 3.25272 5.625 3.75V20.625H3.75V3.75C3.75 2.75544 4.14509 1.80161 4.84835 1.09835C5.55161 0.395088 6.50544 0 7.5 0L17.8125 0L26.25 8.4375ZM3.99937 29.7169V26.8388L6.51 22.2188H4.905L3.30188 25.3987H3.24187L1.6425 22.2188H0L2.51062 26.8669V29.7169H3.99937ZM8.2875 29.7169V24.7294H8.35875L10.1437 28.7775H11.1112L12.885 24.7275H12.9562V29.7169H14.2969V22.2188H12.7969L10.6594 27.0863H10.6125L8.475 22.2188H6.96562V29.7169H8.2875ZM17.1187 28.4531H20.2987V29.7169H15.6338V22.2188H17.1169V28.4531H17.1187Z" fill="black"/>
</svg>
