<svg width="30" height="30" viewBox="0 0 30 30" fill="none" xmlns="http://www.w3.org/2000/svg">
<g clip-path="url(#clip0_3402_386)">
<path fill-rule="evenodd" clip-rule="evenodd" d="M26.25 8.4375V20.625H24.375V8.4375H20.625C19.8791 8.4375 19.1638 8.14118 18.6363 7.61374C18.1089 7.08629 17.8125 6.37092 17.8125 5.625V1.875H7.50005C7.00277 1.875 6.52585 2.07254 6.17422 2.42417C5.82259 2.77581 5.62505 3.25272 5.62505 3.75V20.625H3.75005V3.75C3.75005 2.75544 4.14513 1.80161 4.8484 1.09835C5.55166 0.395088 6.50548 0 7.50005 0L17.8125 0L26.25 8.4375ZM7.78317 28.6688C7.65986 28.4043 7.58917 28.1183 7.57505 27.8269H9.00755C9.0338 27.9732 9.08977 28.1126 9.17201 28.2364C9.25424 28.3603 9.361 28.4659 9.48567 28.5469C9.61692 28.6381 9.77317 28.7094 9.95442 28.7606C10.1319 28.8119 10.3313 28.8375 10.5525 28.8375C10.8588 28.8375 11.1169 28.7938 11.3269 28.7063C11.5181 28.6347 11.6842 28.5089 11.805 28.3444C11.9123 28.1837 11.9673 27.9938 11.9625 27.8006C11.9676 27.6833 11.9443 27.5666 11.8947 27.4602C11.8451 27.3538 11.7706 27.2609 11.6775 27.1894C11.4875 27.0394 11.1982 26.9187 10.8094 26.8275L9.65067 26.5594C9.2933 26.4845 8.95145 26.3488 8.64005 26.1581C8.36443 25.9895 8.13708 25.7524 7.98005 25.47C7.823 25.1667 7.74375 24.829 7.74942 24.4875C7.74942 24.03 7.86817 23.6306 8.10567 23.2894C8.34567 22.9494 8.67567 22.6856 9.09567 22.4981C9.51692 22.3106 10.0025 22.2175 10.5525 22.2188C11.1225 22.2188 11.6094 22.3137 12.0132 22.5037C12.4207 22.695 12.7332 22.9513 12.9507 23.2725C13.1757 23.5912 13.3007 23.945 13.3257 24.3337H11.9194C11.8873 24.1558 11.8098 23.9892 11.6944 23.85C11.5725 23.699 11.4136 23.5821 11.2332 23.5106C11.0135 23.4197 10.7771 23.3763 10.5394 23.3831C10.1344 23.3831 9.81442 23.4781 9.57942 23.6681C9.46896 23.7523 9.37995 23.8614 9.31967 23.9865C9.25939 24.1117 9.22954 24.2493 9.23255 24.3881C9.23255 24.6131 9.32255 24.8006 9.50255 24.9506C9.72753 25.1149 9.98631 25.227 10.26 25.2788L11.4244 25.5469C11.8319 25.6406 12.1857 25.7725 12.4857 25.9425C12.775 26.1005 13.0175 26.3321 13.1888 26.6138C13.3575 26.8913 13.4419 27.2412 13.4419 27.6637C13.4419 28.1262 13.3244 28.5362 13.0894 28.8937C12.8411 29.2618 12.4895 29.5482 12.0788 29.7169C11.64 29.9144 11.1038 30.0131 10.47 30.0131C9.9938 30.0131 9.57817 29.9569 9.22317 29.8444C8.89657 29.7466 8.59215 29.5861 8.32692 29.3719C8.09672 29.1798 7.91116 28.9399 7.78317 28.6688ZM1.96317 28.6069C1.8589 28.3275 1.80679 28.0313 1.80942 27.7331H3.24192C3.2476 27.9105 3.29515 28.0839 3.38067 28.2394C3.46716 28.3864 3.59214 28.5071 3.74215 28.5884C3.89215 28.6697 4.06149 28.7085 4.23192 28.7006C4.58817 28.7006 4.85192 28.5981 5.02317 28.3931C5.19442 28.1869 5.28005 27.8956 5.28005 27.5194V22.3725H6.76317V27.4819C6.76317 28.3069 6.54005 28.935 6.0938 29.3662C5.65005 29.7975 5.03442 30.0131 4.24692 30.0131C3.88418 30.0193 3.52334 29.9595 3.18192 29.8369C2.89491 29.7269 2.63472 29.5569 2.4188 29.3381C2.21714 29.1292 2.06187 28.88 1.96317 28.6069ZM19.0088 25.635V26.6138C19.0088 27.0938 18.9357 27.4944 18.7894 27.8156C18.6651 28.1123 18.4548 28.365 18.1857 28.5413C17.9192 28.6994 17.6143 28.7812 17.3044 28.7775C16.9946 28.7812 16.6897 28.6994 16.4232 28.5413C16.1562 28.3636 15.9475 28.1112 15.8232 27.8156C15.6657 27.4351 15.5909 27.0254 15.6038 26.6138V25.635C15.6038 25.1525 15.6769 24.7519 15.8232 24.4331C15.9475 24.1375 16.1562 23.8851 16.4232 23.7075C16.6879 23.5446 16.9936 23.4606 17.3044 23.4656C17.6357 23.4656 17.9294 23.5462 18.1857 23.7075C18.4548 23.8837 18.6651 24.1364 18.7894 24.4331C18.9357 24.7519 19.0088 25.1525 19.0088 25.635ZM20.5144 26.6081V25.6463C20.5144 24.94 20.3863 24.3319 20.13 23.8219C19.8888 23.3256 19.5032 22.9139 19.0238 22.6406C18.5488 22.3656 17.9763 22.2281 17.3063 22.2281C16.6388 22.2281 16.0638 22.3656 15.5813 22.6406C15.1017 22.9113 14.7163 23.3222 14.4769 23.8181C14.2207 24.3269 14.0925 24.9363 14.0925 25.6463V26.6081C14.0925 27.3106 14.2207 27.9187 14.4769 28.4325C14.7332 28.9412 15.1013 29.3325 15.5813 29.6063C16.0638 29.8775 16.6388 30.0131 17.3063 30.0131C17.9763 30.0131 18.5494 29.8775 19.0257 29.6063C19.5057 29.3312 19.8738 28.94 20.13 28.4325C20.385 27.92 20.5132 27.3119 20.5144 26.6081ZM22.9332 24.855V29.8706H21.5344V22.3725H22.7757L26.0607 27.36H26.1207V22.3725H27.5269V29.8725H26.2969L22.995 24.855H22.9332Z" fill="black"/>
</g>
<defs>
<clipPath id="clip0_3402_386">
<rect width="30" height="30" fill="white"/>
</clipPath>
</defs>
</svg>
