<svg width="30" height="30" viewBox="0 0 30 30" fill="none" xmlns="http://www.w3.org/2000/svg">
<g clip-path="url(#clip0_3407_35)">
<path d="M13.125 13.1251V2.65137C13.125 2.15409 13.3225 1.67717 13.6742 1.32554C14.0258 0.973911 14.5027 0.776367 15 0.776367C15.4973 0.776367 15.9742 0.973911 16.3258 1.32554C16.6775 1.67717 16.875 2.15409 16.875 2.65137V3.75012H26.25C26.5411 3.75012 26.8282 3.81789 27.0885 3.94807C27.3489 4.07824 27.5753 4.26725 27.75 4.50012L29.5781 6.93762C29.6998 7.0999 29.7656 7.29727 29.7656 7.50012C29.7656 7.70296 29.6998 7.90034 29.5781 8.06262L27.75 10.5001C27.5753 10.733 27.3489 10.922 27.0885 11.0522C26.8282 11.1823 26.5411 11.2501 26.25 11.2501H16.875V30.0001H13.125V20.6251H3.75C3.45892 20.6251 3.17183 20.5573 2.91147 20.4272C2.65112 20.297 2.42465 20.108 2.25 19.8751L0.421875 17.4376C0.300167 17.2753 0.234375 17.078 0.234375 16.8751C0.234375 16.6723 0.300167 16.4749 0.421875 16.3126L2.25 13.8751C2.42465 13.6423 2.65112 13.4532 2.91147 13.3231C3.17183 13.1929 3.45892 13.1251 3.75 13.1251H13.125ZM15 18.7501V15.0001H3.75L2.34375 16.8751L3.75 18.7501H15ZM15 9.37512H26.25L27.6562 7.50012L26.25 5.62512H15V9.37512Z" fill="black"/>
</g>
<defs>
<clipPath id="clip0_3407_35">
<rect width="30" height="30" fill="white"/>
</clipPath>
</defs>
</svg>
