<svg width="30" height="30" viewBox="0 0 30 30" fill="none" xmlns="http://www.w3.org/2000/svg">
<path d="M26.25 26.25V8.4375L17.8125 0H7.5C6.50544 0 5.55161 0.395088 4.84835 1.09835C4.14509 1.80161 3.75 2.75544 3.75 3.75V26.25C3.75 27.2446 4.14509 28.1984 4.84835 28.9016C5.55161 29.6049 6.50544 30 7.5 30H22.5C23.4946 30 24.4484 29.6049 25.1516 28.9016C25.8549 28.1984 26.25 27.2446 26.25 26.25ZM17.8125 5.625C17.8125 6.37092 18.1088 7.08629 18.6363 7.61374C19.1637 8.14118 19.8791 8.4375 20.625 8.4375H24.375V16.875H5.625V3.75C5.625 3.25272 5.82254 2.77581 6.17417 2.42417C6.52581 2.07254 7.00272 1.875 7.5 1.875H17.8125V5.625ZM5.625 22.5V18.75H9.375V22.5H5.625ZM5.625 24.375H9.375V28.125H7.5C7.00272 28.125 6.52581 27.9275 6.17417 27.5758C5.82254 27.2242 5.625 26.7473 5.625 26.25V24.375ZM11.25 28.125V24.375H16.875V28.125H11.25ZM18.75 28.125V24.375H24.375V26.25C24.375 26.7473 24.1775 27.2242 23.8258 27.5758C23.4742 27.9275 22.9973 28.125 22.5 28.125H18.75ZM24.375 22.5H18.75V18.75H24.375V22.5ZM11.25 22.5V18.75H16.875V22.5H11.25Z" fill="black"/>
</svg>
