<svg width="30" height="30" viewBox="0 0 30 30" fill="none" xmlns="http://www.w3.org/2000/svg">
<path d="M3.75 7.5C3.75 6.50544 4.14509 5.55161 4.84835 4.84835C5.55161 4.14509 6.50544 3.75 7.5 3.75H18.75C19.7446 3.75 20.6984 4.14509 21.4016 4.84835C22.1049 5.55161 22.5 6.50544 22.5 7.5V29.0625C22.4999 29.2321 22.4538 29.3985 22.3667 29.5439C22.2795 29.6894 22.1545 29.8085 22.005 29.8885C21.8555 29.9686 21.6871 30.0065 21.5177 29.9984C21.3483 29.9903 21.1843 29.9364 21.0431 29.8425L13.125 24.5644L5.20687 29.8425C5.0657 29.9364 4.90168 29.9903 4.7323 29.9984C4.56291 30.0065 4.3945 29.9686 4.245 29.8885C4.0955 29.8085 3.97051 29.6894 3.88334 29.5439C3.79617 29.3985 3.75009 29.2321 3.75 29.0625V7.5ZM7.5 5.625C7.00272 5.625 6.52581 5.82254 6.17417 6.17417C5.82254 6.52581 5.625 7.00272 5.625 7.5V27.3113L12.6056 22.6575C12.7595 22.5551 12.9402 22.5005 13.125 22.5005C13.3098 22.5005 13.4905 22.5551 13.6444 22.6575L20.625 27.3113V7.5C20.625 7.00272 20.4275 6.52581 20.0758 6.17417C19.7242 5.82254 19.2473 5.625 18.75 5.625H7.5Z" fill="black"/>
<path d="M8.00244 1.875H22.4999C22.9972 1.875 23.4741 2.07254 23.8258 2.42417C24.1774 2.77581 24.3749 3.25272 24.3749 3.75V25.815L24.7931 26.0925C24.9342 26.1864 25.0983 26.2403 25.2676 26.2484C25.437 26.2565 25.6054 26.2186 25.7549 26.1385C25.9044 26.0585 26.0294 25.9394 26.1166 25.7939C26.2038 25.6485 26.2499 25.4821 26.2499 25.3125V3.75C26.2499 2.75544 25.8549 1.80161 25.1516 1.09835C24.4483 0.395088 23.4945 0 22.4999 0L11.2499 0C10.5917 1.67221e-05 9.94505 0.173298 9.37499 0.502429C8.80494 0.831559 8.33156 1.30494 8.00244 1.875Z" fill="black"/>
</svg>
