<svg width="30" height="30" viewBox="0 0 30 30" fill="none" xmlns="http://www.w3.org/2000/svg">
<path fill-rule="evenodd" clip-rule="evenodd" d="M26.25 8.4375V26.25C26.25 27.2446 25.8549 28.1984 25.1516 28.9016C24.4484 29.6049 23.4946 30 22.5 30H20.625V28.125H22.5C22.9973 28.125 23.4742 27.9275 23.8258 27.5758C24.1775 27.2242 24.375 26.7473 24.375 26.25V8.4375H20.625C19.8791 8.4375 19.1637 8.14118 18.6363 7.61374C18.1088 7.08629 17.8125 6.37092 17.8125 5.625V1.875H7.5C7.00272 1.875 6.52581 2.07254 6.17417 2.42417C5.82254 2.77581 5.625 3.25272 5.625 3.75V20.625H3.75V3.75C3.75 2.75544 4.14509 1.80161 4.84835 1.09835C5.55161 0.395088 6.50544 0 7.5 0L17.8125 0L26.25 8.4375ZM3.615 23.46V29.7169H2.12625V23.46H0V22.2188H5.745V23.46H3.615ZM7.61063 22.2188V29.7169H6.12937V22.2188H7.61063ZM10.185 29.7169V26.7356H13.1962V25.5356H10.185V23.4431H13.4812V22.2188H8.70187V29.7169H10.185ZM15.5625 26.7356V29.7169H14.0794V22.2188H18.8569V23.4431H15.5625V25.5375H18.5719V26.7338L15.5625 26.7356Z" fill="black"/>
</svg>
