<svg width="30" height="30" viewBox="0 0 30 30" fill="none" xmlns="http://www.w3.org/2000/svg">
<g clip-path="url(#clip0_3402_524)">
<path d="M20.3859 2.06836C23.9638 0.767342 26.4422 1.1061 27.6681 2.33203C28.8939 3.55802 29.2318 6.03635 27.9308 9.61426C26.6549 13.1227 24.0062 17.0623 20.5343 20.5342C17.0624 24.0061 13.1229 26.6548 9.61438 27.9307C6.03647 29.2317 3.55815 28.8938 2.33215 27.668C1.10622 26.442 0.767464 23.9637 2.06848 20.3857C3.34431 16.8772 5.99396 12.9378 9.46594 9.46582C12.9379 5.99383 16.8773 3.34419 20.3859 2.06836Z" stroke="black" stroke-width="2"/>
<path fill-rule="evenodd" clip-rule="evenodd" d="M21.0223 12.5373C21.6225 10.887 21.5424 9.54271 20.7998 8.80012C20.0572 8.05752 18.7129 7.97747 17.0626 8.57758C15.4123 9.17769 13.5912 10.4088 11.9999 12.0001C10.4086 13.5914 9.17754 15.4125 8.57743 17.0628C7.97732 18.7131 8.05737 20.0574 8.79996 20.8C9.54256 21.5426 10.8869 21.6226 12.5372 21.0225C14.1875 20.4224 16.0086 19.1913 17.5999 17.6C19.1911 16.0087 20.4222 14.1876 21.0223 12.5373ZM16.5346 14.242C16.702 13.7819 16.6796 13.4071 16.4726 13.2001C16.2656 12.993 15.8908 12.9707 15.4307 13.138C14.9706 13.3053 14.4629 13.6486 14.0192 14.0922C13.5756 14.5359 13.2323 15.0436 13.065 15.5037C12.8977 15.9638 12.92 16.3386 13.1271 16.5456C13.3341 16.7526 13.7089 16.7749 14.169 16.6076C14.6291 16.4403 15.1368 16.0971 15.5805 15.6535C16.0241 15.2098 16.3673 14.7021 16.5346 14.242Z" fill="black"/>
</g>
<defs>
<clipPath id="clip0_3402_524">
<rect width="30" height="30" fill="white"/>
</clipPath>
</defs>
</svg>
