<svg width="30" height="30" viewBox="0 0 30 30" fill="none" xmlns="http://www.w3.org/2000/svg">
<path fill-rule="evenodd" clip-rule="evenodd" d="M26.25 8.4375V20.625H24.375V8.4375H20.625C19.8791 8.4375 19.1637 8.14118 18.6363 7.61374C18.1088 7.08629 17.8125 6.37092 17.8125 5.625V1.875H7.5C7.00272 1.875 6.52581 2.07254 6.17417 2.42417C5.82254 2.77581 5.625 3.25272 5.625 3.75V20.625H3.75V3.75C3.75 2.75544 4.14509 1.80161 4.84835 1.09835C5.55161 0.395088 6.50544 0 7.5 0L17.8125 0L26.25 8.4375ZM7.995 22.2188V29.7169H6.51188V26.5031H3.35625V29.7169H1.875V22.2188H3.35812V25.2675H6.51188V22.2188H7.995ZM12.2156 23.46V29.7169H10.7269V23.46H8.6025V22.2188H14.3475V23.46H12.2156ZM16.2956 29.7169V24.7294H16.3669L18.1519 28.7775H19.1194L20.8931 24.7275H20.9644V29.7169H22.305V22.2188H20.805L18.6675 27.0863H18.6188L16.4812 22.2188H14.9719V29.7169H16.2956ZM25.1269 28.4531H28.3069V29.7169H23.6437V22.2188H25.125V28.4531H25.1269Z" fill="black"/>
</svg>
