<svg width="30" height="30" viewBox="0 0 30 30" fill="none" xmlns="http://www.w3.org/2000/svg">
<path fill-rule="evenodd" clip-rule="evenodd" d="M26.25 8.4375V26.25C26.25 27.2446 25.8549 28.1984 25.1516 28.9016C24.4484 29.6049 23.4946 30 22.5 30H20.625V28.125H22.5C22.9973 28.125 23.4742 27.9275 23.8258 27.5758C24.1775 27.2242 24.375 26.7473 24.375 26.25V8.4375H20.625C19.8791 8.4375 19.1637 8.14118 18.6363 7.61374C18.1088 7.08629 17.8125 6.37092 17.8125 5.625V1.875H7.5C7.00272 1.875 6.52581 2.07254 6.17417 2.42417C5.82254 2.77581 5.625 3.25272 5.625 3.75V20.625H3.75V3.75C3.75 2.75544 4.14509 1.80161 4.84835 1.09835C5.55161 0.395088 6.50544 0 7.5 0L17.8125 0L26.25 8.4375ZM3 22.2188H0V29.7169H1.48312V27.2006H2.98875C3.52625 27.2006 3.98375 27.0925 4.36125 26.8762C4.7425 26.6575 5.03188 26.3612 5.22937 25.9875C5.43523 25.5965 5.53906 25.1599 5.53125 24.7181C5.53125 24.2494 5.4325 23.8263 5.235 23.4487C5.03715 23.0756 4.73825 22.7656 4.3725 22.5544C3.9975 22.3294 3.54 22.2175 3 22.2188ZM4.02187 24.7181C4.02824 24.9651 3.9735 25.2099 3.8625 25.4306C3.76297 25.623 3.60735 25.7806 3.41625 25.8825C3.19783 25.9901 2.9565 26.0428 2.71312 26.0362H1.4775V23.4H2.715C3.12375 23.4 3.44375 23.5131 3.675 23.7394C3.90625 23.9681 4.02187 24.2944 4.02187 24.7181ZM6.30375 22.2188V29.7169H9.04125C9.79375 29.7169 10.4175 29.5688 10.9125 29.2725C11.4134 28.9728 11.8046 28.5198 12.0281 27.9806C12.2731 27.4181 12.3956 26.7406 12.3956 25.9481C12.3956 25.1606 12.2731 24.4888 12.0281 23.9325C11.8068 23.3998 11.4195 22.9526 10.9237 22.6575C10.4288 22.365 9.80062 22.2188 9.03938 22.2188H6.30375ZM7.78687 23.4281H8.8425C9.30625 23.4281 9.68687 23.5231 9.98438 23.7131C10.2929 23.9165 10.526 24.2156 10.6481 24.5644C10.7956 24.9419 10.8694 25.4125 10.8694 25.9762C10.8752 26.3502 10.8323 26.7233 10.7419 27.0863C10.6772 27.3732 10.5519 27.643 10.3744 27.8775C10.2112 28.0878 9.99509 28.2508 9.74813 28.35C9.45872 28.4582 9.15139 28.5104 8.8425 28.5037H7.78687V23.4281ZM14.805 26.7338V29.7169H13.3237V22.2188H18.1012V23.4431H14.805V25.5375H17.8162V26.7338H14.805Z" fill="black"/>
</svg>
