<svg width="30" height="30" viewBox="0 0 30 30" fill="none" xmlns="http://www.w3.org/2000/svg">
<path d="M15.3956 3.83805C15.2717 3.78037 15.1366 3.75049 15 3.75049C14.8633 3.75049 14.7283 3.78037 14.6043 3.83805L0.541834 10.4006C0.376239 10.4778 0.236844 10.6019 0.140792 10.7573C0.0447414 10.9128 -0.00377751 11.0929 0.00120282 11.2756C0.00618314 11.4583 0.0644455 11.6355 0.168825 11.7855C0.273204 11.9355 0.419148 12.0518 0.588709 12.1199L14.6512 17.7449C14.8751 17.8346 15.1249 17.8346 15.3487 17.7449L26.25 13.3874V24.3749C25.7527 24.3749 25.2758 24.5725 24.9241 24.9241C24.5725 25.2757 24.375 25.7527 24.375 26.2499V29.9999H30V26.2499C30 25.7527 29.8024 25.2757 29.4508 24.9241C29.0992 24.5725 28.6222 24.3749 28.125 24.3749V12.6356L29.4112 12.1199C29.5808 12.0518 29.7267 11.9355 29.8311 11.7855C29.9355 11.6355 29.9937 11.4583 29.9987 11.2756C30.0037 11.0929 29.9552 10.9128 29.8591 10.7573C29.7631 10.6019 29.6237 10.4778 29.4581 10.4006L15.3956 3.83805ZM15 15.8624L3.29621 11.1843L15 5.72243L26.7037 11.1843L15 15.8624Z" fill="black"/>
<path d="M7.82995 16.9347C7.70923 16.8892 7.58042 16.8691 7.45159 16.8757C7.32275 16.8823 7.19667 16.9154 7.08121 16.973C6.96576 17.0305 6.86343 17.1113 6.78062 17.2102C6.69781 17.3091 6.6363 17.424 6.59995 17.5478L5.66245 20.7353C5.59678 20.9591 5.61687 21.1993 5.7188 21.4091C5.82073 21.6188 5.99718 21.7831 6.2137 21.8697L14.6512 25.2447C14.875 25.3344 15.1248 25.3344 15.3487 25.2447L23.7862 21.8697C24.0027 21.7831 24.1792 21.6188 24.2811 21.4091C24.383 21.1993 24.4031 20.9591 24.3374 20.7353L23.3999 17.5478C23.3636 17.424 23.3021 17.3091 23.2193 17.2102C23.1365 17.1113 23.0341 17.0305 22.9187 16.973C22.8032 16.9154 22.6771 16.8823 22.5483 16.8757C22.4195 16.8691 22.2907 16.8892 22.1699 16.9347L14.9999 19.6234L7.82995 16.9347ZM7.70245 20.4466L8.11495 19.0441L14.6699 21.5022C14.8827 21.5822 15.1172 21.5822 15.3299 21.5022L21.8849 19.0441L22.2974 20.4466L14.9999 23.3622L7.70245 20.4466Z" fill="black"/>
</svg>
