<svg width="30" height="30" viewBox="0 0 30 30" fill="none" xmlns="http://www.w3.org/2000/svg">
<path fill-rule="evenodd" clip-rule="evenodd" d="M26.25 8.4375V26.25C26.25 27.2446 25.8549 28.1984 25.1516 28.9016C24.4484 29.6049 23.4946 30 22.5 30V28.125C22.9973 28.125 23.4742 27.9275 23.8258 27.5758C24.1775 27.2242 24.375 26.7473 24.375 26.25V8.4375H20.625C19.8791 8.4375 19.1637 8.14118 18.6363 7.61374C18.1088 7.08629 17.8125 6.37092 17.8125 5.625V1.875H7.5C7.00272 1.875 6.52581 2.07254 6.17417 2.42417C5.82254 2.77581 5.625 3.25272 5.625 3.75V20.625H3.75V3.75C3.75 2.75544 4.14509 1.80161 4.84835 1.09835C5.55161 0.395088 6.50544 0 7.5 0L17.8125 0L26.25 8.4375ZM3.345 29.7169L4.73438 24.4875H4.79625L6.18375 29.7169H7.5525L9.53063 22.2188H7.92188L6.80625 27.6619H6.72937L5.40562 22.2188H4.125L2.80125 27.6619H2.73L1.605 22.2188H0L1.97812 29.7169H3.345ZM10.3106 29.7169L10.8994 27.7894H13.4044L13.9913 29.7169H15.5681L13.0631 22.2188H11.3269L8.8125 29.7169H10.3106ZM12.1894 23.6531L13.1081 26.685H11.2069L12.1256 23.6531H12.1894ZM18.9469 29.7169H17.1619L14.6512 22.2188H16.3706L18.0525 28.1025H18.1238L19.7887 22.2188H21.4369L18.9469 29.7169Z" fill="black"/>
</svg>
