<svg width="30" height="30" viewBox="0 0 30 30" fill="none" xmlns="http://www.w3.org/2000/svg">
<path d="M8.09625 5.03813C9.81375 4.25813 12.255 3.75 15 3.75C17.745 3.75 20.1863 4.25625 21.9037 5.03813C23.7075 5.85938 24.375 6.80062 24.375 7.5C24.375 8.20125 23.7075 9.14063 21.9037 9.96187C20.1863 10.7419 17.745 11.25 15 11.25C12.255 11.25 9.81375 10.7438 8.09625 9.96187C6.2925 9.14063 5.625 8.19938 5.625 7.5C5.625 6.79875 6.2925 5.85938 8.09625 5.03813ZM24.375 10.6838V13.125C24.375 13.8263 23.7075 14.7656 21.9037 15.5869C20.1863 16.3669 17.745 16.875 15 16.875C12.255 16.875 9.81375 16.3687 8.09625 15.5869C6.2925 14.7656 5.625 13.8244 5.625 13.125V10.6838C6.13313 11.0625 6.7125 11.3925 7.32 11.6681C9.33375 12.5831 12.0506 13.125 15 13.125C17.9494 13.125 20.6663 12.5831 22.68 11.6681C23.2778 11.4001 23.8459 11.0702 24.375 10.6838ZM26.25 7.5C26.25 5.61188 24.6094 4.20937 22.68 3.33187C20.6663 2.41687 17.9494 1.875 15 1.875C12.0506 1.875 9.33375 2.41687 7.32 3.33187C5.39062 4.20937 3.75 5.61188 3.75 7.5V24.375C3.75 26.2631 5.39062 27.6656 7.32 28.5431C9.33375 29.4562 12.0506 30 15 30C17.9494 30 20.6663 29.4581 22.68 28.5431C24.6094 27.6656 26.25 26.2631 26.25 24.375V7.5ZM24.375 16.3088V18.75C24.375 19.4513 23.7075 20.3906 21.9037 21.2119C20.1863 21.9919 17.745 22.5 15 22.5C12.255 22.5 9.81375 21.9937 8.09625 21.2119C6.2925 20.3906 5.625 19.4494 5.625 18.75V16.3088C6.13313 16.6875 6.7125 17.0175 7.32 17.2931C9.33375 18.2062 12.0506 18.75 15 18.75C17.9494 18.75 20.6663 18.2081 22.68 17.2931C23.2778 17.0251 23.8459 16.6952 24.375 16.3088ZM24.375 21.9338V24.375C24.375 25.0763 23.7075 26.0156 21.9037 26.8369C20.1863 27.6169 17.745 28.125 15 28.125C12.255 28.125 9.81375 27.6187 8.09625 26.8369C6.2925 26.0156 5.625 25.0744 5.625 24.375V21.9338C6.13313 22.3125 6.7125 22.6425 7.32 22.9181C9.33375 23.8312 12.0506 24.375 15 24.375C17.9494 24.375 20.6663 23.8331 22.68 22.9181C23.2875 22.6425 23.8669 22.3125 24.375 21.9338Z" fill="black"/>
</svg>
