<svg width="30" height="30" viewBox="0 0 30 30" fill="none" xmlns="http://www.w3.org/2000/svg">
<path fill-rule="evenodd" clip-rule="evenodd" d="M26.25 8.4375V26.25C26.25 27.2446 25.8549 28.1984 25.1516 28.9016C24.4484 29.6049 23.4946 30 22.5 30H13.125V28.125H22.5C22.9973 28.125 23.4742 27.9275 23.8258 27.5758C24.1775 27.2242 24.375 26.7473 24.375 26.25V8.4375H20.625C19.8791 8.4375 19.1637 8.14118 18.6363 7.61374C18.1088 7.08629 17.8125 6.37092 17.8125 5.625V1.875H7.5C7.00272 1.875 6.52581 2.07254 6.17417 2.42417C5.82254 2.77581 5.625 3.25272 5.625 3.75V20.625H3.75V3.75C3.75 2.75544 4.14509 1.80161 4.84835 1.09835C5.55161 0.395088 6.50544 0 7.5 0L17.8125 0L26.25 8.4375ZM0 22.2188H3C3.5425 22.2188 4 22.3306 4.3725 22.5544C4.75 22.7731 5.0375 23.0712 5.235 23.4487C5.4325 23.8263 5.53125 24.2494 5.53125 24.7181C5.53125 25.1869 5.43125 25.61 5.23125 25.9875C5.03375 26.3612 4.74375 26.6575 4.36125 26.8762C3.94025 27.1032 3.46682 27.2151 2.98875 27.2006H1.48125V29.7169H0V22.2188ZM3.8625 25.4325C3.9738 25.2112 4.02855 24.9658 4.02187 24.7181C4.02187 24.2931 3.90625 23.9675 3.675 23.7412C3.44375 23.5138 3.12313 23.4 2.71312 23.4H1.4775V26.0362H2.715C2.95775 26.0425 3.19839 25.9898 3.41625 25.8825C3.60708 25.7811 3.76267 25.6242 3.8625 25.4325ZM9.41812 26.8388V29.7169H7.93125V26.8669L5.41875 22.2188H7.06125L8.66062 25.3987H8.72062L10.3256 22.2188H11.9288L9.41812 26.8388Z" fill="black"/>
</svg>
