<svg width="30" height="30" viewBox="0 0 30 30" fill="none" xmlns="http://www.w3.org/2000/svg">
<path d="M1.45773 11C1.64185 11 1.79107 10.8464 1.79107 10.6569V10.0901C1.79107 9.14272 2.5372 8.37485 3.4577 8.37485H26.5423C27.4628 8.37485 28.2089 9.14272 28.2089 10.0901V10.6569C28.2089 10.8464 28.3582 11 28.5423 11H29.6629C29.8491 11 30 10.8447 30 10.6531V7.05828C30 5.92147 29.1045 5 28 5H1.99998C0.895367 5 0 5.92158 0 7.05828V10.6531C0 10.8447 0.150874 11 0.337079 11H1.45773Z" fill="black"/>
<path d="M28.5423 12.614C27.6218 12.614 26.8756 11.8494 26.8756 10.9061V10.3416C26.8756 10.1529 26.7264 10 26.5423 10H3.4577C3.27358 10 3.12436 10.1529 3.12436 10.3416V10.9061C3.12436 11.8494 2.37823 12.614 1.45773 12.614H0.337079C0.150874 12.614 0 12.7686 0 12.9594V22.9505C0 24.0824 0.895479 25 1.99998 25H28C29.1046 25 30 24.0823 30 22.9505V12.9594C30 12.7686 29.8491 12.614 29.6629 12.614H28.5423ZM21.706 15.6889C21.706 15.4563 21.9277 15.2851 22.1436 15.3569C22.745 15.5566 23.1813 16.1349 23.1813 16.817C23.1813 17.4992 22.7451 18.0775 22.1436 18.2771C21.9277 18.3488 21.706 18.1777 21.706 17.945V15.6888V15.6889ZM8.29392 17.9451C8.29392 18.1778 8.07227 18.3489 7.85633 18.2772C7.25493 18.0775 6.81866 17.4992 6.81866 16.8171C6.81866 16.1349 7.25482 15.5566 7.85633 15.357C8.07228 15.2852 8.29392 15.4564 8.29392 15.689V17.9452V17.9451ZM8.29392 13.9367C8.29392 14.1083 8.1707 14.2551 8.00457 14.2765C6.77378 14.4352 5.81872 15.5136 5.81872 16.8171C5.81872 18.1207 6.77389 19.199 8.00457 19.3577C8.1708 19.3792 8.29392 19.5259 8.29392 19.6975V20.5746C8.29392 20.9519 7.99546 21.2578 7.62723 21.2578H4.38931C4.22976 21.2578 4.07515 21.1991 3.95447 21.0924C3.73963 20.9029 3.03947 20.0353 3.03947 16.8171C3.03947 13.5991 3.73964 12.7312 3.95447 12.5418C4.07528 12.4351 4.22989 12.3764 4.38931 12.3764H7.62723C7.99546 12.3764 8.29392 12.6822 8.29392 13.0596V13.9367ZM20.3333 20.5747C20.3333 20.9521 20.0348 21.2579 19.6666 21.2579H10.3331C9.9649 21.2579 9.66645 20.9521 9.66645 20.5747V13.0596C9.66645 12.6822 9.9649 12.3764 10.3331 12.3764H19.6666C20.0348 12.3764 20.3333 12.6822 20.3333 13.0596V20.5747ZM26.0456 21.0924C25.9248 21.1991 25.7702 21.2578 25.6108 21.2578H22.3729C22.0046 21.2578 21.7062 20.952 21.7062 20.5746V19.6975C21.7062 19.5259 21.8294 19.3791 21.9955 19.3577C23.2263 19.1991 24.1814 18.1206 24.1814 16.8171C24.1814 15.5136 23.2262 14.4352 21.9955 14.2765C21.8293 14.2551 21.7062 14.1083 21.7062 13.9367V13.0596C21.7062 12.6823 22.0046 12.3764 22.3729 12.3764H25.6108C25.7703 12.3764 25.925 12.4351 26.0456 12.5418C26.2605 12.7313 26.9606 13.5989 26.9606 16.8171C26.9606 20.0351 26.2605 20.903 26.0456 21.0924Z" fill="black"/>
</svg>
