<svg width="30" height="30" viewBox="0 0 30 30" fill="none" xmlns="http://www.w3.org/2000/svg">
<g clip-path="url(#clip0_3402_428)">
<path fill-rule="evenodd" clip-rule="evenodd" d="M26.25 8.4375V26.25C26.25 27.2446 25.8549 28.1984 25.1516 28.9017C24.4484 29.6049 23.4946 30 22.5 30V28.125C22.9973 28.125 23.4742 27.9275 23.8258 27.5758C24.1775 27.2242 24.375 26.7473 24.375 26.25V8.4375H20.625C19.8791 8.4375 19.1637 8.14118 18.6363 7.61374C18.1088 7.08629 17.8125 6.37092 17.8125 5.625V1.875H7.5C7.00272 1.875 6.52581 2.07254 6.17417 2.42417C5.82254 2.77581 5.625 3.25272 5.625 3.75V20.625H3.75V3.75C3.75 2.75544 4.14509 1.80161 4.84835 1.09835C5.55161 0.395088 6.50544 0 7.5 0L17.8125 0L26.25 8.4375ZM19.2 23.685C19.3425 23.9725 19.43 24.28 19.4625 24.6075H18.0075C17.9735 24.4428 17.912 24.285 17.8256 24.1406C17.7421 24.0034 17.634 23.8826 17.5069 23.7844C17.3754 23.6777 17.2245 23.5975 17.0625 23.5481C16.8809 23.4924 16.6918 23.4646 16.5019 23.4656C15.9681 23.4656 15.5525 23.6544 15.255 24.0319C14.9625 24.4081 14.8162 24.9394 14.8162 25.6256V26.5594C14.8162 26.9981 14.8769 27.3825 14.9981 27.7125C15.109 28.0204 15.3071 28.2895 15.5681 28.4869C15.8553 28.6789 16.1961 28.7747 16.5412 28.7606C16.8371 28.7691 17.1307 28.7074 17.3981 28.5806C17.6122 28.4682 17.7893 28.2963 17.9081 28.0856C18.0206 27.8806 18.0775 27.6538 18.0788 27.405V26.9269H16.5375V25.8206H19.4925V27.3169C19.4925 27.6794 19.4319 28.0231 19.3106 28.3481C19.1901 28.6699 19.0029 28.9625 18.7612 29.2069C18.4967 29.4657 18.1804 29.6657 17.8331 29.7938C17.4631 29.9325 17.0275 30.0019 16.5263 30.0019C16.0441 30.0109 15.5647 29.9269 15.1144 29.7544C14.7318 29.5978 14.3901 29.356 14.115 29.0475C13.8413 28.7308 13.6369 28.3604 13.515 27.96C13.3793 27.507 13.3129 27.036 13.3181 26.5631V25.6144C13.3181 24.9356 13.4431 24.3419 13.6931 23.8331C13.9444 23.3256 14.3081 22.93 14.7844 22.6463C15.2644 22.3613 15.8431 22.2188 16.5206 22.2188C16.9669 22.2188 17.3644 22.2813 17.7131 22.4063C18.0644 22.5313 18.3644 22.7031 18.6131 22.9219C18.8631 23.1419 19.0594 23.3963 19.2019 23.685H19.2ZM3 22.3612H0V29.8613H1.48312V27.3431H2.98875C3.52625 27.3431 3.98375 27.2356 4.36125 27.0206C4.7425 26.7994 5.03188 26.5025 5.22937 26.13C5.43523 25.739 5.53906 25.3024 5.53125 24.8606C5.53125 24.3931 5.4325 23.97 5.235 23.5913C5.03715 23.2181 4.73825 22.9081 4.3725 22.6969C3.9975 22.4719 3.54 22.36 3 22.3612ZM4.02187 24.8606C4.02855 25.1083 3.9738 25.3537 3.8625 25.575C3.76267 25.7667 3.60708 25.9236 3.41625 26.025C3.19783 26.1326 2.9565 26.1853 2.71312 26.1788H1.4775V23.5425H2.715C3.12375 23.5425 3.44375 23.6563 3.675 23.8838C3.90625 24.11 4.02187 24.4356 4.02187 24.8606ZM7.70438 29.8594V24.8438H7.76437L11.0662 29.8594H12.2963V22.3612H10.89V27.3488H10.83L7.545 22.3612H6.30375V29.8613L7.70438 29.8594Z" fill="black"/>
</g>
<defs>
<clipPath id="clip0_3402_428">
<rect width="30" height="30" fill="white"/>
</clipPath>
</defs>
</svg>
