<svg width="30" height="30" viewBox="0 0 30 30" fill="none" xmlns="http://www.w3.org/2000/svg">
<path d="M7.00012 0C4.82296 0 3 1.8229 3 4.00007V26.6668C3 28.496 4.50401 30 6.33328 30H26C26.5236 30 26.9998 29.5236 27 29V7.00021C26.9967 6.41318 26.572 5.99503 26 6.00019C25.0379 6.00019 23.9999 4.96246 23.9999 4.00016C23.9999 3.03807 25.0377 2.00012 26 2.00012C26.5283 2.00753 27 1.52856 27 1.00011C27 0.471692 26.5283 -0.00732131 26 8.88407e-05L7.00012 0ZM7.00012 2.00003H22.5524C22.2033 2.5917 22.0003 3.27608 22.0003 4.00007C22.0003 4.72406 22.2033 5.40844 22.5524 6.00011H7.00012C6.03802 6.00011 5.00006 4.96238 5.00006 4.00007C5.00006 3.03799 6.0378 2.00003 7.00012 2.00003ZM5.00006 7.44782C5.59103 7.79603 6.27713 7.99988 7.00012 7.99988H25.0004V27.9998H6.33364C5.57757 27.9998 5.00024 27.4224 5.00024 26.6664L5.00006 7.44782Z" fill="black"/>
<path fill-rule="evenodd" clip-rule="evenodd" d="M10.625 13.5C10.0835 13.5 9.55188 13.6847 9.1496 14.0312C8.74499 14.3798 8.5 14.87 8.5 15.4V19.6C8.5 20.13 8.74499 20.6202 9.1496 20.9688C9.55188 21.3153 10.0835 21.5 10.625 21.5H16.7188C17.2145 21.5 17.7026 21.3454 18.0913 21.0519C18.3151 20.8829 18.4993 20.6724 18.6294 20.4334L20.6789 21.2178C20.8718 21.2916 21.0799 21.3218 21.2856 21.3078C21.4912 21.2937 21.6935 21.2356 21.8741 21.1345C22.0549 21.0334 22.2119 20.8903 22.3242 20.7122C22.4371 20.5333 22.4998 20.3263 22.5 20.1117V14.8881C22.4999 14.6733 22.4372 14.4666 22.3243 14.2876C22.2118 14.1093 22.0547 13.9661 21.8738 13.865C21.693 13.7639 21.4905 13.7058 21.2847 13.6919C21.0789 13.678 20.8705 13.7084 20.6776 13.7824L18.6294 14.5666C18.4993 14.3276 18.3151 14.1171 18.0913 13.9481C17.7026 13.6546 17.2145 13.5 16.7187 13.5H10.625ZM10.3768 15.2838C10.4317 15.2366 10.52 15.2 10.625 15.2H16.7188C16.8237 15.2 16.9121 15.2366 16.9669 15.2838C17.0194 15.3291 17.0312 15.373 17.0312 15.4V19.6C17.0312 19.627 17.0194 19.6709 16.9669 19.7162C16.9121 19.7634 16.8237 19.8 16.7188 19.8H10.625C10.52 19.8 10.4317 19.7634 10.3768 19.7162C10.3243 19.6709 10.3125 19.627 10.3125 19.6V15.4C10.3125 15.373 10.3243 15.3291 10.3768 15.2838ZM18.8438 18.6786V16.3214L20.6875 15.6152V19.3848L18.8438 18.6786Z" fill="black"/>
</svg>
