<svg width="30" height="30" viewBox="0 0 30 30" fill="none" xmlns="http://www.w3.org/2000/svg">
<path fill-rule="evenodd" clip-rule="evenodd" d="M26.25 8.4375V26.25C26.25 27.2446 25.8549 28.1984 25.1516 28.9016C24.4484 29.6049 23.4946 30 22.5 30H16.875V28.125H22.5C22.9973 28.125 23.4742 27.9275 23.8258 27.5758C24.1775 27.2242 24.375 26.7473 24.375 26.25V8.4375H20.625C19.8791 8.4375 19.1637 8.14118 18.6363 7.61374C18.1088 7.08629 17.8125 6.37092 17.8125 5.625V1.875H7.5C7.00272 1.875 6.52581 2.07254 6.17417 2.42417C5.82254 2.77581 5.625 3.25272 5.625 3.75V20.625H3.75V3.75C3.75 2.75544 4.14509 1.80161 4.84835 1.09835C5.55161 0.395088 6.50544 0 7.5 0L17.8125 0L26.25 8.4375ZM1.32375 24.7294V29.7169H0V22.2188H1.51125L3.64875 27.0863H3.6975L5.835 22.2188H7.335V29.7169H5.9925V24.7294H5.92125L4.1475 28.7775H3.18L1.395 24.7275H1.32375V24.7294ZM8.67188 29.7169V22.2188H11.4075C12.1687 22.2188 12.7969 22.365 13.2919 22.6575C13.7869 22.95 14.155 23.375 14.3962 23.9325C14.64 24.4888 14.7625 25.1606 14.7638 25.9481C14.7638 26.7406 14.6412 27.4181 14.3962 27.9806C14.15 28.5444 13.7781 28.975 13.2806 29.2725C12.7856 29.5688 12.1606 29.7169 11.4056 29.7169H8.67188ZM11.2088 23.4281H10.155V28.5037H11.2088C11.5575 28.5037 11.86 28.4525 12.1163 28.35C12.3632 28.2508 12.5794 28.0878 12.7425 27.8775C12.92 27.643 13.0453 27.3732 13.11 27.0863C13.1938 26.7712 13.2356 26.4013 13.2356 25.9762C13.2492 25.4962 13.1749 25.0177 13.0162 24.5644C12.8942 24.2156 12.661 23.9165 12.3525 23.7131C12.055 23.5231 11.6737 23.4281 11.2088 23.4281Z" fill="black"/>
</svg>
