<svg width="30" height="30" viewBox="0 0 30 30" fill="none" xmlns="http://www.w3.org/2000/svg">
<g clip-path="url(#clip0_3407_45)">
<path d="M11.2537 10.3125C11.2537 11.0584 10.9574 11.7738 10.43 12.3012C9.90251 12.8287 9.18714 13.125 8.44122 13.125C7.6953 13.125 6.97993 12.8287 6.45248 12.3012C5.92504 11.7738 5.62872 11.0584 5.62872 10.3125C5.62872 9.56658 5.92504 8.85121 6.45248 8.32376C6.97993 7.79632 7.6953 7.5 8.44122 7.5C9.18714 7.5 9.90251 7.79632 10.43 8.32376C10.9574 8.85121 11.2537 9.56658 11.2537 10.3125Z" fill="black"/>
<path d="M3.75372 1.875C2.75916 1.875 1.80533 2.27009 1.10207 2.97335C0.398811 3.67661 0.00372314 4.63044 0.00372314 5.625V24.375C0.00372314 25.3696 0.398811 26.3234 1.10207 27.0266C1.80533 27.7299 2.75916 28.125 3.75372 28.125H26.2537C27.2483 28.125 28.2021 27.7299 28.9054 27.0266C29.6086 26.3234 30.0037 25.3696 30.0037 24.375V5.625C30.0037 4.63044 29.6086 3.67661 28.9054 2.97335C28.2021 2.27009 27.2483 1.875 26.2537 1.875H3.75372ZM26.2537 3.75C26.751 3.75 27.2279 3.94754 27.5795 4.29917C27.9312 4.65081 28.1287 5.12772 28.1287 5.625V17.8125L21.0468 14.1619C20.871 14.0738 20.6719 14.0432 20.4778 14.0745C20.2836 14.1058 20.1042 14.1974 19.965 14.3363L13.0087 21.2925L8.02122 17.97C7.84115 17.8501 7.62515 17.7962 7.40986 17.8174C7.19456 17.8386 6.99322 17.9336 6.83997 18.0863L1.87872 22.5V5.625C1.87872 5.12772 2.07627 4.65081 2.4279 4.29917C2.77953 3.94754 3.25644 3.75 3.75372 3.75H26.2537Z" fill="black"/>
</g>
<defs>
<clipPath id="clip0_3407_45">
<rect width="30" height="30" fill="white"/>
</clipPath>
</defs>
</svg>
