<svg width="30" height="30" viewBox="0 0 30 30" fill="none" xmlns="http://www.w3.org/2000/svg">
<path d="M26.25 8.4375V26.25C26.25 27.2446 25.8549 28.1984 25.1516 28.9016C24.4484 29.6049 23.4946 30 22.5 30H7.5C6.50544 30 5.55161 29.6049 4.84835 28.9016C4.14509 28.1984 3.75 27.2446 3.75 26.25V3.75C3.75 2.75544 4.14509 1.80161 4.84835 1.09835C5.55161 0.395088 6.50544 0 7.5 0L17.8125 0L26.25 8.4375ZM20.625 8.4375C19.8791 8.4375 19.1637 8.14118 18.6363 7.61374C18.1088 7.08629 17.8125 6.37092 17.8125 5.625V1.875H7.5C7.00272 1.875 6.52581 2.07254 6.17417 2.42417C5.82254 2.77581 5.625 3.25272 5.625 3.75V26.25C5.625 26.7473 5.82254 27.2242 6.17417 27.5758C6.52581 27.9275 7.00272 28.125 7.5 28.125H22.5C22.9973 28.125 23.4742 27.9275 23.8258 27.5758C24.1775 27.2242 24.375 26.7473 24.375 26.25V8.4375H20.625Z" fill="black"/>
<path d="M16.2113 12.4615C16.2984 12.3742 16.4018 12.3049 16.5157 12.2576C16.6296 12.2104 16.7517 12.186 16.875 12.186C16.9983 12.186 17.1204 12.2104 17.2343 12.2576C17.3482 12.3049 17.4517 12.3742 17.5388 12.4615L21.2888 16.2115C21.3761 16.2985 21.4454 16.402 21.4926 16.5159C21.5399 16.6298 21.5642 16.7519 21.5642 16.8752C21.5642 16.9985 21.5399 17.1206 21.4926 17.2345C21.4454 17.3484 21.3761 17.4519 21.2888 17.539L17.5388 21.289C17.3627 21.465 17.124 21.5639 16.875 21.5639C16.6261 21.5639 16.3873 21.465 16.2113 21.289C16.0352 21.1129 15.9363 20.8742 15.9363 20.6252C15.9363 20.3763 16.0352 20.1375 16.2113 19.9615L19.2994 16.8752L16.2113 13.789C16.124 13.7019 16.0547 13.5984 16.0074 13.4845C15.9602 13.3706 15.9359 13.2485 15.9359 13.1252C15.9359 13.0019 15.9602 12.8798 16.0074 12.7659C16.0547 12.652 16.124 12.5485 16.2113 12.4615ZM13.7888 12.4615C13.7017 12.3742 13.5982 12.3049 13.4843 12.2576C13.3704 12.2104 13.2483 12.186 13.125 12.186C13.0017 12.186 12.8796 12.2104 12.7657 12.2576C12.6518 12.3049 12.5484 12.3742 12.4613 12.4615L8.71128 16.2115C8.62397 16.2985 8.5547 16.402 8.50744 16.5159C8.46018 16.6298 8.43585 16.7519 8.43585 16.8752C8.43585 16.9985 8.46018 17.1206 8.50744 17.2345C8.5547 17.3484 8.62397 17.4519 8.71128 17.539L12.4613 21.289C12.6373 21.465 12.8761 21.5639 13.125 21.5639C13.374 21.5639 13.6127 21.465 13.7888 21.289C13.9648 21.1129 14.0637 20.8742 14.0637 20.6252C14.0637 20.3763 13.9648 20.1375 13.7888 19.9615L10.7007 16.8752L13.7888 13.789C13.8761 13.7019 13.9454 13.5984 13.9926 13.4845C14.0399 13.3706 14.0642 13.2485 14.0642 13.1252C14.0642 13.0019 14.0399 12.8798 13.9926 12.7659C13.9454 12.652 13.8761 12.5485 13.7888 12.4615Z" fill="black"/>
</svg>
