<svg width="30" height="30" viewBox="0 0 30 30" fill="none" xmlns="http://www.w3.org/2000/svg">
<g clip-path="url(#clip0_3402_523)">
<path fill-rule="evenodd" clip-rule="evenodd" d="M28.871 9.95587C30.2088 6.27705 30.0303 3.28033 28.3749 1.62494C26.7196 -0.030443 23.7228 -0.208886 20.044 1.12887C16.3652 2.46662 12.3056 5.21099 8.75836 8.75824C5.21111 12.3055 2.46674 16.3651 1.12899 20.0439C-0.208764 23.7227 -0.0303206 26.7194 1.62506 28.3748C3.28045 30.0302 6.27718 30.2086 9.956 28.8709C13.6348 27.5331 17.6944 24.7888 21.2416 21.2415C24.7889 17.6943 27.5333 13.6347 28.871 9.95587ZM20.7998 8.79987C21.5424 9.54247 21.6225 10.8868 21.0224 12.5371C20.4222 14.1874 19.1911 16.0085 17.5999 17.5998C16.0086 19.191 14.1875 20.4221 12.5372 21.0223C10.8869 21.6224 9.54257 21.5423 8.79997 20.7997C8.05738 20.0571 7.97733 18.7128 8.57744 17.0625C9.17755 15.4122 10.4087 13.5911 11.9999 11.9998C13.5912 10.4086 15.4123 9.17744 17.0626 8.57734C18.7129 7.97723 20.0572 8.05727 20.7998 8.79987ZM16.4726 13.1998C16.6796 13.4069 16.702 13.7817 16.5347 14.2418C16.3673 14.7018 16.0241 15.2096 15.5805 15.6532C15.1368 16.0969 14.6291 16.4401 14.169 16.6074C13.7089 16.7747 13.3341 16.7524 13.1271 16.5453C12.9201 16.3383 12.8977 15.9635 13.0651 15.5034C13.2324 15.0433 13.5756 14.5356 14.0192 14.092C14.4629 13.6483 14.9706 13.3051 15.4307 13.1378C15.8908 12.9705 16.2656 12.9928 16.4726 13.1998Z" fill="black"/>
</g>
<defs>
<clipPath id="clip0_3402_523">
<rect width="30" height="30" fill="white"/>
</clipPath>
</defs>
</svg>
