<svg width="30" height="30" viewBox="0 0 30 30" fill="none" xmlns="http://www.w3.org/2000/svg">
<g clip-path="url(#clip0_3402_427)">
<path fill-rule="evenodd" clip-rule="evenodd" d="M26.2501 8.4375V26.25C26.2501 27.2446 25.855 28.1984 25.1517 28.9016C24.4485 29.6049 23.4946 30 22.5001 30H16.8751V28.125H22.5001C22.9973 28.125 23.4743 27.9275 23.8259 27.5758C24.1775 27.2242 24.3751 26.7473 24.3751 26.25V8.4375H20.6251C19.8791 8.4375 19.1638 8.14118 18.6363 7.61374C18.1089 7.08629 17.8126 6.37092 17.8126 5.625V1.875H7.50006C7.00278 1.875 6.52587 2.07254 6.17424 2.42417C5.82261 2.77581 5.62506 3.25272 5.62506 3.75V20.625H3.75006V3.75C3.75006 2.75544 4.14515 1.80161 4.84841 1.09835C5.55167 0.395088 6.5055 0 7.50006 0L17.8126 0L26.2501 8.4375ZM6.14631 24.6075C6.11621 24.2865 6.02722 23.9738 5.88381 23.685C5.74031 23.394 5.54015 23.1345 5.29506 22.9219C5.02962 22.6957 4.72444 22.5208 4.39506 22.4062C4.01112 22.2764 3.60783 22.213 3.20256 22.2188C2.52506 22.2188 1.94631 22.3619 1.46631 22.6481C0.994108 22.928 0.614119 23.3399 0.373188 23.8331C0.111421 24.3896 -0.0163668 24.9996 6.29079e-05 25.6144V26.5631C6.29079e-05 27.0731 0.0656879 27.5387 0.196938 27.96C0.328188 28.38 0.528188 28.7425 0.796938 29.0475C1.06319 29.3512 1.39631 29.5869 1.79631 29.7544C2.20006 29.9194 2.67069 30.0019 3.20819 30.0019C3.71069 30.0019 4.14631 29.9325 4.51506 29.7938C4.85266 29.6771 5.16023 29.4872 5.4157 29.2375C5.67116 28.9879 5.86816 28.6848 5.99256 28.35C6.11381 28.0238 6.17444 27.6794 6.17444 27.3169V25.8225H3.21944V26.9269H4.76256V27.405C4.76256 27.6537 4.70631 27.8806 4.59381 28.0856C4.4745 28.2965 4.29673 28.4684 4.08194 28.5806C3.81452 28.7074 3.52089 28.7691 3.22506 28.7606C2.87988 28.7747 2.53914 28.6789 2.25194 28.4869C1.99017 28.2897 1.79146 28.0207 1.68006 27.7125C1.55355 27.3415 1.49264 26.9513 1.50006 26.5594V25.6238C1.50006 24.94 1.64631 24.4088 1.93881 24.03C2.23506 23.655 2.65069 23.4669 3.18569 23.4656C3.37629 23.4644 3.56597 23.4922 3.74819 23.5481C3.91819 23.6031 4.06569 23.6819 4.19069 23.7844C4.31785 23.8826 4.42589 24.0034 4.50944 24.1406C4.596 24.2855 4.65749 24.444 4.69131 24.6094L6.14631 24.6075ZM8.68319 29.8594V22.3612H7.20006V29.8612H8.68131L8.68319 29.8594ZM11.4826 26.8781V29.8594H9.99944V22.3612H14.7751V23.5856H11.4826V25.68H14.4919V26.8762L11.4826 26.8781Z" fill="black"/>
</g>
<defs>
<clipPath id="clip0_3402_427">
<rect width="30" height="30" fill="white"/>
</clipPath>
</defs>
</svg>
