<svg width="30" height="30" viewBox="0 0 30 30" fill="none" xmlns="http://www.w3.org/2000/svg">
<g clip-path="url(#clip0_3407_36)">
<path d="M15.0003 0L27.3941 5.625H29.0628C29.3115 5.625 29.5499 5.72377 29.7257 5.89959C29.9016 6.0754 30.0003 6.31386 30.0003 6.5625V10.3125C30.0003 10.5611 29.9016 10.7996 29.7257 10.9754C29.5499 11.1512 29.3115 11.25 29.0628 11.25H28.1253V24.375C28.3347 24.3752 28.538 24.4454 28.7028 24.5745C28.8676 24.7037 28.9845 24.8842 29.0347 25.0875L29.9722 28.8375C30.0071 28.9756 30.0099 29.1199 29.9805 29.2592C29.9511 29.3986 29.8901 29.5294 29.8024 29.6416C29.7146 29.7538 29.6023 29.8444 29.4742 29.9065C29.346 29.9686 29.2053 30.0006 29.0628 30H0.93783C0.795388 30.0006 0.654692 29.9686 0.526509 29.9065C0.398327 29.8444 0.286057 29.7538 0.198292 29.6416C0.110527 29.5294 0.0495944 29.3986 0.020157 29.2592C-0.00928036 29.1199 -0.00644183 28.9756 0.0284553 28.8375L0.965955 25.0875C1.0162 24.8842 1.13305 24.7037 1.29786 24.5745C1.46267 24.4454 1.66596 24.3752 1.87533 24.375V11.25H0.93783C0.68919 11.25 0.450733 11.1512 0.274918 10.9754C0.0991024 10.7996 0.000330348 10.5611 0.000330348 10.3125V6.5625C0.000330348 6.31386 0.0991024 6.0754 0.274918 5.89959C0.450733 5.72377 0.68919 5.625 0.93783 5.625H2.60658L15.0003 0ZM7.08221 5.625H22.9203L15.0003 1.875L7.08221 5.625ZM3.75033 11.25V24.375H5.62533V11.25H3.75033ZM7.50033 11.25V24.375H12.1878V11.25H7.50033ZM14.0628 11.25V24.375H15.9378V11.25H14.0628ZM17.8128 11.25V24.375H22.5003V11.25H17.8128ZM24.3753 11.25V24.375H26.2503V11.25H24.3753ZM28.1253 9.375V7.5H1.87533V9.375H28.1253ZM27.3941 26.25H2.60658L2.13783 28.125H27.8628L27.3941 26.25Z" fill="black"/>
</g>
<defs>
<clipPath id="clip0_3407_36">
<rect width="30" height="30" fill="white"/>
</clipPath>
</defs>
</svg>
