<svg width="30" height="30" viewBox="0 0 30 30" fill="none" xmlns="http://www.w3.org/2000/svg">
<path d="M7.00012 0C4.82296 0 3 1.8229 3 4.00007V26.6668C3 28.496 4.50401 30 6.33328 30H26C26.5236 30 26.9998 29.5236 27 29V7.00021C26.9967 6.41318 26.572 5.99503 26 6.00019C25.0379 6.00019 23.9999 4.96246 23.9999 4.00016C23.9999 3.03807 25.0377 2.00012 26 2.00012C26.5283 2.00753 27 1.52856 27 1.00011C27 0.471692 26.5283 -0.00732131 26 8.88407e-05L7.00012 0ZM7.00012 2.00003H22.5524C22.2033 2.5917 22.0003 3.27608 22.0003 4.00007C22.0003 4.72406 22.2033 5.40844 22.5524 6.00011H7.00012C6.03802 6.00011 5.00006 4.96238 5.00006 4.00007C5.00006 3.03799 6.0378 2.00003 7.00012 2.00003ZM5.00006 7.44782C5.59103 7.79603 6.27713 7.99988 7.00012 7.99988H25.0004V27.9998H6.33364C5.57757 27.9998 5.00024 27.4224 5.00024 26.6664L5.00006 7.44782Z" fill="black"/>
<path fill-rule="evenodd" clip-rule="evenodd" d="M11 13V17H20V13H11ZM10 11C9.44772 11 9 11.4477 9 12V18C9 18.5523 9.44772 19 10 19H21C21.5523 19 22 18.5523 22 18V12C22 11.4477 21.5523 11 21 11H10Z" fill="black"/>
</svg>
