<svg width="30" height="30" viewBox="0 0 30 30" fill="none" xmlns="http://www.w3.org/2000/svg">
<path d="M9.375 15C10.3696 15 11.3234 14.6049 12.0267 13.9017C12.7299 13.1984 13.125 12.2446 13.125 11.25C13.125 10.2554 12.7299 9.30161 12.0267 8.59835C11.3234 7.89509 10.3696 7.5 9.375 7.5C8.38044 7.5 7.42661 7.89509 6.72335 8.59835C6.02009 9.30161 5.625 10.2554 5.625 11.25C5.625 12.2446 6.02009 13.1984 6.72335 13.9017C7.42661 14.6049 8.38044 15 9.375 15ZM16.875 10.3125C16.875 10.0639 16.9738 9.8254 17.1496 9.64959C17.3254 9.47377 17.5639 9.375 17.8125 9.375H25.3125C25.5611 9.375 25.7996 9.47377 25.9754 9.64959C26.1512 9.8254 26.25 10.0639 26.25 10.3125C26.25 10.5611 26.1512 10.7996 25.9754 10.9754C25.7996 11.1512 25.5611 11.25 25.3125 11.25H17.8125C17.5639 11.25 17.3254 11.1512 17.1496 10.9754C16.9738 10.7996 16.875 10.5611 16.875 10.3125ZM16.875 15C16.875 14.7514 16.9738 14.5129 17.1496 14.3371C17.3254 14.1613 17.5639 14.0625 17.8125 14.0625H25.3125C25.5611 14.0625 25.7996 14.1613 25.9754 14.3371C26.1512 14.5129 26.25 14.7514 26.25 15C26.25 15.2486 26.1512 15.4871 25.9754 15.6629C25.7996 15.8387 25.5611 15.9375 25.3125 15.9375H17.8125C17.5639 15.9375 17.3254 15.8387 17.1496 15.6629C16.9738 15.4871 16.875 15.2486 16.875 15ZM18.75 19.6875C18.75 19.4389 18.8488 19.2004 19.0246 19.0246C19.2004 18.8488 19.4389 18.75 19.6875 18.75H25.3125C25.5611 18.75 25.7996 18.8488 25.9754 19.0246C26.1512 19.2004 26.25 19.4389 26.25 19.6875C26.25 19.9361 26.1512 20.1746 25.9754 20.3504C25.7996 20.5262 25.5611 20.625 25.3125 20.625H19.6875C19.4389 20.625 19.2004 20.5262 19.0246 20.3504C18.8488 20.1746 18.75 19.9361 18.75 19.6875Z" fill="black"/>
<path d="M3.75 3.75C2.75544 3.75 1.80161 4.14509 1.09835 4.84835C0.395088 5.55161 0 6.50544 0 7.5L0 22.5C0 23.4946 0.395088 24.4484 1.09835 25.1516C1.80161 25.8549 2.75544 26.25 3.75 26.25H26.25C27.2446 26.25 28.1984 25.8549 28.9016 25.1516C29.6049 24.4484 30 23.4946 30 22.5V7.5C30 6.50544 29.6049 5.55161 28.9016 4.84835C28.1984 4.14509 27.2446 3.75 26.25 3.75H3.75ZM1.875 7.5C1.875 7.00272 2.07254 6.52581 2.42417 6.17417C2.77581 5.82254 3.25272 5.625 3.75 5.625H26.25C26.7473 5.625 27.2242 5.82254 27.5758 6.17417C27.9275 6.52581 28.125 7.00272 28.125 7.5V22.5C28.125 22.9973 27.9275 23.4742 27.5758 23.8258C27.2242 24.1775 26.7473 24.375 26.25 24.375H16.8C16.85 24.0688 16.875 23.7563 16.875 23.4375C16.875 19.8131 13.5188 16.875 9.375 16.875C5.46375 16.875 2.25 19.4962 1.905 22.8394C1.88472 22.7274 1.87468 22.6138 1.875 22.5V7.5Z" fill="black"/>
</svg>
