<svg width="30" height="30" viewBox="0 0 30 30" fill="none" xmlns="http://www.w3.org/2000/svg">
<path d="M27.7087 0.159375C27.8367 0.244945 27.9416 0.360692 28.0142 0.496399C28.0868 0.632105 28.1248 0.783597 28.125 0.9375V15C28.125 15.1872 28.0689 15.3701 27.9639 15.5252C27.859 15.6803 27.71 15.8004 27.5362 15.87L27.5306 15.8719L27.5194 15.8775L27.4762 15.8944C27.2298 15.9925 26.9816 16.0863 26.7319 16.1756C26.2369 16.3538 25.5487 16.5938 24.7687 16.8319C23.2388 17.3044 21.2456 17.8125 19.6875 17.8125C18.0994 17.8125 16.785 17.2875 15.6412 16.8281L15.5887 16.8094C14.4 16.3313 13.3875 15.9375 12.1875 15.9375C10.875 15.9375 9.11625 16.3687 7.61813 16.8319C6.94747 17.0413 6.28283 17.2695 5.625 17.5163V29.0625C5.625 29.3111 5.52623 29.5496 5.35041 29.7254C5.1746 29.9012 4.93614 30 4.6875 30C4.43886 30 4.2004 29.9012 4.02459 29.7254C3.84877 29.5496 3.75 29.3111 3.75 29.0625V0.9375C3.75 0.68886 3.84877 0.450403 4.02459 0.274587C4.2004 0.0987721 4.43886 0 4.6875 0C4.93614 0 5.1746 0.0987721 5.35041 0.274587C5.52623 0.450403 5.625 0.68886 5.625 0.9375V1.46625C6.04875 1.31813 6.555 1.1475 7.10625 0.97875C8.63625 0.51 10.6312 0 12.1875 0C13.7625 0 15.045 0.519375 16.1644 0.973125L16.245 1.00688C17.4112 1.4775 18.4275 1.875 19.6875 1.875C21 1.875 22.7588 1.44375 24.2569 0.980625C25.1104 0.713382 25.954 0.415692 26.7863 0.088125L26.8219 0.075L26.8294 0.07125H26.8313M26.25 2.28937C25.8375 2.43562 25.35 2.6025 24.8138 2.7675C23.295 3.24 21.3037 3.74812 19.6875 3.74812C18.0262 3.74812 16.7025 3.21187 15.5569 2.74688L15.5419 2.74125C14.3662 2.26875 13.3856 1.875 12.1875 1.875C10.9331 1.875 9.17625 2.30438 7.65938 2.77125C6.97512 2.98209 6.29674 3.21155 5.625 3.45938V15.5212C6.0375 15.375 6.525 15.2081 7.06125 15.0431C8.58 14.5687 10.5712 14.0625 12.1875 14.0625C13.7756 14.0625 15.09 14.5875 16.2338 15.0469L16.2863 15.0656C17.475 15.5437 18.4875 15.9375 19.6875 15.9375C20.94 15.9375 22.6987 15.5081 24.2156 15.0413C24.8999 14.8304 25.5783 14.601 26.25 14.3531V2.29125V2.28937Z" fill="black"/>
</svg>
