<svg width="30" height="30" viewBox="0 0 30 30" fill="none" xmlns="http://www.w3.org/2000/svg">
<path d="M15 17.75H10.5C9.94765 17.75 9.5001 18.1975 9.5001 18.7499C9.5001 19.3022 9.94805 19.7498 10.5 19.7498H15C15.5524 19.7498 15.9999 19.3022 15.9999 18.7499C15.9999 18.1975 15.5524 17.75 15 17.75ZM19.5 14H10.5C9.94765 14 9.5001 14.4478 9.5001 14.9999C9.5001 15.5518 9.94805 15.9998 10.5 15.9998H19.5C20.0524 15.9998 20.4999 15.5522 20.4999 14.9999C20.4999 14.4475 20.0524 14 19.5 14ZM19.5 6.5H10.5C9.94765 6.5 9.5001 6.94785 9.5001 7.4999C9.5001 8.05185 9.94805 8.4998 10.5 8.4998H19.5C20.0524 8.4998 20.4999 8.05195 20.4999 7.4999C20.4999 6.94795 20.0524 6.5 19.5 6.5ZM19.5 10.25H10.5C9.94765 10.25 9.5001 10.6978 9.5001 11.2499C9.5001 11.8018 9.94805 12.2498 10.5 12.2498H19.5C20.0524 12.2498 20.4999 11.8019 20.4999 11.2499C20.4999 10.6979 20.0524 10.25 19.5 10.25ZM27.5 21.5H23.4998V5C23.4998 3.06982 21.9298 1.5 20 1.5H5C3.06983 1.5 1.5 3.06992 1.5 5V7.4999C1.5 8.05225 1.94785 8.4998 2.4999 8.4998H6.4999V25.156C6.50019 26.9998 8.0002 28.4998 9.84415 28.4998H25.0004C26.9299 28.4998 28.5002 26.9296 28.5002 24.9998V22.4999C28.5002 21.9475 28.0526 21.5 27.5002 21.5H27.5ZM6.5 6.5H3.5V5C3.5 4.17285 4.17285 3.5 5 3.5C5.82715 3.5 6.5 4.17285 6.5 5V6.5ZM11.1875 22.5V25.1562C11.1875 25.8973 10.5848 26.4999 9.84385 26.4999C9.10283 26.4999 8.5002 25.8969 8.5002 25.1562L8.5001 5.00025C8.5001 4.46265 8.375 3.95532 8.15753 3.50025H20.0003C20.8274 3.50025 21.5003 4.1731 21.5003 5.00025V21.5002H12.1873C11.6349 21.5002 11.1874 21.9478 11.1874 22.5001L11.1875 22.5ZM26.5 24.9999C26.4997 25.8273 25.8272 26.4999 24.9997 26.4999H12.9055C13.0866 26.0883 13.1875 25.6335 13.1875 25.1562V23.4999H26.5L26.5 24.9999Z" fill="black"/>
</svg>
