<svg width="30" height="30" viewBox="0 0 30 30" fill="none" xmlns="http://www.w3.org/2000/svg">
<path fill-rule="evenodd" clip-rule="evenodd" d="M26.25 8.4375V26.25C26.25 27.2446 25.8549 28.1984 25.1516 28.9016C24.4484 29.6049 23.4946 30 22.5 30V28.125C22.9973 28.125 23.4742 27.9275 23.8258 27.5758C24.1775 27.2242 24.375 26.7473 24.375 26.25V8.4375H20.625C19.8791 8.4375 19.1637 8.14118 18.6363 7.61374C18.1088 7.08629 17.8125 6.37092 17.8125 5.625V1.875H7.5C7.00272 1.875 6.52581 2.07254 6.17417 2.42417C5.82254 2.77581 5.625 3.25272 5.625 3.75V20.625H3.75V3.75C3.75 2.75544 4.14509 1.80161 4.84835 1.09835C5.55161 0.395088 6.50544 0 7.5 0L17.8125 0L26.25 8.4375ZM6.61312 22.2188H4.93875L3.39562 24.9169H3.32812L1.76813 22.2188H0.0225L2.32312 25.9369L0 29.7188H1.61437L3.21375 27.0656H3.27937L4.87313 29.7188H6.57562L4.22438 25.9837L6.61312 22.2188ZM8.40187 29.7169V24.7294H8.47313L10.2581 28.7775H11.2256L12.9994 24.7275H13.0706V29.7169H14.4113V22.2188H12.9113L10.7737 27.0863H10.7269L8.5875 22.2188H7.07625V29.7169H8.40187ZM17.2331 28.4531H20.4131V29.7169H15.75V22.2188H17.2331V28.4531Z" fill="black"/>
</svg>
