<svg width="30" height="30" viewBox="0 0 30 30" fill="none" xmlns="http://www.w3.org/2000/svg">
<g clip-path="url(#clip0_3402_382)">
<path fill-rule="evenodd" clip-rule="evenodd" d="M26.25 8.4375V26.25C26.25 27.2446 25.8549 28.1984 25.1516 28.9016C24.4484 29.6049 23.4946 30 22.5 30H20.625V28.125H22.5C22.9973 28.125 23.4742 27.9275 23.8258 27.5758C24.1775 27.2242 24.375 26.7473 24.375 26.25V8.4375H20.625C19.8791 8.4375 19.1637 8.14118 18.6363 7.61374C18.1088 7.08629 17.8125 6.37092 17.8125 5.625V1.875H7.5C7.00272 1.875 6.52581 2.07254 6.17417 2.42417C5.82254 2.77581 5.625 3.25272 5.625 3.75V20.625H3.75V3.75C3.75 2.75544 4.14509 1.80161 4.84835 1.09835C5.55161 0.395088 6.50544 0 7.5 0L17.8125 0L26.25 8.4375ZM6.36938 27.8269C6.38011 28.1223 6.45255 28.4122 6.58204 28.678C6.71153 28.9438 6.8952 29.1795 7.12125 29.37C7.365 29.5725 7.66375 29.73 8.0175 29.8425C8.3725 29.9563 8.78813 30.0131 9.26437 30.0131C9.89812 30.0131 10.435 29.9144 10.875 29.7169C11.3175 29.5194 11.6544 29.2444 11.8856 28.8919C12.1194 28.5369 12.2362 28.1269 12.2362 27.6619C12.2362 27.2419 12.1525 26.8919 11.985 26.6119C11.8135 26.3309 11.571 26.1 11.2819 25.9425C10.9501 25.7583 10.5923 25.6255 10.2206 25.5487L9.05625 25.2788C8.78235 25.2264 8.52357 25.1137 8.29875 24.9487C8.2132 24.8828 8.14424 24.7977 8.09737 24.7004C8.05049 24.6031 8.027 24.4961 8.02875 24.3881C8.02875 24.0956 8.14437 23.8556 8.37562 23.6681C8.61063 23.4781 8.93062 23.3831 9.33562 23.3831C9.60313 23.3831 9.83438 23.4256 10.0294 23.5106C10.2098 23.5821 10.3687 23.699 10.4906 23.85C10.606 23.9892 10.6835 24.1558 10.7156 24.3337H12.1219C12.0977 23.9521 11.9678 23.5846 11.7469 23.2725C11.5106 22.9353 11.1863 22.6694 10.8094 22.5037C10.3492 22.301 9.84952 22.2036 9.34688 22.2188C8.79813 22.2188 8.31313 22.3125 7.89188 22.5C7.47063 22.6863 7.14125 22.9494 6.90375 23.2894C6.66625 23.6306 6.5475 24.03 6.5475 24.4875C6.5475 24.865 6.62375 25.1925 6.77625 25.47C6.93125 25.7487 7.15125 25.9781 7.43625 26.1581C7.72125 26.3369 8.05813 26.47 8.44688 26.5575L9.60563 26.8275C9.99312 26.9187 10.2825 27.0394 10.4738 27.1894C10.5668 27.2609 10.6413 27.3538 10.6909 27.4602C10.7405 27.5666 10.7638 27.6833 10.7587 27.8006C10.763 27.994 10.7073 28.1839 10.5994 28.3444C10.4786 28.5089 10.3124 28.6347 10.1212 28.7063C9.9125 28.7938 9.65438 28.8375 9.34688 28.8375C9.12813 28.8375 8.92813 28.8125 8.74687 28.7625C8.58065 28.7178 8.42336 28.6449 8.28187 28.5469C8.1572 28.4659 8.05045 28.3603 7.96821 28.2364C7.88598 28.1126 7.83 27.9732 7.80375 27.8269H6.36938ZM1.51125 25.6744C1.51125 25.2081 1.575 24.8125 1.7025 24.4875C1.81391 24.1881 2.01081 23.9279 2.26875 23.7394C2.53106 23.5619 2.84283 23.472 3.15937 23.4825C3.44062 23.4825 3.68937 23.5431 3.90562 23.6644C4.11693 23.7773 4.2933 23.9459 4.41563 24.1519C4.54631 24.3687 4.62344 24.6136 4.64062 24.8663H6.075V24.7312C6.06256 24.3859 5.97846 24.0468 5.82805 23.7357C5.67764 23.4245 5.46419 23.148 5.20125 22.9237C4.93306 22.6938 4.62121 22.5203 4.28438 22.4138C3.91883 22.2885 3.53449 22.227 3.14812 22.2319C2.48062 22.2319 1.91125 22.3713 1.44 22.65C0.97125 22.9275 0.61375 23.3225 0.3675 23.835C0.12375 24.3475 0.00125 24.9594 0 25.6706V26.6044C0 27.3144 0.120625 27.9244 0.361875 28.4344C0.608125 28.9431 0.965625 29.3344 1.43437 29.6081C1.90312 29.8794 2.47438 30.015 3.14812 30.015C3.69688 30.015 4.1875 29.9125 4.62 29.7075C5.0525 29.5025 5.39625 29.2188 5.65125 28.8563C5.90992 28.4839 6.05693 28.0455 6.075 27.5925V27.45H4.6425C4.62475 27.6914 4.54884 27.9249 4.42125 28.1306C4.29629 28.3297 4.12016 28.4916 3.91125 28.5994C3.67653 28.7109 3.41922 28.7667 3.15937 28.7625C2.84267 28.7709 2.53063 28.6847 2.26312 28.515C2.00612 28.3324 1.81062 28.0761 1.7025 27.78C1.56545 27.4036 1.50057 27.0048 1.51125 26.6044V25.6744ZM12.7125 28.6688C12.5892 28.4043 12.5185 28.1183 12.5044 27.8269H13.9369C13.9631 27.9732 14.0191 28.1126 14.1013 28.2364C14.1836 28.3603 14.2903 28.4659 14.415 28.5469C14.5475 28.6381 14.7038 28.7094 14.8837 28.7606C15.0613 28.8119 15.2606 28.8375 15.4819 28.8375C15.7881 28.8375 16.0462 28.7938 16.2563 28.7063C16.4474 28.6347 16.6136 28.5089 16.7344 28.3444C16.8423 28.1839 16.898 27.994 16.8938 27.8006C16.8986 27.6832 16.875 27.5663 16.8251 27.4599C16.7752 27.3535 16.7003 27.2607 16.6069 27.1894C16.4169 27.0394 16.1275 26.9187 15.7388 26.8275L14.58 26.5594C14.2226 26.4845 13.8808 26.3488 13.5694 26.1581C13.2944 25.9892 13.0678 25.7522 12.9113 25.47C12.7542 25.1667 12.675 24.829 12.6806 24.4875C12.6806 24.03 12.7994 23.6306 13.0369 23.2894C13.2744 22.9494 13.6038 22.6856 14.025 22.4981C14.4462 22.3106 14.9319 22.2175 15.4819 22.2188C16.0519 22.2188 16.5387 22.3137 16.9425 22.5037C17.35 22.695 17.6625 22.9513 17.88 23.2725C18.105 23.5912 18.23 23.945 18.255 24.3337H16.8488C16.8167 24.1558 16.7391 23.9892 16.6238 23.85C16.5018 23.699 16.3429 23.5821 16.1625 23.5106C15.9428 23.4197 15.7064 23.3763 15.4688 23.3831C15.0638 23.3831 14.7437 23.4781 14.5087 23.6681C14.3986 23.7525 14.31 23.8617 14.25 23.9868C14.1901 24.1119 14.1605 24.2494 14.1637 24.3881C14.1637 24.6131 14.2531 24.8006 14.4319 24.9506C14.6569 25.1149 14.9156 25.227 15.1894 25.2788L16.3538 25.5469C16.7612 25.6406 17.115 25.7725 17.415 25.9425C17.715 26.1125 17.9494 26.3363 18.1181 26.6138C18.2869 26.8913 18.3713 27.2412 18.3713 27.6637C18.3713 28.1262 18.2537 28.5362 18.0187 28.8937C17.7705 29.2618 17.4188 29.5482 17.0081 29.7169C16.5694 29.9144 16.0331 30.0131 15.3994 30.0131C14.9231 30.0131 14.5075 29.9569 14.1525 29.8444C13.8259 29.7466 13.5215 29.5861 13.2563 29.3719C13.0261 29.1798 12.8405 28.9399 12.7125 28.6688Z" fill="black"/>
</g>
<defs>
<clipPath id="clip0_3402_382">
<rect width="30" height="30" fill="white"/>
</clipPath>
</defs>
</svg>
