<svg width="30" height="30" viewBox="0 0 30 30" fill="none" xmlns="http://www.w3.org/2000/svg">
<path d="M1.875 5.30243C3.53437 4.60868 5.91375 3.86055 8.2275 3.62805C10.7213 3.3768 12.8363 3.74618 14.0625 5.03805V23.3118C12.3094 22.3181 10.0875 22.1812 8.03813 22.3874C5.82563 22.6124 3.59438 23.2518 1.875 23.9081V5.30243ZM15.9375 5.03805C17.1637 3.74618 19.2788 3.3768 21.7725 3.62805C24.0863 3.86055 26.4656 4.60868 28.125 5.30243V23.9081C26.4037 23.2518 24.1744 22.6106 21.9619 22.3893C19.9106 22.1812 17.6906 22.3162 15.9375 23.3118V5.03805ZM15 3.34305C13.1531 1.75493 10.4756 1.51868 8.03813 1.76243C5.19938 2.0493 2.33438 3.02243 0.549375 3.8343C0.385592 3.90879 0.246704 4.02884 0.149289 4.18012C0.0518751 4.33139 4.98214e-05 4.5075 0 4.68743L0 25.3124C4.34287e-05 25.4693 0.0394446 25.6236 0.114595 25.7613C0.189744 25.899 0.298241 26.0156 0.430145 26.1005C0.56205 26.1854 0.713146 26.2358 0.869594 26.2472C1.02604 26.2586 1.18284 26.2305 1.32563 26.1656C2.97938 25.4156 5.64375 24.5137 8.22563 24.2531C10.8675 23.9868 13.0819 24.4162 14.2688 25.8974C14.3566 26.0069 14.4679 26.0953 14.5945 26.156C14.721 26.2167 14.8596 26.2483 15 26.2483C15.1404 26.2483 15.279 26.2167 15.4055 26.156C15.5321 26.0953 15.6434 26.0069 15.7313 25.8974C16.9181 24.4162 19.1325 23.9868 21.7725 24.2531C24.3563 24.5137 27.0225 25.4156 28.6744 26.1656C28.8172 26.2305 28.974 26.2586 29.1304 26.2472C29.2869 26.2358 29.438 26.1854 29.5699 26.1005C29.7018 26.0156 29.8103 25.899 29.8854 25.7613C29.9606 25.6236 30 25.4693 30 25.3124V4.68743C30 4.5075 29.9481 4.33139 29.8507 4.18012C29.7533 4.02884 29.6144 3.90879 29.4506 3.8343C27.6656 3.02243 24.8006 2.0493 21.9619 1.76243C19.5244 1.5168 16.8469 1.75493 15 3.34305Z" fill="black"/>
<path fill-rule="evenodd" clip-rule="evenodd" d="M18 14C18 13.7348 18.1054 13.4804 18.2929 13.2929C18.4804 13.1054 18.7348 13 19 13H25C25.2652 13 25.5196 13.1054 25.7071 13.2929C25.8946 13.4804 26 13.7348 26 14C26 14.2652 25.8946 14.5196 25.7071 14.7071C25.5196 14.8946 25.2652 15 25 15H19C18.7348 15 18.4804 14.8946 18.2929 14.7071C18.1054 14.5196 18 14.2652 18 14ZM18 18C18 17.7348 18.1054 17.4804 18.2929 17.2929C18.4804 17.1054 18.7348 17 19 17H25C25.2652 17 25.5196 17.1054 25.7071 17.2929C25.8946 17.4804 26 17.7348 26 18C26 18.2652 25.8946 18.5196 25.7071 18.7071C25.5196 18.8946 25.2652 19 25 19H19C18.7348 19 18.4804 18.8946 18.2929 18.7071C18.1054 18.5196 18 18.2652 18 18Z" fill="black"/>
<path fill-rule="evenodd" clip-rule="evenodd" d="M22 10C22 9.73478 22.1054 9.48043 22.2929 9.29289C22.4804 9.10536 22.7348 9 23 9H25C25.2652 9 25.5195 9.10536 25.7071 9.29289C25.8946 9.48043 26 9.73478 26 10C26 10.2652 25.8946 10.5196 25.7071 10.7071C25.5195 10.8946 25.2652 11 25 11H23C22.7348 11 22.4804 10.8946 22.2929 10.7071C22.1054 10.5196 22 10.2652 22 10Z" fill="black"/>
<path d="M18.4393 8.43934C18.158 8.72064 18 9.10217 18 9.5C18 9.89782 18.158 10.2794 18.4393 10.5607C18.7206 10.842 19.1022 11 19.5 11C19.8978 11 20.2794 10.842 20.5607 10.5607C20.842 10.2794 21 9.89782 21 9.5C21 9.10217 20.842 8.72064 20.5607 8.43934C20.2794 8.15803 19.8978 8 19.5 8C19.1022 8 18.7206 8.15803 18.4393 8.43934Z" fill="black"/>
</svg>
