<svg width="30" height="30" viewBox="0 0 30 30" fill="none" xmlns="http://www.w3.org/2000/svg">
<g clip-path="url(#clip0_3402_407)">
<path fill-rule="evenodd" clip-rule="evenodd" d="M26.25 8.4375V26.25C26.25 27.2446 25.8549 28.1984 25.1516 28.9017C24.4484 29.6049 23.4946 30 22.5 30V28.125C22.9973 28.125 23.4742 27.9275 23.8258 27.5758C24.1775 27.2242 24.375 26.7473 24.375 26.25V8.4375H20.625C19.8791 8.4375 19.1637 8.14118 18.6363 7.61374C18.1088 7.08629 17.8125 6.37092 17.8125 5.625V1.875H7.5C7.00272 1.875 6.52581 2.07254 6.17417 2.42417C5.82254 2.77581 5.625 3.25272 5.625 3.75V20.625H3.75V3.75C3.75 2.75544 4.14509 1.80161 4.84835 1.09835C5.55161 0.395088 6.50544 0 7.5 0L17.8125 0L26.25 8.4375ZM0 27.8269C0.0107338 28.1223 0.0831747 28.4122 0.212665 28.678C0.342155 28.9438 0.525828 29.1795 0.751875 29.37C0.994375 29.5725 1.29313 29.73 1.64813 29.8425C2.00437 29.9563 2.42 30.0131 2.895 30.0131C3.52875 30.0131 4.065 29.9144 4.50375 29.7169C4.9475 29.5194 5.285 29.2444 5.51625 28.8919C5.7527 28.5258 5.87477 28.0976 5.86687 27.6619C5.86687 27.2419 5.7825 26.8919 5.61375 26.6119C5.4422 26.3309 5.1997 26.1 4.91062 25.9425C4.57942 25.7585 4.22224 25.6257 3.85125 25.5488L2.68687 25.2788C2.41232 25.2267 2.15287 25.114 1.9275 24.9488C1.8423 24.8826 1.7737 24.7975 1.72715 24.7001C1.68061 24.6028 1.6574 24.496 1.65937 24.3881C1.65937 24.0956 1.77437 23.8556 2.00437 23.6681C2.23813 23.4781 2.55875 23.3831 2.96625 23.3831C3.23375 23.3831 3.465 23.4256 3.66 23.5106C3.83977 23.5824 3.99799 23.6992 4.11938 23.85C4.23477 23.9892 4.31228 24.1558 4.34437 24.3338H5.75062C5.72699 23.9523 5.59781 23.5848 5.3775 23.2725C5.14123 22.9353 4.81695 22.6694 4.44 22.5038C3.97982 22.301 3.48014 22.2036 2.9775 22.2188C2.4275 22.2188 1.9425 22.3125 1.5225 22.5C1.10125 22.6863 0.77125 22.9494 0.5325 23.2894C0.295 23.6306 0.17625 24.03 0.17625 24.4875C0.17625 24.865 0.253125 25.1925 0.406875 25.47C0.560625 25.7475 0.78 25.9769 1.065 26.1581C1.35125 26.3369 1.68875 26.47 2.0775 26.5575L3.23625 26.8275C3.62375 26.9188 3.9125 27.0394 4.1025 27.1894C4.19592 27.2607 4.27077 27.3535 4.32071 27.4599C4.37065 27.5663 4.3942 27.6832 4.38938 27.8006C4.39361 27.994 4.33794 28.1839 4.23 28.3444C4.10869 28.5092 3.94185 28.635 3.75 28.7063C3.54125 28.7938 3.28312 28.8375 2.97563 28.8375C2.75563 28.8375 2.55562 28.8125 2.37562 28.7625C2.2094 28.7178 2.05211 28.6449 1.91063 28.5469C1.78595 28.4659 1.6792 28.3603 1.59696 28.2364C1.51473 28.1126 1.45875 27.9732 1.4325 27.8269H0ZM8.57812 29.8706H10.3631L12.8512 22.3725H11.2031L9.54 28.2563H9.46875L7.78687 22.3725H6.0675L8.57812 29.8706ZM18.8587 23.6963C19.0012 23.9813 19.0888 24.2888 19.1213 24.6188H17.6663C17.6328 24.4541 17.572 24.2963 17.4862 24.1519C17.4027 24.0146 17.2947 23.8939 17.1675 23.7956C17.036 23.6889 16.8851 23.6087 16.7231 23.5594C16.5409 23.5034 16.3512 23.4756 16.1606 23.4769C15.6269 23.4769 15.2119 23.6656 14.9156 24.0431C14.6219 24.4181 14.475 24.9494 14.475 25.6369V26.5688C14.475 27.0088 14.5356 27.3938 14.6569 27.7238C14.7683 28.0319 14.967 28.301 15.2287 28.4981C15.5154 28.6897 15.8555 28.7856 16.2 28.7719C16.496 28.7798 16.7896 28.7174 17.0569 28.59C17.2714 28.4783 17.4492 28.3071 17.5688 28.0969C17.6812 27.8919 17.7375 27.6644 17.7375 27.4144V26.9381H16.1944V25.8319H19.1494V27.3281C19.1494 27.6906 19.0894 28.0344 18.9694 28.3594C18.8486 28.6805 18.6614 28.9725 18.42 29.2163C18.1556 29.4758 17.8393 29.6764 17.4919 29.805C17.1219 29.9438 16.6856 30.0131 16.1831 30.0131C15.7016 30.0219 15.2229 29.9379 14.7731 29.7656C14.3899 29.6093 14.0475 29.3675 13.7719 29.0588C13.4989 28.7419 13.2951 28.3715 13.1737 27.9713C13.038 27.5182 12.9717 27.0473 12.9769 26.5744V25.6238C12.9769 24.9488 13.1012 24.3556 13.35 23.8444C13.6025 23.3369 13.9669 22.9412 14.4431 22.6575C14.9219 22.3725 15.5006 22.23 16.1794 22.23C16.6256 22.23 17.0225 22.2925 17.37 22.4175C17.7225 22.5425 18.0225 22.7144 18.27 22.9331C18.52 23.1531 18.7162 23.4075 18.8587 23.6963Z" fill="black"/>
</g>
<defs>
<clipPath id="clip0_3402_407">
<rect width="30" height="30" fill="white"/>
</clipPath>
</defs>
</svg>
