<svg width="30" height="30" viewBox="0 0 30 30" fill="none" xmlns="http://www.w3.org/2000/svg">
<g clip-path="url(#clip0_3407_48)">
<path d="M15.0003 0L27.3941 5.625H29.0628C29.3115 5.625 29.5499 5.72377 29.7257 5.89959C29.9016 6.0754 30.0003 6.31386 30.0003 6.5625V10.3125C30.0003 10.5611 29.9016 10.7996 29.7257 10.9754C29.5499 11.1512 29.3115 11.25 29.0628 11.25H28.1253V24.375C28.3347 24.3752 28.538 24.4454 28.7028 24.5745C28.8676 24.7037 28.9845 24.8842 29.0347 25.0875L29.9722 28.8375C30.0071 28.9756 30.0099 29.1199 29.9805 29.2592C29.9511 29.3986 29.8901 29.5294 29.8024 29.6416C29.7146 29.7538 29.6023 29.8444 29.4742 29.9065C29.346 29.9686 29.2053 30.0006 29.0628 30H0.93783C0.795388 30.0006 0.654692 29.9686 0.526509 29.9065C0.398327 29.8444 0.286057 29.7538 0.198292 29.6416C0.110527 29.5294 0.0495944 29.3986 0.020157 29.2592C-0.00928036 29.1199 -0.00644184 28.9756 0.0284554 28.8375L0.965955 25.0875C1.0162 24.8842 1.13305 24.7037 1.29786 24.5745C1.46267 24.4454 1.66596 24.3752 1.87533 24.375V11.25H0.93783C0.68919 11.25 0.450733 11.1512 0.274918 10.9754C0.0991024 10.7996 0.000330347 10.5611 0.000330347 10.3125V6.5625C0.000330347 6.31386 0.0991024 6.0754 0.274918 5.89959C0.450733 5.72377 0.68919 5.625 0.93783 5.625H2.60658L15.0003 0ZM7.08221 5.625H22.9203L15.0003 1.875L7.08221 5.625ZM3.75033 11.25V24.375H5.62533V11.25H3.75033ZM7.50033 11.25V24.375L22.5003 24.375V11.25L7.50033 11.25ZM24.3753 11.25V24.375H26.2503V11.25H24.3753ZM28.1253 9.375V7.5H1.87533V9.375H28.1253ZM27.3941 26.25H2.60658L2.13783 28.125H27.8628L27.3941 26.25Z" fill="black"/>
<path fill-rule="evenodd" clip-rule="evenodd" d="M15 13.4271C15.7994 12.9945 16.7843 12.9563 17.5916 13.03C18.7052 13.1321 19.8101 13.4739 20.4986 13.7578C20.6578 13.8235 20.7849 13.9259 20.8709 14.0468C20.9566 14.1676 20.9999 14.3044 21 14.4415V21.2411C21 21.3608 20.9669 21.4804 20.9014 21.5893C20.8358 21.6983 20.7382 21.7954 20.6131 21.8684C20.4875 21.9416 20.3393 21.9875 20.1817 21.9979C20.0241 22.0083 19.8681 21.9824 19.729 21.9251C19.1673 21.6939 18.2606 21.4176 17.4026 21.3392C16.5003 21.2567 15.96 21.4124 15.7066 21.6991C15.6278 21.7882 15.5244 21.864 15.4018 21.9173C15.279 21.9708 15.1414 21.9997 15 21.9997C14.8585 21.9997 14.721 21.9708 14.5981 21.9173C14.4756 21.864 14.3724 21.7885 14.2935 21.6993C14.0402 21.4127 13.4997 21.2567 12.5967 21.3392C11.7395 21.4176 10.8334 21.6938 10.2708 21.9252C10.1317 21.9824 9.97576 22.0083 9.81827 21.9979C9.6607 21.9875 9.51244 21.9416 9.38691 21.8684C9.26179 21.7954 9.1642 21.6983 9.0986 21.5893C9.03306 21.4804 9.00003 21.3609 8.99999 21.2413V14.4416C9.00003 14.3045 9.04339 14.1676 9.12912 14.0468C9.21504 13.9259 9.34219 13.8235 9.50135 13.7578C10.1899 13.4739 11.2946 13.1321 12.4082 13.0301C13.2148 12.9569 14.2004 12.9946 15 13.4271ZM19.2273 20.1313V14.9403C18.696 14.7629 18.0353 14.5973 17.4028 14.5396C16.6759 14.4732 16.181 14.5623 15.8864 14.7486V19.9066C16.4612 19.7813 17.0613 19.7814 17.5916 19.8302C18.1586 19.8816 18.7218 19.9955 19.2273 20.1313ZM14.1136 19.9069V14.7486C13.819 14.5623 13.3243 14.4732 12.5973 14.5396C11.9648 14.5973 11.304 14.7629 10.7727 14.9403V20.1314C11.2782 19.9956 11.8414 19.8818 12.4078 19.8296C12.9379 19.7813 13.5387 19.7815 14.1136 19.9069Z" fill="black"/>
</g>
<defs>
<clipPath id="clip0_3407_48">
<rect width="30" height="30" fill="white"/>
</clipPath>
</defs>
</svg>
