<svg width="30" height="30" viewBox="0 0 30 30" fill="none" xmlns="http://www.w3.org/2000/svg">
<path d="M8.84065 12.2662L6.26815 14.8387C5.21317 15.8937 4.62048 17.3246 4.62048 18.8166C4.62048 20.3085 5.21317 21.7394 6.26815 22.7944C7.32313 23.8494 8.75399 24.442 10.246 24.442C11.7379 24.442 13.1688 23.8494 14.2238 22.7944L17.6513 19.365C18.2875 18.7287 18.7617 17.9491 19.0343 17.0917C19.3068 16.2342 19.3697 15.3238 19.2176 14.437C19.0655 13.5502 18.7029 12.7128 18.1602 11.9951C17.6175 11.2775 16.9106 10.7004 16.0988 10.3125L15 11.4112C14.8884 11.523 14.7914 11.6483 14.7113 11.7844C15.3385 11.9647 15.9078 12.3056 16.3629 12.7734C16.8181 13.2411 17.1432 13.8196 17.3063 14.4515C17.4693 15.0835 17.4646 15.747 17.2926 16.3766C17.1207 17.0062 16.7873 17.58 16.3256 18.0412L12.9 21.4687C12.1964 22.1724 11.242 22.5677 10.2469 22.5677C9.25178 22.5677 8.29743 22.1724 7.59377 21.4687C6.89012 20.7651 6.49481 19.8107 6.49481 18.8156C6.49481 17.8205 6.89012 16.8662 7.59377 16.1625L9.08065 14.6775C8.87027 13.8915 8.78921 13.0783 8.84065 12.2662Z" fill="black"/>
<path d="M12.3488 8.76022C11.7126 9.39649 11.2383 10.1761 10.9658 11.0336C10.6933 11.8911 10.6304 12.8014 10.7825 13.6882C10.9346 14.575 11.2972 15.4124 11.8398 16.1301C12.3825 16.8478 13.0895 17.4248 13.9013 17.8127L15.3544 16.3577C14.7187 16.1872 14.139 15.8524 13.6737 15.3869C13.2084 14.9213 12.8738 14.3416 12.7036 13.7058C12.5333 13.07 12.5334 12.4006 12.7038 11.7648C12.8742 11.1291 13.209 10.5494 13.6744 10.084L17.1 6.65647C17.8037 5.95282 18.758 5.55751 19.7532 5.55751C20.7483 5.55751 21.7026 5.95282 22.4063 6.65647C23.1099 7.36012 23.5052 8.31448 23.5052 9.3096C23.5052 10.3047 23.1099 11.2591 22.4063 11.9627L20.9194 13.4477C21.1294 14.2352 21.21 15.0508 21.1594 15.8608L23.7319 13.2883C24.7869 12.2334 25.3796 10.8025 25.3796 9.31053C25.3796 7.81857 24.7869 6.3877 23.7319 5.33272C22.6769 4.27774 21.2461 3.68506 19.7541 3.68506C18.2621 3.68506 16.8313 4.27774 15.7763 5.33272L12.3488 8.76022Z" fill="black"/>
</svg>
