<svg width="30" height="30" viewBox="0 0 30 30" fill="none" xmlns="http://www.w3.org/2000/svg">
<g clip-path="url(#clip0_3402_383)">
<path fill-rule="evenodd" clip-rule="evenodd" d="M26.25 8.4375V26.25C26.25 27.2446 25.8549 28.1984 25.1516 28.9016C24.4484 29.6049 23.4946 30 22.5 30H20.625V28.125H22.5C22.9973 28.125 23.4742 27.9275 23.8258 27.5758C24.1775 27.2242 24.375 26.7473 24.375 26.25V8.4375H20.625C19.8791 8.4375 19.1637 8.14118 18.6363 7.61374C18.1088 7.08629 17.8125 6.37092 17.8125 5.625V1.875H7.5C7.00272 1.875 6.52581 2.07254 6.17417 2.42417C5.82254 2.77581 5.625 3.25272 5.625 3.75V20.625H3.75V3.75C3.75 2.75544 4.14509 1.80161 4.84835 1.09835C5.55161 0.395088 6.50544 0 7.5 0L17.8125 0L26.25 8.4375ZM6.59438 27.8269C6.60511 28.1223 6.67755 28.4122 6.80704 28.678C6.93653 28.9438 7.1202 29.1795 7.34625 29.37C7.59 29.5725 7.88875 29.73 8.2425 29.8425C8.5975 29.9563 9.01312 30.0131 9.48938 30.0131C10.1231 30.0131 10.66 29.9144 11.1 29.7169C11.5425 29.5194 11.8794 29.2444 12.1106 28.8919C12.3444 28.5369 12.4613 28.1269 12.4613 27.6619C12.4613 27.2419 12.3775 26.8919 12.21 26.6119C12.0385 26.3309 11.7959 26.1 11.5069 25.9425C11.1751 25.7583 10.8173 25.6255 10.4456 25.5487L9.28125 25.2788C9.00735 25.2264 8.74857 25.1137 8.52375 24.9487C8.4382 24.8828 8.36924 24.7977 8.32237 24.7004C8.27549 24.6031 8.252 24.4961 8.25375 24.3881C8.25375 24.0956 8.36938 23.8556 8.60063 23.6681C8.83562 23.4781 9.15563 23.3831 9.56063 23.3831C9.82812 23.3831 10.0594 23.4256 10.2544 23.5106C10.4348 23.5821 10.5937 23.699 10.7156 23.85C10.831 23.9892 10.9085 24.1558 10.9406 24.3337H12.3469C12.3227 23.9521 12.1929 23.5846 11.9719 23.2725C11.7356 22.9353 11.4113 22.6694 11.0344 22.5037C10.5742 22.301 10.0745 22.2036 9.57187 22.2188C9.02312 22.2188 8.53813 22.3125 8.11687 22.5C7.69562 22.6863 7.36625 22.9494 7.12875 23.2894C6.89125 23.6306 6.7725 24.03 6.7725 24.4875C6.7725 24.865 6.84875 25.1925 7.00125 25.47C7.15625 25.7487 7.37625 25.9781 7.66125 26.1581C7.94625 26.3369 8.28312 26.47 8.67188 26.5575L9.83063 26.8275C10.2181 26.9187 10.5075 27.0394 10.6987 27.1894C10.7918 27.2609 10.8663 27.3538 10.9159 27.4602C10.9655 27.5666 10.9888 27.6833 10.9837 27.8006C10.988 27.994 10.9323 28.1839 10.8244 28.3444C10.7036 28.5089 10.5374 28.6347 10.3463 28.7063C10.1375 28.7938 9.87938 28.8375 9.57187 28.8375C9.35312 28.8375 9.15312 28.8125 8.97187 28.7625C8.80565 28.7178 8.64836 28.6449 8.50688 28.5469C8.3822 28.4659 8.27545 28.3603 8.19321 28.2364C8.11098 28.1126 8.055 27.9732 8.02875 27.8269H6.59438ZM1.51125 25.6744C1.51125 25.2081 1.575 24.8125 1.7025 24.4875C1.81391 24.1881 2.01081 23.9279 2.26875 23.7394C2.53106 23.5619 2.84283 23.472 3.15937 23.4825C3.44062 23.4825 3.68937 23.5431 3.90562 23.6644C4.11693 23.7773 4.2933 23.9459 4.41563 24.1519C4.54631 24.3687 4.62344 24.6136 4.64062 24.8663H6.075V24.7312C6.06256 24.3859 5.97846 24.0468 5.82805 23.7357C5.67764 23.4245 5.46419 23.148 5.20125 22.9237C4.93306 22.6938 4.62121 22.5203 4.28438 22.4138C3.91883 22.2885 3.53449 22.227 3.14812 22.2319C2.48062 22.2319 1.91125 22.3713 1.44 22.65C0.97125 22.9275 0.61375 23.3225 0.3675 23.835C0.12375 24.3475 0.00125 24.9594 0 25.6706V26.6044C0 27.3144 0.120625 27.9244 0.361875 28.4344C0.608125 28.9431 0.965625 29.3344 1.43437 29.6081C1.90312 29.8794 2.47438 30.015 3.14812 30.015C3.69688 30.015 4.1875 29.9125 4.62 29.7075C5.0525 29.5025 5.39625 29.2188 5.65125 28.8563C5.90992 28.4839 6.05693 28.0455 6.075 27.5925V27.45H4.6425C4.62475 27.6914 4.54884 27.9249 4.42125 28.1306C4.29629 28.3297 4.12016 28.4916 3.91125 28.5994C3.67653 28.7109 3.41922 28.7667 3.15937 28.7625C2.84267 28.7709 2.53063 28.6847 2.26312 28.515C2.00612 28.3324 1.81062 28.0761 1.7025 27.78C1.56545 27.4036 1.50057 27.0048 1.51125 26.6044V25.6744ZM16.9594 29.8706H15.1725L12.6638 22.3725H14.3831L16.0631 28.2562H16.1344L17.7994 22.3725H19.4475L16.9594 29.8706Z" fill="black"/>
</g>
<defs>
<clipPath id="clip0_3402_383">
<rect width="30" height="30" fill="white"/>
</clipPath>
</defs>
</svg>
