<svg width="30" height="30" viewBox="0 0 30 30" fill="none" xmlns="http://www.w3.org/2000/svg">
<g clip-path="url(#clip0_3402_410)">
<path fill-rule="evenodd" clip-rule="evenodd" d="M26.25 8.4375V20.625H24.375V8.4375H20.625C19.8791 8.4375 19.1637 8.14118 18.6362 7.61374C18.1088 7.08629 17.8125 6.37092 17.8125 5.625V1.875H7.49998C7.0027 1.875 6.52578 2.07254 6.17415 2.42417C5.82252 2.77581 5.62498 3.25272 5.62498 3.75V20.625H3.74998V3.75C3.74998 2.75544 4.14506 1.80161 4.84833 1.09835C5.55159 0.395088 6.50541 0 7.49998 0L17.8125 0L26.25 8.4375ZM2.54248 28.6688C2.41916 28.4043 2.34848 28.1183 2.33435 27.8269H3.76873C3.79498 27.9732 3.85095 28.1126 3.93319 28.2364C4.01542 28.3603 4.12218 28.4659 4.24685 28.5469C4.3781 28.6381 4.53373 28.7094 4.71373 28.7606C4.89248 28.8119 5.09185 28.8375 5.31185 28.8375C5.61935 28.8375 5.87748 28.7938 6.08623 28.7063C6.27739 28.6347 6.44354 28.5089 6.56435 28.3444C6.67229 28.1839 6.72796 27.994 6.72373 27.8006C6.72855 27.6832 6.705 27.5663 6.65506 27.4599C6.60512 27.3535 6.53027 27.2607 6.43685 27.1894C6.2481 27.0394 5.95935 26.9187 5.5706 26.8275L4.40998 26.5594C4.05261 26.4845 3.71076 26.3488 3.39935 26.1581C3.12442 25.9892 2.89773 25.7522 2.74123 25.47C2.58418 25.1667 2.50493 24.829 2.5106 24.4875C2.5106 24.03 2.62935 23.6306 2.86685 23.2894C3.10435 22.9494 3.43435 22.6856 3.85685 22.4981C4.27685 22.3106 4.76185 22.2175 5.31185 22.2188C5.8831 22.2188 6.3706 22.3137 6.77435 22.5037C7.17935 22.695 7.49185 22.9513 7.71185 23.2725C7.93685 23.5912 8.06185 23.945 8.08685 24.3337H6.6806C6.6485 24.1558 6.571 23.9892 6.4556 23.85C6.33318 23.6987 6.17361 23.5818 5.99248 23.5106C5.77337 23.42 5.53762 23.3765 5.3006 23.3831C4.89435 23.3831 4.57373 23.4781 4.33873 23.6681C4.2286 23.7525 4.13996 23.8617 4.08001 23.9868C4.02006 24.1119 3.9905 24.2494 3.99373 24.3881C3.99373 24.6131 4.0831 24.8006 4.26185 24.9506C4.48739 25.1152 4.74683 25.2273 5.02123 25.2788L6.18373 25.5469C6.59123 25.6406 6.94498 25.7725 7.24498 25.9425C7.54498 26.1125 7.77935 26.3363 7.9481 26.6138C8.11685 26.8913 8.20123 27.2412 8.20123 27.6637C8.20123 28.1262 8.08373 28.5362 7.84873 28.8937C7.60044 29.2618 7.24881 29.5482 6.8381 29.7169C6.39935 29.9144 5.8631 30.0131 5.22935 30.0131C4.7531 30.0131 4.33748 29.9569 3.98248 29.8444C3.65588 29.7466 3.35146 29.5861 3.08623 29.3719C2.85603 29.1798 2.67047 28.9399 2.54248 28.6688ZM10.5562 24.4875C10.4171 24.8673 10.3516 25.2701 10.3631 25.6744V26.6025C10.3631 27.0637 10.4275 27.4556 10.5562 27.7781C10.6638 28.074 10.8587 28.3303 11.115 28.5131C11.3825 28.6829 11.6945 28.769 12.0112 28.7606C12.2712 28.7643 12.5285 28.7078 12.7631 28.5956C12.9725 28.4887 13.1492 28.3274 13.275 28.1287C13.4019 27.9229 13.4772 27.6894 13.4944 27.4481H14.9287V27.5906C14.9107 28.0436 14.7636 28.4821 14.505 28.8544C14.2405 29.2224 13.8852 29.5157 13.4737 29.7056C13.0119 29.9178 12.5081 30.0229 12 30.0131C11.325 30.0131 10.7537 29.8775 10.2862 29.6063C9.81668 29.335 9.44267 28.9249 9.2156 28.4325C8.97185 27.9225 8.8506 27.3125 8.85185 26.6025V25.6687C8.85185 24.9575 8.97498 24.3456 9.22123 23.8331C9.44963 23.3388 9.82219 22.925 10.29 22.6462C10.765 22.3687 11.335 22.23 12 22.23C12.41 22.23 12.7894 22.2906 13.1381 22.4119C13.4881 22.5281 13.7937 22.6981 14.055 22.9219C14.3188 23.1454 14.5329 23.4217 14.6834 23.7331C14.8338 24.0444 14.9174 24.3838 14.9287 24.7294V24.8663H13.4944C13.4769 24.6143 13.3998 24.3701 13.2694 24.1537C13.1468 23.9468 12.9697 23.7775 12.7575 23.6644C12.5287 23.54 12.2715 23.4773 12.0112 23.4825C11.6945 23.4725 11.3827 23.5631 11.1206 23.7412C10.8636 23.9296 10.6674 24.189 10.5562 24.4875ZM15.4481 27.8269C15.4588 28.1223 15.5313 28.4122 15.6608 28.678C15.7903 28.9438 15.9739 29.1795 16.2 29.37C16.4412 29.5725 16.74 29.73 17.0962 29.8425C17.4512 29.9563 17.8669 30.0131 18.3431 30.0131C18.9769 30.0131 19.5131 29.9144 19.9519 29.7169C20.3944 29.5194 20.7319 29.2444 20.9644 28.8919C21.2008 28.5258 21.3229 28.0976 21.315 27.6619C21.315 27.2419 21.2306 26.8919 21.0619 26.6119C20.8903 26.3309 20.6478 26.1 20.3587 25.9425C20.0269 25.7583 19.6691 25.6255 19.2975 25.5487L18.135 25.2788C17.8604 25.2267 17.601 25.114 17.3756 24.9487C17.2904 24.8826 17.2218 24.7975 17.1753 24.7001C17.1287 24.6028 17.1055 24.496 17.1075 24.3881C17.1075 24.0956 17.2225 23.8556 17.4525 23.6681C17.6875 23.4781 18.0081 23.3831 18.4144 23.3831C18.6806 23.3831 18.9112 23.4256 19.1062 23.5106C19.2867 23.5821 19.4456 23.699 19.5675 23.85C19.6829 23.9892 19.7604 24.1558 19.7925 24.3337H21.1987C21.1745 23.9521 21.0447 23.5846 20.8237 23.2725C20.5875 22.9353 20.2632 22.6694 19.8862 22.5037C19.426 22.301 18.9264 22.2036 18.4237 22.2188C17.8762 22.2188 17.3912 22.3125 16.9687 22.5C16.5487 22.6863 16.2194 22.9494 15.9806 23.2894C15.7431 23.6306 15.6244 24.03 15.6244 24.4875C15.6244 24.865 15.7012 25.1925 15.855 25.47C16.0087 25.7475 16.2281 25.9769 16.5131 26.1581C16.7981 26.3369 17.1356 26.47 17.5256 26.5575L18.6825 26.8275C19.0712 26.9187 19.3606 27.0394 19.5506 27.1894C19.644 27.2607 19.7189 27.3535 19.7688 27.4599C19.8188 27.5663 19.8423 27.6832 19.8375 27.8006C19.8417 27.994 19.786 28.1839 19.6781 28.3444C19.5573 28.5089 19.3911 28.6347 19.2 28.7063C18.9526 28.7992 18.6898 28.8438 18.4256 28.8375C18.2044 28.8375 18.0044 28.8125 17.8256 28.7625C17.6587 28.718 17.5008 28.6451 17.3587 28.5469C17.2341 28.4659 17.1273 28.3603 17.0451 28.2364C16.9628 28.1126 16.9069 27.9732 16.8806 27.8269H15.4481ZM22.0144 28.6688C21.8917 28.4041 21.8216 28.1182 21.8081 27.8269H23.2406C23.2669 27.9732 23.3228 28.1126 23.4051 28.2364C23.4873 28.3603 23.5941 28.4659 23.7187 28.5469C23.85 28.6381 24.0056 28.7094 24.1856 28.7606C24.3644 28.8119 24.5637 28.8375 24.7837 28.8375C25.0912 28.8375 25.3494 28.7938 25.5581 28.7063C25.7493 28.6347 25.9154 28.5089 26.0362 28.3444C26.1442 28.1839 26.1998 27.994 26.1956 27.8006C26.2006 27.6833 26.1774 27.5666 26.1278 27.4602C26.0782 27.3538 26.0037 27.2609 25.9106 27.1894C25.7194 27.0394 25.43 26.9187 25.0425 26.8275L23.8837 26.5594C23.5257 26.4847 23.1832 26.349 22.8712 26.1581C22.5963 25.9892 22.3696 25.7522 22.2131 25.47C22.0561 25.1667 21.9768 24.829 21.9825 24.4875C21.9825 24.03 22.1012 23.6306 22.3387 23.2894C22.5762 22.9494 22.9062 22.6856 23.3287 22.4981C23.7487 22.3106 24.2337 22.2175 24.7837 22.2188C25.3562 22.2188 25.8437 22.3137 26.2462 22.5037C26.6512 22.695 26.9637 22.9513 27.1837 23.2725C27.4087 23.5912 27.5337 23.945 27.5587 24.3337H26.1525C26.1204 24.1558 26.0429 23.9892 25.9275 23.85C25.8051 23.6987 25.6455 23.5818 25.4644 23.5106C25.2452 23.42 25.0095 23.3765 24.7725 23.3831C24.3662 23.3831 24.0462 23.4781 23.8125 23.6681C23.702 23.7523 23.613 23.8614 23.5527 23.9865C23.4924 24.1117 23.4626 24.2493 23.4656 24.3881C23.4656 24.6131 23.555 24.8006 23.7337 24.9506C23.9593 25.1152 24.2187 25.2273 24.4931 25.2788L25.6556 25.5469C26.0631 25.6406 26.4169 25.7725 26.7169 25.9425C27.0169 26.1125 27.2512 26.3363 27.42 26.6138C27.5887 26.8913 27.6731 27.2412 27.6731 27.6637C27.6731 28.1262 27.5562 28.5362 27.3225 28.8937C27.0737 29.2621 26.7214 29.5485 26.31 29.7169C25.8712 29.9144 25.335 30.0131 24.7012 30.0131C24.225 30.0131 23.8094 29.9569 23.4544 29.8444C23.1278 29.7466 22.8233 29.5861 22.5581 29.3719C22.3279 29.1798 22.1423 28.9399 22.0144 28.6688Z" fill="black"/>
</g>
<defs>
<clipPath id="clip0_3402_410">
<rect width="30" height="30" fill="white"/>
</clipPath>
</defs>
</svg>
