<svg width="30" height="30" viewBox="0 0 30 30" fill="none" xmlns="http://www.w3.org/2000/svg">
<path d="M12.7312 9.54929C12.5911 9.44948 12.4261 9.39018 12.2545 9.37788C12.0828 9.36559 11.9111 9.40078 11.7581 9.47959C11.6052 9.5584 11.4768 9.67779 11.3872 9.82469C11.2976 9.97159 11.2501 10.1403 11.25 10.3124V19.6874C11.2501 19.8595 11.2976 20.0282 11.3872 20.1751C11.4768 20.322 11.6052 20.4414 11.7581 20.5202C11.9111 20.599 12.0828 20.6342 12.2545 20.6219C12.4261 20.6096 12.5911 20.5503 12.7312 20.4505L19.2937 15.763C19.4153 15.6763 19.5143 15.5618 19.5827 15.4291C19.651 15.2963 19.6867 15.1492 19.6867 14.9999C19.6867 14.8506 19.651 14.7035 19.5827 14.5707C19.5143 14.438 19.4153 14.3235 19.2937 14.2368L12.7312 9.54929Z" fill="black"/>
<path d="M0 7.5C0 6.50544 0.395088 5.55161 1.09835 4.84835C1.80161 4.14509 2.75544 3.75 3.75 3.75H26.25C27.2446 3.75 28.1984 4.14509 28.9016 4.84835C29.6049 5.55161 30 6.50544 30 7.5V22.5C30 23.4946 29.6049 24.4484 28.9016 25.1516C28.1984 25.8549 27.2446 26.25 26.25 26.25H3.75C2.75544 26.25 1.80161 25.8549 1.09835 25.1516C0.395088 24.4484 0 23.4946 0 22.5V7.5ZM28.125 7.5C28.125 7.00272 27.9275 6.52581 27.5758 6.17417C27.2242 5.82254 26.7473 5.625 26.25 5.625H3.75C3.25272 5.625 2.77581 5.82254 2.42417 6.17417C2.07254 6.52581 1.875 7.00272 1.875 7.5V22.5C1.875 22.9973 2.07254 23.4742 2.42417 23.8258C2.77581 24.1775 3.25272 24.375 3.75 24.375H26.25C26.7473 24.375 27.2242 24.1775 27.5758 23.8258C27.9275 23.4742 28.125 22.9973 28.125 22.5V7.5Z" fill="black"/>
</svg>
