<svg width="30" height="30" viewBox="0 0 30 30" fill="none" xmlns="http://www.w3.org/2000/svg">
<path d="M1.875 5.30243C3.53437 4.60868 5.91375 3.86055 8.2275 3.62805C10.7213 3.3768 12.8363 3.74618 14.0625 5.03805V23.3118C12.3094 22.3181 10.0875 22.1812 8.03813 22.3874C5.82563 22.6124 3.59437 23.2518 1.875 23.9081V5.30243ZM15.9375 5.03805C17.1637 3.74618 19.2788 3.3768 21.7725 3.62805C24.0863 3.86055 26.4656 4.60868 28.125 5.30243V23.9081C26.4037 23.2518 24.1744 22.6106 21.9619 22.3893C19.9106 22.1812 17.6906 22.3162 15.9375 23.3118V5.03805ZM15 3.34305C13.1531 1.75493 10.4756 1.51868 8.03813 1.76243C5.19938 2.0493 2.33438 3.02243 0.549375 3.8343C0.385592 3.90879 0.246704 4.02884 0.149289 4.18012C0.051875 4.33139 4.98214e-05 4.5075 0 4.68743L0 25.3124C4.34287e-05 25.4693 0.0394446 25.6236 0.114595 25.7613C0.189744 25.899 0.298241 26.0156 0.430145 26.1005C0.56205 26.1854 0.713146 26.2358 0.869594 26.2472C1.02604 26.2586 1.18284 26.2305 1.32563 26.1656C2.97938 25.4156 5.64375 24.5137 8.22563 24.2531C10.8675 23.9868 13.0819 24.4162 14.2688 25.8974C14.3566 26.0069 14.4679 26.0953 14.5945 26.156C14.721 26.2167 14.8596 26.2483 15 26.2483C15.1404 26.2483 15.279 26.2167 15.4055 26.156C15.5321 26.0953 15.6434 26.0069 15.7313 25.8974C16.9181 24.4162 19.1325 23.9868 21.7725 24.2531C24.3563 24.5137 27.0225 25.4156 28.6744 26.1656C28.8172 26.2305 28.974 26.2586 29.1304 26.2472C29.2869 26.2358 29.438 26.1854 29.5699 26.1005C29.7018 26.0156 29.8103 25.899 29.8854 25.7613C29.9606 25.6236 30 25.4693 30 25.3124V4.68743C30 4.5075 29.9481 4.33139 29.8507 4.18012C29.7533 4.02884 29.6144 3.90879 29.4506 3.8343C27.6656 3.02243 24.8006 2.0493 21.9619 1.76243C19.5244 1.5168 16.8469 1.75493 15 3.34305Z" fill="black"/>
</svg>
