<svg width="30" height="30" viewBox="0 0 30 30" fill="none" xmlns="http://www.w3.org/2000/svg">
<path d="M8.44122 16.875C9.18714 16.875 9.90251 16.5787 10.43 16.0512C10.9574 15.5238 11.2537 14.8084 11.2537 14.0625C11.2537 13.3166 10.9574 12.6012 10.43 12.0738C9.90251 11.5463 9.18714 11.25 8.44122 11.25C7.6953 11.25 6.97993 11.5463 6.45248 12.0738C5.92504 12.6012 5.62872 13.3166 5.62872 14.0625C5.62872 14.8084 5.92504 15.5238 6.45248 16.0512C6.97993 16.5787 7.6953 16.875 8.44122 16.875Z" fill="black"/>
<path d="M26.2537 24.375C26.2537 25.3696 25.8586 26.3234 25.1554 27.0266C24.4521 27.7299 23.4983 28.125 22.5037 28.125H3.75372C2.75916 28.125 1.80533 27.7299 1.10207 27.0266C0.398811 26.3234 0.00372314 25.3696 0.00372314 24.375V9.375C0.00372265 8.38109 0.398296 7.42783 1.10075 6.72467C1.8032 6.02152 2.75606 5.62599 3.74997 5.625C3.74997 4.63044 4.14506 3.67661 4.84832 2.97335C5.55158 2.27009 6.50541 1.875 7.49997 1.875H26.25C27.2445 1.875 28.1984 2.27009 28.9016 2.97335C29.6049 3.67661 30 4.63044 30 5.625V20.625C30 21.6189 29.6054 22.5722 28.903 23.2753C28.2005 23.9785 27.2476 24.374 26.2537 24.375ZM26.25 3.75H7.49997C7.00269 3.75 6.52578 3.94754 6.17415 4.29917C5.82252 4.65081 5.62497 5.12772 5.62497 5.625H22.5037C23.4983 5.625 24.4521 6.02009 25.1554 6.72335C25.8586 7.42661 26.2537 8.38044 26.2537 9.375V22.5C26.7504 22.499 27.2263 22.301 27.5771 21.9495C27.9279 21.598 28.125 21.1216 28.125 20.625V5.625C28.125 5.12772 27.9274 4.65081 27.5758 4.29917C27.2242 3.94754 26.7473 3.75 26.25 3.75ZM3.75372 7.5C3.25644 7.5 2.77953 7.69754 2.4279 8.04918C2.07627 8.40081 1.87872 8.87772 1.87872 9.375V24.375L6.83997 19.9613C6.99322 19.8086 7.19456 19.7136 7.40986 19.6924C7.62515 19.6712 7.84115 19.7251 8.02122 19.845L13.0087 23.1694L19.965 16.2131C20.104 16.074 20.2833 15.982 20.4775 15.9504C20.6716 15.9188 20.8708 15.949 21.0468 16.0369L24.3787 19.6875V9.375C24.3787 8.87772 24.1812 8.40081 23.8295 8.04918C23.4779 7.69754 23.001 7.5 22.5037 7.5H3.75372Z" fill="black"/>
</svg>
