<svg width="30" height="30" viewBox="0 0 30 30" fill="none" xmlns="http://www.w3.org/2000/svg">
<path d="M11.25 12.9055V20.8442C11.25 21.0101 11.2939 21.173 11.3774 21.3163C11.4609 21.4597 11.581 21.5783 11.7253 21.66C11.8696 21.7418 12.033 21.7839 12.1989 21.7818C12.3647 21.7798 12.5271 21.7339 12.6694 21.6486L19.2844 17.6792C19.4234 17.596 19.5385 17.4781 19.6184 17.3372C19.6983 17.1962 19.7403 17.0369 19.7403 16.8748C19.7403 16.7128 19.6983 16.5535 19.6184 16.4125C19.5385 16.2716 19.4234 16.1537 19.2844 16.0705L12.6694 12.1011C12.527 12.0158 12.3644 11.9698 12.1984 11.9678C12.0324 11.9659 11.8688 12.0081 11.7245 12.0901C11.5801 12.1721 11.4601 12.291 11.3767 12.4346C11.2934 12.5782 11.2496 12.7394 11.25 12.9055Z" fill="black"/>
<path d="M26.25 26.25V8.4375L17.8125 0H7.5C6.50544 0 5.55161 0.395088 4.84835 1.09835C4.14509 1.80161 3.75 2.75544 3.75 3.75V26.25C3.75 27.2446 4.14509 28.1984 4.84835 28.9016C5.55161 29.6049 6.50544 30 7.5 30H22.5C23.4946 30 24.4484 29.6049 25.1516 28.9016C25.8549 28.1984 26.25 27.2446 26.25 26.25ZM17.8125 5.625C17.8125 6.37092 18.1088 7.08629 18.6363 7.61374C19.1637 8.14118 19.8791 8.4375 20.625 8.4375H24.375V26.25C24.375 26.7473 24.1775 27.2242 23.8258 27.5758C23.4742 27.9275 22.9973 28.125 22.5 28.125H7.5C7.00272 28.125 6.52581 27.9275 6.17417 27.5758C5.82254 27.2242 5.625 26.7473 5.625 26.25V3.75C5.625 3.25272 5.82254 2.77581 6.17417 2.42417C6.52581 2.07254 7.00272 1.875 7.5 1.875H17.8125V5.625Z" fill="black"/>
</svg>
