<svg width="30" height="30" viewBox="0 0 30 30" fill="none" xmlns="http://www.w3.org/2000/svg">
<path d="M27.1875 4.21875H2.8125C1.26562 4.21875 0 5.48438 0 7.03125V22.9688C0 24.5156 1.26562 25.7812 2.8125 25.7812H27.1875C28.7344 25.7812 30 24.5156 30 22.9688V7.03125C30 5.48438 28.7344 4.21875 27.1875 4.21875ZM28.125 22.9688C28.125 23.4844 27.7031 23.9062 27.1875 23.9062H24.8438L23.625 21.7969C23.3906 21.375 22.9219 21.0938 22.4062 21.0938H7.59375C7.07812 21.0938 6.60938 21.375 6.375 21.7969L5.15625 23.9062H2.8125C2.29688 23.9062 1.875 23.4844 1.875 22.9688V7.03125C1.875 6.51562 2.29688 6.09375 2.8125 6.09375H27.1875C27.7031 6.09375 28.125 6.51562 28.125 7.03125V22.9688Z" fill="black"/>
<path d="M21.0938 9.375H8.90625C6.5625 9.375 4.6875 11.25 4.6875 13.5938C4.6875 15.9375 6.5625 17.8125 8.90625 17.8125H21.0938C23.4375 17.8125 25.3125 15.9375 25.3125 13.5938C25.3125 11.25 23.4375 9.375 21.0938 9.375ZM17.5782 11.25C17.1095 11.9062 16.8751 12.75 16.8751 13.5938C16.8751 14.4375 17.1564 15.2812 17.5782 15.9375H12.422C12.8907 15.2812 13.1251 14.4375 13.1251 13.5938C13.1251 12.75 12.8439 11.9062 12.422 11.25H17.5782ZM6.56275 13.5938C6.56275 12.2812 7.594 11.25 8.9065 11.25C10.219 11.25 11.2503 12.2812 11.2503 13.5938C11.2503 14.9062 10.219 15.9375 8.9065 15.9375C7.594 15.9375 6.56275 14.9062 6.56275 13.5938ZM21.094 15.9375C19.7815 15.9375 18.7503 14.9062 18.7503 13.5938C18.7503 12.2812 19.7815 11.25 21.094 11.25C22.4065 11.25 23.4377 12.2812 23.4377 13.5938C23.4377 14.9062 22.4065 15.9375 21.094 15.9375Z" fill="black"/>
</svg>
