<svg width="30" height="30" viewBox="0 0 30 30" fill="none" xmlns="http://www.w3.org/2000/svg">
<g clip-path="url(#clip0_3402_412)">
<path fill-rule="evenodd" clip-rule="evenodd" d="M26.2501 8.4375V26.25C26.2501 27.2446 25.855 28.1984 25.1517 28.9016C24.4485 29.6049 23.4947 30 22.5001 30H15.0001V28.125H22.5001C22.9974 28.125 23.4743 27.9275 23.8259 27.5758C24.1775 27.2242 24.3751 26.7473 24.3751 26.25V8.4375H20.6251C19.8792 8.4375 19.1638 8.14118 18.6364 7.61374C18.1089 7.08629 17.8126 6.37092 17.8126 5.625V1.875H7.50009C7.00281 1.875 6.5259 2.07254 6.17427 2.42417C5.82264 2.77581 5.62509 3.25272 5.62509 3.75V20.625H3.75009V3.75C3.75009 2.75544 4.14518 1.80161 4.84844 1.09835C5.55171 0.395088 6.50553 0 7.50009 0L17.8126 0L26.2501 8.4375ZM5.97384 28.6688C5.85053 28.4043 5.77985 28.1183 5.76572 27.8269H7.20009C7.22635 27.9732 7.28232 28.1126 7.36456 28.2364C7.44679 28.3603 7.55354 28.4659 7.67822 28.5469C7.80947 28.6381 7.96509 28.7094 8.14509 28.7606C8.32384 28.8119 8.52322 28.8375 8.74322 28.8375C9.05072 28.8375 9.30884 28.7938 9.51759 28.7063C9.70876 28.6347 9.87491 28.5089 9.99572 28.3444C10.1037 28.1839 10.1593 27.994 10.1551 27.8006C10.1599 27.6832 10.1364 27.5663 10.0864 27.4599C10.0365 27.3535 9.96164 27.2607 9.86822 27.1894C9.67947 27.0394 9.39072 26.9187 9.00197 26.8275L7.84134 26.5594C7.48397 26.4845 7.14213 26.3488 6.83072 26.1581C6.55579 25.9892 6.3291 25.7522 6.17259 25.47C6.01554 25.1667 5.9363 24.829 5.94197 24.4875C5.94197 24.03 6.06072 23.6306 6.29822 23.2894C6.53572 22.9494 6.86572 22.6856 7.28822 22.4981C7.70822 22.3106 8.19322 22.2175 8.74322 22.2188C9.31447 22.2188 9.80197 22.3137 10.2057 22.5037C10.6107 22.695 10.9232 22.9513 11.1432 23.2725C11.3682 23.5912 11.4932 23.945 11.5182 24.3337H10.112C10.0799 24.1558 10.0024 23.9892 9.88697 23.85C9.76455 23.6987 9.60497 23.5818 9.42384 23.5106C9.20474 23.42 8.96899 23.3765 8.73197 23.3831C8.32572 23.3831 8.00509 23.4781 7.77009 23.6681C7.65997 23.7525 7.57133 23.8617 7.51138 23.9868C7.45143 24.1119 7.42187 24.2494 7.42509 24.3881C7.42509 24.6131 7.51447 24.8006 7.69322 24.9506C7.91876 25.1152 8.1782 25.2273 8.45259 25.2788L9.61509 25.5469C10.0238 25.6406 10.3776 25.7725 10.6763 25.9425C10.9763 26.1125 11.2107 26.3363 11.3795 26.6138C11.5482 26.8913 11.6326 27.2412 11.6326 27.6637C11.6326 28.1262 11.5151 28.5362 11.2801 28.8937C11.0318 29.2618 10.6802 29.5482 10.2695 29.7169C9.83072 29.9144 9.29447 30.0131 8.66072 30.0131C8.18447 30.0131 7.76884 29.9569 7.41384 29.8444C7.08725 29.7466 6.78283 29.5861 6.51759 29.3719C6.2874 29.1798 6.10184 28.9399 5.97384 28.6688ZM0.153845 28.6069C0.0495771 28.3275 -0.00253589 28.0313 9.48522e-05 27.7331H1.43447C1.43958 27.9103 1.48648 28.0838 1.57134 28.2394C1.65783 28.3864 1.78281 28.5071 1.93282 28.5884C2.08282 28.6697 2.25217 28.7085 2.42259 28.7006C2.77884 28.7006 3.04259 28.5981 3.21384 28.3931C3.38634 28.1869 3.47259 27.8956 3.47259 27.5194V22.3725H4.95384V27.4819C4.95384 28.3069 4.73072 28.935 4.28447 29.3662C3.84197 29.7975 3.22697 30.0131 2.43947 30.0131C2.0761 30.0195 1.71461 29.9598 1.37259 29.8369C1.08558 29.7269 0.825391 29.5569 0.60947 29.3381C0.407809 29.1292 0.252547 28.88 0.153845 28.6069Z" fill="black"/>
</g>
<defs>
<clipPath id="clip0_3402_412">
<rect width="30" height="30" fill="white"/>
</clipPath>
</defs>
</svg>
