<svg width="30" height="30" viewBox="0 0 30 30" fill="none" xmlns="http://www.w3.org/2000/svg">
<path d="M7.00012 0C4.82296 0 3 1.8229 3 4.00007V26.6668C3 28.496 4.50401 30 6.33328 30H26C26.5236 30 26.9998 29.5236 27 29V7.00021C26.9967 6.41318 26.572 5.99503 26 6.00019C25.0379 6.00019 23.9999 4.96246 23.9999 4.00016C23.9999 3.03807 25.0377 2.00012 26 2.00012C26.5283 2.00753 27 1.52856 27 1.00011C27 0.471692 26.5283 -0.00732131 26 8.88407e-05L7.00012 0ZM7.00012 2.00003H22.5524C22.2033 2.5917 22.0003 3.27608 22.0003 4.00007C22.0003 4.72406 22.2033 5.40844 22.5524 6.00011H7.00012C6.03802 6.00011 5.00006 4.96238 5.00006 4.00007C5.00006 3.03799 6.0378 2.00003 7.00012 2.00003ZM5.00006 7.44782C5.59103 7.79603 6.27713 7.99988 7.00012 7.99988H25.0004V27.9998H6.33364C5.57757 27.9998 5.00024 27.4224 5.00024 26.6664L5.00006 7.44782Z" fill="black"/>
<path d="M11 21.8764V13.9377C11 13.7718 11.0439 13.6089 11.1274 13.4656C11.2109 13.3223 11.331 13.2037 11.4753 13.1219C11.6196 13.0401 11.783 12.9981 11.9489 13.0001C12.1147 13.0021 12.2771 13.0481 12.4194 13.1333L19.0344 17.1027C19.1734 17.1859 19.2885 17.3038 19.3684 17.4448C19.4483 17.5857 19.4903 17.745 19.4903 17.9071C19.4903 18.0691 19.4483 18.2284 19.3684 18.3694C19.2885 18.5104 19.1734 18.6282 19.0344 18.7114L12.4194 22.6808C12.277 22.7662 12.1144 22.8122 11.9484 22.8141C11.7824 22.816 11.6188 22.7738 11.4745 22.6918C11.3301 22.6098 11.2101 22.4909 11.1267 22.3473C11.0434 22.2038 10.9996 22.0425 11 21.8764Z" fill="black"/>
</svg>
