<svg width="30" height="30" viewBox="0 0 30 30" fill="none" xmlns="http://www.w3.org/2000/svg">
<path d="M26.25 1.875C26.7473 1.875 27.2242 2.07254 27.5758 2.42417C27.9275 2.77581 28.125 3.25272 28.125 3.75V18.75C28.125 19.2473 27.9275 19.7242 27.5758 20.0758C27.2242 20.4275 26.7473 20.625 26.25 20.625H8.27625C7.28177 20.6252 6.3281 21.0204 5.625 21.7238L1.875 25.4738V3.75C1.875 3.25272 2.07254 2.77581 2.42417 2.42417C2.77581 2.07254 3.25272 1.875 3.75 1.875H26.25ZM3.75 0C2.75544 0 1.80161 0.395088 1.09835 1.09835C0.395088 1.80161 0 2.75544 0 3.75L0 27.7369C3.94029e-05 27.9224 0.0551111 28.1037 0.158245 28.2579C0.261379 28.4121 0.407938 28.5322 0.579374 28.6031C0.750809 28.6739 0.939414 28.6924 1.12132 28.656C1.30322 28.6196 1.47024 28.5301 1.60125 28.3988L6.95062 23.0494C7.30217 22.6977 7.77901 22.5001 8.27625 22.5H26.25C27.2446 22.5 28.1984 22.1049 28.9016 21.4016C29.6049 20.6984 30 19.7446 30 18.75V3.75C30 2.75544 29.6049 1.80161 28.9016 1.09835C28.1984 0.395088 27.2446 0 26.25 0L3.75 0Z" fill="black"/>
<path d="M5.625 6.5625C5.625 6.31386 5.72377 6.0754 5.89959 5.89959C6.0754 5.72377 6.31386 5.625 6.5625 5.625H23.4375C23.6861 5.625 23.9246 5.72377 24.1004 5.89959C24.2762 6.0754 24.375 6.31386 24.375 6.5625C24.375 6.81114 24.2762 7.0496 24.1004 7.22541C23.9246 7.40123 23.6861 7.5 23.4375 7.5H6.5625C6.31386 7.5 6.0754 7.40123 5.89959 7.22541C5.72377 7.0496 5.625 6.81114 5.625 6.5625ZM5.625 11.25C5.625 11.0014 5.72377 10.7629 5.89959 10.5871C6.0754 10.4113 6.31386 10.3125 6.5625 10.3125H23.4375C23.6861 10.3125 23.9246 10.4113 24.1004 10.5871C24.2762 10.7629 24.375 11.0014 24.375 11.25C24.375 11.4986 24.2762 11.7371 24.1004 11.9129C23.9246 12.0887 23.6861 12.1875 23.4375 12.1875H6.5625C6.31386 12.1875 6.0754 12.0887 5.89959 11.9129C5.72377 11.7371 5.625 11.4986 5.625 11.25ZM5.625 15.9375C5.625 15.6889 5.72377 15.4504 5.89959 15.2746C6.0754 15.0988 6.31386 15 6.5625 15H15.9375C16.1861 15 16.4246 15.0988 16.6004 15.2746C16.7762 15.4504 16.875 15.6889 16.875 15.9375C16.875 16.1861 16.7762 16.4246 16.6004 16.6004C16.4246 16.7762 16.1861 16.875 15.9375 16.875H6.5625C6.31386 16.875 6.0754 16.7762 5.89959 16.6004C5.72377 16.4246 5.625 16.1861 5.625 15.9375Z" fill="black"/>
</svg>
