<svg width="30" height="30" viewBox="0 0 30 30" fill="none" xmlns="http://www.w3.org/2000/svg">
<g clip-path="url(#clip0_3402_387)">
<path fill-rule="evenodd" clip-rule="evenodd" d="M26.25 8.4375V20.625H24.375V8.4375H20.625C19.8791 8.4375 19.1637 8.14118 18.6363 7.61374C18.1088 7.08629 17.8125 6.37092 17.8125 5.625V1.875H7.5C7.00272 1.875 6.5258 2.07254 6.17417 2.42417C5.82254 2.77581 5.625 3.25272 5.625 3.75V20.625H3.75V3.75C3.75 2.75544 4.14509 1.80161 4.84835 1.09835C5.55161 0.395088 6.50544 0 7.5 0L17.8125 0L26.25 8.4375ZM13.4269 26.6025V25.6238C13.4427 25.2119 13.3678 24.8016 13.2075 24.4219C13.0831 24.1252 12.8729 23.8725 12.6037 23.6962C12.34 23.5327 12.0347 23.4487 11.7244 23.4544C11.4128 23.4496 11.1063 23.5342 10.8412 23.6981C10.5746 23.8753 10.3659 24.127 10.2412 24.4219C10.0809 24.8016 10.0061 25.2119 10.0219 25.6238V26.6025C10.0219 27.0825 10.095 27.4831 10.2412 27.8044C10.3656 28.1 10.5743 28.3524 10.8412 28.53C11.1083 28.6885 11.4139 28.7703 11.7244 28.7663C12.0336 28.7696 12.3378 28.6878 12.6037 28.53C12.8726 28.3543 13.0828 28.1022 13.2075 27.8062C13.3652 27.4251 13.44 27.0148 13.4269 26.6025ZM14.9325 25.635V26.5969C14.9325 27.3006 14.8044 27.9088 14.5481 28.4212C14.3055 28.9145 13.9209 29.3239 13.4437 29.5969C12.9675 29.8669 12.3944 30.0019 11.7244 30.0019C11.1241 30.0176 10.5299 29.8781 9.99937 29.5969C9.52153 29.3248 9.1367 28.9151 8.895 28.4212C8.62608 27.8515 8.49443 27.2267 8.51062 26.5969V25.635C8.51062 24.9237 8.63875 24.3144 8.895 23.8069C9.15125 23.2931 9.52 22.9012 10.0012 22.6312C10.4837 22.3562 11.0588 22.2188 11.7262 22.2188C12.395 22.2188 12.9675 22.3562 13.4437 22.6312C13.9225 22.905 14.2912 23.2987 14.55 23.8125C14.805 24.32 14.9325 24.9275 14.9325 25.635ZM1.875 29.8594V22.3612H4.61063C5.37188 22.3612 6 22.5081 6.495 22.8019C6.99 23.0931 7.35812 23.5181 7.59937 24.0769C7.84437 24.6331 7.96687 25.3044 7.96687 26.0906C7.96687 26.8831 7.84437 27.5606 7.59937 28.1231C7.35312 28.6869 6.98125 29.1175 6.48375 29.415C5.98875 29.7113 5.36438 29.8594 4.61063 29.8594H1.875ZM4.41375 23.5706H3.35625V28.6462H4.41187C4.75812 28.6462 5.06 28.595 5.3175 28.4925C5.56447 28.3933 5.78061 28.2303 5.94375 28.02C6.10875 27.8075 6.23125 27.5438 6.31125 27.2288C6.4017 26.8658 6.44456 26.4927 6.43875 26.1188C6.43875 25.5562 6.365 25.0856 6.2175 24.7069C6.09542 24.3581 5.86223 24.059 5.55375 23.8556C5.2575 23.6656 4.87625 23.5706 4.41 23.5706H4.41375ZM17.0812 25.6631C17.0812 25.1969 17.1456 24.8013 17.2744 24.4762C17.3856 24.1777 17.5818 23.9183 17.8387 23.73C18.1008 23.5518 18.4126 23.4613 18.7294 23.4712C19.0106 23.4712 19.2594 23.5319 19.4756 23.6531C19.6876 23.7658 19.8647 23.9344 19.9875 24.1406C20.1182 24.3575 20.1953 24.6024 20.2125 24.855H21.6469V24.7181C21.6344 24.3727 21.5503 24.0337 21.3999 23.7226C21.2495 23.4114 21.0361 23.1349 20.7731 22.9106C20.5044 22.6804 20.1919 22.507 19.8544 22.4006C19.4888 22.2754 19.1045 22.2139 18.7181 22.2188C18.0506 22.2188 17.4812 22.3581 17.01 22.6369C16.5412 22.9144 16.1844 23.31 15.9394 23.8238C15.6931 24.3363 15.57 24.9475 15.57 25.6575V26.5912C15.57 27.3013 15.6912 27.9112 15.9337 28.4212C16.1775 28.9287 16.5344 29.3206 17.0044 29.5969C17.4731 29.8669 18.0444 30.0019 18.7181 30.0019C19.2681 30.0019 19.7587 29.8994 20.19 29.6944C20.6212 29.4894 20.9656 29.2056 21.2231 28.8431C21.4818 28.4708 21.6288 28.0324 21.6469 27.5794V27.4369H20.2125C20.1956 27.6788 20.1203 27.9129 19.9931 28.1194C19.8671 28.3173 19.6904 28.4779 19.4812 28.5844C19.2467 28.6966 18.9894 28.753 18.7294 28.7494C18.4129 28.7584 18.1008 28.6728 17.8331 28.5037C17.5765 28.3204 17.3817 28.0634 17.2744 27.7669C17.1367 27.3906 17.0712 26.9918 17.0812 26.5912V25.6631ZM26.6287 22.3631H28.305L25.9144 26.1244L28.2656 29.8594H26.5631L24.9694 27.2063H24.9037L23.3062 29.8594H21.69L24.015 26.0812L21.7125 22.3612H23.46L25.02 25.0594H25.0856L26.6287 22.3631Z" fill="black"/>
</g>
<defs>
<clipPath id="clip0_3402_387">
<rect width="30" height="30" fill="white"/>
</clipPath>
</defs>
</svg>
