<svg width="30" height="30" viewBox="0 0 30 30" fill="none" xmlns="http://www.w3.org/2000/svg">
<path fill-rule="evenodd" clip-rule="evenodd" d="M26.25 8.4375V26.25C26.25 27.2446 25.8549 28.1984 25.1516 28.9016C24.4484 29.6049 23.4946 30 22.5 30H20.625V28.125H22.5C22.9973 28.125 23.4742 27.9275 23.8258 27.5758C24.1775 27.2242 24.375 26.7473 24.375 26.25V8.4375H20.625C19.8791 8.4375 19.1637 8.14118 18.6363 7.61374C18.1088 7.08629 17.8125 6.37092 17.8125 5.625V1.875H7.5C7.00272 1.875 6.52581 2.07254 6.17417 2.42417C5.82254 2.77581 5.625 3.25272 5.625 3.75V20.625H3.75V3.75C3.75 2.75544 4.14509 1.80161 4.84835 1.09835C5.55161 0.395088 6.50544 0 7.5 0L17.8125 0L26.25 8.4375ZM3 22.2188H0V29.7169H1.48312V27.2006H2.98875C3.52625 27.2006 3.98375 27.0925 4.36125 26.8762C4.7425 26.6575 5.03188 26.3612 5.22937 25.9875C5.43523 25.5965 5.53906 25.1599 5.53125 24.7181C5.53125 24.2494 5.4325 23.8263 5.235 23.4487C5.03715 23.0756 4.73825 22.7656 4.3725 22.5544C3.9975 22.3294 3.54 22.2175 3 22.2188ZM4.02187 24.7181C4.02824 24.9651 3.9735 25.2099 3.8625 25.4306C3.76297 25.623 3.60735 25.7806 3.41625 25.8825C3.19783 25.9901 2.9565 26.0428 2.71312 26.0362H1.4775V23.4H2.715C3.12375 23.4 3.44375 23.5131 3.675 23.7394C3.90625 23.9681 4.02187 24.2944 4.02187 24.7181ZM9.30375 22.2188H6.30375V29.7169H7.78687V27.2006H9.2925C9.83 27.2006 10.2875 27.0925 10.665 26.8762C11.0463 26.6575 11.3356 26.3612 11.5331 25.9875C11.7356 25.61 11.8362 25.1869 11.835 24.7181C11.835 24.2494 11.7362 23.8263 11.5387 23.4487C11.3409 23.0756 11.042 22.7656 10.6762 22.5544C10.3012 22.3294 9.84375 22.2175 9.30375 22.2188ZM10.3256 24.7181C10.332 24.9651 10.2772 25.2099 10.1663 25.4306C10.0667 25.623 9.9111 25.7806 9.72 25.8825C9.50158 25.9901 9.26025 26.0428 9.01688 26.0362H7.78125V23.4H9.01875C9.4275 23.4 9.7475 23.5131 9.97875 23.7394C10.21 23.9681 10.3256 24.2944 10.3256 24.7181ZM15.5138 23.4619V29.7169H14.025V23.46H11.8988V22.2188H17.6456V23.46L15.5138 23.4619Z" fill="black"/>
</svg>
