<?xml version="1.0" encoding="UTF-8"?>
<svg id="brand_logo" xmlns="http://www.w3.org/2000/svg" version="1.1" viewBox="0 0 50 50">
  <!-- Generator: Adobe Illustrator 29.0.1, SVG Export Plug-In . SVG Version: 2.1.0 Build 192)  -->
  <defs>
    <style>
      .st0 {
        fill: #eaaa00;
      }

      .st1 {
        fill: #fff;
      }

      .st2 {
        fill: #5a0722;
      }
    </style>
  </defs>
  <path d="M6.5,7.6v-.3c1,0,1-.1,1-1.2v-3.4c0-1.1,0-1.1-1-1.2v-.3h3.1v.3c-1,0-1,.1-1,1.2v3.4c0,.6,0,.9.3,1,.2.1.5.1,1,.1s1-.1,1.2-.4c.2-.2.3-.5.5-1h.4c0,.4-.3,1.5-.4,1.8h-5.1,0Z"/>
  <path d="M12,4.5c0-2.4,1.8-3.5,3.3-3.5s3.3,1.5,3.3,3.3-1.7,3.5-3.3,3.5-3.3-1.7-3.3-3.2h0ZM15.5,7.3c1.1,0,1.9-.7,1.9-2.7s-.8-3.2-2.2-3.2-1.9,1-1.9,2.8.8,3.2,2.2,3.2Z"/>
  <path d="M20.1,7.6v-.3c1,0,1.1-.1,1.1-1.2v-.9c0-.3,0-.4-.2-.7-.3-.5-.7-1.2-1.3-2.3-.4-.6-.5-.6-1.1-.7v-.3h2.8v.3h-.4c-.3.1-.3.2-.2.5,0,.1,1,1.7,1.3,2.3.4-.8.9-1.7,1.1-2.2.2-.4.2-.5-.2-.5h-.4v-.4h2.5v.3c-.8,0-.8.2-1.2.7-.4.6-.8,1.3-1.3,2.1-.2.4-.2.5-.2.7v1c0,1.1,0,1.1,1.1,1.2v.3h-3.3,0Z"/>
  <path d="M24.5,4.5c0-2.4,1.8-3.5,3.3-3.5s3.3,1.5,3.3,3.3-1.7,3.5-3.3,3.5-3.3-1.7-3.3-3.2h0ZM28,7.3c1.1,0,1.9-.7,1.9-2.7s-.8-3.2-2.2-3.2-1.9,1-1.9,2.8.8,3.2,2.2,3.2h0Z"/>
  <path d="M31.7,7.6v-.3c1,0,1-.1,1-1.2v-3.4c0-1.1,0-1.1-1-1.2v-.3h3.1v.3c-1,0-1,.1-1,1.2v3.4c0,.6,0,.9.3,1,.2.1.5.1,1,.1s1-.1,1.2-.4c.2-.2.3-.5.5-1h.4c0,.4-.3,1.5-.4,1.8h-5.1Z"/>
  <path d="M41.3,7.3h.3c.4,0,.5-.2.2-.9l-.5-1.2h-1.9c0,.2-.3.9-.5,1.3-.2.5,0,.6.4.7h.3v.4h-2.4v-.3c.6,0,.9-.1,1.3-1.1l2.1-5.1h.3c0,0,2.1,5.2,2.1,5.2.3.9.6.9,1.2,1v.3h-2.8v-.3h0ZM39.5,4.7h1.6l-.8-2.2h0l-.8,2.2h0Z"/>
  <path d="M6.5,9.1h.5v1.3c0,.1,0,.3,0,.3,0,.1.2.2.4.2s.3,0,.4-.2c0,0,0-.2,0-.3v-1.3h.5v1.3c0,.2,0,.4-.1.5-.1.2-.4.3-.8.3s-.6-.1-.8-.3c0-.1-.1-.3-.1-.5v-1.3Z"/>
  <path d="M9,9.1h.5l.9,1.5v-1.5h.4v2.1h-.4l-.9-1.5v1.5h-.4v-2.1Z"/>
  <path d="M12,11.3h-.4v-2.1h.4v2.1Z"/>
  <path d="M14,9.1h.5l-.7,2.1h-.4l-.7-2.1h.5l.5,1.6s.5-1.6.5-1.6Z"/>
  <path d="M16.6,9.5h-1.1v.5h1v.4h-1v.6h1.2v.4h-1.6v-2.1h1.6v.4h0Z"/>
  <path d="M18.7,9.2c0,0,.1,0,.2.2,0,0,0,.1.1.2,0,0,0,.1,0,.2s0,.2,0,.3c0,0-.1.2-.3.2,0,0,.2,0,.2.2s0,.2,0,.3h0c0,.2,0,.3,0,.3,0,0,0,0,0,.1h0c0,0-.5,0-.5,0,0,0,0,0,0-.1,0,0,0-.1,0-.2v-.2c0-.1,0-.2,0-.3,0,0-.1,0-.3,0h-.4v.8h-.4v-2.1h1c.1,0,.3,0,.3,0h0ZM17.8,9.5v.6h.5c0,0,.2,0,.2,0,0,0,.1-.1.1-.2s0-.2-.1-.3c0,0-.1,0-.2,0h-.5Z"/>
  <path d="M20,10.6c0,0,0,.2,0,.2,0,0,.2.1.4.1s.2,0,.3,0c.1,0,.2-.1.2-.2s0-.1,0-.2c0,0-.2,0-.3,0h-.2c-.2-.1-.4-.2-.5-.2-.1,0-.2-.3-.2-.5s0-.3.2-.5c.1-.1.3-.2.6-.2s.4,0,.6.2.2.3.3.5h-.4c0-.1,0-.2-.2-.3,0,0-.2,0-.3,0s-.2,0-.3,0-.1.1-.1.2,0,.1.1.2c0,0,.1,0,.3,0h.4c.2.1.3.2.4.2.1,0,.2.2.2.4s0,.4-.2.5-.4.2-.6.2-.5,0-.7-.2c-.2-.1-.2-.3-.2-.5h.4,0Z"/>
  <path d="M22.5,11.3h-.4v-2.1h.4v2.1Z"/>
  <path d="M24.9,9.1v.4h-.6v1.8h-.4v-1.8h-.6v-.4s1.7,0,1.7,0Z"/>
  <path d="M26.6,9.1h.5l-.7,1.3v.8h-.4v-.8l-.7-1.3h.5l.4.9.4-.9Z"/>
  <path d="M29,9.3c.2-.2.4-.3.7-.3s.6.1.8.4c0,.1.1.3.1.4h-.4c0-.1,0-.2-.1-.2,0,0-.2-.1-.4-.1s-.3,0-.4.2c0,.1-.1.3-.1.6s0,.4.1.5c0,.1.2.2.4.2s.3,0,.4-.2c0,0,0-.1.1-.2h.4c0,.2-.1.4-.3.6s-.4.2-.6.2-.5,0-.7-.3c-.2-.2-.3-.5-.3-.8s0-.7.3-.9h0Z"/>
  <path d="M31.2,11.3v-2.1h.4v.8h.8v-.8h.4v2.1h-.4v-1h-.8v1h-.4Z"/>
  <path d="M34.2,11.3h-.4v-2.1h.4v2.1Z"/>
  <path d="M35.2,9.3c.2-.2.4-.3.7-.3s.6.1.8.4c0,.1.1.3.1.4h-.4c0-.1,0-.2-.1-.2,0,0-.2-.1-.4-.1s-.3,0-.4.2c0,.1-.1.3-.1.6s0,.4.1.5c0,.1.2.2.4.2s.3,0,.4-.2c0,0,0-.1.1-.2h.4c0,.2-.1.4-.3.6s-.4.2-.6.2-.5,0-.7-.3c-.2-.2-.3-.5-.3-.8s0-.7.3-.9h0Z"/>
  <path d="M37.8,9.1h.5l.8,2.1h-.5v-.4h-.9v.4h-.6s.8-2.1.8-2.1ZM37.8,10.4h.5l-.3-.8-.3.8h0Z"/>
  <path d="M41,9.8c0-.1-.1-.2-.2-.3,0,0-.2,0-.2,0-.2,0-.3,0-.4.2-.1.1-.2.3-.2.6s0,.4.2.6c.1.1.3.2.4.2s.3,0,.4-.1c0,0,.2-.2.2-.3h-.5v-.4h.9v1.1h-.3v-.3c-.1.1-.2.2-.3.2-.1,0-.3.1-.4.1-.3,0-.5,0-.7-.3-.2-.2-.3-.5-.3-.8s0-.6.3-.8c.2-.2.4-.3.8-.3s.5,0,.7.2c.2.1.3.3.3.5h-.4Z"/>
  <path d="M43.8,11.1c-.2.2-.4.3-.7.3s-.5,0-.7-.3c-.2-.2-.3-.5-.3-.9s.1-.7.3-.9c.2-.2.4-.3.7-.3s.5,0,.7.3c.2.2.3.5.3.9s-.1.7-.3.9ZM43.5,10.7c.1-.1.2-.3.2-.6s0-.4-.2-.6c-.1-.1-.2-.2-.4-.2s-.3,0-.4.2c-.1.1-.2.3-.2.6s0,.4.2.6c.1.1.2.2.4.2s.3,0,.4-.2Z"/>
  <path class="st2" d="M37.8,13v20.2c0,7.4-12.6,10.5-12.6,10.5,0,0-12.6-3.1-12.6-10.5V13h25.2Z"/>
  <path class="st1" d="M13.4,20l.2-.8h1.2v3.7h-.9v-2.9h-.4Z"/>
  <path class="st1" d="M18,20.1c0,.4-.2.7-.6.8h0c.4.2.7.5.7,1,0,.8-.8,1.1-1.4,1.1s-1.4-.4-1.4-1.1.3-.8.7-1h0c-.3-.1-.6-.5-.6-.8,0-.7.6-1.1,1.3-1.1s1.3.4,1.3,1.1ZM16.3,20.1c0,.2.2.4.4.4s.4-.2.4-.4-.2-.4-.4-.4-.4.2-.4.4ZM16.3,21.8c0,.2.2.5.4.5s.4-.2.4-.5-.2-.5-.4-.5-.4.2-.4.5Z"/>
  <path class="st1" d="M18.6,20.1v-.9h3.1l-2.1,3.7h-1.1l1.6-2.8s-1.5,0-1.5,0Z"/>
  <path class="st1" d="M24.7,21c0,.9-.5,1.9-1.5,1.9s-1.5-1-1.5-1.9.5-1.9,1.5-1.9,1.5,1,1.5,1.9ZM22.6,21c0,.3.1,1.1.6,1.1s.6-.8.6-1.1-.1-1.1-.6-1.1-.6.8-.6,1.1Z"/>
  <path class="st1" d="M15.4,28.9s.4.3-.3,1.9c-.1.3-.7,1.5,0,2.3.5.6,1.3.4,1.3.4,0,.3,0,.5,0,.5h-.6c-.5,0-.6.6-.6.6v2.5l.4.4h1.4c0-.6-.8-.9-.8-.9v-1.1h1.3c.7,0,1-1.4,1-1.4h.5c0,.1-.7,1.5-.7,1.5l1.5,1.4v.4h1.6c0-.4-.7-.7-.7-.7l-1-1.1c-.1-.1,0-.3.1-.3.2,0,.3-.1.6-.2.2,0,1.1-.7.8-1.8-.4-1.1-1.7-.7-1.7-.8s.7-1.7.7-1.7l-.5-.8.7.4,1.7-.3c.2,1.5.9,1.1.9,1.1v-1.1s0-.7-.7-.9c-.8-.3-1.3-.1-1.6-.2-.2,0-.2-.3-.2-.3h1s.9-.7.9-.7h.5c.9-.2.6-.9.6-.9h-1.3c-.5,0-1.8.9-1.8.9,0,0-.2-1.1.8-1.4,1-.4.8-.7.8-.7l-.9.3s-.1-.1,0-.3c0-.1.8-.4.8-.4.6-.2.4-.7.4-.7h-1c-.2-.1-.2-.1-.5-.2-.3,0-.9.4-.8.3,0-.2.1-.6.2-1.1,0-.4-1.3,1.5-1.3,1.5-1.8,3.4-1.3,5.7-1.3,5.7-1.2.5-1.2,1.8-1.2,1.5,0-1.9.6-1.8.6-3s-1.3-1.1-1.3-1.1c-.5,0-.7.3-.7.3,0,0,.3,0,.4,0h0Z"/>
  <polygon class="st2" points="20.5 25.3 21.2 25.3 21 25.1 20.5 25.3"/>
  <path class="st1" d="M25.3,37.7s-1,.1-1.9-.8c-.9-.9-.8-1.9-.8-1.9v-2s-.2,0-.3-.3c0-.3.3-.3.3-.3h.6c0,.7.4.6.4.6.4,0,.4-.6.4-.6h2.7s0,.6.4.6c0,0,.4,0,.4-.6h.6s.3,0,.3.3c0,.2-.3.3-.3.3v2s0,1-.8,1.9c-.9.9-1.9.8-1.9.8h0Z"/>
  <path class="st1" d="M35.1,28.9s-.4.3.3,1.9c.1.3.7,1.5,0,2.3-.5.6-1.3.4-1.3.4,0,.3,0,.5,0,.5h.6c.5,0,.6.6.6.6v2.5l-.4.4h-1.4c0-.6.8-.9.8-.9v-1.1h-1.3c-.7,0-1-1.4-1-1.4h-.5c0,.1.7,1.5.7,1.5l-1.5,1.4v.4h-1.6c0-.4.7-.7.7-.7l1-1.1c.1-.1,0-.3-.1-.3-.2,0-.3-.1-.6-.2-.2,0-1.1-.7-.8-1.8.4-1.1,1.7-.7,1.7-.8s-.7-1.7-.7-1.7l.5-.8-.7.4-1.7-.3c-.2,1.5-.9,1.1-.9,1.1v-1.1s0-.7.7-.9c.8-.3,1.3-.1,1.6-.2s.2-.3.2-.3h-1s-.9-.7-.9-.7h-.5c-.9-.2-.6-.9-.6-.9h1.3c.5,0,1.8.9,1.8.9,0,0,.2-1.1-.8-1.4-1-.4-.8-.7-.8-.7l.9.3s.1-.1,0-.3c0-.1-.8-.4-.8-.4-.6-.2-.4-.7-.4-.7h1c.2-.1.2-.1.5-.2.3,0,.9.4.8.3,0-.2-.1-.6-.2-1.1,0-.4,1.3,1.5,1.3,1.5,1.8,3.4,1.3,5.7,1.3,5.7,1.2.5,1.2,1.8,1.2,1.5,0-1.9-.6-1.8-.6-3,0-1.2,1.3-1.1,1.3-1.1.5,0,.7.3.7.3,0,0-.3,0-.4,0h0Z"/>
  <polygon class="st2" points="30.1 25.3 29.3 25.3 29.5 25.1 30.1 25.3"/>
  <path class="st1" d="M25.4,30.1v-5.1h0c0,0,.1-.1.1-.2,0-.1-.1-.3-.3-.3h0c-.1,0-.3.1-.3.3s0,.2.1.2h0v5.1l-1.7,1.7v.5h.2v-.4l1.6-1.6,1.6,1.6v.4h.3v-.5l-1.7-1.7h0Z"/>
  <polygon class="st0" points="25.3 13 25.3 14.6 27.1 13 25.3 13"/>
  <polygon class="st0" points="36.1 22.9 37.8 22.9 37.8 21.2 36.1 22.9"/>
  <polygon class="st0" points="28.9 13 25.3 16.3 25.3 17.9 30.7 13 28.9 13"/>
  <polygon class="st0" points="32.5 13 25.3 19.6 25.3 21.2 34.3 13 32.5 13"/>
  <polygon class="st0" points="36.1 13 25.3 22.9 27.1 22.9 37.8 13 36.1 13"/>
  <polygon class="st0" points="28.9 22.9 30.7 22.9 37.8 16.3 37.8 14.6 28.9 22.9"/>
  <polygon class="st0" points="32.5 22.9 34.3 22.9 37.8 19.6 37.8 17.9 32.5 22.9"/>
  <path class="st2" d="M10.6,14.9l-1.1.4c-.8.3-1.5.5-2.1.8-.5.2-.6.3-.6.7h-.2v-1.6h.2v.2c0,.2.1.2.4.2.2,0,.6-.2.9-.3v-1.1c-.2,0-.5-.2-.8-.3-.3-.1-.4,0-.4.2v.2h-.2v-1.4h.2c0,.4,0,.5.6.7l3.2,1.2v.2c0,0,0,0,0,0ZM8.2,14.1v1l1.4-.5h0s-1.4-.5-1.4-.5h0Z"/>
  <path class="st2" d="M10.5,18.9c0,.7-.2,1.3-.5,1.7-.3.3-.7.5-1.3.5-1.5,0-2.2-1.2-2.2-2.6v-1.5h.2c0,.5,0,.6.8.6h2.2c.7,0,.7,0,.8-.5h.2v1.8h0ZM7.4,18.3c-.6,0-.7,0-.7.5,0,1,.7,1.6,1.8,1.6s1.8-.7,1.8-1.7,0-.4,0-.4c0,0-.1,0-.3,0,0,0-2.5,0-2.5,0Z"/>
  <path class="st2" d="M10.5,27.1l-3,1.4,3,1.3v1.2h-.2c0-.5,0-.5-.8-.5h-2.2c-.7,0-.7,0-.8.6h-.2v-1.7h.2c0,.5,0,.5.8.5h2.4c0,0-3.2-1.5-3.2-1.5v-.2l3.1-1.4h0s-1.6,0-1.6,0c-.6,0-.9,0-1.1,0-.2,0-.3.2-.3.6h-.2v-1.5h.2c0,.3,0,.4.3.5.2,0,.5,0,1.1.1h1.3c.8.1.9,0,.9-.5h.2v1.1h0Z"/>
  <path class="st2" d="M10.6,33.4l-1.1.4c-.8.3-1.5.6-2.1.8-.5.2-.6.3-.6.7h-.2v-1.6s.2,0,.2,0v.2c0,.2.1.2.4.2.2,0,.6-.2.9-.4v-1.1c-.2,0-.6-.2-.8-.3-.3-.1-.4,0-.4.2v.2h-.2v-1.4s.2,0,.2,0c0,.4,0,.5.6.7l3.2,1.2v.2c0,0,0,0,0,0ZM8.2,32.6v1l1.4-.5h0s-1.4-.5-1.4-.5h0Z"/>
  <path class="st2" d="M9.8,35.3c.6-.2.7-.3.6-.8h.2c0,0,.5,1.6.5,1.6h-.2c-.2-.4-.2-.4-.9-.2l-1.9.6c-.6.2-1.2.3-1.7,0-.2-.1-.4-.3-.6-.6h.1c.3.2.6.3,1,.3.3,0,.6-.1,1.1-.2l1.8-.6h0Z"/>
  <path class="st2" d="M11.4,40.6c-1.1.7-2.3.3-2.9-.7-.6-1.1-.2-2.2.7-2.8.9-.5,2.2-.5,3,.8.5.9.3,2.1-.8,2.7ZM9.7,37.7c-1,.6-1.5,1.4-1,2.2.3.6,1,.7,2,.1,1.1-.7,1.5-1.5,1.1-2.2-.3-.6-1.1-.7-2.1-.1h0Z"/>
  <path class="st2" d="M18,43.2c0,0-.3.5-.4.8h-.2c.1-.4.1-.6.1-.7,0-.1-.2-.3-.5-.5l-.3-.2c-.2-.1-.2-.1-.3,0l-.7,1.1.5.3c.5.3.5.3.8-.1h.2c0,.1-.7,1.2-.7,1.2h-.2c.2-.6.2-.6-.2-.9l-.5-.3-.5.9c-.2.3-.3.5-.2.6,0,.1.2.2.5.4.3.2.5.3.7.2.2,0,.4-.2.6-.4h.1c-.1.3-.6.8-.7.9l-2.6-1.6v-.2c.6.2.6.2,1-.3l1.1-1.8c.4-.6.3-.6,0-.9v-.2c0,0,2.5,1.5,2.5,1.5h0Z"/>
  <path class="st2" d="M19.4,43.7v3.3c0,0,2.4-2.2,2.4-2.2l1.1.5v.2c-.5-.2-.6-.1-.8.5l-.8,2c-.3.6-.2.7.2.9v.2c0,0-1.7-.7-1.7-.7v-.2c.5.1.6.1.8-.5l.9-2.2h0l-2.6,2.4h-.2c0,0,0-3.5,0-3.5h0l-.7,1.4c-.2.5-.4.8-.4,1,0,.2,0,.3.4.5v.2c0,0-1.4-.6-1.4-.6v-.2c.4,0,.5,0,.6-.1.1-.2.3-.5.6-1l.6-1.1c.4-.7.4-.8-.1-1.1v-.2c0,0,1.1.5,1.1.5h0Z"/>
  <path class="st2" d="M29,44.6c.6-.3,1.3-.3,1.8-.1.4.2.8.5,1,1,.6,1.4-.3,2.5-1.6,3l-1.4.5v-.2c.4-.2.4-.3.2-.9l-.8-2c-.2-.6-.3-.7-.7-.5v-.2c0,0,1.7-.7,1.7-.7h0ZM29.6,47.7c.2.5.3.6.8.4.9-.4,1.1-1.3.8-2.2-.5-1.2-1.3-1.4-2.2-1-.2,0-.3.2-.3.2,0,0,0,.1,0,.3l1,2.3h0Z"/>
  <path class="st2" d="M33.6,42.6c0,0,.3.5.5.8h-.2c-.2-.1-.3-.3-.5-.3-.1,0-.3,0-.7.2h-.3c-.2.2-.2.3-.1.5l.6,1.2.5-.2c.5-.2.5-.3.3-.7h.2c0,0,.6,1.1.6,1.1h-.2c-.3-.3-.3-.3-.8,0l-.5.2.5.9c.2.3.3.5.4.5.1,0,.3,0,.6-.2.3-.1.5-.3.6-.5,0-.2,0-.4,0-.7h.2c0,.2.2.8.3.9l-2.7,1.4v-.2c.4-.3.4-.3,0-.9l-1-1.9c-.3-.6-.4-.6-.8-.4v-.2c0,0,2.4-1.3,2.4-1.3h0Z"/>
  <path class="st2" d="M35.5,41.4v.2c-.3.3-.3.3,0,.9l1.1,1.8c.4.6.4.6.8.4v.2c0,0-1.4.9-1.4.9v-.2c.3-.3.3-.4,0-.9l-1.1-1.8c-.4-.6-.4-.6-.8-.4v-.2c0,0,1.4-.9,1.4-.9h0Z"/>
  <path class="st2" d="M42.7,37.5c.2,0,.4.1.5.1,0,.4,0,.9-.2,1.4-.4,1.3-1.5,1.9-2.7,1.6-1.3-.4-1.7-1.7-1.3-2.9.2-.5.4-.9.5-1.1.2,0,.5.1,1,.2v.2c-.8,0-1.1.4-1.3.8-.3.8.2,1.6,1.2,1.9.9.3,2,.2,2.3-.9,0-.2,0-.3,0-.4,0-.1,0-.2-.3-.3l-.5-.2c-.4-.1-.4-.1-.7.5h-.2c0,0,.5-1.7.5-1.7h.2c0,.4,0,.4.4.5h.4c0,.1,0,.1,0,.1Z"/>
  <path class="st2" d="M39.8,34.3h.2c0,.5,0,.6.7.7l2.1.3c.4,0,.5,0,.6,0,0,0,.1-.3.2-.5,0-.3.1-1,0-1.2-.1-.1-.3-.2-.6-.4v-.2c.3,0,.9.3,1,.4l-.5,3.3h-.2c0-.5,0-.6-.7-.7l-2.1-.3c-.7,0-.7,0-.8.4h-.2s.2-1.8.2-1.8h0Z"/>
  <path class="st2" d="M42.1,28.7c1.3,0,2.1,1.1,2,2.2,0,1.2-1,2-2.2,1.9-1,0-2.1-.9-2-2.3,0-1.1,1-1.9,2.2-1.8h0ZM41.8,32c1.1,0,2-.4,2.1-1.2,0-.6-.5-1.2-1.6-1.3-1.3,0-2,.4-2.1,1.2,0,.7.5,1.2,1.6,1.3h0Z"/>
  <path class="st2" d="M40,26.8c0-.5,0-.8.2-1,.2-.2.4-.4.8-.4.5,0,.9.3,1.1.8.2,0,.6-.3.9-.5.3-.2.6-.4.7-.5.2-.2.2-.2.3-.4h.2v.3c0,.7-.2.9-.6,1.1-.3.2-.7.4-1,.6-.2,0-.2.2-.2.4v.2h.8c.7,0,.7,0,.8-.5h.2v1.7h-.2c0-.5,0-.5-.8-.5h-2.2c-.7,0-.7,0-.8.5h-.2s0-1.7,0-1.7ZM42.1,27.3v-.2c0-.2,0-.4-.2-.6-.2-.2-.5-.3-.8-.3-.6,0-.9.4-.9.8s0,.3.2.3h1.6Z"/>
  <path class="st2" d="M40,22.6h.2c0,.5,0,.5.8.5h2.2c.7,0,.7,0,.8-.5h.2v1.7h-.2c0-.5,0-.5-.8-.5h-2.2c-.7,0-.7,0-.8.5h-.2v-1.7Z"/>
  <path class="st2" d="M40,20.1l1.1-.4c.8-.3,1.5-.5,2.1-.8.5-.2.6-.3.6-.7h.2v1.6h-.2v-.2c0-.2-.1-.2-.4-.2-.2,0-.6.2-.9.3v1.1c.2,0,.5.2.8.3.3.1.4,0,.4-.2v-.2h.2v1.4h-.2c0-.4,0-.5-.6-.7l-3.2-1.2v-.2c0,0,0,0,0,0ZM42.4,20.9v-1l-1.4.5h0s1.4.5,1.4.5h0Z"/>
  <path class="st2" d="M40,16.6l3-1.4-3-1.3v-1.2h.2c0,.5,0,.5.8.5h2.2c.7,0,.7,0,.8-.6h.2v1.7h-.2c0-.5,0-.5-.8-.5h-2.4c0,0,3.2,1.5,3.2,1.5v.2l-3.1,1.4h0s1.6,0,1.6,0c.6,0,.9,0,1.1,0,.2,0,.3-.2.3-.6h.2v1.5h-.2c0-.3,0-.4-.3-.5-.2,0-.5,0-1.1-.1h-1.3c-.8-.1-.9,0-.9.5h-.2v-1.1h0Z"/>
  <circle class="st2" cx="25.3" cy="47.6" r=".7"/>
  <circle class="st2" cx="38.2" cy="41.9" r=".7"/>
  <circle class="st2" cx="8.5" cy="23.7" r=".7"/>
  <path class="st2" d="M14.3,40.4c.3.3.5.6.6.8s0,.6-.2.9c-.3.4-.8.4-1.3.2,0,.2-.2.7-.2,1,0,.4,0,.7,0,.8,0,.2,0,.3.1.5h-.1c0,.1-.2,0-.2,0-.5-.5-.5-.8-.5-1.2,0-.3.2-.8.2-1.1,0-.2,0-.3-.1-.4h-.2c0-.1-.6.5-.6.5-.5.5-.4.6-.1.9h-.1c0,.1-1.3-1-1.3-1h.1c.4.2.5.2.9-.3l1.5-1.6c.5-.5.4-.6.1-.9h.1c0-.1,1.2,1,1.2,1h0ZM12.5,41.6l.2.2c.2.2.3.3.5.3.3,0,.6-.1.8-.4.4-.5.2-.9,0-1.2-.2-.2-.2-.2-.4,0l-1.1,1.2h0Z"/>
</svg>