<svg width="30" height="30" viewBox="0 0 30 30" fill="none" xmlns="http://www.w3.org/2000/svg">
<g clip-path="url(#clip0_3312_11)">
<path d="M15 30C23.2843 30 30 23.2843 30 15C30 6.71573 23.2843 0 15 0C6.71573 0 0 6.71573 0 15C0 23.2843 6.71573 30 15 30Z" fill="#1DA1F2"/>
<path d="M11.0625 24.5676C19.37 24.5676 23.9125 17.6851 23.9125 11.7176C23.9125 11.5226 23.9125 11.3276 23.9 11.1326C24.785 10.4926 25.5475 9.70262 26.1525 8.79512C25.3275 9.16012 24.455 9.40012 23.5575 9.50512C24.5 8.94012 25.205 8.05262 25.5425 7.00762C24.655 7.53262 23.685 7.90512 22.675 8.10512C21.82 7.19762 20.6275 6.68262 19.3825 6.68262C16.9025 6.68262 14.8625 8.72262 14.8625 11.2026C14.8625 11.5476 14.9025 11.8901 14.98 12.2251C11.35 12.0401 7.96495 10.3251 5.67245 7.50512C4.47995 9.55762 5.09745 12.2151 7.06995 13.5351C6.35245 13.5126 5.64745 13.3201 5.01995 12.9701V13.0276C5.01995 15.1701 6.54495 17.0301 8.64245 17.4551C7.97745 17.6376 7.27995 17.6626 6.60245 17.5326C7.19245 19.3676 8.89495 20.6326 10.8225 20.6701C9.22245 21.9276 7.24745 22.6101 5.21245 22.6076C4.85245 22.6076 4.49495 22.5851 4.13745 22.5426C6.20245 23.8676 8.60745 24.5701 11.06 24.5676" fill="white"/>
</g>
<defs>
<clipPath id="clip0_3312_11">
<rect width="30" height="30" fill="white"/>
</clipPath>
</defs>
</svg>
