<svg width="30" height="30" viewBox="0 0 30 30" fill="none" xmlns="http://www.w3.org/2000/svg">
<g clip-path="url(#clip0_3365_84)">
<path d="M15 30C23.2843 30 30 23.2843 30 15C30 6.71573 23.2843 0 15 0C6.71573 0 0 6.71573 0 15C0 23.2843 6.71573 30 15 30Z" fill="#FF0050"/>
<path d="M22.7584 8.44158C22.6183 8.36913 22.4818 8.28972 22.3496 8.20362C21.9651 7.94942 21.6125 7.6499 21.2995 7.3115C20.5165 6.41548 20.224 5.50649 20.1163 4.87006H20.1206C20.0306 4.34179 20.0678 4 20.0734 4H16.5067V17.792C16.5067 17.9772 16.5067 18.1602 16.4989 18.341C16.4989 18.3635 16.4967 18.3843 16.4954 18.4085C16.4954 18.4185 16.4954 18.4289 16.4932 18.4392C16.4932 18.4418 16.4932 18.4444 16.4932 18.447C16.4556 18.9419 16.297 19.4199 16.0313 19.8391C15.7656 20.2582 15.401 20.6057 14.9695 20.8508C14.5197 21.1067 14.0111 21.2409 13.4937 21.2402C11.8319 21.2402 10.485 19.8852 10.485 18.2117C10.485 16.5382 11.8319 15.1831 13.4937 15.1831C13.8083 15.1828 14.1209 15.2323 14.42 15.3298L14.4243 11.6981C13.5163 11.5808 12.5939 11.653 11.7152 11.9101C10.8365 12.1671 10.0207 12.6035 9.31905 13.1916C8.70428 13.7258 8.18745 14.3631 7.7918 15.075C7.64124 15.3346 7.07317 16.3777 7.00437 18.0706C6.96111 19.0315 7.24969 20.0271 7.38727 20.4385V20.4472C7.4738 20.6895 7.8091 21.5162 8.35554 22.2132C8.79617 22.7723 9.31675 23.2635 9.90053 23.6708V23.6622L9.90918 23.6708C11.6359 24.8442 13.5504 24.7672 13.5504 24.7672C13.8818 24.7538 14.992 24.7672 16.2527 24.1697C17.651 23.5073 18.4471 22.5204 18.4471 22.5204C18.9557 21.9308 19.3601 21.2588 19.6429 20.5333C19.9657 19.6848 20.0734 18.6673 20.0734 18.2606V10.9436C20.1167 10.9696 20.693 11.3507 20.693 11.3507C20.693 11.3507 21.5232 11.8829 22.8186 12.2294C23.7479 12.476 25 12.528 25 12.528V8.98715C24.5613 9.03474 23.6705 8.8963 22.7584 8.44158Z" fill="white"/>
</g>
<defs>
<clipPath id="clip0_3365_84">
<rect width="30" height="30" fill="white"/>
</clipPath>
</defs>
</svg>
