<svg width="30" height="30" viewBox="0 0 30 30" fill="none" xmlns="http://www.w3.org/2000/svg">
<g clip-path="url(#clip0_3370_48)">
<path d="M30 0H0V30H30V0Z" fill="#002F55"/>
<path d="M5.03564 25.5001V24.2144C7.28564 24.2144 7.9285 23.5716 7.9285 21.8573V8.57157C7.9285 6.85728 7.28564 6.21443 5.03564 6.21443V4.92871H21.3214L22.1785 7.82157C22.1785 8.143 22.3928 8.46443 22.3928 8.57157C22.3928 8.67871 22.0714 9.10728 21.7499 9.10728C21.4285 9.10728 21.4285 9.00014 20.9999 8.46443C19.4999 6.32157 17.5714 5.893 14.5714 5.893C11.5714 5.893 12.2142 6.21443 12.2142 7.50014V13.9287H14.8928C16.8214 13.9287 17.5714 13.5001 17.9999 11.5716C17.9999 11.2501 18.1071 11.143 18.6428 11.143C19.0714 11.143 19.1785 11.143 19.1785 11.7859V18.1073C19.1785 18.4287 18.8571 18.5359 18.5356 18.5359C18.2142 18.5359 18.1071 18.5359 18.1071 18.3216C17.2499 15.4287 16.6071 15.3216 14.8928 15.3216H12.2142V22.2859C12.2142 24.0001 12.5356 24.3216 15.6428 24.3216C18.7499 24.3216 20.8928 23.143 22.6071 20.3573C22.6071 20.143 22.8214 20.143 23.1428 20.143C23.4642 20.143 23.6785 20.143 23.6785 20.3573C23.6785 20.5716 23.6785 20.6787 23.6785 20.893L22.9285 25.6073H5.03564V25.5001Z" fill="white"/>
</g>
<defs>
<clipPath id="clip0_3370_48">
<rect width="30" height="30" fill="white"/>
</clipPath>
</defs>
</svg>
