<svg width="30" height="30" viewBox="0 0 30 30" fill="none" xmlns="http://www.w3.org/2000/svg">
<g clip-path="url(#clip0_3370_60)">
<path d="M15.6429 17.7857V13.7143H29.7857C29.8929 14.4643 30 15.3214 30 16.1786C30 19.2857 29.1429 23.0357 26.3571 25.7143C23.6786 28.5 20.25 29.8929 15.6429 29.8929C7.17857 29.8929 0 23.1429 0 14.8929C0 6.64286 7.17857 0 15.6429 0C24.1071 0 23.6786 1.82143 26.1429 4.17857L23.1429 7.07143C21.3214 5.46429 18.8571 4.17857 15.5357 4.17857C9.32143 4.17857 4.5 9 4.5 15.1071C4.5 21.2143 9.32143 26.0357 15.5357 26.0357C21.75 26.0357 21.8571 24.4286 23.3571 23.0357C24.8571 21.6429 25.2857 20.25 25.6071 18H15.5357L15.6429 17.7857Z" fill="#4285F4"/>
</g>
<defs>
<clipPath id="clip0_3370_60">
<rect width="30" height="30" fill="white"/>
</clipPath>
</defs>
</svg>
