<svg width="30" height="30" viewBox="0 0 30 30" fill="none" xmlns="http://www.w3.org/2000/svg">
<g clip-path="url(#clip0_3374_6)">
<path d="M0 20.2498L3.75 9.85693H9L12.75 15.6426L14.4643 9.85693H18.9643L15.2143 20.1426H10.6071C9.21428 17.9998 7.60714 16.0712 6.53571 13.7141L4.39286 20.1426H0V20.2498Z" fill="black"/>
<path d="M15.2143 20.2501L18.9643 9.96438C18.9643 9.96438 24.75 9.75009 27.4286 9.96438C31.8214 10.393 30 14.5715 26.6786 14.7858L27.9643 15.3215C29.6786 16.8215 27.6429 18.9644 26.1429 19.6072C24.6429 20.2501 24.1072 20.2501 23.4643 20.2501H15.2143ZM21.5357 13.8215H24.1072C24.3214 13.8215 25.1786 13.2858 25.2857 13.0715C25.9286 11.6787 22.9286 12.1072 22.1786 12.0001H21.9643L21.4286 13.8215H21.5357ZM20.0357 17.893H22.8214C23.25 17.893 24.2143 17.2501 24.3214 16.8215C24.3214 16.2858 23.7857 16.0715 23.3572 15.9644C22.9286 15.8572 20.8929 15.9644 20.6786 16.0715L20.1429 17.893H20.0357Z" fill="#005DAA"/>
</g>
<defs>
<clipPath id="clip0_3374_6">
<rect width="30" height="30" fill="white"/>
</clipPath>
</defs>
</svg>
