<svg width="30" height="30" viewBox="0 0 30 30" fill="none" xmlns="http://www.w3.org/2000/svg">
<path d="M27.4285 0V19.7143C27.4285 27 15.1071 30 15.1071 30C15.1071 30 2.78564 27 2.78564 19.7143V0H27.4285Z" fill="#5A0722"/>
<path d="M3.53564 6.85714V6H4.82136V9.64286H3.96422V6.75H3.53564V6.85714Z" fill="white"/>
<path d="M8.03578 6.9645C8.03578 7.39307 7.8215 7.7145 7.50007 7.82164C7.92864 7.92878 8.25007 8.35735 8.25007 8.78592C8.25007 9.53592 7.50007 9.85735 6.85721 9.85735C6.21436 9.85735 5.46436 9.53592 5.46436 8.78592C5.46436 8.03592 5.78578 7.92878 6.21436 7.82164C5.89293 7.7145 5.67864 7.39307 5.67864 6.9645C5.67864 6.32164 6.3215 5.89307 6.85721 5.89307C7.39293 5.89307 8.03578 6.2145 8.03578 6.9645ZM6.42864 6.9645C6.42864 7.17878 6.64293 7.39307 6.85721 7.39307C7.0715 7.39307 7.28578 7.17878 7.28578 6.9645C7.28578 6.75021 7.0715 6.53592 6.85721 6.53592C6.64293 6.53592 6.42864 6.75021 6.42864 6.9645ZM6.42864 8.57164C6.42864 8.78592 6.64293 9.00021 6.85721 9.00021C7.0715 9.00021 7.28578 8.78592 7.28578 8.57164C7.28578 8.35735 7.0715 8.14307 6.85721 8.14307C6.64293 8.14307 6.42864 8.35735 6.42864 8.57164Z" fill="white"/>
<path d="M8.67868 6.96408V6.10693H11.6787L9.64296 9.74979H8.57153L10.1787 6.96408H8.67868Z" fill="white"/>
<path d="M14.5715 7.82164C14.5715 8.78592 14.143 9.75021 13.0715 9.75021C12.0001 9.75021 11.5715 8.78592 11.5715 7.82164C11.5715 6.85735 12.0001 5.89307 13.0715 5.89307C14.143 5.89307 14.5715 6.85735 14.5715 7.82164ZM12.5358 7.82164C12.5358 8.14307 12.643 8.89307 13.0715 8.89307C13.5001 8.89307 13.6072 8.14307 13.6072 7.82164C13.6072 7.50021 13.5001 6.75021 13.0715 6.75021C12.643 6.75021 12.5358 7.50021 12.5358 7.82164Z" fill="white"/>
<path d="M5.57148 15.6431C5.57148 15.6431 5.8929 15.9645 5.25005 17.4645C5.1429 17.7859 4.50005 18.8573 5.25005 19.7145C5.78576 20.2502 6.53576 20.0359 6.53576 20.0359C6.53576 20.3573 6.53576 20.4645 6.53576 20.4645H6.00005C5.46433 20.4645 5.46433 21.1073 5.46433 21.1073V23.5716L5.8929 24.0002H7.28576C7.28576 23.3573 6.53576 23.1431 6.53576 23.1431V22.0716H7.82148C8.46433 22.0716 8.8929 20.7859 8.8929 20.7859H9.42862C9.42862 20.8931 8.78576 22.1788 8.78576 22.1788L10.2858 23.5716V24.0002H11.8929C11.8929 23.5716 11.25 23.2502 11.25 23.2502L10.2858 22.1788C10.1786 22.0716 10.2858 21.8573 10.3929 21.8573C10.6072 21.8573 10.7143 21.8573 10.9286 21.6431C11.1429 21.6431 12 21.0002 11.6786 19.9288C11.3572 18.8573 10.0715 19.2859 10.0715 19.1788C10.0715 19.0716 10.7143 17.4645 10.7143 17.4645L10.1786 16.7145L10.8215 17.1431L12.5358 16.8216C12.75 18.2145 13.3929 17.8931 13.3929 17.8931V16.8216C13.3929 16.8216 13.3929 16.0716 12.75 15.8573C12 15.6431 11.4643 15.8573 11.25 15.7502C11.0358 15.7502 11.0358 15.5359 11.0358 15.5359H12L12.8572 14.7859H13.3929C14.25 14.5716 13.9286 13.9288 13.9286 13.9288H12.6429C12.1072 13.9288 10.9286 14.8931 10.9286 14.8931C10.9286 14.8931 10.7143 13.8216 11.6786 13.5002C12.6429 13.1788 12.4286 12.8573 12.4286 12.8573L11.5715 13.1788C11.5715 13.1788 11.5715 13.1788 11.5715 12.8573C11.5715 12.7502 12.3215 12.4288 12.3215 12.4288C12.8572 12.2145 12.75 11.7859 12.75 11.7859H11.7858C11.5715 11.7859 11.5715 11.6788 11.25 11.5716C10.9286 11.5716 10.3929 12.0002 10.5 11.7859C10.5 11.6788 10.5 11.1431 10.6072 10.7145C10.6072 10.2859 9.32148 12.2145 9.32148 12.2145C7.60719 15.5359 8.03576 17.7859 8.03576 17.7859C6.85719 18.3216 6.85719 19.6073 6.85719 19.2859C6.85719 17.4645 7.50005 17.5716 7.3929 16.3931C7.28576 15.2145 6.10719 15.3216 6.10719 15.3216C5.57148 15.3216 5.46433 15.6431 5.46433 15.6431C5.46433 15.6431 5.67862 15.6431 5.78576 15.6431H5.57148Z" fill="white"/>
<path d="M10.5 12.1071H11.1429L11.0357 11.7856L10.5 12.1071Z" fill="#5A0722"/>
<path d="M15.2144 24.1071C15.2144 24.1071 14.2501 24.1071 13.2858 23.3571C12.4286 22.4999 12.4286 21.5356 12.4286 21.5356V19.6071C12.4286 19.6071 12.2144 19.6071 12.2144 19.2856C12.2144 18.9642 12.5358 19.0713 12.5358 19.0713H13.1786C13.1786 19.7142 13.5001 19.6071 13.5001 19.6071C13.9286 19.6071 13.8215 19.0713 13.8215 19.0713H16.3929C16.3929 19.0713 16.3929 19.7142 16.7144 19.6071C16.7144 19.6071 17.1429 19.6071 17.0358 19.0713H17.6786C17.6786 19.0713 18.0001 19.0713 18.0001 19.2856C18.0001 19.4999 17.7858 19.6071 17.7858 19.6071V21.5356C17.7858 21.5356 17.7858 22.4999 16.9286 23.3571C16.0715 24.2142 15.0001 24.1071 15.0001 24.1071H15.2144Z" fill="white"/>
<path d="M24.7499 15.6431C24.7499 15.6431 24.4285 15.9645 25.0713 17.4645C25.1785 17.7859 25.8213 18.8573 25.0713 19.7145C24.5356 20.2502 23.7856 20.0359 23.7856 20.0359C23.7856 20.3573 23.7856 20.4645 23.7856 20.4645H24.3213C24.8571 20.4645 24.8571 21.1073 24.8571 21.1073V23.5716L24.4285 24.0002H23.0356C23.0356 23.3573 23.7856 23.1431 23.7856 23.1431V22.0716H22.4999C21.8571 22.0716 21.4285 20.7859 21.4285 20.7859H20.8928C20.8928 20.8931 21.5356 22.1788 21.5356 22.1788L20.0356 23.5716V24.0002H18.4285C18.4285 23.5716 19.0713 23.2502 19.0713 23.2502L20.0356 22.1788C20.1428 22.0716 20.0356 21.8573 19.9285 21.8573C19.7142 21.8573 19.6071 21.8573 19.3928 21.6431C19.1785 21.6431 18.3213 21.0002 18.6428 19.9288C18.9642 18.8573 20.2499 19.2859 20.2499 19.1788C20.2499 19.0716 19.6071 17.4645 19.6071 17.4645L20.1428 16.7145L19.4999 17.1431L17.7856 16.8216C17.5713 18.2145 16.9285 17.8931 16.9285 17.8931V16.8216C16.9285 16.8216 16.9285 16.0716 17.5713 15.8573C18.3213 15.6431 18.8571 15.8573 19.0713 15.7502C19.2856 15.6431 19.2856 15.5359 19.2856 15.5359H18.3213L17.4642 14.7859H16.9285C16.0713 14.5716 16.3928 13.9288 16.3928 13.9288H17.6785C18.2142 13.9288 19.3928 14.8931 19.3928 14.8931C19.3928 14.8931 19.6071 13.8216 18.6428 13.5002C17.6785 13.1788 17.8928 12.8573 17.8928 12.8573L18.7499 13.1788C18.7499 13.1788 18.7499 13.1788 18.7499 12.8573C18.7499 12.7502 17.9999 12.4288 17.9999 12.4288C17.4642 12.2145 17.5713 11.7859 17.5713 11.7859H18.5356C18.7499 11.7859 18.7499 11.6788 19.0713 11.5716C19.3928 11.5716 19.9285 12.0002 19.8213 11.7859C19.8213 11.6788 19.8213 11.1431 19.7142 10.7145C19.7142 10.2859 20.9999 12.2145 20.9999 12.2145C22.7142 15.5359 22.2856 17.7859 22.2856 17.7859C23.4642 18.3216 23.4642 19.6073 23.4642 19.2859C23.4642 17.4645 22.8213 17.5716 22.9285 16.3931C22.9285 15.2145 24.2142 15.3216 24.2142 15.3216C24.7499 15.3216 24.8571 15.6431 24.8571 15.6431C24.8571 15.6431 24.6428 15.6431 24.5356 15.6431H24.7499Z" fill="white"/>
<path d="M19.8213 12.1071H19.1785L19.2856 11.7856L19.8213 12.1071Z" fill="#5A0722"/>
<path d="M15.3214 16.8212V11.7855C15.3214 11.7855 15.4286 11.6784 15.4286 11.5712C15.4286 11.4641 15.3214 11.3569 15.2143 11.3569C15.1071 11.3569 15 11.4641 15 11.5712C15 11.6784 15 11.7855 15.1071 11.7855V16.8212L13.5 18.5355V19.0712H13.7143V18.6426L15.2143 17.0355L16.7143 18.6426V19.0712H16.9286V18.5355L15.3214 16.8212Z" fill="white"/>
<path d="M15.2144 0V1.60714L16.9286 0H15.2144Z" fill="#EAAA00"/>
<path d="M25.8215 9.64279H27.4287V8.03564L25.8215 9.64279Z" fill="#EAAA00"/>
<path d="M18.7501 0L15.2144 3.21429V4.82143L20.4644 0H18.7501Z" fill="#EAAA00"/>
<path d="M22.2858 0L15.2144 6.42857V8.03571L24.0001 0H22.2858Z" fill="#EAAA00"/>
<path d="M25.8215 0L15.2144 9.64286H16.9286L27.4286 0H25.8215Z" fill="#EAAA00"/>
<path d="M18.75 9.64265H20.4643L27.4286 3.21408V1.60693L18.75 9.64265Z" fill="#EAAA00"/>
<path d="M22.2856 9.64272H23.9999L27.4285 6.42843V4.82129L22.2856 9.64272Z" fill="#EAAA00"/>
</svg>
