<svg width="30" height="30" viewBox="0 0 30 30" fill="none" xmlns="http://www.w3.org/2000/svg">
<g clip-path="url(#clip0_3370_38)">
<path d="M26.4643 10.1787C26.25 10.2858 23.25 12.0001 23.25 15.8572C23.25 19.7144 27.1071 21.8572 27.3214 21.9644C27.3214 21.9644 26.6785 24.1072 25.2857 26.2501C24 28.0715 22.6071 29.8929 20.5714 29.8929C18.5357 29.8929 18 28.7144 15.6428 28.7144C13.2857 28.7144 12.5357 29.8929 10.7143 29.8929C8.89282 29.8929 7.49996 28.1786 5.99996 26.0358C4.28568 23.5715 2.89282 19.7144 2.89282 16.0715C2.89282 10.2858 6.64282 7.17865 10.3928 7.17865C14.1428 7.17865 14.0357 8.46437 15.3214 8.46437C16.6071 8.46437 18.3214 7.07151 20.5714 7.07151C22.8214 7.07151 24.5357 7.07151 26.5714 10.0715L26.4643 10.1787ZM19.3928 4.82151C20.3571 3.75008 21 2.14294 21 0.642938C21 -0.857062 21 0.214366 21 8.0511e-05C19.5 8.0511e-05 17.6785 0.964366 16.6071 2.25008C15.75 3.21437 15 4.71437 15 6.32151C15 7.92865 15 6.75008 15 6.85722C15 6.85722 15.2143 6.85722 15.4285 6.85722C16.8214 6.85722 18.5357 5.89294 19.5 4.71437L19.3928 4.82151Z" fill="black"/>
</g>
<defs>
<clipPath id="clip0_3370_38">
<rect width="30" height="30" fill="white"/>
</clipPath>
</defs>
</svg>
