<svg width="30" height="30" viewBox="0 0 30 30" fill="none" xmlns="http://www.w3.org/2000/svg">
<g clip-path="url(#clip0_3370_103)">
<path d="M26.25 4.07143C26.25 0.857143 23.1429 0 20.7857 0V0.535714C22.2857 0.535714 23.3572 1.07143 23.3572 2.14286C23.3572 3.21429 22.8215 3.75 21.4286 3.75C20.0357 3.75 17.8929 3.10714 16.0715 2.46429C13.9286 1.82143 12 1.17857 10.3929 1.17857C7.17861 1.17857 4.92861 3.64286 4.92861 6.32143C4.92861 9 6.75004 9.53571 7.39289 9.85714L7.60718 9.53571C7.07146 9.21428 6.64289 8.89286 6.64289 7.92857C6.64289 6.96429 7.28575 6.10714 8.89289 6.10714C10.5 6.10714 12.3215 6.75 14.8929 7.60714C17.1429 8.25 19.6072 8.78571 20.8929 8.89286V13.9286L18.4286 16.0714V16.2857L20.8929 18.4286V25.3929C19.6072 26.25 18.1072 26.3571 16.8215 26.3571C14.3572 26.3571 12.3215 25.7143 10.5 23.7857L17.1429 20.5714V9.32143L9.10718 12.8571C9.96432 10.7143 11.6786 9.32143 13.2857 8.14286L13.0715 7.82143C8.25004 9.10714 3.85718 13.5 3.85718 18.9643C3.85718 24.4286 9.21432 30.2143 15.1072 30.2143C21 30.2143 25.7143 25.0714 25.7143 19.7143H25.3929C24.4286 21.8571 22.9286 23.7857 21.2143 24.75V18.1071L23.7857 15.9643V15.75L21.3215 13.6071V8.78571C23.7857 8.78571 26.1429 7.17857 26.1429 4.07143H26.25ZM12.2143 21.75L10.2857 22.7143C9.10718 21.2143 8.46432 19.2857 8.46432 16.6071C8.46432 13.9286 8.67861 14.1429 9.00003 13.1786L12.4286 11.6786L12.2143 21.6429V21.75Z" fill="black"/>
</g>
<defs>
<clipPath id="clip0_3370_103">
<rect width="30" height="30" fill="white"/>
</clipPath>
</defs>
</svg>
