<svg width="30" height="30" viewBox="0 0 30 30" fill="none" xmlns="http://www.w3.org/2000/svg">
<path d="M15.6429 16.8216L14.1429 13.3931C13.0714 14.1431 12.75 14.5716 12.75 14.5716L14.3571 17.7859C14.3571 17.7859 15 17.1431 15.6429 16.8216Z" fill="#46166B"/>
<path d="M11.3572 11.8931L10.2858 9.64307C10.8215 9.00021 12.0001 8.14307 12.0001 8.14307L13.0715 10.5002C13.0715 10.5002 12.1072 11.1431 11.4643 11.8931H11.3572Z" fill="#46166B"/>
<path d="M8.46429 6.21429L5.25 0H8.35714L10.2857 4.5C10.2857 4.60714 9.32143 5.25 8.46429 6.32143V6.21429Z" fill="#46166B"/>
<path d="M17.7858 24.4285L15.5358 20.1428C15.5358 20.1428 15.9643 19.7142 16.6072 19.2856L18.4286 23.3571C18.4286 23.3571 18.0001 23.8928 17.7858 24.4285Z" fill="#46166B"/>
<path d="M18.6428 26.2501L20.5714 30.0001H21.2142L19.1785 25.1787C19.1785 25.1787 18.8571 25.5001 18.5356 26.143L18.6428 26.2501Z" fill="#46166B"/>
<path d="M23.0357 22.7144C22.5 23.1429 21.75 23.4644 20.7857 23.6786H20.6786C20.6786 23.6786 20.3571 23.8929 19.5 24.9644C21.75 24.8572 23.5714 24.3215 24.3214 23.7858C24.1071 23.1429 23.6786 22.8215 22.9286 22.8215L23.0357 22.7144Z" fill="#46166B"/>
<path d="M24.3215 12.3214C23.4643 13.3928 20.3572 14.2499 16.6072 14.3571H14.7857L14.3572 13.2856L15 12.8571H16.1786C19.2857 12.7499 21.3215 11.8928 22.2857 11.0356C22.2857 11.0356 23.7858 11.2499 24.3215 12.3214Z" fill="#46166B"/>
<path d="M10.8215 12.3216C10.0715 12.1073 9.21434 11.893 8.67862 11.6787H8.57148C8.57148 11.6787 8.14291 12.3216 8.03577 13.0716H8.14291C8.57148 13.393 9.00005 13.5001 9.64291 13.7144C9.96434 13.2859 10.3929 12.643 10.7143 12.3216H10.8215Z" fill="#46166B"/>
<path d="M17.6786 24.7502L17.25 23.8931H17.1429C15.6429 23.7859 14.3572 23.4645 13.5 23.1431C13.2857 23.7859 13.3929 24.0002 13.3929 24.1074C14.3572 24.5359 15.8572 24.8574 17.6786 24.8574V24.7502Z" fill="#46166B"/>
<path d="M16.8215 19.1786L17.2501 20.1429H17.893C21.2144 20.1429 23.6787 19.5001 24.4287 18.5358C23.7858 17.5715 22.8215 17.4644 22.6072 17.4644C21.7501 18.2144 19.9287 18.7501 17.4644 18.7501C17.4644 18.7501 17.3572 18.8572 16.9287 19.1786H16.8215Z" fill="#46166B"/>
<path d="M13.7143 18.4284C12.4286 18.2141 11.5715 17.7855 10.8215 17.3569C10.6072 17.9998 10.6072 18.3212 10.6072 18.6426C11.25 19.0712 11.7857 19.3926 12.8572 19.6069C13.3929 18.8569 13.5 18.7498 13.8215 18.4284H13.7143Z" fill="#46166B"/>
<path d="M10.2858 18.1072C10.5001 15.9644 12.9643 13.393 16.3929 11.7858C20.0358 10.1787 23.3572 10.2858 24.4286 11.893C24.6429 11.2501 24.7501 10.5001 24.6429 9.96439C24.0001 7.50011 20.0358 7.17868 15.7501 9.10725C11.4643 11.0358 8.57149 14.5715 9.21434 17.0358C9.32149 17.6787 9.75006 18.1072 10.1786 18.4287V18.1072H10.2858Z" fill="#46166B"/>
<path d="M24.5357 18.2144C24.75 17.5716 24.75 17.0359 24.5357 16.5002C23.8928 14.5716 20.5714 14.3573 17.1428 16.0716C13.7143 17.7859 11.3571 20.7859 12 22.8216C12.1071 23.2502 12.4286 23.6787 12.8571 23.893V23.6787C13.0714 21.8573 15 19.6073 17.7857 18.2144C20.6786 16.8216 23.4643 16.8216 24.4286 18.2144H24.5357Z" fill="#46166B"/>
<path d="M24.5357 23.3573C24.6428 22.9287 24.7499 22.5001 24.6428 22.0716C24.3214 20.4644 22.4999 20.2501 20.5714 21.5358C18.6428 22.8216 17.2499 25.0716 17.5714 26.6787C17.5714 27.1073 17.7857 27.3216 17.9999 27.5358C18.1071 26.0358 19.2857 24.3216 20.7857 23.2501C22.3928 22.1787 23.9999 22.2858 24.4285 23.3573H24.5357Z" fill="#46166B"/>
<path d="M20.8929 2.99986C20.8929 2.99986 20.8929 2.89272 20.7857 2.67843C20.7857 2.57129 20.6786 2.46415 20.6786 2.46415C20.4643 2.14272 19.6072 2.14272 18.8572 2.03557C18.4286 2.03557 17.6786 1.82129 17.3572 1.82129C17.0357 1.82129 16.7143 1.82129 16.3929 1.82129C16.0715 1.82129 15.3215 2.24986 15.1072 2.357H14.8929C9.21432 4.49986 5.78575 8.78557 6.64289 11.357C6.85718 11.9999 7.28575 12.4284 7.9286 12.857C8.25003 10.4999 11.3572 7.28557 15.8572 5.57129H15.9643C16.3929 5.357 16.3929 5.57129 16.8215 5.57129C17.25 5.57129 17.4643 5.57129 18.3215 5.14272L20.25 4.39272C20.25 4.39272 20.6786 4.28557 20.8929 3.96415C21 3.74986 20.8929 3.32129 20.8929 2.89272V2.99986ZM17.0357 2.99986C16.5 3.21415 16.2857 2.78557 16.2857 2.78557C16.7143 2.357 17.25 2.357 17.3572 2.357C17.3572 2.78557 17.3572 2.99986 17.1429 2.99986H17.0357Z" fill="#46166B"/>
</svg>
