<svg width="30" height="30" viewBox="0 0 30 30" fill="none" xmlns="http://www.w3.org/2000/svg">
<g clip-path="url(#clip0_3604_78)">
<path d="M26.062 6.27245V28.6861C24.1624 28.8669 22.8171 27.1798 21.5869 25.994L9.7295 10.703V22.9958L13.1161 24.9071L10.1213 28.7522C8.9823 28.1143 7.7236 27.4263 6.4314 27.1627C4.0483 26.6765 2.1326 27.363 0 28.3381C0.6383 25.6886 2.4613 23.5897 5.1252 22.8655V16.654C5.1252 16.3403 4.3825 16.5304 4.2739 17.1973C4.1812 17.7671 4.6379 18.1185 3.5132 17.7447C1.5994 17.1086 1.0762 13.8125 2.9812 12.8594C3.7055 12.497 4.3574 12.5663 5.1252 12.4405V5.49055C3.5962 5.63765 1.8898 6.54675 1.5966 8.19395C0.0323001 8.32705 0.6574 5.67795 1.0002 4.79715C2.0918 1.99225 5.0152 0.553947 7.9041 1.62565C10.0486 2.42125 12.1191 5.87495 13.5557 7.70215C16.2606 11.1425 19.0432 15.0441 21.8946 18.3019C21.9907 18.4117 22.1041 18.5511 22.2395 18.6086V6.27245L19.6337 5.44755L24.1066 1.24805C25.4446 2.24605 26.8332 3.00095 28.5509 2.54975C28.7938 2.48595 29.7725 2.03335 29.842 2.03935C30.213 2.07165 29.8278 3.07665 29.7265 3.29095C29.1455 4.52135 27.3814 5.95415 26.062 6.27245ZM25.1933 6.61995H24.1508V20.9977C24.1508 21.0707 24.9791 22.0115 25.1933 21.9968V6.61995ZM7.5577 7.74935V14.0043C8.0942 14.1193 8.541 14.3292 9.0672 14.0131L9.1002 9.63845C8.7938 9.14115 8.4758 8.57005 8.0766 8.14265C8.0097 8.07095 7.6449 7.64535 7.5577 7.74935ZM7.4708 15.1336H8.9911L9.1077 14.9897L9.1205 14.4387C8.5831 14.7029 8.0621 14.6113 7.5153 14.4374L7.4708 15.1336ZM9.1214 15.4811H7.4708V22.6048C8.0443 22.5297 8.5647 22.7082 9.1214 22.7785V15.4811Z" fill="#333333"/>
</g>
<defs>
<clipPath id="clip0_3604_78">
<rect width="30" height="30" fill="white"/>
</clipPath>
</defs>
</svg>
