<svg width="30" height="30" viewBox="0 0 30 30" fill="none" xmlns="http://www.w3.org/2000/svg">
<g clip-path="url(#clip0_3372_238)">
<path d="M9.64281 29.6786C7.07138 29.1429 6.32138 28.7143 6.42852 27.9643C6.42852 27 6.74995 25.0714 6.96424 24.9643C6.96424 24.9643 7.71424 24.9643 8.35709 25.3929C11.0357 26.5714 14.0357 26.8929 16.1785 26.3571C17.5714 25.9286 19.0714 24.4286 19.2857 23.0357C19.6071 21 18.3214 19.2857 14.8928 17.25C8.46424 13.3929 6.74995 11.4643 6.74995 7.82143C6.74995 5.46429 7.28567 4.07143 8.89281 2.46429C10.7142 0.428571 12 0 16.2857 0C19.1785 0 19.9285 0 21.4285 0.535714C22.3928 0.857143 23.1428 1.17857 23.1428 1.39286C23.1428 2.03571 23.1428 4.71429 22.9285 4.92857C22.9285 4.92857 22.3928 4.92857 21.9642 4.71429C18.8571 3.32143 15.5357 3 13.5 3.85714C11.5714 4.60714 10.5 6.64286 11.0357 8.57143C11.4642 9.85714 13.5 11.7857 16.2857 13.5C21.8571 16.8214 23.5714 18.8571 23.6785 22.0714C23.6785 24.3214 23.0357 25.8214 21.4285 27.5357C19.3928 29.5714 18.1071 30 14.25 30.1071C12.2142 30.1071 10.8214 30.1071 9.74995 29.7857L9.64281 29.6786Z" fill="#FF8200"/>
</g>
<defs>
<clipPath id="clip0_3372_238">
<rect width="30" height="30" fill="white"/>
</clipPath>
</defs>
</svg>
