<svg width="30" height="30" viewBox="0 0 30 30" fill="none" xmlns="http://www.w3.org/2000/svg">
<path d="M0 7.60693H3.21429L5.46429 18.2141L8.25 7.60693H11.3571L14.1429 18.2141L16.5 7.60693H19.5L15.8571 22.3926H12.4286L9.64286 11.7855L6.96429 22.3926H3.53571L0 7.60693Z" fill="black"/>
<path d="M24.75 22.6071C23.6786 22.6071 22.7143 22.3928 21.8571 22.0714C21 21.6428 20.25 21.1071 19.5 20.4642L21.1071 18.3214C21.6429 18.8571 22.1786 19.2856 22.8214 19.6071C23.4643 19.9285 24.1071 20.0356 24.6429 20.0356C25.1786 20.0356 25.7143 19.9285 26.1429 19.6071C26.5714 19.2856 26.6786 18.9642 26.6786 18.4285C26.6786 17.8928 26.4643 17.5714 26.1429 17.2499C25.8214 16.9285 25.1786 16.6071 24.4286 16.1785L23.3571 15.6428C21.2143 14.6785 20.1429 13.2856 20.1429 11.4642C20.1429 9.64279 20.3571 9.96422 20.7857 9.32136C21.2143 8.6785 21.8571 8.14279 22.6071 7.82136C23.3571 7.49993 24.2143 7.28564 25.0714 7.28564C25.9286 7.28564 26.7857 7.49993 27.5357 7.82136C28.3929 8.14279 29.1429 8.6785 29.8929 9.32136L28.1786 11.4642C27.75 11.0356 27.2143 10.6071 26.6786 10.3928C26.1429 10.0714 25.6071 9.96422 25.0714 9.96422C24.5357 9.96422 24.1071 10.0714 23.7857 10.3928C23.4643 10.6071 23.25 10.9285 23.25 11.3571C23.25 11.7856 23.3571 11.9999 23.5714 12.3214C23.7857 12.6428 24.2143 12.8571 24.75 13.1785L25.9286 13.7142C27.2143 14.3571 28.1786 14.9999 28.7143 15.6428C29.3571 16.2856 29.6786 17.2499 29.6786 18.2142C29.6786 19.1785 29.4643 19.7142 29.0357 20.3571C28.6071 20.9999 28.0714 21.5356 27.2143 21.9642C26.4643 22.3928 25.5 22.6071 24.5357 22.6071H24.75Z" fill="black"/>
</svg>
