<svg width="30" height="30" viewBox="0 0 30 30" fill="none" xmlns="http://www.w3.org/2000/svg">
<g clip-path="url(#clip0_3312_19)">
<path d="M15.0389 29.8478C23.2605 29.8478 29.9255 23.1829 29.9255 14.9613C29.9255 6.73965 23.2605 0.074707 15.0389 0.074707C6.81729 0.074707 0.152344 6.73965 0.152344 14.9613C0.152344 23.1829 6.81729 29.8478 15.0389 29.8478Z" fill="#FB3958"/>
<path d="M20.7254 10.5434C21.4358 10.5434 22.0119 9.96426 22.0089 9.25381C22.0089 8.54336 21.4298 7.96724 20.7194 7.97023C20.0089 7.97023 19.4328 8.54933 19.4358 9.25978C19.4358 9.96724 20.0149 10.5434 20.7254 10.5434Z" fill="white"/>
<path d="M15.0179 20.4984C18.0597 20.4924 20.5224 18.0238 20.5164 14.979C20.5104 11.9372 18.0388 9.47451 14.997 9.48048C11.9552 9.48645 9.49551 11.9581 9.50148 14.9999C9.50745 18.0447 11.9761 20.5044 15.0179 20.4984ZM15 11.4148C16.9731 11.4118 18.5791 13.0088 18.5821 14.982C18.5851 16.9581 16.988 18.5611 15.0119 18.5641C13.0388 18.567 11.4328 16.97 11.4298 14.9939C11.4298 13.0238 13.0268 11.4208 15 11.4148Z" fill="white"/>
<path d="M7.96423 4.84163C7.25975 5.11626 6.66274 5.48641 6.06572 6.08342C5.47169 6.68044 5.10453 7.28044 4.83289 7.98492C4.5702 8.6685 4.3911 9.4476 4.34035 10.5909C4.2896 11.7342 4.27766 12.1013 4.28363 15.0118C4.2896 17.9252 4.30154 18.2894 4.35528 19.4357C4.40901 20.576 4.5911 21.3551 4.85975 22.0386C5.13438 22.7431 5.50453 23.3401 6.10154 23.9372C6.69856 24.5312 7.29856 24.8983 8.00304 25.17C8.68662 25.4327 9.46572 25.6148 10.606 25.6625C11.7493 25.7133 12.1165 25.7252 15.0269 25.7192C17.9403 25.7133 18.3045 25.7013 19.4508 25.6476C20.5911 25.5939 21.3702 25.4088 22.0538 25.1431C22.7583 24.8685 23.3553 24.4983 23.9523 23.9013C24.5463 23.3043 24.9135 22.7043 25.1851 21.9998C25.4478 21.3163 25.6299 20.5372 25.6777 19.3969C25.7284 18.2506 25.7404 17.8864 25.7344 14.973C25.7284 12.0595 25.7165 11.6954 25.6627 10.5521C25.609 9.4088 25.4269 8.62969 25.1583 7.94909C24.8836 7.24462 24.5135 6.6476 23.9165 6.05059C23.3195 5.45656 22.7195 5.08939 22.015 4.81775C21.3314 4.55506 20.5523 4.37297 19.412 4.32521C18.2687 4.27447 17.9015 4.26253 14.9881 4.2685C12.0747 4.27447 11.7105 4.28641 10.5672 4.34014C9.42393 4.39387 8.64483 4.57596 7.96423 4.84163ZM10.6568 6.2685C11.7881 6.21477 12.1284 6.20283 14.9911 6.19686C17.8568 6.19089 18.1941 6.20283 19.3254 6.25059C20.3702 6.29536 20.9403 6.4685 21.3165 6.61477C21.818 6.8088 22.1762 7.03865 22.5523 7.41477C22.9284 7.79089 23.1612 8.14611 23.3583 8.6476C23.5045 9.02372 23.6806 9.59387 23.7314 10.6386C23.7851 11.77 23.7971 12.1103 23.803 14.973C23.809 17.8386 23.7971 18.176 23.7493 19.3073C23.7045 20.3521 23.5314 20.9222 23.3851 21.3013C23.1911 21.8028 22.9583 22.161 22.5851 22.5372C22.209 22.9133 21.8538 23.1461 21.3523 23.3431C20.9762 23.4894 20.406 23.6655 19.3612 23.7163C18.2299 23.77 17.8896 23.7819 15.0269 23.7879C12.1642 23.7939 11.8239 23.7819 10.6926 23.7342C9.64781 23.6894 9.07766 23.5163 8.70154 23.37C8.20005 23.176 7.84184 22.9431 7.46572 22.57C7.0896 22.1939 6.85677 21.8386 6.65975 21.3372C6.51349 20.958 6.33438 20.3909 6.28662 19.3461C6.23289 18.2148 6.22095 17.8775 6.21498 15.0118C6.20901 12.1491 6.22095 11.8088 6.26871 10.6775C6.31348 9.63268 6.4896 9.06253 6.63289 8.68641C6.82692 8.18492 7.05975 7.82671 7.43289 7.45059C7.80901 7.07447 8.16423 6.84163 8.66572 6.64462C9.04483 6.49536 9.61199 6.31924 10.6568 6.2685Z" fill="white"/>
</g>
<defs>
<clipPath id="clip0_3312_19">
<rect width="30" height="30" fill="white"/>
</clipPath>
</defs>
</svg>
