<svg width="30" height="30" viewBox="0 0 30 30" fill="none" xmlns="http://www.w3.org/2000/svg">
<g clip-path="url(#clip0_3372_239)">
<path d="M17.1429 26.0357C19.9286 24.5357 19.7143 22.8214 16.9286 21.5357C15.2143 20.7857 13.2857 20.3571 11.4643 19.9286C11.7857 19.7143 12.3214 19.9286 12.75 19.9286C13.9286 19.9286 15 20.0357 16.1786 20.25C17.0357 20.3571 17.8929 20.5714 18.75 20.6786C18.8571 20.6786 19.3929 19.7143 19.5 19.5C21.9643 14.3571 20.3571 3.96429 12.9643 4.5C8.89286 4.82143 6.75 8.89286 6.53571 12.5357C6.21429 18.9643 9.42857 25.1786 16.7143 24C16.9286 24 17.7857 23.6786 17.8929 23.7857C17.6786 23.7857 17.4643 24 17.25 24.1071C11.0357 26.5714 4.60714 22.2857 3.53571 15.8571C2.25 8.25 9.10714 1.07143 16.9286 3.75C23.6786 6.10714 25.8214 14.6786 21.9643 20.4643C21.75 20.7857 21.5357 21 21.3214 21.3214C21.8571 21.6429 22.5 21.75 23.0357 22.0714C25.6071 23.4643 25.5 25.3929 24 27.6429C23.3571 28.6071 22.7143 29.25 22.2857 30.1071H30V0H0V30H10.0714C11.7857 27.9643 14.8929 27.2143 17.25 26.0357H17.1429Z" fill="#C2001A"/>
<path d="M23.9999 27.5357C25.4999 25.2857 25.4999 23.3572 23.0356 21.9643C22.4999 21.6429 21.8571 21.5357 21.3213 21.2143C21.5356 21 21.7499 20.6786 21.9642 20.3572C25.8213 14.5714 23.7856 6.00001 16.9285 3.64287C9.10705 1.07144 2.24991 8.25001 3.53562 15.9643C4.60705 22.2857 10.9285 26.6786 17.2499 24.2143C17.4642 24.2143 17.6785 24 17.8928 23.8929C17.8928 23.8929 16.9285 24.1072 16.7142 24.1072C9.42848 25.2857 6.2142 19.0714 6.53563 12.6429C6.74991 8.89287 8.78563 4.92858 12.9642 4.60715C20.3571 4.07144 21.9642 14.4643 19.4999 19.6072C19.4999 19.8214 18.9642 20.6786 18.7499 20.7857C17.8928 20.7857 17.0356 20.4643 16.1785 20.3572C14.9999 20.25 13.9285 20.1429 12.7499 20.0357C12.3213 20.0357 11.7856 19.8214 11.4642 20.0357C13.2856 20.4643 15.2142 20.7857 16.9285 21.6429C19.7142 22.9286 19.9285 24.6429 17.1428 26.1429C14.8928 27.3214 11.6785 28.0714 9.9642 30.1072H22.1785C22.7142 29.3572 23.2499 28.6071 23.8928 27.6429L23.9999 27.5357Z" fill="white"/>
</g>
<defs>
<clipPath id="clip0_3372_239">
<rect width="30" height="30" fill="white"/>
</clipPath>
</defs>
</svg>
