<svg width="30" height="30" viewBox="0 0 30 30" fill="none" xmlns="http://www.w3.org/2000/svg">
<g clip-path="url(#clip0_3604_79)">
<path d="M29.9954 10.0001V29.1074C29.9954 29.5254 29.4022 30.0254 28.9812 29.9991H0.987397C0.475298 29.9776 0 29.6389 0 29.1546V26.7482C0.472498 26.7799 0.983497 26.7918 1.4584 26.7809C7.64697 26.6387 12.4527 24.0386 16.2169 19.2322C18.3664 16.4877 19.6024 13.3986 22.7691 11.5373C24.9595 10.2498 27.4917 9.99236 29.9954 10.0001Z" fill="#132F51"/>
<path d="M0.00448608 0.89167C0.0689859 0.411078 0.538684 0.0155029 1.01868 0H29.0125C29.5246 0.0215041 29.9955 0.360168 29.9955 0.844461C29.9955 1.557 30 2.47657 30 3.25092C29.5275 3.21921 29.0165 3.20731 28.5416 3.21821C22.3471 3.36054 17.5312 5.96804 13.7693 10.7845C11.6282 13.5258 10.3898 16.6052 7.23086 18.4619C5.04047 19.7494 2.50838 20.0067 0.00468608 19.999L0.00448608 0.89167Z" fill="#132F51"/>
</g>
<defs>
<clipPath id="clip0_3604_79">
<rect width="30" height="30" fill="white"/>
</clipPath>
</defs>
</svg>
