<svg width="30" height="30" viewBox="0 0 30 30" fill="none" xmlns="http://www.w3.org/2000/svg">
<g clip-path="url(#clip0_3370_62)">
<path d="M30 30H0V0H30V30ZM7.17857 2.35714C6.64286 2.14286 6 2.03571 5.35714 2.03571C3.75 2.14286 2.03571 3.42857 1.92857 5.78571C1.92857 8.14286 3.10714 9.42857 4.39286 9.96429C5.89286 10.5 6.75 10.1786 6.85714 10.1786C6.75 10.2857 6.42857 10.7143 6.21429 10.9286C6.53571 10.9286 6.75 11.1429 6.96429 11.25C7.5 10.5 8.03571 9.96429 8.78571 9.42857C9.53571 9 10.3929 8.57143 11.3571 8.46429H11.4643C11.1429 8.67857 10.9286 9 10.8214 9.21429C10.6071 9.64286 10.3929 10.1786 10.5 10.3929C10.5 10.3929 10.5357 10.3929 10.6071 10.3929H10.7143C10.7143 10.1786 10.8214 10.0714 10.9286 10.0714C10.9286 10.0714 10.9286 10.0714 11.0357 10.0714C11.0357 10.0714 11.0357 10.0714 11.0357 10.2857C11.0357 10.5 11.0357 10.9286 11.1429 11.25C11.4643 11.6786 11.6786 12 11.7857 12C11.7857 12 11.7857 12 11.7857 11.6786C11.7857 11.3571 11.5714 10.5 11.7857 9.75C12 8.89286 12.5357 8.14286 13.1786 8.14286V7.39286C13.0714 7.39286 12.4286 7.39286 12 6.96429C11.7857 6.75 11.6786 6.42857 11.6786 6.10714C11.6786 5.57143 11.8929 5.03571 12.3214 4.60714C12.3214 4.60714 12.5357 4.39286 12.4286 4.28571C12.4286 4.28571 12.4286 4.17857 12.2143 4.17857C11.8929 4.17857 11.3571 4.60714 11.1429 4.82143C11.0357 5.03571 10.8214 5.35714 10.8214 5.57143C10.8214 5.57143 10.6071 5.57143 10.5 5.46429C10.5 5.35714 10.5 5.14286 10.5 5.14286C10.5 5.14286 10.5 5.14286 10.3929 5.14286C10.2857 5.35714 10.3929 6.21429 10.7143 6.75L11.1429 7.28571C10.9286 7.28571 10.6071 7.39286 10.3929 7.5C9.96428 7.60714 9.53571 7.82143 9.10714 8.03571C8.67857 8.25 8.14286 8.46429 7.60714 8.57143C6.21429 9 5.14286 9 4.39286 8.57143C3.42857 7.92857 2.89286 6.75 2.89286 5.57143C2.89286 4.71429 3.21429 3.96429 3.85714 3.32143C4.28571 2.78571 4.92857 2.57143 5.67857 2.57143C7.39286 2.57143 8.03571 3.75 8.03571 4.60714C8.03571 5.46429 7.5 6.10714 6.75 6.10714C6.32143 6.10714 5.78571 5.89286 5.67857 5.46429C5.67857 5.25 5.67857 5.03571 5.67857 4.82143C5.67857 4.60714 5.67857 4.5 5.67857 4.39286C5.67857 4.39286 5.57143 4.5 5.46429 4.60714C5.25 5.03571 5.25 5.67857 5.46429 6.10714C5.78571 6.75 6.42857 7.07143 7.17857 6.96429C8.03571 6.96429 8.67857 6.32143 9 5.57143C9.21428 5.03571 9.21429 4.82143 9.21429 4.5C9.21429 4.39286 9.21429 4.28571 9.21429 4.17857C9.21429 4.17857 9.75 4.17857 10.1786 3.53571C10.8214 2.67857 10.6071 2.14286 10.5 2.03571C10.5 1.92857 10.3929 1.92857 10.2857 1.92857C10.2857 1.92857 10.2857 2.03571 10.2857 2.14286C10.2857 2.35714 10.1786 2.78571 9.64286 2.89286C9.21429 3 8.89286 2.89286 8.57143 2.57143C8.25 2.35714 7.92857 2.14286 7.60714 2.03571L7.17857 2.35714ZM2.57143 12.5357C2.57143 12.5357 2.57143 12.75 2.35714 12.9643C2.03571 13.7143 1.82143 14.5714 1.82143 15.4286C1.82143 16.5 2.14286 17.5714 2.78571 18.3214C3.42857 19.0714 4.28571 19.5 5.14286 19.5C6.42857 19.5 7.60714 18.75 8.03571 18.4286C8.67857 17.8929 9.32143 17.25 9.85714 16.7143C9.85714 16.7143 10.2857 17.3571 10.7143 17.5714C11.0357 17.6786 11.3571 17.5714 11.5714 17.5714C11.25 17.25 11.0357 16.8214 10.9286 16.3929C10.9286 15.75 12.1071 15.2143 12.9643 15V14.1429C12.9643 14.1429 12.3214 14.1429 12.2143 14.1429C10.6071 14.5714 9.64286 15.5357 8.67857 16.5C7.60714 17.4643 6.64286 18.4286 5.14286 18.4286C4.5 18.4286 3.96429 18.1071 3.53571 17.6786C2.89286 17.0357 2.67857 16.1786 2.67857 15.3214C2.67857 14.3571 3.10714 13.6071 3.64286 13.0714C4.07143 12.6429 4.71429 12.4286 5.35714 12.4286C5.78571 12.4286 6.21429 12.6429 6.64286 12.8571C6.96429 13.0714 7.28571 13.5 7.28571 14.1429C7.28571 14.5714 7.17857 15.1071 6.85714 15.4286C6.42857 15.75 6 15.8571 5.46429 15.75C5.14286 15.75 4.82143 15.4286 4.71429 15.1071C4.60714 14.8929 4.5 14.6786 4.5 14.4643C4.5 14.4643 4.5 14.4643 4.39286 14.4643C4.39286 14.4643 4.28571 14.5714 4.28571 14.7857C4.28571 15.6429 4.82143 16.2857 5.57143 16.5C6.64286 16.8214 7.71429 16.2857 8.14286 15.2143C8.35714 14.6786 8.35714 14.3571 8.35714 14.3571C8.35714 14.4643 8.89286 14.6786 9.21429 14.6786C9.64286 14.6786 9.75 14.25 9.96429 13.9286C10.0714 13.6071 10.2857 13.3929 10.6071 13.2857C10.9286 13.2857 11.0357 13.2857 11.1429 13.2857C11.1429 13.2857 11.1429 13.2857 11.25 13.2857C11.25 13.2857 11.25 13.2857 11.25 13.1786C11.25 12.9643 10.8214 12.75 10.2857 12.75C9.96429 12.75 9.64286 12.8571 9.42857 13.0714C9.32143 13.1786 9.21428 13.2857 9 13.3929C8.46428 13.6071 8.25 13.5 8.14286 13.5C8.14286 13.5 7.28571 11.5714 5.25 11.5714C4.60714 11.5714 3.85714 11.7857 3.32143 12.2143C3.32143 11.8929 3.21429 11.6786 3.10714 11.3571C3 11.1429 2.78571 11.0357 2.57143 10.9286C2.57143 10.9286 2.78571 11.25 2.78571 11.6786C2.78571 11.8929 2.78571 12.2143 2.57143 12.4286V12.5357ZM4.07143 17.25C4.28571 17.4643 4.60714 17.6786 5.03571 17.7857C5.03571 17.7857 5.03571 17.3571 5.03571 17.0357C5.03571 17.0357 4.5 16.8214 4.17857 16.2857C4.17857 16.6071 4.07143 16.9286 4.07143 17.25ZM5.25 13.0714C5.03571 13.3929 4.92857 13.6071 4.82143 14.0357C5.03571 14.6786 5.25 14.8929 5.46429 15C5.57143 14.4643 5.78571 13.9286 6 13.3929C5.78571 13.1786 5.46429 13.0714 5.14286 13.1786L5.25 13.0714ZM4.5 27.5357C4.60714 27.6429 5.35714 26.8929 5.78571 26.0357C6.21429 25.1786 6.32143 24.3214 6.21429 23.4643C6.10714 22.9286 5.89286 22.3929 5.67857 21.9643C6.10714 22.2857 6.53571 22.3929 7.07143 22.5C8.14286 22.7143 9.21429 22.7143 9.96429 22.5C10.1786 22.5 10.3929 22.3929 10.5 22.3929C10.7143 22.3929 10.8214 22.3929 10.9286 22.3929C10.9286 22.5 10.6071 22.9286 9.32143 23.1429C7.92857 23.3571 7.07143 23.1429 7.07143 23.1429C7.07143 23.1429 7.07143 23.4643 7.60714 23.7857C7.82143 23.8929 7.92857 24 8.14286 24.1071C8.35714 24.2143 8.57143 24.3214 8.78571 24.5357C8.89286 24.75 9 24.9643 9 25.0714V25.2857C9 25.2857 9.10714 25.1786 9.21429 24.9643C9.21429 24.9643 9.21428 24.75 9.32143 24.6429C9.42857 24.3214 9.32143 23.8929 9.32143 23.8929C9.32143 23.8929 9.85714 24.3214 10.8214 24.2143C11.4643 24.2143 11.8929 24 11.8929 23.8929C11.8929 23.8929 11.8929 23.8929 11.6786 23.8929C11.5714 23.8929 11.4643 23.8929 11.3571 23.8929C11.0357 23.8929 10.8214 23.6786 10.8214 23.6786C10.8214 23.6786 11.4643 23.4643 12.1071 22.9286C12.8571 22.3929 13.2857 21.75 13.1786 21.6429C13.1786 21.5357 12.8571 21.6429 12.6429 21.6429H12.4286C11.8929 21.75 11.7857 21.75 11.7857 21.75C11.7857 21.75 11.7857 21.75 12 21.4286C12.1071 21.2143 12.3214 21.1071 12.4286 21.1071C12.5357 21.1071 12.6429 21 12.6429 20.8929C12.6429 20.7857 12.1071 20.5714 10.9286 21.1071C10.5 21.3214 10.0714 21.6429 10.0714 21.6429C10.0714 21.6429 10.2857 21.1071 10.2857 20.6786C10.2857 20.1429 10.5 19.5 10.2857 19.5C10.2857 19.5 10.2857 19.5 10.0714 19.5C10.0714 19.6071 9.96428 19.7143 9.85714 19.8214C9.75 20.0357 9.64286 20.1429 9.64286 20.1429C9.64286 20.1429 9.64286 20.0357 9.53571 19.9286C9.53571 19.9286 9.53571 19.8214 9.53571 19.7143C9.53571 19.5 9.32143 19.1786 9.21429 19.2857C9.21429 19.2857 9.10714 19.5 9 19.8214C9 20.25 8.78571 20.6786 8.57143 20.8929C8.46429 21 8.35714 21.1071 8.14286 21.1071C7.60714 21.3214 7.07143 21.3214 6.53571 21.1071C6.10714 21 5.67857 20.6786 5.35714 20.25C5.03571 20.25 4.71429 20.1429 4.39286 19.9286C4.39286 20.25 4.60714 20.5714 4.71429 20.8929C5.14286 21.8571 5.67857 23.4643 5.14286 24.75C4.5 26.25 3.10714 26.5714 2.89286 26.25C2.89286 26.25 2.89286 26.1429 3.21429 26.0357C3.85714 25.8214 4.28571 25.2857 4.60714 24.75C5.14286 23.6786 4.71429 22.3929 4.71429 22.3929C4.71429 22.3929 4.71429 23.4643 3.96429 24.2143C3.32143 24.8571 2.78571 24.75 2.57143 24.75H2.35714C2.25 24.8571 2.35714 24.9643 2.67857 25.0714C2.78571 25.0714 3.10714 25.1786 3.10714 25.1786C3.10714 25.1786 2.89286 25.3929 2.46429 25.6071H2.35714C2.14286 25.8214 1.92857 25.8214 1.92857 25.9286C1.92857 25.9286 2.35714 26.4643 2.89286 26.6786C3.32143 26.8929 3.96429 26.8929 3.96429 26.8929C3.96429 26.8929 3.96429 26.8929 3.85714 27.1071L3.64286 27.3214C3.64286 27.4286 3.53571 27.5357 3.64286 27.5357C3.75 27.75 3.85714 27.6429 4.5 27.2143C5.14286 26.7857 5.35714 26.5714 5.35714 26.5714V26.8929C5.25 26.8929 5.25 27.1071 5.14286 27.1071C5.14286 27.1071 5.14286 27.2143 5.14286 27.3214L4.5 27.5357ZM11.1429 28.0714C12.2143 27.8571 13.0714 27.6429 14.25 26.5714C15.5357 25.3929 15.9643 23.7857 16.1786 23.0357C16.5 21.8571 16.3929 19.6071 16.3929 19.6071V7.92857C16.3929 7.92857 16.3929 5.46429 16.3929 4.82143C16.5 4.28571 16.8214 3.85714 17.1429 3.53571C17.6786 3 18.75 2.78571 18.75 2.78571C19.0714 2.78571 19.0714 2.57143 19.0714 2.46429C19.0714 2.25 18.8571 2.25 18.8571 2.25H11.25C11.25 2.25 11.0357 2.25 11.0357 2.46429C11.0357 2.57143 11.0357 2.78571 11.3571 2.78571C11.3571 2.78571 12.4286 3 12.9643 3.53571C13.2857 3.96429 13.6071 4.39286 13.7143 4.82143C13.9286 5.46429 13.7143 7.92857 13.7143 7.92857L13.5 19.6071V20.0357C13.5 20.8929 13.5 22.3929 13.5 23.0357C13.2857 24.1071 13.0714 24.9643 12.4286 25.7143C11.8929 26.3571 11.0357 26.6786 10.2857 26.6786C9.42857 26.6786 8.78571 26.3571 8.14286 25.9286C7.5 25.3929 6.85714 24.8571 6.32143 24.3214L7.5 28.0714C7.5 28.0714 9.75 28.3929 10.9286 28.1786L11.1429 28.0714ZM19.9286 20.8929C18.9643 20.8929 18.3214 20.25 18.2143 19.5C18.2143 19.0714 18.2143 18.75 18.5357 18.4286C18.75 18.1071 19.1786 17.8929 19.5 17.7857C19.8214 17.7857 20.25 17.7857 20.3571 18C20.4643 18 20.5714 18.1071 20.6786 18C20.6786 18 20.6786 17.8929 20.6786 17.6786C20.6786 17.4643 20.4643 17.3571 20.3571 17.25C20.1429 17.1429 19.8214 17.0357 19.5 17.0357C18.8571 17.0357 18.2143 17.4643 17.8929 18C17.8929 18 17.7857 17.7857 17.6786 17.7857C17.4643 17.6786 17.25 17.5714 17.25 17.7857C17.25 17.7857 17.25 17.7857 17.25 18C17.25 18 17.3571 18.2143 17.4643 18.4286C17.4643 18.6429 17.4643 18.8571 17.4643 19.1786C17.4643 19.5 17.4643 19.8214 17.4643 20.1429C17.6786 21.2143 18.6429 21.9643 19.7143 21.9643C19.8214 21.9643 20.0357 21.9643 20.1429 21.9643C20.5714 21.8571 21 21.5357 21.3214 21.2143C21.5357 21.4286 21.9643 21.75 22.1786 21.8571C22.1786 21.5357 22.2857 21.2143 22.2857 21C22.2857 21 21.75 20.5714 21.1071 19.9286C20.8929 19.7143 20.5714 19.3929 20.3571 19.1786C20.1429 18.9643 19.8214 18.8571 19.5 18.75C19.1786 18.75 19.0714 18.75 19.0714 18.75C19.5 19.5 19.9286 20.0357 20.5714 20.5714C20.3571 20.8929 20.0357 21 19.7143 21.1071L19.9286 20.8929ZM17.4643 10.7143C17.4643 10.7143 17.4643 11.25 17.4643 12.4286C17.4643 13.0714 17.6786 13.7143 17.7857 13.9286L18.6429 13.5C18.5357 13.0714 18.4286 12.6429 18.3214 12.2143C18.2143 11.4643 18.3214 11.3571 18.3214 11.3571C18.1071 11.0357 17.7857 10.8214 17.4643 10.6071V10.7143ZM17.25 9.85714C17.25 9.85714 17.6786 9.96428 18.3214 10.6071C18.6429 10.9286 18.9643 11.25 19.2857 11.5714V10.5C19.1786 10.1786 18.8571 9.85714 18.5357 9.64286C18.1071 9.32143 17.6786 9.10714 17.25 8.89286V9.96429V9.85714ZM27.8571 26.1429C27.9643 25.7143 27.9643 25.2857 27.8571 24.75C27.8571 24.4286 27.5357 23.7857 26.5714 23.1429C26.0357 22.8214 25.5 22.6071 25.2857 22.6071C25.3929 22.1786 25.7143 22.0714 25.8214 22.0714C25.8214 22.0714 25.5 21.8571 25.1786 21.9643C24.9643 21.9643 24.6429 22.2857 24.6429 22.3929V22.6071C24.6429 22.7143 24.5357 22.8214 24.4286 23.1429H24.6429C24.9643 23.3571 25.3929 23.5714 25.6071 23.6786C26.5714 24.1071 27 24.6429 27.1071 25.2857C27.1071 25.6071 27.1071 25.8214 27.1071 26.1429C26.8929 26.8929 26.1429 27.4286 25.5 27.2143C25.0714 27.2143 24.75 26.8929 24.5357 26.5714C24.4286 26.25 24.4286 26.0357 24.5357 25.7143C24.5357 25.5 24.75 25.3929 24.8571 25.2857C24.9643 25.2857 25.1786 25.2857 25.2857 25.2857C25.6071 25.3929 25.6071 25.6071 25.6071 25.8214V26.0357C25.6071 26.0357 25.7143 26.0357 25.8214 26.0357C25.9286 26.0357 26.0357 25.8214 26.0357 25.6071C26.0357 25.2857 25.9286 24.9643 25.3929 24.75C24.8571 24.5357 24.2143 24.75 24 25.3929C23.7857 25.9286 23.7857 26.4643 24 27C24 27 23.8929 27.1071 23.7857 27.3214C23.6786 27.6429 23.6786 27.8571 23.6786 27.9643C23.6786 27.9643 23.6786 27.9643 23.7857 27.9643C23.8929 27.9643 23.8929 27.8571 24 27.75C24.2143 27.6429 24.4286 27.75 24.5357 27.75C24.9643 27.9643 25.2857 28.1786 25.8214 28.1786C26.3571 28.1786 26.25 28.1786 26.4643 28.1786C27.1071 27.9643 27.6429 27.4286 27.8571 26.5714V26.1429ZM26.6786 21.9643C27.2143 21.9643 27.8571 21.4286 28.0714 20.25C28.0714 19.7143 28.0714 19.1786 27.75 18.6429C27.5357 18.2143 27.1071 18 26.5714 17.8929C25.9286 17.7857 25.0714 17.8929 24 18.9643C24 18.9643 23.8929 19.1786 23.7857 19.2857V18.9643C23.25 17.7857 22.6071 16.7143 21.8571 15.6429C21.6429 15.3214 21.4286 15.1071 21.2143 14.7857C20.8929 14.1429 20.7857 13.1786 21 12.9643C21.1071 12.9643 21.1071 13.0714 21.2143 13.2857C21.2143 13.6071 21.3214 14.0357 21.6429 14.5714C21.8571 14.8929 22.0714 15.2143 22.3929 15.5357C22.6071 15.75 22.7143 15.9643 23.0357 16.2857C23.25 16.6071 23.4643 17.0357 23.6786 17.3571C23.6786 17.3571 23.4643 15.9643 23.6786 14.4643C23.7857 13.7143 24 13.0714 24.2143 12.6429C24.3214 12.3214 24.4286 12.1071 24.3214 12.1071C24.2143 12.1071 24 12.3214 23.7857 12.5357L23.5714 12.75C23.25 13.1786 22.9286 13.6071 22.9286 13.6071C22.9286 13.6071 22.2857 13.3929 22.2857 12.3214C22.2857 11.5714 22.2857 11.1429 22.2857 10.7143C22.2857 10.5 22.2857 10.3929 22.2857 10.1786C22.2857 10.1786 22.2857 10.1786 22.2857 10.0714C22.1786 10.0714 21.75 10.5 21.5357 10.9286C21.4286 11.1429 21.4286 11.3571 21.3214 11.5714C21.3214 11.6786 21.3214 11.7857 21.3214 11.7857C21.2143 11.7857 21 11.3571 21 10.8214C21 10.6071 21 10.5 21 10.2857C21 10.0714 21 9.85714 21 9.85714C21 9.85714 21 9.85714 20.8929 9.85714C20.7857 9.85714 20.6786 10.1786 20.5714 10.5C20.4643 10.9286 20.3571 11.3571 20.3571 11.8929C20.3571 12.6429 20.3571 13.2857 20.3571 14.0357C20.3571 14.0357 19.9286 14.0357 19.3929 14.25C18.8571 14.4643 18 14.7857 18 15C18 15.1071 18.2143 15 18.4286 15C18.5357 15 18.75 15 18.8571 15C19.1786 15 19.3929 15.1071 19.5 15.2143C19.5 15.2143 19.1786 15.4286 18.6429 15.8571C18.3214 16.1786 17.8929 16.6071 18.1071 16.8214C18.1071 16.8214 18.3214 16.8214 18.5357 16.8214C19.1786 16.5 19.9286 16.3929 20.6786 16.6071C21.75 17.0357 22.3929 17.6786 22.9286 18.8571C23.0357 19.1786 23.1429 19.6071 23.25 20.0357C23.4643 21.2143 23.25 22.6071 22.1786 23.8929C21.75 24.4286 21.3214 24.8571 20.8929 25.2857C19.5 26.4643 18.75 26.5714 18.6429 26.4643C18.6429 26.4643 18.8571 26.25 19.2857 25.9286C20.3571 25.1786 21.4286 24.3214 22.2857 23.25C22.2857 23.25 21.1071 24.1071 20.0357 24C19.7143 24 19.3929 23.7857 19.0714 23.5714H18.9643C18.8571 23.7857 18.9643 24.1071 19.0714 24.3214C19.0714 24.5357 19.2857 24.6429 19.2857 24.6429C19.2857 24.6429 19.2857 24.6429 18.8571 24.6429C18.6429 24.6429 18.5357 24.6429 18.4286 24.5357C18.4286 24.5357 18.4286 24.8571 18.6429 25.0714C18.8571 25.2857 19.1786 25.3929 19.1786 25.3929C19.1786 25.3929 18.8571 25.5 18.2143 25.5C18 25.5 17.7857 25.5 17.5714 25.5C17.3571 25.5 17.25 25.5 17.1429 25.5C17.0357 25.6071 17.1429 25.8214 17.3571 25.9286C17.3571 25.9286 17.3571 25.9286 17.4643 26.0357C17.6786 26.25 17.7857 26.25 17.7857 26.25C17.7857 26.25 17.7857 26.4643 17.1429 26.5714C16.8214 26.5714 16.5 26.5714 16.2857 26.5714C16.0714 26.5714 15.9643 26.5714 15.8571 26.5714C15.8571 26.7857 16.6071 27.5357 17.4643 27.5357C18.4286 27.5357 19.1786 27.2143 19.1786 27.2143C19.1786 27.2143 19.1786 27.4286 18.75 27.8571C18.5357 28.0714 18.4286 28.1786 18.3214 28.2857C18.3214 28.2857 18.2143 28.2857 18.3214 28.3929C18.4286 28.6071 19.0714 28.3929 21.1071 26.6786C21.2143 28.7143 23.1429 28.2857 23.1429 28.1786C23.1429 28.1786 23.1429 28.1786 22.9286 28.1786C22.7143 28.1786 22.6071 28.0714 22.5 27.9643C22.0714 27.6429 22.1786 27.5357 22.1786 27.5357C22.1786 27.5357 22.1786 27.5357 22.5 27.5357C22.7143 27.5357 22.8214 27.5357 22.8214 27.5357C22.6071 27.5357 22.2857 27.3214 22.0714 26.7857C22.0714 26.4643 22.0714 26.0357 22.2857 25.8214C24 23.6786 24.2143 22.5 24.3214 21.75C24.3214 21.4286 24.4286 20.6786 24.8571 20.1429C25.1786 19.6071 25.8214 19.1786 26.4643 19.0714C27 19.0714 27.2143 19.3929 27.3214 19.6071C27.5357 19.9286 27.4286 20.3571 27.3214 20.7857C27.3214 20.7857 27.2143 20.8929 27.1071 21C27.1071 21 27 21.1071 27 21.2143C27 21.2143 27 21.2143 27 21.3214C27 21.3214 27.2143 21.3214 27.3214 21.3214C27.3214 21.3214 27.4286 21.3214 27.5357 21.3214C27.5357 21.4286 27.5357 21.6429 27.1071 21.9643C27 22.0714 26.7857 22.1786 26.6786 22.1786C26.6786 22.1786 26.5714 22.1786 26.4643 22.1786C26.4643 22.1786 26.5714 22.2857 26.7857 22.2857H26.8929L26.6786 21.9643ZM27.4286 13.6071C27.4286 13.6071 27.75 13.6071 27.9643 13.3929C28.2857 13.1786 28.5 12.9643 28.3929 12.8571C28.3929 12.8571 28.1786 12.8571 28.0714 12.8571C27.8571 12.8571 27.5357 12.8571 27.2143 12.6429C26.6786 12.4286 26.25 12.1071 26.1429 11.6786C26.0357 11.3571 25.9286 10.9286 26.3571 10.5C27.4286 9.64286 28.0714 8.35714 28.0714 7.07143C28.0714 5.78571 27.6429 4.82143 27.3214 4.39286C27.3214 4.39286 27.3214 4.17857 27.2143 4.17857C27.2143 4.17857 27.2143 4.07143 27.4286 3.96429C27.5357 3.96429 27.75 3.75 27.9643 3.53571C28.1786 3.21429 28.2857 2.89286 28.2857 2.78571C28.2857 2.78571 28.1786 2.78571 28.0714 2.78571C27.9643 2.78571 27.75 3 27.5357 3C27.1071 3 26.5714 3 26.0357 2.89286H25.9286C25.2857 2.78571 24.5357 2.67857 23.8929 2.67857C22.2857 2.67857 20.6786 3.32143 19.6071 4.60714C18.3214 6 17.7857 8.14286 17.6786 8.57143L18.5357 9.10714C18.5357 9.10714 18.8571 9.10714 19.3929 9C19.7143 9 20.0357 9 20.25 9C20.3571 9 20.5714 9 20.5714 9C20.5714 8.78571 20.25 8.35714 19.8214 8.14286C19.5 8.03571 19.1786 7.92857 18.8571 8.14286C19.1786 7.39286 19.5 6.42857 19.9286 5.89286C20.5714 5.14286 21.8571 3.75 24 3.85714C26.25 3.85714 27.2143 5.67857 27.2143 7.39286C27.2143 8.14286 27 8.78571 26.5714 9.32143C26.1429 9.85714 25.6071 10.2857 24.8571 10.2857C23.7857 10.3929 22.8214 9.75 22.6071 8.67857C22.5 7.92857 22.6071 7.39286 22.9286 6.96429C23.1429 6.64286 23.5714 6.42857 24 6.42857C24.2143 6.42857 24.5357 6.42857 24.6429 6.64286C24.8571 6.85714 24.8571 7.07143 24.8571 7.28571C24.8571 7.82143 24.5357 7.92857 24.4286 8.03571C24.3214 8.03571 24.2143 8.03571 24.2143 8.14286C24.2143 8.14286 24.2143 8.25 24.3214 8.35714C24.4286 8.35714 24.75 8.46429 24.9643 8.35714C25.2857 8.25 25.6071 7.82143 25.6071 7.07143C25.6071 6.32143 24.9643 5.57143 24.1071 5.46429C23.3571 5.46429 22.6071 5.67857 22.0714 6.21429C21.9643 6.21429 21.75 6.10714 21.5357 6.10714C21.1071 6.10714 20.8929 6.10714 20.7857 6.21429C20.7857 6.21429 20.7857 6.21429 20.8929 6.32143C21 6.32143 21.1071 6.42857 21.3214 6.53571C21.5357 6.75 21.6429 6.96429 21.75 7.17857C21.6429 8.14286 21.75 9 22.2857 9.85714C23.1429 10.9286 24.2143 10.9286 24.75 10.9286C24.8571 10.9286 24.9643 10.9286 25.0714 10.9286C25.1786 10.9286 25.1786 11.1429 25.1786 11.1429C25.1786 11.1429 25.1786 11.3571 24.9643 11.4643C24.75 11.6786 24.6429 11.8929 24.75 12.3214C24.75 12.5357 24.9643 12.8571 25.0714 13.1786C25.2857 13.5 25.3929 13.8214 25.5 14.1429C25.5 14.6786 25.5 15.2143 25.5 15.75V15.9643C25.6071 15.9643 25.9286 15.75 26.1429 15.4286C26.25 15.2143 26.25 14.8929 26.25 14.6786C26.25 14.4643 26.25 14.3571 26.25 14.3571C26.6786 14.3571 26.7857 15.3214 26.6786 15.6429C26.6786 15.75 26.6786 15.8571 26.6786 15.9643C26.6786 15.9643 26.6786 16.0714 26.6786 16.1786C26.6786 16.1786 26.7857 16.1786 26.8929 16.1786C26.8929 16.1786 26.8929 16.1786 27 16.1786C27 16.1786 27 16.1786 27.1071 16.1786C27.1071 16.3929 27.1071 16.6071 26.7857 16.8214C26.7857 16.8214 26.7857 16.8214 26.6786 16.8214C26.4643 16.9286 26.3571 17.0357 26.3571 17.1429C26.5714 17.1429 27 17.1429 27.4286 16.8214C27.8571 16.3929 27.9643 15.9643 27.9643 15.1071C27.9643 14.5714 27.6429 14.0357 27.2143 13.6071H27.4286Z" fill="#990000"/>
</g>
<defs>
<clipPath id="clip0_3370_62">
<rect width="30" height="30" fill="white"/>
</clipPath>
</defs>
</svg>
