<svg width="30" height="30" viewBox="0 0 30 30" fill="none" xmlns="http://www.w3.org/2000/svg">
<path d="M8.78577 4.39279V19.9285C8.78577 19.9285 15.0001 18.5356 15.0001 24.3214V10.1785C15.0001 4.60707 8.78577 4.28564 8.78577 4.28564" fill="#231F1F"/>
<path d="M11.5715 3.32129V17.0356C11.5715 17.0356 15.0001 18.6427 15.0001 24.4284V10.2856C15.0001 4.71415 11.5715 3.32129 11.5715 3.32129Z" fill="#AAAAAA"/>
<path d="M15 10.1784V24.3212C15 24.3212 17.8929 16.2855 30 26.6784C30 22.9284 30 13.4998 30 10.2855C18.1071 1.60694 15 10.1784 15 10.1784Z" fill="#3978AD"/>
<path d="M0 20.7859H2.67857V17.3574H4.17857C6.53571 17.3574 7.82143 16.2859 7.82143 13.8216C7.82143 11.3574 6.32143 10.3931 4.07143 10.3931H0V20.7859ZM2.67857 12.6431H3.10714C4.17857 12.6431 5.03571 12.6431 5.03571 14.0359C5.03571 15.4288 4.07143 15.3216 3.10714 15.3216H2.67857V12.6431Z" fill="#3978AD"/>
<path d="M16.1785 20.7857H18.857L19.7142 14.8929L22.0713 20.7857H23.1428L25.7142 14.8929L26.4642 20.7857H29.1428L27.5356 10.5H24.857L22.7142 15.9643L20.5713 10.5H17.8928L16.1785 20.7857Z" fill="white"/>
</svg>
