<svg width="30" height="30" viewBox="0 0 30 30" fill="none" xmlns="http://www.w3.org/2000/svg">
<g clip-path="url(#clip0_3617_72)">
<path fill-rule="evenodd" clip-rule="evenodd" d="M10.141 15.4783C11.0865 15.8408 11.5298 16.9075 11.1676 17.8335C10.7852 18.7595 9.73839 19.2216 8.81279 18.8392C8.81279 18.8392 7.44418 18.2159 6.63908 17.7123C1.40588 14.4318 2.00978 9.66203 2.65408 6.78403C2.93578 5.51603 3.86178 2.81853 3.86178 2.81853C4.24418 1.89293 5.29058 1.43043 6.21628 1.81283C7.16208 2.17463 7.60468 3.24133 7.24288 4.16763C7.24288 4.16763 6.31688 6.64293 6.11558 7.76983C5.79348 9.58103 5.06909 12.6807 8.65189 14.7333C9.59769 15.2772 10.141 15.4783 10.141 15.4783Z" fill="#008CCC"/>
<path fill-rule="evenodd" clip-rule="evenodd" d="M11.8717 10.2455C11.7913 11.2321 10.9259 11.9759 9.91951 11.8962C8.91341 11.815 8.16851 10.9493 8.24931 9.94355C8.24931 9.94355 8.45061 8.45445 8.69191 7.54835C10.282 1.59095 15.0118 0.74575 17.9702 0.50405C19.2786 0.40375 22.116 0.50405 22.116 0.50405C23.1022 0.58485 23.8468 1.47045 23.7663 2.45625C23.6862 3.46265 22.8205 4.20725 21.8141 4.12715C21.8141 4.12715 19.1779 3.96625 18.0304 4.10695C16.2192 4.32805 13.0592 4.54995 12.1534 8.59515C11.9121 9.66185 11.8717 10.2455 11.8717 10.2455Z" fill="#5F4894"/>
<path fill-rule="evenodd" clip-rule="evenodd" d="M17.4067 10.1046C16.4205 10.3463 15.4343 9.76259 15.1929 8.79659C14.9508 7.83059 15.5348 6.84429 16.5012 6.58249C16.5012 6.58249 17.9701 6.30079 18.9159 6.22029C25.0742 5.77769 27.4092 9.98379 28.5967 12.7011C29.0999 13.8886 29.9454 16.6056 29.9454 16.6056C30.1868 17.5716 29.6035 18.5579 28.637 18.819C27.6706 19.0611 26.6848 18.477 26.4232 17.5114C26.4232 17.5114 25.7187 14.9755 25.2158 13.929C24.4103 12.2783 23.1625 9.36009 19.0564 9.82319C17.9699 9.94369 17.4067 10.1046 17.4067 10.1046Z" fill="#BB0E82"/>
<path fill-rule="evenodd" clip-rule="evenodd" d="M19.1375 15.3175C18.5942 14.4719 18.8554 13.3652 19.7013 12.8213C20.5465 12.278 21.6532 12.5396 22.1964 13.3847C22.1964 13.3847 22.9211 14.6927 23.2837 15.5786C25.5981 21.2947 22.3173 24.8164 20.1039 26.7691C19.1177 27.6345 16.8025 29.2654 16.8025 29.2654C15.9577 29.7881 14.8304 29.5468 14.2868 28.7012C13.7641 27.856 14.0051 26.7291 14.8506 26.1855C14.8506 26.1855 17.0446 24.7361 17.8897 23.9309C19.2183 22.6633 21.5929 20.5696 19.9022 16.8066C19.4592 15.8005 19.1375 15.3175 19.1375 15.3175Z" fill="#F57F29"/>
<path fill-rule="evenodd" clip-rule="evenodd" d="M14.6089 18.6985C15.2531 17.9139 16.3801 17.7931 17.165 18.4171C17.9503 19.061 18.0704 20.2081 17.4471 20.9725C17.4471 20.9725 16.4403 22.1001 15.716 22.704C11.0467 26.7492 6.65919 24.7771 4.10309 23.3078C2.95559 22.6635 0.661788 20.9725 0.661788 20.9725C-0.103312 20.3492 -0.224112 19.202 0.399488 18.4171C1.02399 17.652 2.17069 17.5312 2.95559 18.1552C2.95559 18.1552 5.04889 19.7655 6.07549 20.2886C7.70599 21.1338 10.4428 22.7239 13.4617 19.9069C14.2668 19.1613 14.6089 18.6985 14.6089 18.6985Z" fill="#2E953E"/>
</g>
<defs>
<clipPath id="clip0_3617_72">
<rect width="30" height="30" fill="white"/>
</clipPath>
</defs>
</svg>
