<svg width="30" height="30" viewBox="0 0 30 30" fill="none" xmlns="http://www.w3.org/2000/svg">
<g clip-path="url(#clip0_3370_105)">
<path d="M30 0H0V30H30V0Z" fill="#1A3E6E"/>
<path d="M16.9285 5.67871C22.9285 5.67871 27.107 9.75014 25.9285 15.0001C24.857 20.143 18.9642 24.2144 12.857 24.2144C6.7499 24.2144 2.67847 20.143 3.85704 15.0001C5.03561 9.75014 10.9285 5.67871 16.9285 5.67871ZM13.4999 21.1073C17.5713 21.1073 21.3213 18.2144 21.9642 15.0001C22.7142 11.5716 20.1428 8.78585 16.1785 8.78585C12.2142 8.78585 8.46418 11.5716 7.71418 15.0001C6.96418 18.3216 9.42847 21.1073 13.4999 21.1073Z" fill="white"/>
</g>
<defs>
<clipPath id="clip0_3370_105">
<rect width="30" height="30" fill="white"/>
</clipPath>
</defs>
</svg>
