<svg width="30" height="30" viewBox="0 0 30 30" fill="none" xmlns="http://www.w3.org/2000/svg">
<g clip-path="url(#clip0_3617_71)">
<path d="M24.7914 10.0932C23.7061 3.5251 17.4989 -0.922702 10.9292 0.163198C4.35832 1.2473 -0.0888782 7.4545 0.996422 14.0226C1.80672 18.9311 5.47752 22.6534 10.0235 23.7691C10.037 23.4123 10.0827 23.0554 10.1629 22.7012C6.90602 21.5573 4.33392 18.6554 3.71852 14.9204C2.82862 9.5369 6.33462 4.4736 11.548 3.6136C16.1935 2.8463 20.625 5.6752 22.1658 10.1083C23.2325 10.4888 24.1726 11.0817 24.95 11.8356C24.9393 11.2596 24.8879 10.6782 24.7914 10.0932Z" fill="#236294"/>
<path d="M22.2668 7.9398C17.272 6.5688 12.1109 9.5079 10.7418 14.5011C10.1754 16.5637 10.3459 18.6537 11.0907 20.4943C11.3628 20.1155 11.6689 19.776 12.006 19.4809C11.7795 18.3148 11.8061 17.076 12.1443 15.8444C13.2861 11.6863 17.4742 9.2092 21.5023 10.3148C25.53 11.4198 27.8699 15.6886 26.7294 19.8473C25.9534 22.6763 23.7637 24.7237 21.1765 25.3974C21.0811 25.7058 20.9587 26.0089 20.8117 26.3052C24.5216 25.8956 27.783 23.2821 28.8304 19.464C30.2002 14.4706 27.2606 9.3096 22.2668 7.9398Z" fill="#4D8D40"/>
<path d="M19.5437 17.698C16.4498 15.6699 12.2974 16.5344 10.2703 19.6281C8.2409 22.7213 9.10371 26.8737 12.1997 28.9026C15.2934 30.9315 19.4465 30.067 21.4746 26.9732C23.5029 23.8794 22.6378 19.7263 19.5437 17.698ZM19.9755 26.632C18.3752 29.0733 15.1607 29.7964 12.7954 28.2465C10.4301 26.6958 9.81 23.4599 11.412 21.0178C13.0139 18.5761 16.2279 17.853 18.592 19.4033C20.9564 20.9534 21.5763 24.1905 19.9755 26.632Z" fill="#E87825"/>
</g>
<defs>
<clipPath id="clip0_3617_71">
<rect width="30" height="30" fill="white"/>
</clipPath>
</defs>
</svg>
