<svg width="30" height="30" viewBox="0 0 30 30" fill="none" xmlns="http://www.w3.org/2000/svg">
<g clip-path="url(#clip0_3370_80)">
<path d="M5.57136 13.3927C7.1785 10.1784 9.74993 7.71409 12.8571 6.21409C13.1785 5.9998 13.6071 5.89266 13.9285 5.78551C2.99993 7.4998 -1.71435 21.2141 5.6785 26.9998C4.60708 25.4998 2.14279 20.4641 5.6785 13.3927M8.14279 22.4998C7.82136 20.6784 7.82136 18.8569 8.14279 17.1427C8.6785 13.6069 10.3928 10.3927 12.8571 7.92837C13.2856 7.4998 13.8214 7.07123 14.2499 6.64266C8.57136 9.21409 5.24993 15.6427 5.6785 21.4284C5.89279 24.1069 6.96422 29.0355 11.9999 29.9998C9.85708 28.4998 8.46422 25.1784 8.03565 22.6069M1.07136 9.32123C3.64279 5.67837 8.89279 3.21409 14.0356 3.85694C10.0714 2.67837 5.99993 3.42837 3.53565 5.46409C2.46422 6.32123 1.60708 7.82123 0.964219 9.32123M29.9999 13.9284C29.2499 5.57123 21.8571 -0.643057 13.6071 -0.000199854C10.7142 0.214086 7.71422 1.4998 5.35708 3.42837C7.28565 2.2498 9.96422 2.35694 11.5714 2.46409C12.4285 2.46409 13.2856 2.78551 14.0356 2.9998C14.7856 3.21409 15.6428 3.53551 16.3928 3.96409C16.8214 4.17837 17.1428 4.39266 17.4642 4.60694C18.8571 3.96409 20.2499 3.64266 21.6428 3.42837C21.6428 3.42837 21.8571 3.42837 21.8571 3.53551C21.8571 3.64266 21.8571 3.7498 21.7499 3.85694C20.9999 4.07123 20.2499 4.28551 19.4999 4.4998C20.5714 4.4998 21.5356 4.60694 22.6071 4.82123C22.6071 4.82123 22.8214 4.82123 22.8214 5.03551C22.8214 5.14266 22.7142 5.2498 22.6071 5.2498C21.7499 5.14266 20.7856 5.03551 19.9285 5.14266C20.3571 5.2498 20.7856 5.46409 21.2142 5.57123C21.9642 5.89266 22.7142 6.21409 23.4642 6.64266C23.4642 6.64266 23.5714 6.7498 23.4642 6.85694C23.4642 7.07123 23.2499 7.07123 23.1428 7.07123C22.4999 6.64266 21.7499 6.32123 20.9999 6.10694C20.6785 5.9998 20.3571 5.89266 20.0356 5.78551C20.5714 6.10694 21.1071 6.53551 21.5356 6.85694C22.1785 7.39266 22.7142 7.92837 23.2499 8.57123C23.2499 8.57123 23.2499 8.67837 23.2499 8.78551C23.2499 8.89266 23.0356 8.9998 22.9285 8.78551C22.3928 8.14266 21.8571 7.60694 21.2142 7.17837C20.8928 6.85694 20.4642 6.64266 20.0356 6.32123C20.1428 6.42837 20.2499 6.53551 20.3571 6.64266C20.8928 7.28551 21.4285 7.92837 21.8571 8.67837C22.2856 9.42837 22.6071 10.1784 22.9285 10.9284V11.1427C22.8214 11.2498 22.6071 11.1427 22.6071 11.1427C22.2856 10.3927 21.9642 9.64266 21.5356 8.9998C21.1071 8.35694 20.5714 7.71409 20.0356 7.07123C19.4999 6.53551 18.8571 5.9998 18.2142 5.46409C17.9999 5.35694 17.7856 5.14266 17.6785 5.03551C5.24993 11.9998 9.53565 30.3212 18.5356 29.3569C25.7142 27.6427 30.6428 20.8927 30.1071 13.3927M2.89279 11.5712C5.78565 6.96409 10.7142 5.03551 13.8214 4.71409C12.5356 4.60694 11.3571 4.71409 9.85708 5.03551C8.35708 5.35694 6.85708 5.9998 5.46422 6.85694C4.07136 7.71409 2.89279 8.78551 2.03565 10.0712C0.214219 12.6427 -0.428638 15.8569 0.321362 18.8569C0.321362 19.1784 0.642791 19.9284 0.749934 20.3569C0.321362 16.8212 1.39279 13.9284 2.89279 11.6784" fill="#E8171F"/>
</g>
<defs>
<clipPath id="clip0_3370_80">
<rect width="30" height="30" fill="white"/>
</clipPath>
</defs>
</svg>
