<svg width="30" height="30" viewBox="0 0 30 30" fill="none" xmlns="http://www.w3.org/2000/svg">
<g clip-path="url(#clip0_3370_35)">
<path d="M15 0C11.4643 0 8.25 1.17857 5.67857 3.21429H24.3214C21.75 1.17857 18.5357 0 15 0ZM4.82143 3.96429C3.96429 4.71429 3.21429 5.57143 2.67857 6.53571H27.4286C26.7857 5.57143 26.0357 4.71429 25.2857 3.96429H4.82143ZM2.14286 7.17857C1.60714 7.92857 1.28571 8.78571 0.964286 9.75H3.96429C3 7.28571 2.46429 7.17857 2.46429 7.17857H2.25H2.14286ZM6.96429 7.17857C7.71429 7.82143 8.35714 8.67857 8.89286 9.75H12.75V7.17857H7.07143H6.96429ZM17.1429 7.17857V9.75H20.8929L22.0714 7.17857H17.1429ZM27.6429 7.17857L26.4643 9.75H29.0357C28.7143 8.89286 28.2857 8.03571 27.8571 7.17857H27.6429ZM0.642857 10.5C0.428571 11.3571 0.214286 12.2143 0.107143 13.0714H5.03571C4.92857 12.75 4.71429 12.3214 4.60714 12C4.60714 12 4.60714 11.8929 4.60714 11.7857C4.5 11.3571 4.39286 10.9286 4.17857 10.5H0.642857ZM9.21429 10.5C9.32143 10.8214 9.53571 11.25 9.64286 11.5714C9.64286 11.5714 9.64286 11.6786 9.64286 11.7857C9.75 12.2143 9.96428 12.6429 10.0714 13.0714H12.6429V10.5H9.10714H9.21429ZM17.1429 10.5V13.0714H19.5L20.6786 10.5H17.25H17.1429ZM26.1429 10.5L24.9643 13.0714H29.8929C29.7857 12.2143 29.5714 11.3571 29.3571 10.5H26.1429ZM0 13.7143C0 14.1429 0 14.5714 0 15C0 15.4286 0 15.8571 0 16.2857H7.28571C6.53571 15.6429 5.89286 14.7857 5.35714 13.7143H0ZM10.2857 13.7143C11.25 16.1786 11.7857 16.1786 11.7857 16.1786H12.6429V13.6071H10.2857V13.7143ZM17.1429 13.7143V16.2857H18L19.1786 13.7143H17.25H17.1429ZM24.6429 13.7143L23.4643 16.2857H29.8929C29.8929 15.8571 29.8929 15.4286 29.8929 15C29.8929 14.5714 29.8929 14.1429 29.8929 13.7143H24.6429ZM0.107143 17.0357C0.214286 17.8929 0.428571 18.75 0.642857 19.6071H12.6429V17.0357H0.107143ZM17.1429 17.0357V19.6071H29.25C29.4643 18.75 29.6786 17.8929 29.7857 17.0357H17.1429ZM0.964286 20.25C1.28571 21.1071 1.71429 21.9643 2.14286 22.8214H12.6429V20.25H0.964286ZM17.1429 20.25V22.8214H27.8571C28.3929 22.0714 28.7143 21.2143 29.0357 20.25H17.1429ZM2.67857 23.4643C3.32143 24.4286 4.07143 25.2857 4.82143 26.0357H12.6429V23.4643H2.67857ZM17.1429 23.4643V26.0357H25.1786C26.0357 25.2857 26.7857 24.4286 27.3214 23.4643H17.1429ZM5.67857 26.7857C8.25 28.8214 11.4643 30 15 30C18.5357 30 21.75 28.8214 24.3214 26.7857H5.67857Z" fill="#26509E"/>
</g>
<defs>
<clipPath id="clip0_3370_35">
<rect width="30" height="30" fill="white"/>
</clipPath>
</defs>
</svg>
