<svg width="30" height="30" viewBox="0 0 30 30" fill="none" xmlns="http://www.w3.org/2000/svg">
<path d="M15 30C23.2843 30 30 23.2843 30 15C30 6.71573 23.2843 0 15 0C6.71573 0 0 6.71573 0 15C0 23.2843 6.71573 30 15 30Z" fill="black"/>
<path d="M20.3642 14.2174C20.2677 14.1731 20.1696 14.1306 20.0703 14.0898C19.8972 11.0421 18.1552 9.29736 15.23 9.27951C15.2168 9.27943 15.2036 9.27943 15.1903 9.27943C13.4407 9.27943 11.9856 9.99333 11.09 11.2924L12.6987 12.3473C13.3678 11.377 14.4178 11.1701 15.1911 11.1701C15.2 11.1701 15.209 11.1701 15.2178 11.1702C16.181 11.1761 16.9078 11.4437 17.3782 11.9658C17.7205 12.3458 17.9494 12.871 18.0628 13.5338C17.2089 13.3951 16.2854 13.3524 15.2981 13.4065C12.517 13.5597 10.7291 15.1102 10.8492 17.2647C10.9101 18.3575 11.4797 19.2977 12.4528 19.9119C13.2756 20.4311 14.3354 20.685 15.4367 20.6275C16.8912 20.5513 18.0322 20.0208 18.8282 19.0508C19.4328 18.3142 19.8152 17.3596 19.984 16.1568C20.6771 16.5567 21.1909 17.083 21.4746 17.7156C21.957 18.7909 21.9851 20.558 20.4768 21.9986C19.1553 23.2606 17.5667 23.8066 15.166 23.8235C12.5029 23.8046 10.4889 22.9882 9.17945 21.3969C7.95324 19.9068 7.31953 17.7546 7.29588 14.9999C7.31953 12.2452 7.95324 10.093 9.17945 8.60291C10.4889 7.01164 12.5029 6.19524 15.166 6.17633C17.8483 6.19539 19.8975 7.01571 21.2571 8.61466C21.9237 9.39877 22.4263 10.3848 22.7577 11.5346L24.6429 11.0537C24.2413 9.63857 23.6093 8.41909 22.7493 7.40774C21.0063 5.35782 18.4571 4.30742 15.1725 4.28564H15.1594C11.8815 4.30735 9.36088 5.36174 7.66752 7.41949C6.16066 9.25064 5.38338 11.7986 5.35726 14.9924L5.35718 14.9999L5.35726 15.0075C5.38338 18.2013 6.16066 20.7493 7.66752 22.5804C9.36088 24.6381 11.8815 25.6926 15.1594 25.7142H15.1725C18.0867 25.6949 20.1409 24.9656 21.8331 23.3494C24.0471 21.235 23.9804 18.5846 23.2507 16.9576C22.7272 15.7909 21.7291 14.8433 20.3642 14.2174ZM15.3326 18.7396C14.1137 18.8052 12.8474 18.2822 12.785 17.162C12.7387 16.3314 13.4033 15.4046 15.4074 15.2942C15.6369 15.2816 15.8621 15.2754 16.0834 15.2754C16.8113 15.2754 17.4924 15.343 18.1115 15.4724C17.8806 18.2293 16.526 18.6769 15.3326 18.7396Z" fill="white"/>
</svg>
