<svg width="30" height="30" viewBox="0 0 30 30" fill="none" xmlns="http://www.w3.org/2000/svg">
<path d="M8.29427 18.2919C8.02445 18.0293 7.74471 17.6528 7.5678 17.3198C7.54394 17.2749 7.46547 17.1367 7.47379 17.0967L9.1699 16.2209C9.19682 16.2098 9.24958 16.1978 9.27402 16.2119C9.28446 16.218 9.36536 16.3881 9.38854 16.4242C9.81457 17.0873 10.5433 17.6728 11.382 17.4121C11.9071 17.2488 12.0403 16.6297 11.6939 16.2242C11.314 15.7795 10.0844 15.4278 9.51842 15.1459C8.36367 14.5706 7.65441 13.7035 7.79409 12.3408C7.98235 10.5041 9.82005 9.78221 11.4658 10.0562C12.5985 10.2449 13.4281 11.0197 13.9124 12.0294L13.9045 12.0701L12.2346 13.0027C12.2139 13.0066 12.2027 13.0003 12.188 12.9867C12.1649 12.9653 12.1036 12.8107 12.0753 12.7645C11.7342 12.2075 11.2716 11.7737 10.5657 11.8585C9.99556 11.9269 9.78421 12.5282 10.1319 12.9692C10.4751 13.4044 11.5718 13.7574 12.0953 14.0045C13.321 14.583 14.1551 15.3504 14.0622 16.8224C13.8886 19.5764 9.95818 19.9113 8.29427 18.2919Z" fill="#252122"/>
<path d="M6.70926 13.2096L4.6041 13.5764C4.53619 13.144 4.46654 12.6213 4.21148 12.2543C3.9122 11.8237 3.22501 11.8222 2.84897 12.149C2.21345 12.7012 2.20203 14.3935 2.24238 15.1804C2.28992 16.1076 2.52019 17.6466 3.80976 17.3685C4.49994 17.2197 4.59677 16.198 4.70923 15.6334L6.78982 15.9444C6.80728 15.9559 6.80486 15.9732 6.80411 15.9909C6.79991 16.0893 6.74145 16.2922 6.71733 16.4001C6.31215 18.2126 5.36049 19.2768 3.41523 19.2393C0.487636 19.1829 -0.0840696 16.5597 0.00931584 14.1264C0.072865 12.4705 0.680519 10.679 2.41857 10.1554C3.16699 9.92997 4.31091 9.95048 5.02922 10.2722C6.18253 10.7886 6.56819 12.0466 6.70926 13.2096Z" fill="#252122"/>
<path d="M27.9872 12.0614V19.0956H25.7541V12.0614H23.7682V10.1633H29.957C29.9611 10.1633 29.9698 10.1445 29.9812 10.1541C30.0234 10.183 29.9815 10.3562 29.9802 10.4098C29.968 10.9084 29.967 11.4441 29.9802 11.9425C29.9809 11.9676 30.0132 12.0614 29.973 12.0614H27.9872Z" fill="#252122"/>
<path d="M19.8531 13.0335L22.851 12.3644L20.7933 14.6366L22.867 16.9421L19.854 16.2739L18.9672 19.223L18.0506 16.2632L15.0513 16.942L17.1226 14.6505L15.0673 12.3644L18.0507 13.0269L18.9511 10.0835L19.8531 13.0335Z" fill="#D01C27"/>
</svg>
