<svg width="30" height="30" viewBox="0 0 30 30" fill="none" xmlns="http://www.w3.org/2000/svg">
<path d="M9.85718 23.6788C10.3929 24.9645 10.9286 26.2502 11.6786 27.4288C12.2143 28.2859 12.75 29.1431 13.3929 29.8931C19.3929 28.3931 24.6429 25.2859 28.7143 21.0002C27.75 18.7502 26.4643 16.7145 24.9643 14.8931C21.2143 19.3931 15.9643 22.6074 9.85718 23.5716V23.6788Z" fill="#16AB03"/>
<path d="M13.2857 0C11.8929 1.92857 10.7143 4.07143 9.85718 6.32143C15.8572 7.28571 21.2143 10.5 24.9643 15C26.4643 13.1786 27.75 11.1429 28.7143 8.89286C24.5357 4.60714 19.1786 1.5 13.2857 0Z" fill="#5E33BF"/>
<path d="M9.85705 23.6788C8.03562 18.8574 7.82133 13.6074 9.10705 8.46449C9.32133 7.7145 9.53562 6.9645 9.85705 6.2145C8.46419 6.00021 7.07133 5.89307 5.67848 5.89307C4.28562 5.89307 3.64276 5.89307 2.67848 6.10735C1.07133 11.7859 0.964191 18.0002 2.67848 23.8931C3.64276 24.0002 4.71419 24.1074 5.67848 24.1074C6.64276 24.1074 8.46419 24.0002 9.85705 23.7859V23.6788Z" fill="black"/>
</svg>
