<svg width="30" height="30" viewBox="0 0 30 30" fill="none" xmlns="http://www.w3.org/2000/svg">
<g clip-path="url(#clip0_3366_87)">
<path d="M15 30C23.2843 30 30 23.2843 30 15C30 6.71573 23.2843 0 15 0C6.71573 0 0 6.71573 0 15C0 23.2843 6.71573 30 15 30Z" fill="#1185FE"/>
<path d="M8.92257 7.72851C11.3808 9.6174 14.0253 13.4391 14.9928 15.4891C15.9603 13.4391 18.6048 9.6174 21.063 7.72851C22.8404 6.36675 25.7142 5.31249 25.7142 8.66564C25.7142 9.33187 25.3415 14.2884 25.1194 15.0864C24.3525 17.8831 21.5647 18.5933 19.085 18.1613C23.4209 18.9154 24.5245 21.412 22.1452 23.9086C17.623 28.6527 15.645 22.7152 15.1361 21.1997C15.043 20.9215 15 20.7897 15 20.8995C15 20.7897 14.957 20.9215 14.8638 21.1997C14.355 22.7225 12.3769 28.6527 7.85473 23.9086C5.47537 21.412 6.57189 18.9154 10.9149 18.1613C8.43523 18.5933 5.64738 17.8831 4.88054 15.0864C4.65837 14.2811 4.2857 9.33187 4.2857 8.66564C4.27136 5.31249 7.14522 6.36675 8.92257 7.72851Z" fill="white"/>
</g>
<defs>
<clipPath id="clip0_3366_87">
<rect width="30" height="30" fill="white"/>
</clipPath>
</defs>
</svg>
