<svg width="30" height="30" viewBox="0 0 30 30" fill="none" xmlns="http://www.w3.org/2000/svg">
<path d="M20.6785 24.5358H14.1428V5.46436H20.8928C27.6428 5.46436 29.8928 10.6072 29.8928 14.8929C29.8928 19.1786 27.5357 24.5358 20.5714 24.5358H20.6785ZM20.5714 7.60721H16.7143V22.5001H20.3571C25.1785 22.5001 27.3214 19.7144 27.3214 15.0001C27.3214 11.7858 25.7142 7.60721 20.6785 7.60721H20.5714Z" fill="#F36D21"/>
<path d="M4.92857 24.8573C3.21429 24.8573 1.60714 24.5359 0 23.8931L0.321429 21.4288C1.71429 22.2859 3.21429 22.7145 4.82143 22.7145C7.39286 22.7145 8.46429 21.2145 8.46429 19.8216C8.46429 16.2859 0.107143 15.7502 0.107143 10.3931C0.107143 5.03591 2.03571 5.2502 6.42857 5.2502C8.03571 5.2502 9.53571 5.57163 11.0357 6.10734V8.57163C9.53571 7.82163 8.03571 7.39306 6.42857 7.39306C3.75 7.39306 2.89286 8.89306 2.89286 10.2859C2.89286 13.9288 11.25 14.6788 11.25 19.7145C11.25 22.6073 8.89286 24.8573 4.82143 24.8573H4.92857Z" fill="#F36D21"/>
</svg>
