<svg width="30" height="30" viewBox="0 0 30 30" fill="none" xmlns="http://www.w3.org/2000/svg">
<g clip-path="url(#clip0_3372_240)">
<path d="M14.6785 0.000325751C10.3928 0.000325751 6.64275 2.89318 5.03561 6.64318H5.9999V8.57175C7.92847 7.1789 9.42847 6.64318 10.4999 6.64318C11.5713 6.64318 12.857 7.28604 13.0713 8.57175C14.8928 7.39318 16.4999 6.53604 17.7856 6.53604C19.7142 6.53604 20.5713 8.03604 20.5713 10.7146C20.5713 12.536 20.5713 14.1432 20.5713 15.8575C20.5713 16.3932 20.8928 16.8218 21.9642 16.8218H22.8213V17.6789H18.4285C18.4285 17.6789 18.4285 14.786 18.4285 12.8575V11.036C18.4285 8.89318 17.9999 8.03604 16.7142 8.03604C15.4285 8.03604 14.9999 8.35747 13.3928 9.4289V15.3218C13.3928 16.7146 13.7142 16.8218 14.9999 16.8218V17.6789H11.2499C11.2499 17.6789 11.2499 16.6075 11.2499 15.0003V10.0718C11.2499 8.35747 10.3928 7.9289 9.42847 7.9289C8.46418 7.9289 7.82132 8.14318 6.10704 9.4289V15.0003C6.10704 15.536 6.10704 15.9646 6.10704 16.1789C6.21418 16.6075 6.53561 16.7146 7.39275 16.7146V17.6789H4.17847C4.17847 23.2503 4.17847 29.8932 4.17847 29.8932C7.39275 21.3218 14.1428 21.8575 15.2142 21.8575C21.3213 21.7503 26.0356 16.7146 25.9285 10.6075C25.7142 4.60747 20.6785 -0.106817 14.6785 0.000325751Z" fill="#EBA900"/>
</g>
<defs>
<clipPath id="clip0_3372_240">
<rect width="30" height="30" fill="white"/>
</clipPath>
</defs>
</svg>
