<svg width="30" height="30" viewBox="0 0 30 30" fill="none" xmlns="http://www.w3.org/2000/svg">
<g clip-path="url(#clip0_3370_51)">
<path d="M8.89286 29.0355C8.89286 29.0355 8.78572 28.8212 8.67858 28.8212C8.67858 28.7141 7.28572 22.0712 7.28572 21.8569C7.28572 21.4284 7.5 21.3212 9.53572 20.7855C10.6071 20.4641 11.5714 20.2498 11.6786 20.2498C12.1071 20.2498 12.1071 20.2498 13.0714 24.6426C13.5 26.8926 13.9286 28.7141 13.8214 28.8212C13.7143 29.2498 13.5 29.2498 11.1429 29.2498C9.10715 29.2498 9 29.2498 8.78572 29.1426L8.89286 29.0355ZM21.9643 26.7855C21.1071 26.4641 19.6071 25.9284 18.75 25.6069C17.0357 24.9641 16.8214 24.8569 16.8214 24.4284C16.8214 24.3212 17.0357 23.3569 17.3571 22.2855C17.8929 20.2498 18 20.1426 18.4286 20.1426C18.8571 20.1426 25.3929 22.4998 26.1429 22.8212C26.4643 22.9284 26.5714 23.1426 26.5714 23.4641C26.5714 23.4641 26.1429 24.4284 25.6071 25.3926C24.6429 27.2141 24.4286 27.4284 24 27.4284C23.8929 27.4284 23.0357 27.1069 22.1786 26.7855H21.9643ZM2.35715 21.2141C2.14286 21.2141 0.107148 17.8926 5.03287e-06 17.5712C-0.107138 17.0355 5.10737e-06 16.9284 2.78572 14.5712C4.28572 13.2855 5.46429 12.3212 5.57143 12.2141C6 11.9998 6.21429 12.2141 7.71429 13.8212C9.10715 15.3212 9.21429 15.4284 9.10715 15.8569C9.10715 15.8569 5.14286 19.3926 3.00001 21.1069C2.78572 21.3212 2.46429 21.4284 2.25001 21.3212L2.35715 21.2141ZM23.8929 18.4284C23.8929 18.4284 23.0357 17.6784 22.1786 16.9284C20.5714 15.3212 20.5714 15.2141 20.7857 14.8926C20.7857 14.6784 27 9.5355 27.2143 9.42836C27.5357 9.32122 27.75 9.42836 28.8214 11.2498C29.3571 12.2141 29.8929 13.0712 29.8929 13.1784C30 13.6069 29.8929 13.8212 27.1071 16.1784C24.75 18.2141 24.2143 18.6426 24.1071 18.5355C24.1071 18.5355 24 18.5355 23.8929 18.5355V18.4284ZM7.92858 8.89265C6.00001 8.24979 4.28572 7.60693 4.07143 7.60693C3.75001 7.49979 3.53572 7.17836 3.64286 6.96408C3.75001 6.5355 5.57143 3.32122 5.67858 3.21408C5.67858 3.21408 6 3.10693 6.10715 3.10693C6.21429 3.10693 7.82143 3.64265 9.64286 4.17836C13.1786 5.35693 13.2857 5.46408 13.2857 5.89265C13.2857 6.32122 12.5357 8.99979 12.3214 9.74979C12.3214 9.96408 12 10.1784 11.6786 10.1784C11.5714 10.1784 9.85715 9.64265 7.92858 8.99979V8.89265ZM18.1071 9.85693C18.1071 9.85693 17.8929 9.74979 17.8929 9.64265C17.8929 9.42836 16.1786 1.82122 16.1786 1.49979C16.1786 1.49979 16.1786 1.28551 16.2857 1.17836C16.5 0.964076 16.7143 0.964076 19.0714 0.856934C20.8929 0.856934 21 0.856934 21.2143 1.17836C21.4286 1.39265 22.7143 8.14265 22.7143 8.35693C22.7143 8.46408 22.6071 8.57122 22.5 8.67836C22.3929 8.7855 18.6429 9.96408 18.3214 9.96408C18.3214 9.96408 18.1071 9.96408 18 9.96408L18.1071 9.85693Z" fill="#DC4405"/>
</g>
<defs>
<clipPath id="clip0_3370_51">
<rect width="30" height="30" fill="white"/>
</clipPath>
</defs>
</svg>
