<svg width="30" height="30" viewBox="0 0 30 30" fill="none" xmlns="http://www.w3.org/2000/svg">
<g clip-path="url(#clip0_3479_395)">
<circle cx="15" cy="15" r="15" fill="#007EBB"/>
<path fill-rule="evenodd" clip-rule="evenodd" d="M24 24H20.3016V17.7007C20.3016 15.9736 19.6453 15.0085 18.2783 15.0085C16.7912 15.0085 16.0143 16.0129 16.0143 17.7007V24H12.45V12H16.0143V13.6164C16.0143 13.6164 17.0859 11.6334 19.6324 11.6334C22.1777 11.6334 24 13.1877 24 16.4023V24ZM8.19785 10.4287C6.98379 10.4287 6 9.43719 6 8.21435C6 6.99151 6.98379 6 8.19785 6C9.41191 6 10.3951 6.99151 10.3951 8.21435C10.3951 9.43719 9.41191 10.4287 8.19785 10.4287ZM6.35742 24H10.074V12H6.35742V24Z" fill="white"/>
</g>
<defs>
<clipPath id="clip0_3479_395">
<rect width="30" height="30" fill="white"/>
</clipPath>
</defs>
</svg>
