<svg width="30" height="30" viewBox="0 0 30 30" fill="none" xmlns="http://www.w3.org/2000/svg">
<g clip-path="url(#clip0_3372_241)">
<path d="M30 0H0V30H30V0Z" fill="black"/>
<path d="M12.1122 19.1608L16.0921 15.0603C16.4539 14.6985 16.9363 14.3367 16.9363 13.8543C16.9363 13.3719 16.2127 13.1307 15.4891 13.1307H14.8861V11.6834H22.6046V13.1307C20.675 13.2513 19.3484 14.2161 17.7805 15.7839L15.8509 17.7136L20.1926 23.2613C21.1574 24.4673 22.1222 25.4322 23.6901 25.5528V27H15.8509V25.5528H16.2127C16.5745 25.5528 17.4187 25.5528 17.4187 24.8291C17.4187 24.1055 16.9363 23.7437 16.6951 23.5025L13.68 19.6432L11.9916 21.4523V24.4673C11.9916 25.5528 12.3534 25.5528 13.077 25.5528H13.68V27H6.32324V25.5528H7.77048C8.49409 25.5528 8.97651 25.5528 8.97651 24.4673V5.77387C8.97651 5.17085 8.6147 5.05025 7.40867 5.05025H6.20264V3.48241L11.7504 3V19.1608H11.9916H12.1122Z" fill="white"/>
</g>
<defs>
<clipPath id="clip0_3372_241">
<rect width="30" height="30" fill="white"/>
</clipPath>
</defs>
</svg>
