<svg width="30" height="30" viewBox="0 0 30 30" fill="none" xmlns="http://www.w3.org/2000/svg">
<g clip-path="url(#clip0_3370_82)">
<path d="M15 30C23.2843 30 30 23.2843 30 15C30 6.71573 23.2843 0 15 0C6.71573 0 0 6.71573 0 15C0 23.2843 6.71573 30 15 30Z" fill="#641B36"/>
<mask id="mask0_3370_82" style="mask-type:luminance" maskUnits="userSpaceOnUse" x="0" y="0" width="30" height="30">
<path d="M15 30C23.2843 30 30 23.2843 30 15C30 6.71573 23.2843 0 15 0C6.71573 0 0 6.71573 0 15C0 23.2843 6.71573 30 15 30Z" fill="white"/>
</mask>
<g mask="url(#mask0_3370_82)">
<path fill-rule="evenodd" clip-rule="evenodd" d="M7.28565 30.6428C3.53565 26.5713 3.85708 20.3571 7.82137 16.6071C11.8928 12.8571 18.1071 13.1785 21.8571 17.1428C25.3928 20.8928 25.3928 26.7856 21.8571 30.5356H7.28565V30.6428Z" fill="#A5204A"/>
<path d="M14.5713 32.7857C19.4827 32.7857 23.4642 28.8042 23.4642 23.8929C23.4642 18.9815 19.4827 15 14.5713 15C9.65993 15 5.67847 18.9815 5.67847 23.8929C5.67847 28.8042 9.65993 32.7857 14.5713 32.7857Z" fill="#FEECA8"/>
<path fill-rule="evenodd" clip-rule="evenodd" d="M21.7499 11.7856C21.7499 11.7856 20.1428 12.6428 19.7142 12.6428C19.2856 12.6428 17.6785 11.7856 17.6785 11.7856V13.9285C19.1785 14.3571 20.5713 15.2142 21.7499 16.2856V11.8928V11.7856Z" fill="#4AC1BA"/>
<path fill-rule="evenodd" clip-rule="evenodd" d="M19.2856 22.286C20.4642 20.786 21.3214 19.0717 21.9642 17.3574C24.3214 19.9289 25.0714 23.5717 23.9999 26.8931L19.2856 22.286Z" fill="#A5204A"/>
<path fill-rule="evenodd" clip-rule="evenodd" d="M5.35706 27.5357C3.42849 22.3928 5.89278 16.7142 11.0356 14.6785C14.6785 13.2857 18.9642 14.1428 21.6428 16.9285C19.4999 23.8928 12.6428 28.3928 5.35706 27.4285V27.5357Z" fill="#A5204A"/>
<path fill-rule="evenodd" clip-rule="evenodd" d="M17.25 26.0356C17.25 26.0356 17.25 25.8214 17.25 25.7142C17.25 25.0714 17.7857 24.5356 18.5357 24.5356C19.1786 24.5356 19.7143 25.0714 19.7143 25.8214C19.7143 26.2499 19.5 26.6785 19.0714 26.8928C18.9643 26.3571 18.4286 25.9285 17.8929 25.9285C17.6786 25.9285 17.4643 25.9285 17.3571 26.0356H17.25Z" fill="#641B36"/>
<path fill-rule="evenodd" clip-rule="evenodd" d="M18.857 26.786C17.9999 26.786 17.0356 25.7146 17.1427 25.5003C17.2499 25.286 18.2141 25.8217 18.7499 25.8217C19.2856 25.8217 20.4641 25.3932 20.5713 25.5003C20.6784 25.6074 19.7141 26.786 18.857 26.786Z" fill="#641B36"/>
<path fill-rule="evenodd" clip-rule="evenodd" d="M3.32141 20.2503C3.32141 18.6431 4.60713 17.4645 6.21427 17.786C6.21427 17.786 12 18.6431 13.9286 19.7145H15.2143C17.1428 18.6431 22.7143 17.786 22.7143 17.786C24.3214 17.4645 25.6071 18.6431 25.6071 20.2503V34.5003H3.32141V20.2503Z" fill="#641B36"/>
<path fill-rule="evenodd" clip-rule="evenodd" d="M3.32141 19.8214C3.32141 18.9642 3.96427 18.3214 4.71427 18.2142C4.82141 18.2142 4.92855 18.2142 5.0357 18.2142C5.0357 18.2142 11.8928 19.1785 13.8214 20.3571H15.1071C17.0357 19.2857 23.6786 18.2142 23.6786 18.2142C24.5357 18 25.2857 18.5357 25.5 19.3928C25.5 19.5 25.5 19.6071 25.5 19.7142V34.3928H3.32141V19.7142V19.8214Z" fill="white"/>
<path fill-rule="evenodd" clip-rule="evenodd" d="M14.5714 34.5001V21.1072L3.75 19.1786C2.89286 19.0715 2.25 19.6072 2.25 20.4643V34.6072H14.5714V34.5001Z" fill="#4AC1BA"/>
<path fill-rule="evenodd" clip-rule="evenodd" d="M14.5714 34.4999V21.1071L25.3928 19.0714C26.0357 18.9642 26.7857 19.2856 26.8928 20.0356C26.8928 20.1428 26.8928 20.2499 26.8928 20.3571V34.4999H14.4642H14.5714Z" fill="#22AFA6"/>
<path fill-rule="evenodd" clip-rule="evenodd" d="M16.1785 34.4999V20.7856H12.9642V34.4999H16.1785Z" fill="#32BDB3"/>
</g>
</g>
<defs>
<clipPath id="clip0_3370_82">
<rect width="30" height="30" fill="white"/>
</clipPath>
</defs>
</svg>
